<?xml version="1.0" standalone="no"?>
<!DOCTYPE svg PUBLIC "-//W3C//DTD SVG 1.1//EN" "http://www.w3.org/Graphics/SVG/1.1/DTD/svg11.dtd" >
<svg xmlns="http://www.w3.org/2000/svg">
<metadata></metadata>
<defs>
<font id="diavlo_blackregular" horiz-adv-x="1536" >
<font-face units-per-em="2048" ascent="1536" descent="-512" />
<missing-glyph horiz-adv-x="573" />
<glyph unicode="ff" horiz-adv-x="1605" d="M457 1137v-285h458v305q0 59 -36.5 98t-92 54.5t-127.5 15.5q-88 0 -145 -53t-57 -135zM1462 1401q-88 0 -145 -53.5t-57 -135.5v-360h350q0 -5 -0.5 -14t-4.5 -35t-11 -49.5t-21 -52.5t-33.5 -50t-51 -35t-69.5 -14h-159v-616q-7 0 -19.5 0.5t-48.5 3.5t-68.5 8t-72 17 t-68.5 28t-48.5 42t-19.5 58v459h-458v-616q-7 0 -19.5 0.5t-48 3.5t-68 8t-72.5 17t-68.5 28t-48 42t-19.5 58v1049q0 115 77.5 205t197 135t255.5 45q232 0 363 -90q72 78 190.5 122t249.5 44q136 0 238.5 -34t148.5 -88.5t23 -129t-125 -148.5q0 72 -78.5 110t-190.5 38z " />
<glyph unicode="fi" horiz-adv-x="1390" d="M739 602h-282v-616q-7 0 -19.5 0.5t-48 3.5t-68 8t-72.5 17t-68.5 28t-48 42t-19.5 58v1125q0 116 78.5 205t206 134.5t280.5 45.5q226 0 368 -66t142 -160q0 -113 -148 -229q-1 58 -41.5 100.5t-102 63t-116.5 30t-102 9.5q-82 0 -151.5 -45t-69.5 -119v-385h282 q48 0 87.5 20t62.5 50t35 63t12 62v47q10 0 25.5 -0.5t50.5 -4t67.5 -9t70 -17.5t64.5 -28t45.5 -42t18.5 -57v-950q-7 0 -19.5 0.5t-48 3.5t-67.5 8t-71.5 17t-68 28t-48 42t-19.5 58v514q-59 -55 -197 -55z" />
<glyph unicode="fl" horiz-adv-x="1372" d="M905 332v1001q-41 34 -107.5 51t-138.5 17q-88 0 -145 -53.5t-57 -135.5v-360h309q0 -5 -0.5 -14t-4.5 -35t-11 -49.5t-21 -52.5t-33.5 -50t-51 -35t-69.5 -14h-118v-616q-7 0 -19.5 0.5t-48 3.5t-68 8t-72.5 17t-68.5 28t-48 42t-19.5 58v1125q0 71 29.5 133t80.5 107.5 t118.5 78t144.5 48.5t157 16q83 0 185 -15t197.5 -42t159.5 -70t64 -92v-1035q0 -32 0.5 -52.5t3 -55t7 -57.5t13.5 -50.5t22 -45t33.5 -30t45.5 -14.5q-24 -36 -47.5 -59t-49 -32.5t-43.5 -12t-46 -2.5q-94 0 -159.5 49t-94.5 125.5t-29 171.5z" />
<glyph unicode="ffi" horiz-adv-x="2174" d="M1481 1653q226 0 368 -66t142 -160q0 -113 -148 -229q-1 58 -41.5 100.5t-102 63t-116.5 30t-102 9.5q-82 0 -151.5 -45t-69.5 -119v-385h264q48 0 87 20t62 50t35 63t12 62v47q10 0 25.5 -0.5t50.5 -4t67.5 -9t70 -17.5t64.5 -28t45.5 -42t18.5 -57v-950q-7 0 -19.5 0.5 t-48 3.5t-67.5 8t-71.5 17t-68 28t-48 42t-19.5 58v514q-59 -55 -196 -55h-264v-616q-7 0 -19.5 0.5t-48.5 3.5t-68.5 8t-72 17t-68.5 28t-48.5 42t-19.5 58v459h-458v-616q-7 0 -19.5 0.5t-48 3.5t-68 8t-72.5 17t-68.5 28t-48 42t-19.5 58v1049q0 115 77.5 205t197 135 t255.5 45q235 0 363 -90q76 79 202 122.5t273 43.5zM457 1137v-285h458v313q0 82 -73 121t-183 39q-88 0 -145 -53t-57 -135z" />
<glyph unicode="ffl" horiz-adv-x="2174" d="M113 143v1049q0 115 77.5 205t197 135t255.5 45q232 0 363 -90q74 78 191.5 121t248.5 43q83 0 185 -15t197.5 -42t159.5 -70t64 -92v-1035q0 -32 0.5 -52.5t3 -55t7 -57.5t13.5 -50.5t22 -45t33.5 -30t45.5 -14.5q-24 -36 -47.5 -59t-49 -32.5t-43.5 -12t-46 -2.5 q-94 0 -159.5 49t-94.5 125.5t-29 171.5v1001q-41 34 -107.5 51t-138.5 17q-88 0 -145 -53.5t-57 -135.5v-360h309q0 -5 -0.5 -14t-4.5 -35t-11 -49.5t-21 -52.5t-33.5 -50t-51 -35t-69.5 -14h-118v-616q-7 0 -19.5 0.5t-48.5 3.5t-68.5 8t-72 17t-68.5 28t-48.5 42 t-19.5 58v459h-458v-616q-7 0 -19.5 0.5t-48 3.5t-68 8t-72.5 17t-68.5 28t-48 42t-19.5 58zM457 1137v-285h458v313q0 82 -73 121t-183 39q-88 0 -145 -53t-57 -135z" />
<glyph unicode="fj" horiz-adv-x="1370" d="M678 1401q-82 0 -151.5 -45t-69.5 -119v-385h262q48 0 87 20t62 50t35 63t12 62v47q10 0 25.5 -0.5t50.5 -4t67.5 -9t70 -17.5t64.5 -28t45.5 -42t18.5 -57v-1079q0 -144 -76.5 -245t-203.5 -101q-41 0 -73 5t-92 34t-122 83q59 0 105 30t71 76.5t37 93.5t12 89v735 q-59 -55 -196 -55h-262v-616q-7 0 -19.5 0.5t-48 3.5t-68 8t-72.5 17t-68.5 28t-48 42t-19.5 58v1125q0 116 78.5 205t206 134.5t280.5 45.5q226 0 368 -66t142 -160q0 -113 -148 -229q-1 58 -41.5 100.5t-102 63t-116.5 30t-102 9.5z" />
<glyph unicode=" "  horiz-adv-x="573" />
<glyph unicode="&#x09;" horiz-adv-x="573" />
<glyph unicode="&#xa0;" horiz-adv-x="573" />
<glyph unicode="!" horiz-adv-x="651" d="M539 1352v-3v-3v-3v-3v-3v-3v-3v-3v-3v-3v-3v-3v-3v-3v-3v-3v-3v-3v-3v-3v-3v-3v-4v-3v-3v-3v-3v-3v-3v-3v-3v-3v-3v-3v-3v-3v-3v-3v-3v-3v-3v-3v-3v-3v-3v-3v-3v-3v-3v-3v-3v-3v-3v-3v-3v-3v-3v-3v-3v-3v-3v-3v-3v-3v-3v-4v-3v-3v-3v-3v-3v-3v-3v-3v-3v-3v-3v-3v-3v-3 v-3v-3v-3v-3v-3v-3v-3v-3v-3v-3v-3v-3v-3v-3v-3v-3v-3v-3v-3v-3v-3v-3v-3v-3v-3v-3v-4v-3v-3v-3v-3v-3v-3v-3v-3v-3v-3v-3v-3v-3v-3v-3v-3v-3v-3v-3v-3v-3v-3v-3v-3v-3v-3v-3v-3v-3v-3v-3v-3v-3v-3v-3v-3v-3v-3v-3v-4v-3v-3v-3v-3v-3v-3v-3v-3v-3v-3v-3v-3v-3v-3v-3v-3v-3 v-3v-3v-3v-3v-3v-3v-3v-3v-3v-3v-3v-3v-3v-3v-3v-3v-3v-3v-3v-3v-3v-4v-3v-3v-3v-3v-3v-3v-3v-3v-3v-3v-3v-3v-3v-3v-3v-3v-3v-3v-3v-3v-3v-3v-3v-3v-3v-3v-3v-3v-3v-3v-3v-3v-3v-3v-3v-4v-3v-3v-3v-3v-3v-3v-3v-3v-3v-3v-3v-3v-3v-3v-3v-3v-3v-3v-3v-3v-3v-3v-3v-3v-3v-3 v-3v-3v-3v-3v-3v-3v-3v-3v-3v-4v-3v-3v-3v-3v-3v-3v-3v-3v-3v-3v-3v-3v-3v-3v-3v-3v-3v-3v-3v-3v-3v-3v-3v-3v-3v-3v-3v-3v-3v-3v-3v-3v-3v-3v-3v-3v-3v-3v-3v-3v-3v-3v-3v-3v-3v-3v-3v-3v-3v-3v-7h-2h-28.5t-51.5 2.5t-67.5 7.5t-68.5 16.5t-64 27t-44 41.5t-18 58v942 q7 0 19.5 -0.5t48 -3.5t68 -8t72.5 -17t68.5 -28t48 -42t19.5 -58zM219 82v229h191q44 0 78 -26t34 -56v-229h-186q-47 0 -82 24t-35 58z" />
<glyph unicode="&#x22;" horiz-adv-x="1005" d="M139 1241q0 42 -1 124.5t-1 125.5h142q92 0 125.5 -40.5t33.5 -111.5v-61q0 -57 -9.5 -104t-31.5 -89t-64 -66t-102 -24q-62 0 -102.5 25t-58.5 53q10 0 20.5 7t22 24t19 52.5t7.5 84.5zM604 1241q0 42 -1 124.5t-1 125.5h141q92 0 126 -40.5t34 -111.5v-61 q0 -57 -9.5 -104t-31.5 -89t-64 -66t-102 -24q-62 0 -102.5 25t-58.5 53q10 0 20.5 7t22 24t19 52.5t7.5 84.5z" />
<glyph unicode="#" horiz-adv-x="1468" d="M1288 823h-92l-55 -225h180q6 -39 6 -82q0 -33 -6.5 -61t-22 -55t-47.5 -42.5t-77 -15.5h-95l-88 -369q-31 4 -48.5 6.5t-49 8.5t-50.5 12t-44.5 17t-40.5 23t-30.5 30.5t-21.5 39.5t-6 49.5t9 61.5l28 121h-186l-88 -369q-31 4 -48.5 6.5t-49 8.5t-50.5 12t-45 17 t-41 23t-30.5 30.5t-21.5 39.5t-6 49.5t9 61.5l29 121h-176q-6 31 -6 76q0 32 6.5 60t22 57t48.5 46t80 17h86l56 225h-179q-6 31 -6 76q0 25 3.5 47.5t14 47.5t27.5 43t46 30t67 12h88l107 439q28 -4 43.5 -6t43.5 -7t44.5 -10t41.5 -13t39 -18t31.5 -23.5t26 -30.5 t15 -37.5t5.5 -46.5t-8 -56l-47 -191h186l107 439q28 -4 43.5 -6t44 -7t45 -10t41 -13t39 -18t32 -23.5t26 -30.5t15 -37.5t5.5 -46.5t-8 -56l-48 -191h179q6 -39 6 -82q0 -33 -6.5 -61t-22.5 -55t-48 -42.5t-77 -15.5zM668 823l-56 -225h187l55 225h-186z" />
<glyph unicode="$" horiz-adv-x="1366" d="M590 -111v91q-133 4 -238 32.5t-174 90.5t-69 149q0 97 92 211q0 -61 35.5 -106t96.5 -69t123.5 -35.5t133.5 -14.5v378q-178 30 -253 56q-187 67 -241 226q-24 72 -24 165q0 117 37.5 202t108 136.5t162 78t210.5 31.5v170q1 -2 15 0.5t36 -3.5t43 -15t36 -33.5 t15 -60.5v-58q229 -8 349 -70.5t120 -193.5q0 -100 -84 -241q2 10 2 28q0 57 -34 99.5t-93 66t-122 35.5t-138 16v-315q50 -8 80 -13.5t78.5 -17t80 -23.5t73 -33t68 -45t55.5 -59.5t45 -77.5t27 -97.5t11 -120.5q0 -210 -136 -328t-382 -137v-203h-15.5t-34.5 5.5 t-44.5 15.5t-35 32.5t-15.5 54.5zM889 424q0 65 -40 102.5t-114 59.5v-340q83 14 118.5 58.5t35.5 119.5zM436 1102q0 -59 39 -90.5t115 -50.5v288q-80 -8 -117 -40.5t-37 -106.5z" />
<glyph unicode="%" horiz-adv-x="1730" d="M770 1274v-223q0 -110 -95 -167t-259 -57q-166 0 -261.5 57t-95.5 167v223q0 107 97 168t260 61q162 0 258 -61t96 -168zM481 1104v127q0 33 -12.5 49t-52.5 16q-38 0 -52 -16t-14 -49v-127q0 -34 13.5 -51t52.5 -17q40 0 52.5 16.5t12.5 51.5zM1671 426v-223 q0 -110 -94.5 -166.5t-261.5 -56.5q-164 0 -258 56.5t-94 166.5v223q0 108 95 168.5t257 60.5q164 0 260 -60.5t96 -168.5zM1380 256v127q0 33 -13 49.5t-52 16.5q-38 0 -52 -16.5t-14 -49.5v-127q0 -34 13.5 -51t52.5 -17q40 0 52.5 16.5t12.5 51.5zM356 414l934 934 q6 -7 26 -27t27.5 -28t24 -27.5t23 -30t16.5 -29t11.5 -31.5t2.5 -31.5t-5.5 -34t-18 -34.5t-29.5 -37l-917 -919q-89 91 -112 124q-30 43 -30 74q0 50 47 97z" />
<glyph unicode="&#x26;" horiz-adv-x="1292" d="M920 344q-83 10 -143 29t-90.5 39t-48 46.5t-21 45t-3.5 41.5v63q-159 -27 -159 -174q0 -92 60 -146.5t183 -54.5q60 0 113.5 6t110.5 24t97.5 46.5t66.5 77.5t26 113q94 -104 109.5 -201t-40 -168t-181 -113.5t-302.5 -42.5q-268 0 -432 117t-164 311v62q0 97 56 191 t139 116q-71 23 -122.5 108.5t-51.5 174.5v51q0 190 159 298.5t416 108.5q249 0 389 -82.5t140 -211.5q0 -121 -135 -250q0 284 -394 284q-126 0 -175.5 -56.5t-49.5 -156.5q0 -88 31.5 -129.5t109.5 -48.5v234q11 0 29 -1.5t64.5 -11t82 -24.5t64.5 -47.5t29 -75.5v-74h196 q0 -10 -1 -26.5t-11 -58.5t-26.5 -75t-52.5 -62t-85 -32h-20v-80q0 -39 9.5 -85t18.5 -73z" />
<glyph unicode="'" horiz-adv-x="540" d="M139 1241q0 42 -1 124.5t-1 125.5h142q92 0 125.5 -40.5t33.5 -111.5v-61q0 -57 -9.5 -104t-31.5 -89t-64 -66t-102 -24q-62 0 -102.5 25t-58.5 53q10 0 20.5 7t22 24t19 52.5t7.5 84.5z" />
<glyph unicode="(" horiz-adv-x="753" d="M403 553q0 -143 11 -269.5t36.5 -243t64 -203.5t97 -144.5t131.5 -71.5q-2 -5 -7 -12.5t-23 -27.5t-40 -35t-59 -27.5t-79 -12.5q-82 0 -165.5 86t-149 226t-107 335.5t-41.5 399.5t41.5 400t107 337t149 227.5t165.5 86.5q42 0 79 -12t59.5 -29t39 -33.5t23.5 -28.5 l7 -12q-91 -17 -158.5 -99t-106.5 -213t-57 -286t-18 -338z" />
<glyph unicode=")" horiz-adv-x="753" d="M350 553q0 183 -18 338t-57 286t-106.5 213t-158.5 99q2 5 7 12.5t23.5 27.5t40 35t59 27.5t79.5 12.5q82 0 165.5 -86.5t149 -227.5t107 -337t41.5 -400t-41.5 -399.5t-107 -335.5t-149 -226t-165.5 -86q-42 0 -79 12t-60 29t-39.5 33.5t-23.5 28.5l-7 12 q73 14 131.5 71.5t97 144.5t64 203.5t36.5 243t11 269.5z" />
<glyph unicode="*" horiz-adv-x="905" d="M262 1176q-59 -2 -98.5 -22t-81.5 -81q-2 0 -8 19.5t-12.5 57.5t-6.5 77q0 55 46 97t143 42q50 0 94 -10q-19 43 -63.5 69t-124.5 41q3 5 8.5 12.5t24 27t38.5 34.5t51.5 27t63.5 12q23 0 47.5 -8t52.5 -27.5t49.5 -61t30.5 -100.5q25 39 25 107q0 66 -21 113 q73 0 141 -45.5t68 -120.5q0 -111 -96 -195q64 0 99.5 16.5t90.5 88.5q3 0 9 -18.5t12 -55t6 -74.5q0 -70 -57.5 -106.5t-135.5 -36.5q-41 0 -92 14q23 -50 67.5 -77t125.5 -34q-3 -5 -9 -12.5t-25 -26.5t-39.5 -34t-52 -27t-63.5 -12q-24 0 -47 7.5t-49.5 26.5t-49 60.5 t-36.5 101.5q-25 -42 -25 -94t25 -125q2 0 2 -2h-4q-12 0 -34 4t-53.5 16.5t-58.5 30.5t-46 50.5t-19 72.5q0 100 88 181z" />
<glyph unicode="+" horiz-adv-x="1112" d="M391 221v176h-272q-6 29 -6 68q0 33 6 62t21.5 59.5t48.5 48.5t81 18h121v256q61 13 131 13q51 0 91.5 -9t72 -38.5t31.5 -77.5v-144h276q6 -32 6 -75q0 -181 -153 -181h-129v-286q-59 -13 -127 -13q-52 0 -93.5 9t-73.5 38t-32 76z" />
<glyph unicode="," horiz-adv-x="536" d="M100 311h193q127 0 127 -106v-172q0 -172 -50 -251t-186 -79q-89 0 -153 59q39 10 66.5 35t39.5 52.5t17 59.5t4 53.5t-4 37.5z" />
<glyph unicode="-" horiz-adv-x="1007" d="M246 641h641q8 -33 8 -74t-9 -73.5t-40 -59t-82 -26.5h-645q-6 28 -6 65q0 30 5.5 56.5t18.5 53.5t41 42.5t68 15.5z" />
<glyph unicode="." horiz-adv-x="536" d="M117 82v229h190q45 0 79 -26t34 -56v-229h-187q-47 0 -81.5 24t-34.5 58z" />
<glyph unicode="/" horiz-adv-x="720" d="M6 -301l438 1890q12 -2 32 -6.5t70 -20.5t87 -36t63 -55t17 -74l-439 -1889q-6 1 -16.5 3t-41 10t-57.5 17.5t-59 26t-54 35t-34 44.5t-6 55z" />
<glyph unicode="0" horiz-adv-x="1421" d="M1305 1087v-686q0 -208 -160 -317t-432 -109q-275 0 -435.5 109t-160.5 317v686q0 207 161 316.5t435 109.5q272 0 432 -109.5t160 -316.5zM952 432v625q0 109 -56.5 158t-182.5 49q-129 0 -186.5 -49t-57.5 -158v-625q0 -110 57.5 -159.5t186.5 -49.5q126 0 182.5 49.5 t56.5 159.5z" />
<glyph unicode="1" horiz-adv-x="1218" d="M418 1489q112 0 224.5 7.5t169.5 14.5l56 7q-26 -176 -26 -256v-1004h348q1 -5 3 -14.5t6 -36.5t4.5 -51t-3.5 -54t-15 -51.5t-33.5 -36t-55.5 -14.5h-946q-8 42 -10 77t0.5 60t11.5 44.5t18 32.5t26 21.5t28.5 13t32.5 6.5t32 2.5t33 0.5h6h178v973q-4 -2 -39 -2h-49 q-99 0 -139.5 -48.5t-36.5 -162.5q-68 46 -111.5 100t-58 105.5t0.5 100t56 85t115.5 58.5t173.5 22z" />
<glyph unicode="2" horiz-adv-x="1329" d="M86 0v236q0 90 33.5 163t88 121t124.5 90t143 71.5t143 64.5t124.5 69.5t88 86t33.5 114.5v35q0 91 -56.5 146.5t-166.5 55.5q-56 0 -105 -6t-104 -24.5t-94 -49t-64.5 -84.5t-25.5 -126q-146 122 -146 249q0 128 141.5 214.5t397.5 86.5q255 0 415.5 -116.5 t160.5 -309.5v-81q0 -90 -34 -164.5t-89.5 -125t-126.5 -94t-144.5 -73t-144.5 -61t-126.5 -59t-89.5 -65t-34 -81.5v-25h590q72 0 130 15t80 31l23 15q0 -7 0.5 -18.5t-2 -44.5t-8.5 -63t-21 -67t-37 -63.5t-59 -44.5t-84 -18h-954z" />
<glyph unicode="3" horiz-adv-x="1329" d="M637 1253q-56 0 -105 -6t-104 -24.5t-94 -49t-64.5 -84.5t-25.5 -126q-70 67 -103.5 135t-31.5 128.5t38.5 113.5t102 91t165.5 60t222 22q257 0 416 -108.5t159 -298.5v-51q0 -89 -51.5 -174.5t-122.5 -108.5q83 -22 139 -115t56 -188v-61q0 -196 -164 -314.5 t-432 -118.5q-156 0 -272.5 32.5t-178 87.5t-82 125.5t8.5 150.5t102 157q21 -295 422 -295q123 0 183.5 56t60.5 149v12q0 31 -1 48.5t-10 47t-26.5 47t-53.5 33t-88 19.5q-20 2 -36 5t-39.5 17t-39 36t-27 64.5t-11.5 100.5v29h104q117 0 162 38t45 140q0 178 -223 178z " />
<glyph unicode="4" horiz-adv-x="1271" d="M4 365q6 117 80.5 273t171.5 292.5t209.5 271t182 207.5t102.5 104q6 0 17 -1t43 -4.5t60.5 -9.5t64 -18.5t60.5 -28t42.5 -40.5t17.5 -55v-746h192q0 -14 -1.5 -33t-12 -60t-29 -72t-57.5 -55.5t-92 -24.5v-385q-20 0 -46 1t-85.5 9.5t-104.5 23.5t-81 47t-36 76v228 h-698zM702 610v334q0 29 3 66.5t7 60.5l3 23q-33 -70 -74 -125q-111 -136 -233 -359h294z" />
<glyph unicode="5" horiz-adv-x="1280" d="M596 -25q-261 0 -401 85.5t-140 218.5q0 121 119 249q21 -295 422 -295q120 0 188 56t68 164v88q0 211 -240 211h-229q-78 0 -136.5 -3t-77.5 -5l-19 -3q18 109 18 205v3v3v3v3v3v3v3v3v3v3v3v3v3v3v3v3v3v3v3v3v3v3v3v3v3v3v3v3v3v3v3v3v3v3v3v3v3v3v3v3v3v3v3v3v3v3v3 v3v3v3v3v3v3v3v3v3v3v3v3v3v3v3v3v3v3v3v3v3v3v3v3v3v3v3v3v3v3v3v3v3v3v3v3v3v3v3v3v3v3v3v3v3v3v3v3v3v3v3v3v3v3v3v3v3v3v3v3v3v3v2v3v3v9q0 76 43 137.5t127 61.5h557q79 0 137.5 8.5t77.5 17.5l18 9q0 -12 -0.5 -23t-4 -43.5t-10.5 -58.5t-23 -59.5t-37 -56t-56 -38.5 t-79 -16h-398v-158l-6 -72h94q183 0 313.5 -43.5t206.5 -141.5t76 -247v-145q0 -139 -79 -241.5t-215.5 -154t-313.5 -51.5z" />
<glyph unicode="6" horiz-adv-x="1411" d="M1305 541v-140q0 -208 -160 -317t-432 -109q-275 0 -435.5 109t-160.5 317v686q0 207 161 316.5t435 109.5q194 0 328 -43.5t189 -115.5t33.5 -170t-124.5 -203q-3 51 -16.5 91.5t-34 69t-52 49t-64.5 32.5t-78 19t-86 9t-95 2q-131 0 -187.5 -44.5t-56.5 -151.5v-58 q0 -16 -2.5 -39t-4.5 -38l-3 -15q3 2 9.5 6.5t30.5 14.5t52.5 18t77.5 14.5t104 6.5q169 0 296 -46.5t201.5 -144t74.5 -235.5zM713 223q126 0 182.5 49.5t56.5 159.5v78q0 108 -54 157.5t-165 49.5q-124 0 -192 -45.5t-72 -149.5v-90q0 -110 57.5 -159.5t186.5 -49.5z" />
<glyph unicode="7" horiz-adv-x="1241" d="M860 1229h-622q-81 0 -140.5 -8.5t-78.5 -17.5l-19 -9v16q0 21 2 43t8.5 56.5t21.5 64t37.5 56.5t60 43t85.5 16h1022v-41q0 -135 -37 -260.5t-96.5 -224.5t-132 -192.5t-147 -182t-137 -174.5t-106 -188t-51.5 -206q-94 -40 -188 -40q-154 0 -154 131q0 83 30 166.5 t80.5 158.5t113 149.5t130 151.5t128.5 152.5t112.5 164.5t77.5 175z" />
<glyph unicode="8" horiz-adv-x="1421" d="M117 401v45q0 70 23.5 134.5t69.5 112.5t107 63q-66 23 -123 116.5t-57 182.5v32q0 138 74.5 235.5t202.5 144t299 46.5q169 0 296 -46.5t201 -144t74 -235.5v-32q0 -89 -55.5 -182.5t-122.5 -116.5q89 -23 144 -112.5t55 -197.5v-38q0 -209 -160.5 -321t-431.5 -112 q-275 0 -435.5 109t-160.5 317zM952 426q0 110 -56 157.5t-183 47.5q-130 0 -187 -48.5t-57 -162.5q0 -106 57 -151.5t187 -45.5q128 0 183.5 46t55.5 157zM489 1071q0 -107 45.5 -148.5t161.5 -41.5h33q113 0 158 41.5t45 148.5q0 106 -52.5 149.5t-166.5 43.5 q-117 0 -170.5 -43.5t-53.5 -149.5z" />
<glyph unicode="9" horiz-adv-x="1411" d="M106 948v139q0 208 160 317t432 109q275 0 435.5 -109t160.5 -317v-686q0 -207 -161 -316.5t-435 -109.5q-265 0 -411 76.5t-146 202.5q0 120 131 254q3 -51 16.5 -91.5t34 -69t52 -49t64.5 -32.5t78 -19t86 -9t95 -2q131 0 187.5 44.5t56.5 151.5v57q0 16 2.5 39.5 t5.5 38.5l2 15q-3 -2 -9.5 -6.5t-30.5 -14.5t-52.5 -18t-77.5 -14.5t-104 -6.5q-169 0 -296 46.5t-201.5 144t-74.5 235.5zM698 1266q-126 0 -182.5 -49.5t-56.5 -159.5v-78q0 -108 54 -157.5t165 -49.5q124 0 192 45.5t72 149.5v90q0 110 -57.5 159.5t-186.5 49.5z" />
<glyph unicode=":" horiz-adv-x="536" d="M147 82v229h191q45 0 79 -26t34 -56v-229h-187q-47 0 -82 24t-35 58zM147 745v230h191q45 0 79 -26t34 -56v-229h-187q-48 0 -82.5 23.5t-34.5 57.5z" />
<glyph unicode=";" horiz-adv-x="536" d="M147 745v230h191q45 0 79 -26t34 -56v-229h-187q-48 0 -82.5 23.5t-34.5 57.5zM131 311h193q127 0 127 -106v-172q0 -172 -50 -251t-186 -79q-90 0 -154 59q39 10 66.5 35t39.5 52.5t17 59.5t4 53.5t-4 37.5z" />
<glyph unicode="&#x3c;" horiz-adv-x="907" d="M418 530l356 -356q-78 -139 -170 -139q-27 0 -54 10.5t-56.5 33.5t-47.5 39.5t-49 47.5l-235 237q-70 70 -70 127t72 129l411 412q91 -51 130.5 -91t39.5 -77q0 -33 -25 -65.5t-81 -88.5l-8.5 -8.5l-7.5 -7.5z" />
<glyph unicode="=" horiz-adv-x="1007" d="M246 840h641q8 -33 8 -74q0 -66 -29 -113t-102 -47h-645q-6 29 -6 66q0 30 5.5 56.5t18.5 53.5t41 42.5t68 15.5zM246 453h641q8 -33 8 -74q0 -66 -29 -113t-102 -47h-645q-6 29 -6 66q0 30 5.5 56.5t18.5 53.5t41 42.5t68 15.5z" />
<glyph unicode="&#x3e;" horiz-adv-x="907" d="M133 174l356 356l-204 203q-6 6 -22 21.5t-21.5 21.5t-18.5 19t-18 19.5t-14 18t-12.5 18.5t-8.5 16.5t-6.5 18t-1.5 17.5q0 37 39.5 77t130.5 91l411 -412q72 -72 72 -129t-70 -127l-235 -237q-31 -31 -49 -47.5t-47.5 -39.5t-56.5 -33.5t-54 -10.5q-92 0 -170 139z" />
<glyph unicode="?" horiz-adv-x="1196" d="M573 1253q-57 0 -108.5 -10.5t-100 -34t-77.5 -70t-29 -110.5q-135 108 -135 229q0 109 116.5 182.5t333.5 73.5q168 0 296 -46t202 -138.5t74 -220.5v-51q0 -73 -27 -134t-70.5 -102.5t-96 -77t-105 -64t-96 -56t-70.5 -61t-27 -70.5v-78q-12 0 -33 1t-73.5 9.5 t-92.5 23t-73 47.5t-33 78v7q0 68 46 125.5t111 97.5t130.5 78.5t111.5 86.5t46 103q0 86 -56 134t-164 48zM352 82v229h191q44 0 78 -26t34 -56v-229h-186q-47 0 -82 24t-35 58z" />
<glyph unicode="@" horiz-adv-x="1935" d="M508 332q0 67 20.5 116.5t56.5 80t81 51.5t99.5 36.5t105 29.5t104.5 36t92 51q0 74 -29 98.5t-94 24.5q-233 0 -274 -199q-61 61 -85 109t-24 100q0 104 117 171t278 67q231 0 342 -99.5t111 -285.5v-129v-7q0 -20 -0.5 -35.5t-7.5 -49t-19.5 -59t-40.5 -57.5t-67 -53.5 t-102 -37.5t-142 -19q5 6 12 18.5t19 65.5t12 123v31q-20 -25 -54 -41t-67 -24.5t-63.5 -19t-49 -32.5t-18.5 -57q0 -61 67 -96t179 -35q95 0 166.5 15t130.5 51t90 102.5t31 161.5v288q0 72 -20 132.5t-62 110t-114.5 77.5t-168.5 28h-305q-96 0 -168 -28t-113.5 -77.5 t-62 -110t-20.5 -132.5v-573q0 -365 229 -365q90 0 166 31q0 -13 -5 -35.5t-25 -60t-51.5 -69t-93 -54.5t-141.5 -23q-99 0 -180.5 46.5t-134 123.5t-81 175t-28.5 204v627q0 157 84 284t247.5 203t379.5 76h305q162 0 296.5 -44t223.5 -120t138 -179t49 -220v-342 q0 -533 -768 -533q-553 0 -553 357z" />
<glyph unicode="A" horiz-adv-x="1480" d="M739 1544q20 -12 54 -42.5t85.5 -89.5t102 -132t104 -179.5t91.5 -221.5l180 -545q65 -201 95 -261q14 -30 30 -53q-105 -34 -162 -34q-35 0 -66.5 6t-55.5 14t-46 25.5t-37 30.5t-31 39t-25.5 42.5t-22 48.5t-18.5 48.5t-18 52.5l-30 90h-459l-31 -90q-45 -133 -78 -184 q-76 -118 -227 -123h-14q-24 0 -64 8.5t-68 17.5l-28 8q10 14 19 30t18.5 39t16 38t17.5 48l15.5 46.5t18.5 56t18 56.5l180 545q38 115 92 222t104 179.5t101.5 132t85 89.5t53.5 42zM739 1135q-73 -199 -104 -310l-53 -192h315l-53 192q-14 49 -40 126.5t-46 130.5z" />
<glyph unicode="B" horiz-adv-x="1331" d="M133 158v1331h514q103 0 187.5 -12t157 -41t122 -73.5t77.5 -112.5t28 -156v-41q0 -93 -47 -182.5t-117 -116.5q82 -33 133 -122t51 -188v-45q0 -105 -43 -182.5t-122.5 -124.5t-186 -69.5t-240.5 -22.5h-252q-5 0 -14.5 0.5t-37 3.5t-52 8.5t-55 17.5t-52 28t-36.5 42 t-15 58zM664 627h-179v-379h162q127 0 183.5 41.5t56.5 140.5q0 103 -53 150t-170 47zM647 1239h-162v-365h179q109 0 155.5 52t46.5 157q0 85 -52.5 120.5t-166.5 35.5z" />
<glyph unicode="C" horiz-adv-x="1470" d="M770 1253q-146 0 -225.5 -68t-79.5 -229v-421q0 -163 80 -232.5t225 -69.5q65 0 116 4t114.5 18.5t112.5 40t96.5 71.5t80.5 110q72 -127 59 -221.5t-97.5 -157t-208.5 -93t-273 -30.5q-109 0 -203.5 17t-179 57t-144.5 99.5t-95 150.5t-35 205v481q0 114 35 204.5 t95 150.5t145 99.5t179 56.5t203 17q85 0 163.5 -8.5t150 -28t128 -47.5t94.5 -69t52 -91t-2.5 -116t-65.5 -141q-104 241 -520 241z" />
<glyph unicode="D" horiz-adv-x="1554" d="M768 0h-375q-11 0 -28.5 1.5t-49.5 6t-61.5 15.5t-58 27t-45.5 44t-17 64v1331h635q110 0 203.5 -15t182.5 -52t151 -95.5t99.5 -152t37.5 -213.5v-433q0 -120 -37.5 -213.5t-99.5 -152t-151 -95.5t-182.5 -52t-203.5 -15zM768 1239h-283v-991h283q322 0 322 301v393 q0 297 -322 297z" />
<glyph unicode="E" horiz-adv-x="1277" d="M903 657h-418v-409h732q0 -9 -1.5 -23.5t-6.5 -46t-18 -60t-32.5 -56.5t-54 -45t-78.5 -17h-629q-6 0 -15.5 0.5t-36.5 3.5t-52 8.5t-55.5 17t-52.5 27.5t-37 42.5t-15 58.5v1331h1084q0 -5 -0.5 -14t-4.5 -35t-10.5 -49.5t-21 -52.5t-33.5 -50t-50.5 -35t-70.5 -14h-541 v-332h385q90 0 156.5 8.5t87.5 16.5l21 8q0 -47 -4.5 -84t-19 -76t-39 -64.5t-67.5 -42t-102 -16.5z" />
<glyph unicode="F" horiz-adv-x="1128" d="M823 657h-338v-677q-7 0 -20 0.5t-49.5 3.5t-69.5 8t-74 17t-70 28t-49 42t-20 58v1352h1022q0 -5 -0.5 -14t-4 -35t-10 -49.5t-21 -52.5t-33.5 -50t-50.5 -35t-70.5 -14h-480v-332h306q90 0 156 8.5t87 16.5l21 8q0 -47 -4.5 -84t-19 -76t-39 -64.5t-67.5 -42 t-102 -16.5z" />
<glyph unicode="G" d="M113 504v481q0 114 35 204.5t95 150.5t145 99.5t179 56.5t203 17q113 0 217 -18t190 -53.5t137.5 -95t51.5 -134.5q0 -87 -80 -200q-26 60 -71 105t-95 70.5t-114 40.5t-118.5 20t-117.5 5q-146 0 -225.5 -68t-79.5 -229v-421q0 -163 80 -232.5t225 -69.5q58 0 99.5 6 t82 23.5t65 48t39.5 81.5t15 122v18h-194q-107 0 -157 58.5t-50 214.5q57 -23 241 -23h512v-299q0 -112 -35 -199.5t-94.5 -145t-144.5 -95t-178 -53t-201 -15.5q-109 0 -203.5 17t-179 57t-144.5 99.5t-95 150.5t-35 205z" />
<glyph unicode="H" horiz-adv-x="1562" d="M1077 137v479h-592v-636q-7 0 -20 0.5t-49.5 3.5t-69.5 8t-74 17t-70 28t-49 42t-20 58v1372q7 0 20 -0.5t49.5 -3.5t69.5 -8t74 -17t70 -28t49 -42t20 -58v-484h592v641q7 0 20 -0.5t49.5 -3.5t70 -8t74 -17t70 -28t49.5 -42t20 -58v-1372q-7 0 -20 0.5t-49.5 3.5t-70 8 t-74 17t-70 28t-49.5 42t-20 58z" />
<glyph unicode="I" horiz-adv-x="618" d="M133 137v1372q7 0 20 -0.5t49.5 -3.5t69.5 -8t74 -17t70 -28t49 -42t20 -58v-1372q-7 0 -20 0.5t-49.5 3.5t-69.5 8t-74 17t-70 28t-49 42t-20 58z" />
<glyph unicode="J" horiz-adv-x="636" d="M504 1348v-1395q0 -152 -79 -256.5t-212 -104.5q-58 0 -109.5 13t-84 32t-56.5 37.5t-35 31.5l-10 13q62 0 110.5 32t74 81t38.5 98t13 93v1486q13 0 26.5 -0.5t51 -3.5t69 -8.5t71 -17.5t67 -28t46.5 -43t19 -60z" />
<glyph unicode="K" horiz-adv-x="1398" d="M485 655v-675q-7 0 -20 0.5t-49.5 3.5t-69.5 8t-74 17t-70 28t-49 42t-20 58v1372q7 0 20 -0.5t49.5 -3.5t69.5 -8t74 -17t70 -28t49 -42t20 -58v-447q204 75 420 463q43 78 118 111.5t153 33.5q28 0 71.5 -7t72.5 -14l30 -7q-36 -58 -89 -148.5t-85 -144.5t-80.5 -125 t-89 -117t-95.5 -92t-114 -76q76 -27 147 -83.5t124 -122.5t106 -149t89.5 -153t78 -145.5t69.5 -116.5q-125 -28 -174 -28q-80 0 -162 33.5t-127 111.5q-11 19 -38 67.5t-42.5 76.5t-45.5 75.5t-53 78t-57.5 70.5t-67 66.5t-74 51.5t-85.5 40z" />
<glyph unicode="L" horiz-adv-x="1181" d="M979 0h-582q-6 0 -15.5 0.5t-36.5 3.5t-52 8.5t-55.5 17t-52.5 27.5t-37 42.5t-15 58.5v1351q7 0 20 -0.5t49.5 -3.5t69.5 -8t74 -17t70 -28t49 -42t20 -58v-1104h420q88 0 154 9t88 19l22 9q0 -50 -2.5 -84.5t-13.5 -75.5t-31 -66t-56 -42t-87 -17z" />
<glyph unicode="M" horiz-adv-x="1763" d="M1278 137v529q0 44 7 101.5t13 92.5l7 35l-312 -662q-9 0 -24 1t-57 9t-79 22.5t-80.5 46.5t-70.5 75l-219 496q22 -117 22 -217v-686q-7 0 -20 0.5t-49.5 3.5t-69.5 8t-74 17t-70 28t-49 42t-20 58v1352h217q11 0 23 -0.5t44.5 -8t58.5 -20t56 -41t48 -67.5l301 -668 l376 805q373 0 373 -158v-1351q-7 0 -20 0.5t-49.5 3.5t-69.5 8t-74 17t-70 28t-49 42t-20 58z" />
<glyph unicode="N" horiz-adv-x="1564" d="M575 1360l533 -846q-29 137 -29 268v707q7 0 20 -0.5t49.5 -3.5t70 -8.5t74 -17t70 -27.5t49.5 -42.5t20 -58.5v-1351q-106 0 -190.5 16.5t-130 39.5t-75.5 46.5t-40 39.5l-9 17l-524 838q22 -127 22 -240v-757q-7 0 -20 0.5t-49.5 3.5t-69.5 8t-74 17t-70 28t-49 42 t-20 58v1352q61 0 98 -1t86.5 -4.5t82 -12t68 -22.5t61.5 -36t46 -53z" />
<glyph unicode="O" d="M1423 1004v-519q0 -245 -163 -377.5t-490 -132.5q-331 0 -494 132.5t-163 377.5v519q0 244 163 376.5t494 132.5q326 0 489.5 -133t163.5 -376zM1071 512v465q0 74 -12 122.5t-44 88t-93 58t-154 18.5t-154 -18.5t-93 -58t-44 -88t-12 -122.5v-465q0 -74 12 -123t44 -89 t93 -58.5t154 -18.5t154 18.5t93 58.5t44 89t12 123z" />
<glyph unicode="P" horiz-adv-x="1308" d="M133 137v1352h453q112 0 201.5 -12t176.5 -45t145.5 -87t94 -143.5t35.5 -208.5v-37q0 -503 -653 -503h-101v-473q-7 0 -20 0.5t-49.5 3.5t-69.5 8t-74 17t-70 28t-49 42t-20 58zM586 1239h-101v-537h101q59 0 99.5 5t81.5 21.5t65.5 45.5t39.5 79.5t15 121.5 q0 81 -21.5 135t-64 81t-93 37.5t-122.5 10.5z" />
<glyph unicode="Q" d="M1423 1004v-519q0 -206 -132.5 -336.5t-379.5 -164.5v-9q0 -63 48 -108.5t121 -66.5t159 -21q119 0 214.5 41.5t119.5 116.5q35 -71 35 -138q0 -125 -117.5 -196.5t-321.5 -71.5q-107 0 -204.5 27t-176 77t-125.5 130.5t-47 179.5v41q-250 32 -376.5 160.5t-126.5 338.5 v519q0 244 163 376.5t494 132.5q326 0 489.5 -133t163.5 -376zM1071 512v465q0 74 -12 122.5t-44 88t-93 58t-154 18.5t-154 -18.5t-93 -58t-44 -88t-12 -122.5v-465q0 -74 12 -123t44 -89t93 -58.5t154 -18.5t154 18.5t93 58.5t44 89t12 123z" />
<glyph unicode="R" horiz-adv-x="1325" d="M1219 1038q0 -167 -99 -278.5t-272 -114.5q73 -48 133 -108t105.5 -126.5t80.5 -127.5t79.5 -137t82.5 -130q-125 -32 -174 -32q-188 0 -278 145q-17 27 -52 90.5t-65 112t-72 106t-93.5 101.5t-109.5 69v-628q-7 0 -20 0.5t-49.5 4t-69.5 9.5t-74 17.5t-70 27.5 t-49 41.5t-20 56.5v1352h514q130 0 230.5 -20t179 -63.5t120.5 -120.5t42 -185v-62zM647 1239h-162v-371h179q110 0 156 48.5t46 152.5q0 96 -52 133t-167 37z" />
<glyph unicode="S" horiz-adv-x="1386" d="M72 1063q0 450 622 450q572 0 572 -266q0 -100 -84 -241q2 10 2 28q0 64 -47.5 110t-126 68t-155 31.5t-159.5 9.5q-127 0 -193.5 -32t-66.5 -119q0 -47 30 -78.5t81 -47t117 -26t139 -21.5t145.5 -27.5t138.5 -49.5t117 -82t81 -131t30 -190q0 -153 -84 -260.5 t-229.5 -159.5t-339.5 -52q-104 0 -200 16.5t-176.5 49t-128.5 87t-48 122.5q0 97 92 211q0 -53 32 -94.5t80 -65.5t113 -39t121.5 -20.5t114.5 -5.5q288 0 288 186q0 54 -30 90t-81 55.5t-116.5 32t-138.5 23.5t-146 26t-138.5 45t-116.5 74t-81 118.5t-30 174.5z" />
<glyph unicode="T" horiz-adv-x="1226" d="M991 1239h-205v-1259q-7 0 -20 0.5t-49.5 3.5t-69.5 8t-74 17t-70 28t-49 42t-20 58v1102h-196q-59 0 -102 16.5t-68 42t-40 64.5t-19.5 76t-4.5 84q98 -33 266 -33h688q75 0 141 8.5t95 16.5l29 8q0 -48 -4.5 -84.5t-18.5 -75.5t-38.5 -64.5t-68 -42t-102.5 -16.5z" />
<glyph unicode="U" d="M1423 1352v-889q0 -95 -34.5 -175.5t-95.5 -137.5t-143.5 -97t-178.5 -59t-201 -19q-106 0 -202.5 19t-180 59t-144.5 97t-95.5 137.5t-34.5 175.5v1046q7 0 20 -0.5t49.5 -3.5t69.5 -8t74 -17t70 -28t49 -42t20 -58v-858q0 -125 83.5 -193t221.5 -68q136 0 218.5 68.5 t82.5 192.5v1015q7 0 20 -0.5t49.5 -3.5t69.5 -8t74 -17t70 -28t49 -42t20 -58z" />
<glyph unicode="V" horiz-adv-x="1550" d="M774 -59q-24 17 -52.5 41.5t-84 84t-105.5 127.5t-107.5 174.5t-98.5 223.5l-193 561q-9 27 -31 93.5t-31.5 93t-26.5 64.5t-34 62q105 35 160 35q74 0 126.5 -21.5t87.5 -72t51.5 -86.5t42.5 -112q3 -10 5 -15l183 -532q23 -67 50 -133.5t42 -100.5l16 -33 q64 138 109 267l184 532q45 130 72 177q68 116 201 128q18 2 38 2q25 0 65.5 -8.5t68.5 -17.5l28 -9q-21 -32 -43.5 -86.5t-35.5 -94t-42 -132.5l-196 -561q-41 -117 -97.5 -223.5t-107 -175t-105 -126.5t-85.5 -84t-54 -42z" />
<glyph unicode="W" horiz-adv-x="2201" d="M774 -61q-13 11 -35 31.5t-84.5 88t-117 140.5t-117.5 184.5t-101 224.5l-186 545q-9 27 -31 93.5t-31.5 93t-26.5 64.5t-34 62q105 35 160 35q74 0 126.5 -21.5t87.5 -72t51.5 -86.5t42.5 -112q3 -10 5 -15l183 -532q13 -38 40.5 -103.5t48.5 -111.5l21 -46 q13 15 34 41.5t68.5 101.5t73.5 142q-69 287 -69 461q0 153 94 232t256 79q-14 -104 -14 -217q0 -135 21 -271.5t51.5 -234.5t61 -176.5t51.5 -118.5l21 -39q78 169 109 261l182 532q46 133 79 185q82 120 235 122q25 0 65.5 -8.5t68.5 -17.5l27 -9q-16 -24 -32 -61 t-26.5 -68t-30 -90t-31.5 -94l-191 -545q-39 -112 -100.5 -222.5t-121 -187.5t-113.5 -138t-87 -91l-33 -30q-9 7 -24 19t-57.5 52.5t-81 84t-84 110t-76.5 133.5q-36 -71 -83 -138t-88.5 -112t-77.5 -80.5t-57 -51.5z" />
<glyph unicode="X" horiz-adv-x="1396" d="M700 541q-176 -254 -258 -416q-40 -77 -114 -111t-150 -34q-28 0 -71.5 6.5t-72.5 13.5l-30 6q72 114 156.5 270.5t151.5 262t155 198.5q-89 115 -157 228.5t-144 251.5t-150 253q111 29 174 29q186 0 265 -145q178 -325 245 -420q76 107 244 420q75 145 266 145 q28 0 71.5 -7.5t72.5 -14.5l30 -7q-75 -115 -151 -253t-144.5 -251.5t-158.5 -228.5q89 -93 156 -198.5t151 -262t156 -270.5q-111 -26 -174 -26q-74 0 -150 34.5t-115 110.5q-21 40 -52.5 93t-57.5 94.5t-72.5 114.5t-71.5 114z" />
<glyph unicode="Y" horiz-adv-x="1376" d="M514 133v473q-89 94 -156 199.5t-105 192.5t-105 221t-144 254q111 28 174 28q191 0 264 -145l86 -172q114 -234 160 -316q19 34 41 78.5t49.5 104t44.5 94.5l115 233q62 123 242 123q91 0 192 -33q-63 -110 -132 -247.5t-111 -223.5t-111.5 -192.5t-153.5 -198.5v-626 q-7 0 -20 0.5t-49 3t-69 8t-73.5 17t-69.5 27t-49 41t-20 56.5z" />
<glyph unicode="Z" horiz-adv-x="1271" d="M1071 0h-1020q-8 119 17 223.5t75.5 186.5t115.5 156.5t141.5 150t147 149.5t139 171.5t112.5 201.5h-729q0 5 0.5 14t4 35t10 49.5t21 52.5t34.5 50t52 35t72 14h950q1 -124 -37 -248t-101 -228t-139.5 -201.5t-156 -180.5t-146.5 -152.5t-115.5 -130t-59.5 -100.5h538 q90 0 156.5 9t87.5 19l21 9q-3 -48 -8 -84t-18 -76t-32.5 -65.5t-53.5 -42.5t-79 -17z" />
<glyph unicode="[" horiz-adv-x="704" d="M133 -117v1606h561q0 -5 -0.5 -13.5t-4 -33t-10 -47t-21 -49.5t-34 -46.5t-51.5 -33t-71 -13.5h-64v-1290h64q53 0 92 -24.5t57 -55t29 -69.5t12.5 -57t1.5 -29h-327q-5 0 -13.5 0.5t-32.5 3.5t-46.5 8t-49.5 16.5t-46 27.5t-32.5 41.5t-13.5 57.5z" />
<glyph unicode="\" horiz-adv-x="800" d="M530 -397l-565 1951q40 14 88.5 24t107.5 14.5t104 -13t57 -59.5l563 -1948q-34 -11 -68 -20t-84 -16.5t-89 -5.5t-71.5 20t-42.5 53z" />
<glyph unicode="]" horiz-adv-x="702" d="M569 1489v-1606q0 -44 -24 -76t-58.5 -46.5t-68.5 -22.5t-58 -9l-24 -1h-326q0 10 2 29t13 57.5t29 69.5t56.5 55t90.5 24h63v1290h-63q-53 0 -92.5 24.5t-57.5 59t-28.5 69t-11.5 58.5l-1 25h559z" />
<glyph unicode="^" horiz-adv-x="1187" d="M987 823l-358 357l-203 -205q-50 -50 -85.5 -78t-74.5 -43.5t-72.5 -5.5t-70 43.5t-76.5 95.5l453 447q65 65 129 65q63 0 129 -63l235 -236q95 -92 120 -127q51 -71 11 -133q-34 -52 -137 -117z" />
<glyph unicode="_" horiz-adv-x="1294" d="M166 -35h1118q10 -63 10 -104q0 -29 -7 -53t-23.5 -48t-50.5 -37.5t-83 -13.5h-1120q-10 58 -10 101q0 27 7 51.5t23.5 49t51.5 39.5t84 15z" />
<glyph unicode="`" horiz-adv-x="1001" d="M535 1632q-15 -24 -15 -49q0 -13 5 -26.5t10.5 -23.5t18 -24.5t19.5 -22t23.5 -23.5t21.5 -21l74 -72q33 -34 28.5 -61t-36 -46.5t-67 -32t-64.5 -18.5l-29 -6l-112 86q-90 69 -107 143t44 129t186 68z" />
<glyph unicode="a" horiz-adv-x="1144" d="M705 229v279q-18 -28 -68 -46.5t-97.5 -28.5t-85.5 -37t-38 -72q0 -117 139 -117q33 0 70.5 5.5t58.5 11.5zM528 860q-65 0 -119.5 -11t-105 -36.5t-79.5 -75t-29 -119.5q-95 125 -95 238q0 59 32 105t79 72t108.5 43t113 22.5t99.5 5.5q250 0 380 -94t130 -273v-762 q-68 37 -176 37q-53 0 -167.5 -18.5t-176.5 -18.5q-91 0 -167.5 17t-142.5 54t-103 104.5t-37 160.5q0 77 29.5 135t78.5 93t108.5 60t124 41.5t120 31t101 35t64.5 47.5q0 44 -39.5 75t-130.5 31z" />
<glyph unicode="b" horiz-adv-x="1206" d="M1114 725v-369q0 -184 -133 -282.5t-385 -98.5q-84 0 -242 37t-241 37v1536q18 0 38.5 -1t65.5 -5.5t82.5 -16.5t75.5 -30.5t60 -50.5t22 -74v-260q0 -18 -3.5 -45t-7.5 -44l-4 -18q12 7 32.5 17.5t79.5 28.5t114 18q120 0 221 -44.5t163 -132.5t62 -202zM457 715v-477 q63 -27 135 -27q100 0 139 42.5t39 133.5v307q0 85 -34.5 126.5t-94.5 41.5q-72 0 -128 -41.5t-56 -105.5z" />
<glyph unicode="c" horiz-adv-x="1073" d="M948 428q76 -106 76 -182q0 -117 -113 -194t-305 -77q-238 0 -376 102.5t-138 282.5v359q0 181 129 283t365 102q47 0 96 -5.5t108.5 -22t104.5 -42.5t75.5 -72t30.5 -106q0 -112 -96 -250q0 65 -22 116t-58.5 80t-78.5 43.5t-87 14.5q-32 0 -55.5 -2t-51.5 -9t-47 -21.5 t-35.5 -36.5t-25 -57.5t-8.5 -82.5v-217q0 -113 52 -161t163 -48q127 0 211 61.5t86 141.5z" />
<glyph unicode="d" horiz-adv-x="1206" d="M750 1585q18 0 38.5 -1t65.5 -5.5t82.5 -16.5t75.5 -30.5t60 -50.5t22 -74v-1432q-40 23 -80 29t-103 6q-70 0 -178.5 -17.5t-138.5 -17.5q-239 0 -370.5 99.5t-131.5 281.5v369q0 114 62.5 202t164.5 132.5t224 44.5q54 0 109 -16t84 -32l28 -16q-14 66 -14 107v438z M750 221v494q0 64 -54.5 105.5t-126.5 41.5q-61 0 -97 -42t-36 -126v-307q0 -90 41 -134t141 -44q25 0 58 3t54 6z" />
<glyph unicode="e" horiz-adv-x="1128" d="M436 688v-45q62 -16 117 -16q143 0 143 112q0 123 -125 123q-74 0 -104.5 -43t-30.5 -131zM631 -25q-260 0 -399.5 101t-139.5 284v359q0 181 129 283t365 102q230 0 341 -97t111 -268q0 -72 -20.5 -131t-67.5 -109.5t-135 -79t-211 -28.5q-46 0 -88 8.5t-61 16.5l-19 8 v-33q0 -84 54 -125t151 -41q154 0 247 60t95 143q74 -103 74 -186q0 -115 -117.5 -191t-308.5 -76z" />
<glyph unicode="f" horiz-adv-x="802" d="M113 143v1125q0 115 77.5 205t197 135t255.5 45t238.5 -34t148.5 -88.5t23 -129t-125 -148.5q0 72 -78.5 110t-190.5 38q-88 0 -145 -53.5t-57 -135.5v-194h350q0 -5 -0.5 -14t-4.5 -35t-11 -49.5t-21 -52.5t-33.5 -50t-51 -35t-69.5 -14h-159v-782q-7 0 -19.5 0.5 t-48 3.5t-68 8t-72.5 17t-68.5 28t-48 42t-19.5 58z" />
<glyph unicode="g" horiz-adv-x="1146" d="M1065 1106v-440q0 -183 -127 -284t-363 -101q-60 0 -123.5 12.5t-96.5 25.5l-33 13q-9 -33 -9 -58q0 -92 228 -92h67h33h75.5t71.5 -2.5t71 -8t63 -16t59 -25.5t46 -38.5t38 -54t22 -72t9 -92.5q0 -173 -131 -271t-392 -98q-228 0 -351.5 64.5t-123.5 165.5q0 88 82 192 q8 -42 29 -74.5t53 -51.5t64 -31t75 -17t71.5 -6.5t68.5 -1.5q117 0 169 26t52 85q0 26 -11 42.5t-34.5 24t-49 10t-65.5 2.5h-100q-66 0 -118 3.5t-104.5 13t-90 26.5t-68 42.5t-45.5 63.5t-15 87q0 58 29 110.5t92 127.5q-44 38 -72 119t-28 139v79q0 76 25 137.5 t67.5 102t100 68t120 39.5t131.5 12q58 0 173 -22.5t165 -22.5q76 0 201 47zM727 696v148q-64 22 -139 22q-83 0 -122.5 -34t-39.5 -117v-19q0 -92 30.5 -134t118.5 -42q85 0 118.5 43t33.5 133z" />
<glyph unicode="h" horiz-adv-x="1226" d="M457 715v-729q-7 0 -19.5 0.5t-48 3.5t-68 8t-72.5 17t-68.5 28t-48 42t-19.5 58v1442q16 0 30 -0.5t52 -3.5t68 -9t68.5 -19.5t64 -31.5t43.5 -47.5t18 -66.5v-260q0 -18 -3.5 -42.5t-7.5 -40.5l-4 -15q11 6 31.5 15t79.5 24.5t115 15.5q92 0 170.5 -22.5t141 -67 t98.5 -118.5t36 -171v-739q-14 0 -37 1.5t-82.5 10.5t-105 24t-82.5 46.5t-37 74.5v551q0 164 -147 164q-66 0 -116 -39.5t-50 -103.5z" />
<glyph unicode="i" horiz-adv-x="569" d="M113 143v951q19 0 47.5 -1.5t85 -10.5t100 -24.5t77.5 -47t34 -74.5v-950q-7 0 -19.5 0.5t-48 3.5t-68 8t-72.5 17t-68.5 28t-48 42t-19.5 58zM119 1286v199h221q43 0 74.5 -26t31.5 -52v-197h-219q-46 0 -77 23.5t-31 52.5z" />
<glyph unicode="j" horiz-adv-x="567" d="M455 936v-1079q0 -144 -77 -245t-204 -101q-41 0 -73 5t-92 34t-122 83q48 0 87.5 20.5t64.5 52t42.5 71t24.5 76t7 69.5v1172q7 0 19.5 -0.5t48 -3.5t67.5 -8.5t71.5 -17t68 -27.5t48 -42.5t19.5 -58.5zM119 1286v199h221q43 0 74.5 -26t31.5 -52v-197h-219 q-46 0 -77 23.5t-31 52.5z" />
<glyph unicode="k" horiz-adv-x="1165" d="M1092 1063q-41 -53 -86 -132t-75 -132t-84 -111t-122 -94q70 -30 122.5 -66.5t85 -71.5t63 -87t50 -96.5t53.5 -118.5t66 -134q-151 -34 -200 -34q-57 0 -99 16.5t-65.5 44t-44 64t-34 75.5t-35.5 80t-48 76t-73 65t-109 46v-467q-7 0 -19.5 0.5t-48 3.5t-68 8t-72.5 17 t-68.5 28t-48 42t-19.5 58v1446q7 0 19.5 -0.5t48 -3.5t68 -8t72.5 -17t68.5 -28t48 -42t19.5 -58v-719q51 22 97.5 84t111.5 184q58 113 215 113q113 0 211 -31z" />
<glyph unicode="l" horiz-adv-x="569" d="M102 332v1257q15 0 34.5 -1t64 -5t83 -14.5t77.5 -26.5t62 -44.5t23 -65.5v-1035q0 -38 1 -63t4 -66t11.5 -68.5t21.5 -55.5t35 -44t52 -18q-59 -96 -186 -96q-94 0 -159.5 49t-94.5 125.5t-29 171.5z" />
<glyph unicode="m" horiz-adv-x="1884" d="M770 143v568q0 147 -156 147q-32 0 -71.5 -4t-62.5 -8l-23 -4v-856q-7 0 -19.5 0.5t-48 3.5t-68 8t-72.5 17t-68.5 28t-48 42t-19.5 58v967q9 -5 26.5 -13t79 -21t131.5 -13q47 0 143.5 20.5t149.5 20.5q88 0 170 -21t120 -42l38 -21l15 9t43.5 20.5t71.5 25.5t98 20 t124 9q95 0 176.5 -25t142.5 -72.5t95.5 -121.5t34.5 -166v-733q-7 0 -19.5 0.5t-48.5 4t-68.5 9t-72 17.5t-68.5 27.5t-48.5 41.5t-19.5 57v539q0 94 -42 137t-113 43q-63 0 -110.5 -34t-47.5 -91v-751q-7 0 -19.5 0.5t-48 4.5t-68 9.5t-72.5 17.5t-68.5 28t-48 41 t-19.5 56z" />
<glyph unicode="n" horiz-adv-x="1232" d="M776 143v568q0 75 -35 111t-120 36q-32 0 -71.5 -4.5t-63.5 -9.5l-23 -4v-854q-7 0 -19.5 0.5t-48 3.5t-68 8t-72.5 17t-68.5 28t-48 42t-19.5 58v967q10 -5 28.5 -13.5t77.5 -22t119 -13.5q49 0 149 21.5t156 21.5q73 0 137.5 -10t127 -36t107 -66t72 -104t27.5 -147 v-755q-7 0 -19.5 0.5t-48 4t-68 9t-72.5 17.5t-68.5 27.5t-48 41.5t-19.5 57z" />
<glyph unicode="o" horiz-adv-x="1249" d="M1157 719v-359q0 -185 -132.5 -285t-397.5 -100q-269 0 -402 100t-133 285v359q0 184 133.5 284.5t401.5 100.5q265 0 397.5 -100.5t132.5 -284.5zM813 391v297q0 91 -38.5 132.5t-147.5 41.5q-112 0 -151.5 -41.5t-39.5 -132.5v-297q0 -92 39.5 -134t151.5 -42 q109 0 147.5 42t38.5 134z" />
<glyph unicode="p" horiz-adv-x="1206" d="M457 -70v-436q-22 0 -49 1.5t-84.5 11t-100 26t-76.5 52.5t-34 85v1440q94 -49 206 -49q65 0 181 21.5t174 21.5q198 0 319 -105.5t121 -275.5v-369q0 -172 -130 -275.5t-316 -103.5q-55 0 -111.5 16t-85.5 32l-29 16q15 -68 15 -109zM457 854v-489q0 -64 56 -107 t128 -43q60 0 94.5 42t34.5 128v307q0 89 -41 132.5t-141 43.5q-32 0 -65 -3.5t-49 -6.5z" />
<glyph unicode="q" horiz-adv-x="1206" d="M750 365v489q-66 14 -132 14q-100 0 -141 -43.5t-41 -132.5v-307q0 -86 36 -128t97 -42q72 0 126.5 43t54.5 107zM1094 1110v-1616q-15 0 -29.5 0.5t-51.5 4t-68 9.5t-69 19t-64 30.5t-44 46t-18 64.5v262q0 18 3.5 47t6.5 49l4 19q-11 -8 -30.5 -19.5t-77.5 -31 t-113 -19.5q-122 0 -224 44t-164.5 132t-62.5 203v369q0 173 124.5 277t320.5 104q53 0 171.5 -21.5t186.5 -21.5q106 0 199 49z" />
<glyph unicode="r" horiz-adv-x="919" d="M457 -14q-7 0 -19.5 0.5t-48 3.5t-68 8t-72.5 17t-68.5 28t-48 42t-19.5 58v967q104 -49 180 -49q43 0 151 21.5t177 21.5q58 0 109 -10.5t96 -33.5t71.5 -66t26.5 -101q0 -40 -13 -80t-31 -68t-36.5 -50.5t-31.5 -34.5l-13 -11q0 56 -21 97t-55 63.5t-79 32.5t-92 8.5 t-95 -12.5v-852z" />
<glyph unicode="s" horiz-adv-x="1105" d="M717 332q0 28 -23 46t-61.5 26.5t-88.5 13.5t-105 11.5t-110 17t-105 32.5t-88.5 54.5t-61.5 87t-23 127.5q0 356 494 356q210 0 328 -56t118 -157q0 -92 -96 -203q0 56 -50.5 95.5t-119.5 56t-145 16.5q-85 0 -138 -21.5t-53 -64.5q0 -26 23 -41.5t61.5 -23t88.5 -12.5 t105 -12.5t110 -19.5t105 -37.5t88.5 -62.5t61.5 -98t23 -141q0 -165 -129.5 -256t-380.5 -91q-218 0 -344.5 65t-126.5 171q0 102 129 219q8 -211 342 -211q172 0 172 113z" />
<glyph unicode="t" horiz-adv-x="970" d="M113 360v883q7 0 19.5 0.5t48 -0.5t68 -5.5t72.5 -15.5t68.5 -27.5t48 -45.5t19.5 -66v-65h407q0 -10 -1.5 -27t-12 -60t-28 -76t-56.5 -60t-92 -27h-217v-350q0 -103 36 -149t142 -46q225 0 225 213q111 -103 111 -205q0 -37 -10.5 -71t-38 -68.5t-70 -59.5t-112 -41 t-158.5 -16q-228 0 -348.5 101t-120.5 284z" />
<glyph unicode="u" horiz-adv-x="1226" d="M457 936v-567q0 -75 36.5 -112.5t122.5 -37.5q31 0 69.5 5.5t61.5 10.5l23 5v854q7 0 19.5 -0.5t48 -3.5t68 -8.5t72.5 -17t68.5 -27.5t48 -42.5t19.5 -58.5v-969q-10 6 -29 14.5t-77 22.5t-115 14q-52 0 -152.5 -21.5t-152.5 -21.5q-73 0 -138 10t-128 36t-108 66 t-73 104t-28 147v756q14 0 37 -1.5t82.5 -11t105 -24.5t82.5 -47t37 -74z" />
<glyph unicode="v" horiz-adv-x="1134" d="M1104 1094l-49 -408q-12 -99 -45.5 -193t-76.5 -165t-95 -135t-97 -106t-87.5 -75.5t-63 -46.5t-25.5 -16q-5 3 -25.5 16t-63 46.5t-87.5 75.5t-97 106t-94.5 135t-75.5 165t-44 193l-47 408q13 0 35.5 -1t81 -9t104.5 -22.5t86.5 -45.5t46.5 -74l41 -287q12 -85 31 -154 t37 -106.5t34.5 -63t26.5 -33.5l10 -9q4 3 11 10.5t26.5 36.5t37 66.5t37 105t30.5 147.5l41 287q6 43 45.5 74t90.5 45.5t101 22.5t85 9z" />
<glyph unicode="w" horiz-adv-x="1726" d="M1163 -51q-193 96 -307 244q-54 -64 -126.5 -125t-118.5 -90l-46 -29q-9 5 -24.5 15.5t-61.5 46t-89 76t-97 106t-95 135.5t-75 164.5t-45 193.5l-47 408q13 0 35.5 -1t81 -9t104.5 -22.5t86.5 -45.5t46.5 -74l41 -287q13 -87 32 -156.5t38 -106.5t35.5 -61.5t26.5 -32.5 l11 -7q12 8 30.5 23t62 56.5t69.5 78.5q-41 138 -41 313q0 30 4 96q3 57 38.5 98.5t83.5 61t95 30.5t80 12l33 1q-23 -212 -23 -320q0 -131 21.5 -220t52.5 -135t86 -95q64 70 95 152t49 212l41 287q6 43 44 74t88.5 45.5t100 22.5t83.5 9l34 1l-43 -408q-10 -99 -43 -193 t-76.5 -165.5t-94.5 -135t-99.5 -107t-88 -75t-63.5 -46.5z" />
<glyph unicode="x" horiz-adv-x="1128" d="M440 969l125 -234l125 234q34 63 109 94t141 31q24 0 71 -7t82 -13l35 -7q-21 -26 -36.5 -47t-24.5 -33t-17 -24t-10.5 -17t-8.5 -15.5t-9 -15.5l-164 -282q-15 -25 -37 -51t-37 -39l-14 -13q65 -43 94 -94l131 -231q4 -7 15 -26.5t13 -23.5t10.5 -18.5t13 -20 t13.5 -18.5t18 -24.5t21.5 -27.5t28.5 -36q-135 -24 -188 -24q-68 0 -144.5 30.5t-109.5 94.5l-121 235l-121 -235q-33 -64 -109.5 -94.5t-144.5 -30.5q-24 0 -71 6t-82 12l-35 6q16 20 28.5 36t21.5 27.5t18 24.5t13.5 18.5t13 20t10.5 18.5t13 23.5t15 26.5l131 231 q13 23 36.5 46.5t40.5 35.5l17 12q-55 46 -88 103l-163 282q-1 2 -8.5 15t-9.5 16t-10.5 16.5t-17.5 25t-24.5 32t-36.5 47.5q135 27 188 27q66 0 141 -31t109 -94z" />
<glyph unicode="y" horiz-adv-x="1155" d="M395 164q-111 74 -195 217.5t-102 304.5l-47 408q13 0 36 -1t81.5 -9t104 -22.5t86.5 -45.5t47 -74l40 -287q8 -54 19.5 -100.5t24.5 -78t26.5 -57.5t26 -41t22 -25t15.5 -13l6 -4q4 3 11.5 9.5t27.5 32.5t37.5 59t36 91.5t28.5 126.5l41 287q4 31 26.5 56t52 40.5 t69.5 27t72.5 16.5t68 8t48 3.5t19.5 0.5l-49 -408q-23 -182 -123.5 -338t-214.5 -244l-80 -61q-113 -86 -170 -160t-57 -170q0 -41 10 -82.5t20 -62.5l11 -21q-83 -41 -160 -41q-94 0 -149.5 67t-55.5 183q0 55 16 105t38 85.5t66 78t76 68.5t93 71z" />
<glyph unicode="z" horiz-adv-x="1032" d="M563 829h-502q0 5 0.5 14t4.5 35t10.5 49.5t21 52.5t34.5 50t52 35t72 14h756q-12 -37 -25 -109.5t-24 -109.5q-15 -55 -59.5 -116t-105.5 -121t-124.5 -118t-131.5 -127.5t-112 -129.5h580q0 -5 -0.5 -14t-4.5 -35t-10.5 -49t-21 -52t-33.5 -49.5t-50.5 -34.5t-70.5 -14 h-764q-16 73 -16 113q0 87 41 171t106.5 155t134 134t138.5 132t104 124z" />
<glyph unicode="{" horiz-adv-x="577" d="M10 557q4 3 11 9t25 26t31.5 41.5t24.5 55.5t11 69v553q0 120 64.5 186t160.5 66q67 0 127.5 -35t101.5 -105q-24 0 -43 -3t-33 -7.5t-25 -13t-18 -15.5t-11.5 -20.5t-7 -22t-3.5 -25t-1 -25.5t0.5 -27t0.5 -27v-489q0 -125 -94 -191q54 -38 74 -86t20 -109v-489 q0 -9 -0.5 -27.5t-0.5 -28t1 -26t3.5 -25t7 -21.5t11.5 -20t18 -15.5t25 -12.5t33 -7t43 -3q-82 -144 -225 -144q-97 0 -163 69t-66 187v553q0 30 -10.5 62t-25.5 57t-30.5 45t-26 31t-10.5 10z" />
<glyph unicode="|" horiz-adv-x="610" d="M133 -338v1929q7 0 19.5 -0.5t48 -3.5t68 -8t72.5 -17t68.5 -28t48 -42t19.5 -58v-1930q-7 0 -19.5 0.5t-48 3.5t-68 8.5t-72.5 17t-68.5 27.5t-48 42.5t-19.5 58.5z" />
<glyph unicode="}" horiz-adv-x="577" d="M567 557q0 1 -10.5 -10t-25.5 -31t-30 -45t-25.5 -57t-10.5 -62v-553q0 -118 -66 -187t-163 -69q-144 0 -226 144q24 0 43 3t33 7t25 12.5t18 15.5t12 20t7 21.5t3.5 25t1.5 25.5t-0.5 28t-0.5 28v489q0 61 20 109t74 86q-94 66 -94 191v489q0 8 0.5 26.5t0.5 27.5 t-1.5 25.5t-3.5 25t-7 22t-12 20.5t-18 15.5t-25 13t-33 7.5t-43 3q41 70 102 105t128 35q96 0 160.5 -66t64.5 -186v-553q0 -35 10.5 -68.5t25.5 -56.5t30 -41t25 -26z" />
<glyph unicode="~" horiz-adv-x="1404" d="M334 948q112 0 212.5 -17.5t205.5 -43t184 -35.5q94 -12 129 -12q74 0 134.5 27.5t127.5 97.5q27 -69 27 -142q0 -123 -69 -178t-202 -55q-124 0 -246 26t-240.5 52t-236.5 26q-88 0 -157 -26t-125 -93q-27 85 -27 156q0 217 283 217z" />
<glyph unicode="&#xa1;" horiz-adv-x="651" d="M195 137v946q14 0 23.5 -0.5t41 -1.5t56.5 -5.5t60.5 -11t61.5 -18.5t50.5 -27.5t37.5 -39t13 -51.5v-948q-7 0 -19.5 0.5t-48 3.5t-68 8t-72.5 17t-68.5 28t-48 42t-19.5 58zM522 1403v-236h-198q-47 0 -99 27q-16 28 -16 59v236h194q119 0 119 -74v-12z" />
<glyph unicode="&#xa2;" horiz-adv-x="1093" d="M569 -72v47q-219 5 -348 107t-129 274v363q0 179 123.5 280t353.5 105v129q6 0 15.5 -0.5t34.5 -6.5t44 -15.5t34.5 -30.5t15.5 -50v-34q51 -7 98.5 -23t92 -43t71 -70.5t26.5 -97.5q0 -106 -96 -256q0 197 -192 242v-617q107 20 170 74.5t65 120.5q76 -98 76 -184 q0 -98 -86.5 -168.5t-224.5 -91.5v-156q-6 0 -15.5 0.5t-34.5 6t-44 15t-34.5 30.5t-15.5 50zM436 651v-217q0 -101 31 -149.5t102 -57.5v631q-31 -3 -53.5 -13.5t-41.5 -32.5t-28.5 -62.5t-9.5 -98.5z" />
<glyph unicode="&#xa3;" horiz-adv-x="1366" d="M516 721v-389l-8 -109q127 -39 313 -39q49 0 95.5 9.5t102 34t105.5 77.5t84 129q84 -115 84 -219q0 -141 -130 -215t-349 -74q-144 0 -293 28t-387 99q33 129 33 205v948q0 176 145 280.5t367 104.5q212 0 316 -65t104 -166q0 -111 -113 -221q-6 60 -33.5 102 t-72.5 63.5t-93 30t-108 8.5q-78 0 -120 -43.5t-42 -123.5v-205h399q0 -10 -1.5 -27t-12 -60t-28 -76t-56.5 -60t-92 -27h-209z" />
<glyph unicode="&#xa5;" horiz-adv-x="1376" d="M414 702h16q-61 78 -113.5 172t-87.5 174t-95.5 198t-129.5 227q111 28 174 28q191 0 264 -145l86 -172q114 -234 160 -316q19 34 41 78.5t49.5 104t44.5 94.5l115 233q62 123 242 123q91 0 192 -33q-69 -120 -146 -277t-140.5 -273t-141.5 -216h172q12 -26 8.5 -59.5 t-14.5 -63t-42 -49.5t-75 -20h-129v-98h252q12 -26 8.5 -59.5t-14.5 -63t-42 -50t-75 -20.5h-129v-239q-7 0 -20 0.5t-49 3t-69 8t-73.5 17t-69.5 27t-49 41t-20 56.5v86h-227q-9 29 -5 62.5t15.5 62.5t42 48.5t74.5 19.5h100v98h-227q-9 28 -5 62t15.5 62.5t42 48 t74.5 19.5z" />
<glyph unicode="&#xa6;" horiz-adv-x="610" d="M133 840v745q7 0 19.5 -0.5t48 -3t68 -8t72.5 -17t68.5 -27t48 -41t19.5 -56.5v-750q-7 0 -19.5 0.5t-48 3.5t-68 8.5t-72.5 17t-68.5 27.5t-48 42.5t-19.5 58.5zM133 -338v752q7 0 19.5 -0.5t48 -3.5t68 -8.5t72.5 -17t68.5 -27.5t48 -42.5t19.5 -58.5v-752 q-7 0 -19.5 0.5t-48 3.5t-68 8.5t-72.5 17t-68.5 27.5t-48 42.5t-19.5 58.5z" />
<glyph unicode="&#xa7;" horiz-adv-x="1255" d="M629 1585q262 0 396 -71.5t134 -198.5q0 -103 -100 -258q-8 62 -30 111.5t-56 81t-72.5 53.5t-87 33t-91.5 15.5t-93 4.5q-46 0 -80.5 -6t-56.5 -19t-35.5 -27t-20 -37t-8.5 -42.5t-2 -48.5q0 -51 38 -86.5t98.5 -56t133.5 -38t146 -42t133.5 -58.5t98.5 -96.5t38 -147.5 q0 -233 -197 -289q1 11 9 56.5t8 70.5q0 50 -28.5 87.5t-76 61.5t-109.5 44t-130.5 39.5t-137 42t-130.5 57.5t-109.5 81.5t-76 118t-28.5 161.5q0 403 523 403zM633 -477q-261 0 -395 72.5t-134 201.5q0 92 101 254q10 -74 41.5 -129.5t72 -87.5t97 -51t107 -25t110.5 -6 q68 0 111 13.5t62.5 41.5t25.5 55.5t6 69.5q0 45 -30 77.5t-78.5 50.5t-111 36.5t-127 33.5t-127 43t-111 64t-78.5 97.5t-30 142.5q0 100 46.5 168t154.5 100q-16 -99 -16 -122q0 -51 28 -89t76 -62.5t109.5 -44.5t130 -39t136.5 -41.5t129.5 -58t109.5 -81.5t76 -118 t28 -163q0 -403 -520 -403z" />
<glyph unicode="&#xa8;" horiz-adv-x="1001" d="M221 1286v203h187q42 0 70 -26t28 -52v-201h-184q-45 0 -73 23t-28 53zM618 1286v203h187q42 0 70 -26t28 -52v-201h-184q-45 0 -73 23t-28 53z" />
<glyph unicode="&#xa9;" horiz-adv-x="1785" d="M1176 836q-12 71 -71 106t-130 35q-58 0 -97.5 -40t-39.5 -108v-149q0 -73 40.5 -112.5t98.5 -39.5q67 0 135 42t92 108q47 -61 47 -127q0 -99 -97 -170.5t-220 -71.5q-74 0 -134.5 9t-114.5 32t-90.5 59.5t-57.5 93.5t-21 132v233q0 75 21 132t57.5 93.5t90.5 59.5 t114.5 32t134.5 9q128 0 217.5 -53t89.5 -144q0 -77 -65 -161zM1374 571v363q0 87 -24.5 151t-79 112t-149.5 72.5t-230 24.5q-132 0 -225 -24.5t-147 -72.5t-78.5 -112t-24.5 -151v-363q0 -87 24.5 -151.5t78.5 -113t147 -73t225 -24.5q135 0 230 24.5t149.5 73.5t79 113 t24.5 151zM113 504v497q0 243 211.5 384t570.5 141q357 0 567.5 -141t210.5 -384v-497q0 -244 -210.5 -384t-567.5 -140q-360 0 -571 140t-211 384z" />
<glyph unicode="&#xaa;" horiz-adv-x="1021" d="M121 909q0 72 41.5 120.5t104.5 71.5t127.5 37.5t120.5 29.5t73 36q-3 88 -129 88q-96 0 -155.5 -27.5t-59.5 -88.5q-76 65 -76 157q0 68 85 122t261 54q192 0 291.5 -79.5t99.5 -223.5v-540q-49 28 -112 28q-51 0 -149 -21.5t-148 -21.5q-74 0 -138.5 13.5t-119 42.5 t-86 80.5t-31.5 121.5zM600 1014q-10 -13 -40.5 -22t-59.5 -14t-52.5 -22t-23.5 -45q0 -67 94 -67q24 0 44.5 3t29.5 6l8 3v158z" />
<glyph unicode="&#xab;" horiz-adv-x="1525" d="M1036 530l357 -356q-78 -139 -170 -139q-27 0 -54 10.5t-56.5 33.5t-47.5 39.5t-49 47.5l-236 237q-69 69 -69 127t71 129l412 412q91 -51 130.5 -91t39.5 -77q0 -9 -1.5 -17.5t-6.5 -18t-8.5 -16.5t-12.5 -18.5t-14 -18t-18 -19.5t-18.5 -19t-21.5 -21.5t-22 -21.5z M418 530l356 -356q-78 -139 -170 -139q-27 0 -54 10.5t-56.5 33.5t-47.5 39.5t-49 47.5l-235 237q-70 70 -70 127t72 129l411 412q91 -51 130.5 -91t39.5 -77q0 -33 -25 -65.5t-81 -88.5l-8.5 -8.5l-7.5 -7.5z" />
<glyph unicode="&#xac;" horiz-adv-x="1452" d="M1012 41v524l-830 2q-55 0 -89 24t-45 66.5t-10 89t13 101.5h1045q70 0 114.5 -12t68 -39.5t32 -62t8.5 -89.5v-495q0 -44 -20 -73t-51 -41t-73.5 -14t-81.5 3.5t-81 15.5z" />
<glyph unicode="&#xad;" horiz-adv-x="1007" d="M246 641h641q8 -33 8 -74t-9 -73.5t-40 -59t-82 -26.5h-645q-6 28 -6 65q0 30 5.5 56.5t18.5 53.5t41 42.5t68 15.5z" />
<glyph unicode="&#xae;" horiz-adv-x="1026" d="M346 831v408h133q99 0 155 -33.5t56 -122.5q0 -41 -32.5 -85t-77.5 -54q47 -16 81.5 -62.5t51.5 -101.5q-66 -20 -95 -20q-21 0 -36 15t-23 35.5t-27 47.5t-45 45v-141q-6 0 -15.5 0.5t-33.5 4t-43 10t-34 20.5t-15 34zM555 1090q0 24 -13 38.5t-24.5 17.5t-23.5 3h-7 v-123h7q12 0 23.5 3.5t24.5 19t13 41.5zM782 862v264q0 89 -67.5 142t-206.5 53q-134 0 -200 -53t-66 -142v-264q0 -89 65.5 -139.5t200.5 -50.5q139 0 206.5 50.5t67.5 139.5zM80 831v332q0 137 117 216t315 79q199 0 316.5 -79t117.5 -216v-332q0 -137 -117.5 -216.5 t-316.5 -79.5q-198 0 -315 79.5t-117 216.5z" />
<glyph unicode="&#xaf;" horiz-adv-x="909" d="M199 1470h549q6 -32 6 -75q0 -31 -6 -54t-21.5 -44t-47.5 -32.5t-79 -11.5h-553q-6 29 -6 66q0 32 6 56.5t22 47t49 35t81 12.5z" />
<glyph unicode="&#xb0;" horiz-adv-x="854" d="M782 1362v-162q0 -110 -95 -168.5t-259 -58.5q-165 0 -260.5 58.5t-95.5 168.5v162q0 104 97.5 166.5t258.5 62.5q160 0 257 -62.5t97 -166.5zM522 1247v70q0 84 -94 84q-98 0 -98 -84v-70q0 -86 98 -86q94 0 94 86z" />
<glyph unicode="&#xb1;" horiz-adv-x="1112" d="M387 483v86h-268q-6 29 -6 68q0 33 6 62t21.5 59.5t48.5 48.5t81 18h117v201q65 14 137 14q191 0 191 -125v-90h276q8 -34 8 -77q0 -33 -6 -61t-21.5 -56.5t-47.5 -45t-78 -16.5h-131v-198q-59 -13 -127 -13q-53 0 -94.5 9t-74 38.5t-32.5 77.5zM305 279h660q8 -33 8 -74 q0 -31 -6.5 -57.5t-22 -53.5t-47.5 -43t-78 -16h-663q-6 28 -6 65q0 32 6 60t21 56.5t48 45.5t80 17z" />
<glyph unicode="&#xb2;" horiz-adv-x="817" d="M100 711v135q0 55 27 99t67.5 70t88 51t88 43.5t67.5 47t27 62.5v14q0 40 -23.5 56t-79.5 16q-74 0 -115 -35t-40 -117q-4 2 -11 6.5t-24.5 20t-30.5 33.5t-24 47t-11 61q0 73 81 115.5t206 42.5q135 0 220 -64.5t85 -165.5v-37q0 -52 -22 -94t-55.5 -68.5t-77.5 -51 t-84.5 -40.5t-81 -37t-62.5 -40h301q27 0 53.5 5.5t38.5 11.5l13 5v-2q0 -14 -0.5 -28t-7.5 -46.5t-20 -55.5t-42 -41.5t-69 -18.5h-482z" />
<glyph unicode="&#xb3;" horiz-adv-x="782" d="M369 1307q-30 0 -47 -1t-45.5 -8.5t-44.5 -22t-29.5 -43.5t-14.5 -71q-4 3 -10.5 7.5t-23 21t-29 34t-23 44t-10.5 53.5q0 70 74.5 114t202.5 44q136 0 220.5 -56.5t84.5 -160.5v-25q0 -42 -21 -79t-61 -56q47 -19 69.5 -61.5t22.5 -88.5v-24q0 -103 -88 -166.5 t-227 -63.5q-130 0 -196.5 45.5t-66.5 114.5q0 38 18.5 73.5t37.5 51.5l18 16q12 -135 189 -135q42 0 64 22t22 58q0 41 -17.5 58t-42 18t-48.5 5t-39.5 30t-12.5 80l2 41h80q67 0 67 69q0 32 -17.5 47t-57.5 15z" />
<glyph unicode="&#xb4;" horiz-adv-x="1001" d="M410 1632q94 -10 153 -45t74.5 -82t-11 -104t-94.5 -109l-112 -86q-3 1 -8 2t-20.5 4t-30 7.5t-34.5 11t-35.5 14.5t-31.5 17.5t-24.5 21.5t-11.5 25t4 28.5t24 32.5l74 72q5 5 21.5 21t23.5 23.5t19.5 22t18 24.5t10.5 23.5t5 26.5q0 27 -14 49z" />
<glyph unicode="&#xb6;" horiz-adv-x="1333" d="M987 1243h-133q8 -35 8 -94v-1301q0 -162 -73.5 -252t-186.5 -90q-120 0 -250 121q189 42 189 287v305q0 80 8 96q-24 -4 -53 -4q-122 0 -228 47t-171.5 135t-65.5 197v410q0 185 126.5 287t362.5 102h305h15q407 -4 407 141l-2 27q57 -41 91 -89.5t42.5 -96t-11.5 -91 t-65.5 -76t-126.5 -49.5t-188 -12zM1231 913v-886v-43v-62.5t-1.5 -56.5t-5 -51.5t-9.5 -46.5t-16.5 -41.5t-25 -37.5t-34.5 -33.5t-45.5 -29.5t-58.5 -27t-74 -24q4 4 10.5 17.5t17 87.5t10.5 186v1309q9 -4 25 -12t56 -34.5t70.5 -55t55.5 -72t25 -87.5z" />
<glyph unicode="&#xb7;" horiz-adv-x="475" d="M86 489v230h190q45 0 79 -26t34 -56v-229h-186q-48 0 -82.5 23.5t-34.5 57.5z" />
<glyph unicode="&#xb8;" horiz-adv-x="1705" d="M379 -219q0 28 12 57l105 252q46 0 74.5 -6.5t41 -20.5t16 -28.5t3.5 -38.5q0 -43 -4 -68q118 -5 180.5 -57.5t62.5 -151.5q0 -96 -78 -155.5t-180 -59.5q-63 0 -109.5 19.5t-67.5 47t-33 54.5t-14 47l-1 19q67 -29 145 -29q42 0 71.5 18t29.5 54q0 69 -125 69 q-36 0 -68 -5.5t-46 -11.5z" />
<glyph unicode="&#xb9;" horiz-adv-x="759" d="M252 1470q99 0 272 19q-16 -72 -16 -123v-481h184q8 -35 8 -64q0 -45 -24 -76.5t-84 -31.5h-494q-12 36 -12 63q0 109 115 109h86v418h-2q-61 1 -80.5 -34.5t-5.5 -99.5q-73 34 -107.5 83.5t-34.5 95.5q0 53 49 87.5t146 34.5z" />
<glyph unicode="&#xba;" horiz-adv-x="1077" d="M963 1206v-252q0 -146 -104.5 -224.5t-317.5 -78.5q-426 0 -426 303v252q0 145 104.5 224t321.5 79q213 0 317.5 -79t104.5 -224zM643 977v207q0 60 -20.5 86t-81.5 26q-64 0 -86.5 -26.5t-22.5 -85.5v-207q0 -60 22.5 -87.5t86.5 -27.5q61 0 81.5 27.5t20.5 87.5z" />
<glyph unicode="&#xbb;" horiz-adv-x="1525" d="M133 174l356 356l-204 203q-6 6 -22 21.5t-21.5 21.5t-18.5 19t-18 19.5t-14 18t-12.5 18.5t-8.5 16.5t-6.5 18t-1.5 17.5q0 37 39.5 77t130.5 91l411 -412q72 -72 72 -129t-70 -127l-235 -237q-31 -31 -49 -47.5t-47.5 -39.5t-56.5 -33.5t-54 -10.5q-92 0 -170 139z M752 174l356 356l-205 203q-6 6 -22 21.5t-21.5 21.5t-18.5 19t-18 19.5t-14 18t-12.5 18.5t-8.5 16.5t-6.5 18t-1.5 17.5q0 37 39.5 77t130.5 91l412 -412q72 -72 72 -129t-70 -127l-236 -237q-42 -42 -65.5 -63.5t-64.5 -44.5t-76 -23q-92 0 -170 139z" />
<glyph unicode="&#xbc;" horiz-adv-x="1566" d="M1210 188h-342q4 74 50.5 167.5t118 184t114 139t85.5 92.5l9 9q8 0 20 -1t44 -7t56.5 -15.5t44.5 -28t20 -42.5v-346h92q0 -15 -1.5 -29.5t-8.5 -46.5t-28.5 -53t-53.5 -23v-188q-17 0 -41.5 2t-71 10t-77 29t-30.5 53v94zM1210 340v160q-72 -83 -108 -160h108zM475 471 l709 703q52 -45 78 -85.5t25.5 -74.5t-14 -61t-40.5 -54l-696 -682q-50 42 -76 81.5t-27 71.5t9.5 56.5t31.5 44.5zM252 1470q99 0 272 19q-16 -72 -16 -123v-481h184q8 -35 8 -64q0 -45 -24 -76.5t-84 -31.5h-494q-12 36 -12 63q0 109 115 109h86v418h-2q-61 1 -80.5 -34.5 t-5.5 -99.5q-73 34 -107.5 83.5t-34.5 95.5q0 53 49 87.5t146 34.5z" />
<glyph unicode="&#xbd;" horiz-adv-x="1740" d="M475 471l709 703q52 -45 78 -85.5t25.5 -74.5t-14 -61t-40.5 -54l-696 -682q-50 42 -76 81.5t-27 71.5t9.5 56.5t31.5 44.5zM252 1470q99 0 272 19q-16 -72 -16 -123v-481h184q8 -35 8 -64q0 -45 -24 -76.5t-84 -31.5h-494q-12 36 -12 63q0 109 115 109h86v418h-2 q-61 1 -80.5 -34.5t-5.5 -99.5q-73 34 -107.5 83.5t-34.5 95.5q0 53 49 87.5t146 34.5zM1079 0v135q0 65 37.5 114t91.5 78t107.5 53.5t91 56t37.5 71.5v14q0 40 -23.5 56t-79.5 16q-74 0 -115 -35t-40 -117q-4 2 -11 6.5t-24.5 20t-30.5 33.5t-24 47t-11 61q0 73 81 115.5 t206 42.5q135 0 220 -64t85 -165v-37q0 -61 -29.5 -108.5t-78 -77.5t-98 -52.5t-101 -47t-76.5 -46.5h301q27 0 53.5 6t39.5 12l12 5v-2q0 -10 -0.5 -21t-3.5 -36.5t-12 -46t-23.5 -42t-40 -33.5t-59.5 -12h-482z" />
<glyph unicode="&#xbe;" horiz-adv-x="1529" d="M1174 188h-343q4 74 50.5 167.5t118 184t114 139t85.5 92.5l9 9q8 0 20 -1t44 -7t56.5 -15.5t44.5 -28t20 -42.5v-346h92q0 -15 -1.5 -29.5t-8.5 -46.5t-28.5 -53t-53.5 -23v-188q-17 0 -41.5 2t-70.5 10t-76.5 29t-30.5 53v94zM1174 340v160q-74 -85 -109 -160h109z M436 471l709 703q52 -45 78 -85.5t25.5 -74.5t-14 -61t-40.5 -54l-696 -682q-50 42 -76 81.5t-27 71.5t9.5 56.5t31.5 44.5zM369 1307q-30 0 -47 -1t-45.5 -8.5t-44.5 -22t-29.5 -43.5t-14.5 -71q-4 3 -10.5 7.5t-23 21t-29 34t-23 44t-10.5 53.5q0 70 74.5 114t202.5 44 q136 0 220.5 -56.5t84.5 -160.5v-25q0 -42 -21 -79t-61 -56q47 -19 69.5 -61.5t22.5 -88.5v-24q0 -103 -88 -166.5t-227 -63.5q-130 0 -196.5 45.5t-66.5 114.5q0 38 18.5 73.5t37.5 51.5l18 16q12 -135 189 -135q42 0 64 22t22 58q0 41 -17.5 58t-42 18t-48.5 5t-39.5 30 t-12.5 80l2 41h80q67 0 67 69q0 32 -17.5 47t-57.5 15z" />
<glyph unicode="&#xbf;" horiz-adv-x="1196" d="M623 236q57 0 108.5 10.5t100 34t77.5 70t29 110.5q135 -108 135 -230q0 -109 -116.5 -182.5t-333.5 -73.5q-167 0 -295.5 46t-202.5 139t-74 221v51q0 70 26 129.5t67.5 101t92 77.5t100.5 65.5t91.5 58t67.5 62.5t26 71v78q7 0 19 -0.5t47 -3.5t66.5 -8.5t70.5 -17.5 t67 -28t47 -42.5t19 -59.5v-6q0 -46 -25 -87t-65 -73t-88.5 -62t-97.5 -59t-89 -59.5t-65 -69t-25 -81.5q0 -86 56 -134t164 -48zM844 1407v-229h-191q-44 0 -78 26t-34 56v229h186q47 0 82 -24t35 -58z" />
<glyph unicode="&#xc0;" horiz-adv-x="1480" d="M739 1544q20 -12 54 -42.5t85.5 -89.5t102 -132t104 -179.5t91.5 -221.5l180 -545q65 -201 95 -261q14 -30 30 -53q-105 -34 -162 -34q-35 0 -66.5 6t-55.5 14t-46 25.5t-37 30.5t-31 39t-25.5 42.5t-22 48.5t-18.5 48.5t-18 52.5l-30 90h-459l-31 -90q-45 -133 -78 -184 q-76 -118 -227 -123h-14q-24 0 -64 8.5t-68 17.5l-28 8q10 14 19 30t18.5 39t16 38t17.5 48l15.5 46.5t18.5 56t18 56.5l180 545q38 115 92 222t104 179.5t101.5 132t85 89.5t53.5 42zM739 1135q-73 -199 -104 -310l-53 -192h315l-53 192q-14 49 -40 126.5t-46 130.5z M725 2009q-15 -24 -15 -49q0 -13 5 -26.5t10.5 -23.5t18 -24.5t19.5 -22t23.5 -23.5t21.5 -21l74 -72q33 -34 28.5 -61t-36 -46.5t-67 -32t-64.5 -18.5l-29 -6l-112 86q-90 69 -107 143t44 129t186 68z" />
<glyph unicode="&#xc1;" horiz-adv-x="1480" d="M739 1544q20 -12 54 -42.5t85.5 -89.5t102 -132t104 -179.5t91.5 -221.5l180 -545q65 -201 95 -261q14 -30 30 -53q-105 -34 -162 -34q-35 0 -66.5 6t-55.5 14t-46 25.5t-37 30.5t-31 39t-25.5 42.5t-22 48.5t-18.5 48.5t-18 52.5l-30 90h-459l-31 -90q-45 -133 -78 -184 q-76 -118 -227 -123h-14q-24 0 -64 8.5t-68 17.5l-28 8q10 14 19 30t18.5 39t16 38t17.5 48l15.5 46.5t18.5 56t18 56.5l180 545q38 115 92 222t104 179.5t101.5 132t85 89.5t53.5 42zM739 1135q-73 -199 -104 -310l-53 -192h315l-53 192q-14 49 -40 126.5t-46 130.5z M754 2009q125 -13 186.5 -67.5t44.5 -129t-108 -143.5l-113 -86q-3 1 -8 2t-20.5 4t-30 7.5t-34.5 11t-35.5 14.5t-31.5 17.5t-24.5 21.5t-11.5 25t4 28.5t24 32.5l74 72q5 5 21.5 21t23.5 23.5t19.5 22t18 24.5t10.5 23.5t5 26.5q0 27 -14 49z" />
<glyph unicode="&#xc2;" horiz-adv-x="1480" d="M739 1544q20 -12 54 -42.5t85.5 -89.5t102 -132t104 -179.5t91.5 -221.5l180 -545q65 -201 95 -261q14 -30 30 -53q-105 -34 -162 -34q-35 0 -66.5 6t-55.5 14t-46 25.5t-37 30.5t-31 39t-25.5 42.5t-22 48.5t-18.5 48.5t-18 52.5l-30 90h-459l-31 -90q-45 -133 -78 -184 q-76 -118 -227 -123h-14q-24 0 -64 8.5t-68 17.5l-28 8q10 14 19 30t18.5 39t16 38t17.5 48l15.5 46.5t18.5 56t18 56.5l180 545q38 115 92 222t104 179.5t101.5 132t85 89.5t53.5 42zM739 1135q-73 -199 -104 -310l-53 -192h315l-53 192q-14 49 -40 126.5t-46 130.5z M739 1792q-3 -1 -7 -4t-17 -11.5t-25.5 -17.5t-28 -22t-28 -26t-23.5 -29t-16 -31t-3.5 -31.5t11.5 -30.5q-203 47 -203 154q0 30 35 68t85 71.5t100 63t85 46.5l35 17q14 -7 37 -18t81.5 -44.5t103.5 -64.5t81.5 -70t36.5 -69q0 -108 -202 -154q17 28 10 56t-31 54.5 t-50 47t-46 33.5z" />
<glyph unicode="&#xc3;" horiz-adv-x="1480" d="M739 1544q20 -12 54 -42.5t85.5 -89.5t102 -132t104 -179.5t91.5 -221.5l180 -545q65 -201 95 -261q14 -30 30 -53q-105 -34 -162 -34q-35 0 -66.5 6t-55.5 14t-46 25.5t-37 30.5t-31 39t-25.5 42.5t-22 48.5t-18.5 48.5t-18 52.5l-30 90h-459l-31 -90q-45 -133 -78 -184 q-76 -118 -227 -123h-14q-24 0 -64 8.5t-68 17.5l-28 8q10 14 19 30t18.5 39t16 38t17.5 48l15.5 46.5t18.5 56t18 56.5l180 545q38 115 92 222t104 179.5t101.5 132t85 89.5t53.5 42zM739 1135q-73 -199 -104 -310l-53 -192h315l-53 192q-14 49 -40 126.5t-46 130.5z M430 1642q-25 33 -30.5 81t7 91.5t48.5 74t88 30.5q56 0 201 -49t204 -49q82 0 103 51q25 -33 30.5 -81t-7 -91.5t-48.5 -74t-88 -30.5q-56 0 -201.5 49.5t-204.5 49.5q-30 0 -60 -11.5t-42 -40.5z" />
<glyph unicode="&#xc4;" horiz-adv-x="1480" d="M739 1544q20 -12 54 -42.5t85.5 -89.5t102 -132t104 -179.5t91.5 -221.5l180 -545q65 -201 95 -261q14 -30 30 -53q-105 -34 -162 -34q-35 0 -66.5 6t-55.5 14t-46 25.5t-37 30.5t-31 39t-25.5 42.5t-22 48.5t-18.5 48.5t-18 52.5l-30 90h-459l-31 -90q-45 -133 -78 -184 q-76 -118 -227 -123h-14q-24 0 -64 8.5t-68 17.5l-28 8q10 14 19 30t18.5 39t16 38t17.5 48l15.5 46.5t18.5 56t18 56.5l180 545q38 115 92 222t104 179.5t101.5 132t85 89.5t53.5 42zM739 1135q-73 -199 -104 -310l-53 -192h315l-53 192q-14 49 -40 126.5t-46 130.5z M399 1663v203h187q42 0 70 -26t28 -52v-201h-184q-45 0 -73 23t-28 53zM796 1663v203h187q42 0 70 -26t28 -52v-201h-184q-45 0 -73 23t-28 53z" />
<glyph unicode="&#xc5;" horiz-adv-x="1480" d="M739 1544q20 -12 54 -42.5t85.5 -89.5t102 -132t104 -179.5t91.5 -221.5l180 -545q65 -201 95 -261q14 -30 30 -53q-105 -34 -162 -34q-35 0 -66.5 6t-55.5 14t-46 25.5t-37 30.5t-31 39t-25.5 42.5t-22 48.5t-18.5 48.5t-18 52.5l-30 90h-459l-31 -90q-45 -133 -78 -184 q-76 -118 -227 -123h-14q-24 0 -64 8.5t-68 17.5l-28 8q10 14 19 30t18.5 39t16 38t17.5 48l15.5 46.5t18.5 56t18 56.5l180 545q38 115 92 222t104 179.5t101.5 132t85 89.5t53.5 42zM739 1135q-73 -199 -104 -310l-53 -192h315l-53 192q-14 49 -40 126.5t-46 130.5z M791 1761v35q0 31 -54 31q-30 0 -39.5 -8t-9.5 -23v-35q0 -14 8.5 -19t40.5 -5q31 0 42.5 5t11.5 19zM979 1812v-67q0 -70 -65 -109t-175 -39q-107 0 -172 39.5t-65 108.5v67q0 71 65 112.5t172 41.5q110 0 175 -41.5t65 -112.5z" />
<glyph unicode="&#xc6;" horiz-adv-x="1857" d="M1481 657h-312v-409h627q0 -9 -1.5 -24t-6.5 -46.5t-18.5 -60t-33 -56.5t-54 -44.5t-78.5 -16.5h-3h-3h-3h-3h-3h-3h-3h-4h-3h-3h-3h-3h-3h-3h-3h-3h-3h-3h-3h-3h-3h-3h-4h-3h-3h-3h-3h-3h-3h-3h-3h-3h-3h-3h-3h-3h-4h-3h-3h-3h-3h-3h-3h-3h-3h-3h-3h-3h-3h-4h-3h-3h-3 h-3h-3h-3h-3h-3h-3h-3h-3h-4h-3h-3h-3h-3h-3h-3h-3h-3h-3h-3h-4h-3h-3h-3h-3h-3h-3h-3h-3h-3h-3h-4h-3h-3h-3h-3h-3h-3h-3h-3h-4h-3h-3h-3h-3h-3h-3h-3h-3h-4h-3h-3h-3h-3h-3h-3h-3h-3h-4h-3h-3h-3h-3h-3h-3h-4h-3h-3h-3h-3h-3h-3h-4h-3h-3h-3h-3h-3h-4h-3h-3h-3h-3h-3h-4 h-3h-3h-3h-3h-4h-3h-3h-3h-4h-3h-3h-3h-4h-3h-3h-3h-4h-3h-4h-3h-3h-4h-3h-4h-4h-6q-133 -4 -203 37.5t-70 120.5v245h-315l-31 -94q-5 -15 -16.5 -53t-17.5 -57t-20 -52.5t-27.5 -52t-36.5 -42.5t-49 -36t-63 -21t-81 -9q-24 0 -64 8.5t-68 17.5l-28 8q14 24 29 59t31.5 84 t25.5 75.5t26 82t17 56.5l162 532q60 199 177 356t222 224h1106q0 -5 -0.5 -14t-4 -35t-10 -49.5t-21 -52.5t-34 -50t-51.5 -35t-71 -14h-435v-332h279q90 0 156.5 7.5t87.5 15.5l22 8q0 -47 -4.5 -83.5t-19 -75t-39.5 -64t-68 -42t-102 -16.5zM569 653h248v572 q-58 -58 -113 -181.5t-83 -216.5z" />
<glyph unicode="&#xc7;" horiz-adv-x="1470" d="M586 -219q0 28 12 57l59 144q-117 11 -212.5 45t-171.5 95t-118 158t-42 224v481q0 114 35 204.5t95 150.5t145 99.5t179 56.5t203 17q85 0 163.5 -8.5t150 -28t128 -47.5t94.5 -69t52 -91t-2.5 -116t-65.5 -141q-104 241 -520 241q-146 0 -225.5 -68t-79.5 -229v-421 q0 -163 80 -232.5t225 -69.5q65 0 116 4t114.5 18.5t112.5 40t96.5 71.5t80.5 110q55 -93 59.5 -172.5t-34 -136.5t-110.5 -99t-165 -64t-202 -28q0 -17 -4 -49q118 -5 180.5 -57.5t62.5 -151.5q0 -96 -78 -155.5t-180 -59.5q-63 0 -109.5 19.5t-67.5 47t-33 54.5t-13 47 l-2 19q67 -29 145 -29q42 0 71.5 18t29.5 54q0 69 -125 69q-36 0 -68 -5.5t-47 -11.5z" />
<glyph unicode="&#xc8;" horiz-adv-x="1277" d="M903 657h-418v-409h732q0 -9 -1.5 -23.5t-6.5 -46t-18 -60t-32.5 -56.5t-54 -45t-78.5 -17h-629q-6 0 -15.5 0.5t-36.5 3.5t-52 8.5t-55.5 17t-52.5 27.5t-37 42.5t-15 58.5v1331h1084q0 -5 -0.5 -14t-4.5 -35t-10.5 -49.5t-21 -52.5t-33.5 -50t-50.5 -35t-70.5 -14h-541 v-332h385q90 0 156.5 8.5t87.5 16.5l21 8q0 -47 -4.5 -84t-19 -76t-39 -64.5t-67.5 -42t-102 -16.5zM670 2009q-15 -24 -15 -49q0 -13 5 -26.5t10.5 -23.5t18 -24.5t19.5 -22t23.5 -23.5t21.5 -21l74 -72q33 -34 28.5 -61t-36 -46.5t-67 -32t-64.5 -18.5l-29 -6l-112 86 q-90 69 -107 143t44 129t186 68z" />
<glyph unicode="&#xc9;" horiz-adv-x="1277" d="M903 657h-418v-409h732q0 -9 -1.5 -23.5t-6.5 -46t-18 -60t-32.5 -56.5t-54 -45t-78.5 -17h-629q-6 0 -15.5 0.5t-36.5 3.5t-52 8.5t-55.5 17t-52.5 27.5t-37 42.5t-15 58.5v1331h1084q0 -5 -0.5 -14t-4.5 -35t-10.5 -49.5t-21 -52.5t-33.5 -50t-50.5 -35t-70.5 -14h-541 v-332h385q90 0 156.5 8.5t87.5 16.5l21 8q0 -47 -4.5 -84t-19 -76t-39 -64.5t-67.5 -42t-102 -16.5zM698 2009q125 -13 186.5 -67.5t44.5 -129t-108 -143.5l-112 -86q-3 1 -8 2t-20.5 4t-30 7.5t-34.5 11t-35.5 14.5t-31.5 17.5t-24.5 21.5t-11.5 25t4 28.5t24 32.5l73 72 q3 3 25.5 24.5t29.5 29.5t20.5 25.5t18.5 32t5 29.5q0 25 -15 49z" />
<glyph unicode="&#xca;" horiz-adv-x="1277" d="M903 657h-418v-409h732q0 -9 -1.5 -23.5t-6.5 -46t-18 -60t-32.5 -56.5t-54 -45t-78.5 -17h-629q-6 0 -15.5 0.5t-36.5 3.5t-52 8.5t-55.5 17t-52.5 27.5t-37 42.5t-15 58.5v1331h1084q0 -5 -0.5 -14t-4.5 -35t-10.5 -49.5t-21 -52.5t-33.5 -50t-50.5 -35t-70.5 -14h-541 v-332h385q90 0 156.5 8.5t87.5 16.5l21 8q0 -47 -4.5 -84t-19 -76t-39 -64.5t-67.5 -42t-102 -16.5zM684 1792q-3 -1 -7 -4t-17 -11.5t-25.5 -17.5t-28 -22t-28 -26t-23.5 -29t-16 -31t-3.5 -31.5t11.5 -30.5q-203 47 -203 154q0 30 35 68t85 71.5t100 63t85 46.5l35 17 q14 -7 37 -18t81.5 -44.5t103.5 -64.5t81.5 -70t36.5 -69q0 -108 -202 -154q17 28 10 56t-31 54.5t-50 47t-47 33.5z" />
<glyph unicode="&#xcb;" horiz-adv-x="1277" d="M903 657h-418v-409h732q0 -9 -1.5 -23.5t-6.5 -46t-18 -60t-32.5 -56.5t-54 -45t-78.5 -17h-629q-6 0 -15.5 0.5t-36.5 3.5t-52 8.5t-55.5 17t-52.5 27.5t-37 42.5t-15 58.5v1331h1084q0 -5 -0.5 -14t-4.5 -35t-10.5 -49.5t-21 -52.5t-33.5 -50t-50.5 -35t-70.5 -14h-541 v-332h385q90 0 156.5 8.5t87.5 16.5l21 8q0 -47 -4.5 -84t-19 -76t-39 -64.5t-67.5 -42t-102 -16.5zM344 1663v203h186q42 0 70.5 -26t28.5 -52v-201h-185q-45 0 -72.5 23t-27.5 53zM741 1663v203h187q42 0 70 -26t28 -52v-201h-184q-45 0 -73 23t-28 53z" />
<glyph unicode="&#xcc;" horiz-adv-x="618" d="M133 137v1372q7 0 20 -0.5t49.5 -3.5t69.5 -8t74 -17t70 -28t49 -42t20 -58v-1372q-7 0 -20 0.5t-49.5 3.5t-69.5 8t-74 17t-70 28t-49 42t-20 58zM299 2009q-15 -24 -15 -49q0 -13 5 -26.5t10.5 -23.5t18 -24.5t19.5 -22t23.5 -23.5t21.5 -21l74 -72q33 -34 28.5 -61 t-36 -46.5t-67 -32t-64.5 -18.5l-29 -6l-112 86q-90 69 -107 143t44 129t186 68z" />
<glyph unicode="&#xcd;" horiz-adv-x="618" d="M133 137v1372q7 0 20 -0.5t49.5 -3.5t69.5 -8t74 -17t70 -28t49 -42t20 -58v-1372q-7 0 -20 0.5t-49.5 3.5t-69.5 8t-74 17t-70 28t-49 42t-20 58zM328 2009q125 -13 186.5 -67.5t44.5 -129t-108 -143.5l-113 -86q-3 1 -8 2t-20.5 4t-30 7.5t-34.5 11t-35.5 14.5 t-31.5 17.5t-24.5 21.5t-11.5 25t4 28.5t24 32.5l74 72q5 5 21.5 21t23.5 23.5t19.5 22t18 24.5t10.5 23.5t5 26.5q0 27 -14 49z" />
<glyph unicode="&#xce;" horiz-adv-x="618" d="M133 137v1372q7 0 20 -0.5t49.5 -3.5t69.5 -8t74 -17t70 -28t49 -42t20 -58v-1372q-7 0 -20 0.5t-49.5 3.5t-69.5 8t-74 17t-70 28t-49 42t-20 58zM313 1792q-3 -1 -7 -4t-17 -11.5t-25.5 -17.5t-28 -22t-28 -26t-23.5 -29t-16 -31t-3.5 -31.5t11.5 -30.5 q-203 47 -203 154q0 30 35 68t85 71.5t100 63t85 46.5l35 17q14 -7 37 -18t81.5 -44.5t103.5 -64.5t81.5 -70t36.5 -69q0 -108 -202 -154q17 28 10 56t-31 54.5t-50 47t-46 33.5z" />
<glyph unicode="&#xcf;" horiz-adv-x="618" d="M133 137v1372q7 0 20 -0.5t49.5 -3.5t69.5 -8t74 -17t70 -28t49 -42t20 -58v-1372q-7 0 -20 0.5t-49.5 3.5t-69.5 8t-74 17t-70 28t-49 42t-20 58zM-27 1663v203h187q42 0 70 -26t28 -52v-201h-184q-45 0 -73 23t-28 53zM371 1663v203h186q42 0 70 -26t28 -52v-201h-184 q-45 0 -72.5 23t-27.5 53z" />
<glyph unicode="&#xd0;" horiz-adv-x="1554" d="M129 854h4v635h635q110 0 203.5 -15t182.5 -52t151 -95.5t99.5 -152t37.5 -213.5v-433q0 -120 -37.5 -213.5t-99.5 -152t-151 -95.5t-182.5 -52t-203.5 -15h-375q-11 0 -28.5 1.5t-49.5 6t-61.5 15.5t-58 27t-45.5 44t-17 64v463h-131q-6 69 -0.5 120.5t37.5 82t90 30.5z M768 1239h-283v-385h299q9 -34 9 -72.5t-11 -75.5t-42 -61t-78 -24h-177v-373h283q322 0 322 301v393q0 297 -322 297z" />
<glyph unicode="&#xd1;" horiz-adv-x="1564" d="M575 1360l533 -846q-29 137 -29 268v707q7 0 20 -0.5t49.5 -3.5t70 -8.5t74 -17t70 -27.5t49.5 -42.5t20 -58.5v-1351q-106 0 -190.5 16.5t-130 39.5t-75.5 46.5t-40 39.5l-9 17l-524 838q22 -127 22 -240v-757q-7 0 -20 0.5t-49.5 3.5t-69.5 8t-74 17t-70 28t-49 42 t-20 58v1352q61 0 98 -1t86.5 -4.5t82 -12t68 -22.5t61.5 -36t46 -53zM475 1643q-25 33 -30.5 81t7 91t48.5 73.5t88 30.5q56 0 201 -49t204 -49q82 0 103 51q25 -33 30.5 -81t-7 -91t-48.5 -73.5t-88 -30.5q-56 0 -201 49t-204 49q-82 0 -103 -51z" />
<glyph unicode="&#xd2;" d="M1423 1004v-519q0 -245 -163 -377.5t-490 -132.5q-331 0 -494 132.5t-163 377.5v519q0 244 163 376.5t494 132.5q326 0 489.5 -133t163.5 -376zM1071 512v465q0 74 -12 122.5t-44 88t-93 58t-154 18.5t-154 -18.5t-93 -58t-44 -88t-12 -122.5v-465q0 -74 12 -123t44 -89 t93 -58.5t154 -18.5t154 18.5t93 58.5t44 89t12 123zM756 2009q-15 -24 -15 -49q0 -13 5 -26.5t10.5 -23.5t18 -24.5t19.5 -22t23.5 -23.5t21.5 -21l74 -72q33 -34 28.5 -61t-36 -46.5t-67 -32t-64.5 -18.5l-29 -6l-112 86q-90 69 -107 143t44 129t186 68z" />
<glyph unicode="&#xd3;" d="M1423 1004v-519q0 -245 -163 -377.5t-490 -132.5q-331 0 -494 132.5t-163 377.5v519q0 244 163 376.5t494 132.5q326 0 489.5 -133t163.5 -376zM1071 512v465q0 74 -12 122.5t-44 88t-93 58t-154 18.5t-154 -18.5t-93 -58t-44 -88t-12 -122.5v-465q0 -74 12 -123t44 -89 t93 -58.5t154 -18.5t154 18.5t93 58.5t44 89t12 123zM784 2009q125 -13 186.5 -67.5t44.5 -129t-108 -143.5l-112 -86q-3 1 -8 2t-20.5 4t-30 7.5t-34.5 11t-35.5 14.5t-31.5 17.5t-24.5 21.5t-11.5 25t4 28.5t24 32.5l73 72q3 3 25.5 24.5t29.5 29.5t20.5 25.5t18.5 32 t5 29.5q0 25 -15 49z" />
<glyph unicode="&#xd4;" d="M1423 1004v-519q0 -245 -163 -377.5t-490 -132.5q-331 0 -494 132.5t-163 377.5v519q0 244 163 376.5t494 132.5q326 0 489.5 -133t163.5 -376zM1071 512v465q0 74 -12 122.5t-44 88t-93 58t-154 18.5t-154 -18.5t-93 -58t-44 -88t-12 -122.5v-465q0 -74 12 -123t44 -89 t93 -58.5t154 -18.5t154 18.5t93 58.5t44 89t12 123zM770 1792q-3 -1 -7 -4t-17 -11.5t-25.5 -17.5t-28 -22t-28 -26t-23.5 -29t-16 -31t-3.5 -31.5t11.5 -30.5q-203 47 -203 154q0 30 35 68t85 71.5t100 63t85 46.5l35 17q14 -7 37 -18t81.5 -44.5t103.5 -64.5t81.5 -70 t36.5 -69q0 -108 -202 -154q17 28 10 56t-31 54.5t-50 47t-47 33.5z" />
<glyph unicode="&#xd5;" d="M1423 1004v-519q0 -245 -163 -377.5t-490 -132.5q-331 0 -494 132.5t-163 377.5v519q0 244 163 376.5t494 132.5q326 0 489.5 -133t163.5 -376zM1071 512v465q0 74 -12 122.5t-44 88t-93 58t-154 18.5t-154 -18.5t-93 -58t-44 -88t-12 -122.5v-465q0 -74 12 -123t44 -89 t93 -58.5t154 -18.5t154 18.5t93 58.5t44 89t12 123zM461 1642q-25 33 -30.5 81t7 91.5t48 74t87.5 30.5q56 0 201.5 -49t204.5 -49q81 0 102 51q25 -33 30.5 -81t-7 -91.5t-48 -74t-87.5 -30.5q-56 0 -201.5 49.5t-204.5 49.5q-30 0 -60 -11.5t-42 -40.5z" />
<glyph unicode="&#xd6;" d="M1423 1004v-519q0 -245 -163 -377.5t-490 -132.5q-331 0 -494 132.5t-163 377.5v519q0 244 163 376.5t494 132.5q326 0 489.5 -133t163.5 -376zM1071 512v465q0 74 -12 122.5t-44 88t-93 58t-154 18.5t-154 -18.5t-93 -58t-44 -88t-12 -122.5v-465q0 -74 12 -123t44 -89 t93 -58.5t154 -18.5t154 18.5t93 58.5t44 89t12 123zM430 1663v203h187q42 0 70 -26t28 -52v-201h-184q-45 0 -73 23t-28 53zM827 1663v203h187q42 0 70 -26t28 -52v-201h-184q-45 0 -73 23t-28 53z" />
<glyph unicode="&#xd7;" horiz-adv-x="1048" d="M621 276l-99 97l-192 -195q-5 3 -14 9.5t-32 26t-42.5 39t-39.5 47.5t-28.5 54t-3.5 55t29 54l114 121l-200 194q6 10 17.5 26.5t46.5 51.5t70 54t84 14.5t93 -47.5l94 -93l197 199q5 -3 14 -9t32.5 -24.5t43 -37.5t39.5 -46t29 -52t4 -54t-29 -53l-121 -121l209 -209 q-3 -5 -9.5 -14t-26.5 -32t-41 -42t-51 -36.5t-59 -23.5t-63 5t-65 42z" />
<glyph unicode="&#xd8;" d="M1423 1004v-519q0 -245 -163 -377.5t-490 -132.5q-313 0 -479 119l-117 -125q-7 5 -18.5 13.5t-37.5 35t-40.5 52t-13.5 60t28 63.5l64 67q-43 98 -43 225v519q0 244 163 376.5t494 132.5q295 0 457 -110l102 108q8 -5 20 -13t39 -33.5t42.5 -50t15 -58.5t-28.5 -64 l-47 -49q53 -106 53 -239zM1071 512v412l-567 -602q64 -99 264 -99q93 0 154 18.5t93 58.5t44 89t12 123zM465 977v-387l555 592q-67 82 -252 82q-93 0 -154 -18.5t-93 -58t-44 -88t-12 -122.5z" />
<glyph unicode="&#xd9;" d="M1423 1352v-889q0 -95 -34.5 -175.5t-95.5 -137.5t-143.5 -97t-178.5 -59t-201 -19q-106 0 -202.5 19t-180 59t-144.5 97t-95.5 137.5t-34.5 175.5v1046q7 0 20 -0.5t49.5 -3.5t69.5 -8t74 -17t70 -28t49 -42t20 -58v-858q0 -125 83.5 -193t221.5 -68q136 0 218.5 68.5 t82.5 192.5v1015q7 0 20 -0.5t49.5 -3.5t69.5 -8t74 -17t70 -28t49 -42t20 -58zM756 2009q-15 -24 -15 -49q0 -13 5 -26.5t10.5 -23.5t18 -24.5t19.5 -22t23.5 -23.5t21.5 -21l74 -72q33 -34 28.5 -61t-36 -46.5t-67 -32t-64.5 -18.5l-29 -6l-112 86q-90 69 -107 143t44 129 t186 68z" />
<glyph unicode="&#xda;" d="M1423 1352v-889q0 -95 -34.5 -175.5t-95.5 -137.5t-143.5 -97t-178.5 -59t-201 -19q-106 0 -202.5 19t-180 59t-144.5 97t-95.5 137.5t-34.5 175.5v1046q7 0 20 -0.5t49.5 -3.5t69.5 -8t74 -17t70 -28t49 -42t20 -58v-858q0 -125 83.5 -193t221.5 -68q136 0 218.5 68.5 t82.5 192.5v1015q7 0 20 -0.5t49.5 -3.5t69.5 -8t74 -17t70 -28t49 -42t20 -58zM784 2009q125 -13 186.5 -67.5t44.5 -129t-108 -143.5l-112 -86q-3 1 -8 2t-20.5 4t-30 7.5t-34.5 11t-35.5 14.5t-31.5 17.5t-24.5 21.5t-11.5 25t4 28.5t24 32.5l73 72q3 3 25.5 24.5 t29.5 29.5t20.5 25.5t18.5 32t5 29.5q0 25 -15 49z" />
<glyph unicode="&#xdb;" d="M1423 1352v-889q0 -95 -34.5 -175.5t-95.5 -137.5t-143.5 -97t-178.5 -59t-201 -19q-106 0 -202.5 19t-180 59t-144.5 97t-95.5 137.5t-34.5 175.5v1046q7 0 20 -0.5t49.5 -3.5t69.5 -8t74 -17t70 -28t49 -42t20 -58v-858q0 -125 83.5 -193t221.5 -68q136 0 218.5 68.5 t82.5 192.5v1015q7 0 20 -0.5t49.5 -3.5t69.5 -8t74 -17t70 -28t49 -42t20 -58zM770 1792q-3 -1 -7 -4t-17 -11.5t-25.5 -17.5t-28 -22t-28 -26t-23.5 -29t-16 -31t-3.5 -31.5t11.5 -30.5q-203 47 -203 154q0 30 35 68t85 71.5t100 63t85 46.5l35 17q14 -7 37 -18 t81.5 -44.5t103.5 -64.5t81.5 -70t36.5 -69q0 -108 -202 -154q17 28 10 56t-31 54.5t-50 47t-47 33.5z" />
<glyph unicode="&#xdc;" d="M1423 1352v-889q0 -95 -34.5 -175.5t-95.5 -137.5t-143.5 -97t-178.5 -59t-201 -19q-106 0 -202.5 19t-180 59t-144.5 97t-95.5 137.5t-34.5 175.5v1046q7 0 20 -0.5t49.5 -3.5t69.5 -8t74 -17t70 -28t49 -42t20 -58v-858q0 -125 83.5 -193t221.5 -68q136 0 218.5 68.5 t82.5 192.5v1015q7 0 20 -0.5t49.5 -3.5t69.5 -8t74 -17t70 -28t49 -42t20 -58zM430 1663v203h186q42 0 70.5 -26t28.5 -52v-201h-185q-45 0 -72.5 23t-27.5 53zM827 1663v203h187q42 0 70 -26t28 -52v-201h-184q-45 0 -73 23t-28 53z" />
<glyph unicode="&#xdd;" horiz-adv-x="1376" d="M514 133v473q-89 94 -156 199.5t-105 192.5t-105 221t-144 254q111 28 174 28q191 0 264 -145l86 -172q114 -234 160 -316q19 34 41 78.5t49.5 104t44.5 94.5l115 233q62 123 242 123q91 0 192 -33q-63 -110 -132 -247.5t-111 -223.5t-111.5 -192.5t-153.5 -198.5v-626 q-7 0 -20 0.5t-49 3t-69 8t-73.5 17t-69.5 27t-49 41t-20 56.5zM701 2009q94 -10 153 -45t74.5 -82t-11 -104t-94.5 -109l-112 -86q-3 1 -8 2t-20.5 4t-30 7.5t-34.5 11t-35.5 14.5t-31.5 17.5t-24.5 21.5t-11.5 25t4 28.5t24 32.5l74 72q5 5 21.5 21t23.5 23.5t19.5 22 t18 24.5t10.5 23.5t5 26.5q0 27 -14 49z" />
<glyph unicode="&#xde;" horiz-adv-x="1308" d="M133 137v1448q7 0 20 -0.5t49.5 -3t69.5 -8t74 -17t70 -27t49 -41t20 -56.5v-107h101q79 0 145.5 -5t135 -19.5t122 -38t102 -61.5t80 -89t50 -123t18.5 -160v-36q0 -117 -35.5 -206.5t-94 -144t-145 -89t-177 -47.5t-201.5 -13h-101v-313q-7 0 -20 0.5t-49.5 3.5 t-69.5 8t-74 17t-70 28t-49 42t-20 58zM586 1075h-101v-534h101q59 0 99.5 5t81.5 21t65.5 45t39.5 79t15 120q0 146 -78.5 205t-222.5 59z" />
<glyph unicode="&#xdf;" horiz-adv-x="1425" d="M692 1346q-109 0 -172 -65t-63 -177v-1124q-7 0 -19.5 0.5t-48 3.5t-68 8t-72.5 17t-68.5 28t-48 42t-19.5 58v1008q0 100 50.5 185.5t132.5 141.5t184 87.5t206 31.5q116 0 211 -19.5t170 -60.5t116.5 -110.5t41.5 -161.5q0 -64 -29.5 -119.5t-71.5 -93.5t-84.5 -70.5 t-72 -64.5t-29.5 -62q0 -20 15.5 -35.5t42 -28t61 -24.5t72 -28t75.5 -35.5t72.5 -50t61 -68.5t42 -93.5t15.5 -123.5q0 -171 -128.5 -269t-383.5 -98q-151 0 -248.5 64t-97.5 162q0 109 118 219q-2 -8 -2 -25q0 -83 64 -130.5t149 -47.5q185 0 185 158q0 43 -33 75t-82 50 t-106.5 42.5t-106.5 50.5t-82 75.5t-33 115.5q0 59 28.5 115.5t69 99t80.5 79.5t68.5 71.5t28.5 60.5q0 68 -53 102t-138 34z" />
<glyph unicode="&#xe0;" horiz-adv-x="1144" d="M705 229v279q-18 -28 -68 -46.5t-97.5 -28.5t-85.5 -37t-38 -72q0 -117 139 -117q33 0 70.5 5.5t58.5 11.5zM528 860q-65 0 -119.5 -11t-105 -36.5t-79.5 -75t-29 -119.5q-95 125 -95 238q0 59 32 105t79 72t108.5 43t113 22.5t99.5 5.5q250 0 380 -94t130 -273v-762 q-68 37 -176 37q-53 0 -167.5 -18.5t-176.5 -18.5q-91 0 -167.5 17t-142.5 54t-103 104.5t-37 160.5q0 77 29.5 135t78.5 93t108.5 60t124 41.5t120 31t101 35t64.5 47.5q0 44 -39.5 75t-130.5 31zM543 1632q-15 -24 -15 -49q0 -13 5 -26.5t10.5 -23.5t18 -24.5t19.5 -22 t23.5 -23.5t21.5 -21l74 -72q33 -34 28.5 -61t-36 -46.5t-67 -32t-64.5 -18.5l-29 -6l-112 86q-90 69 -107 143t44 129t186 68z" />
<glyph unicode="&#xe1;" horiz-adv-x="1144" d="M705 229v279q-18 -28 -68 -46.5t-97.5 -28.5t-85.5 -37t-38 -72q0 -117 139 -117q33 0 70.5 5.5t58.5 11.5zM528 860q-65 0 -119.5 -11t-105 -36.5t-79.5 -75t-29 -119.5q-95 125 -95 238q0 59 32 105t79 72t108.5 43t113 22.5t99.5 5.5q250 0 380 -94t130 -273v-762 q-68 37 -176 37q-53 0 -167.5 -18.5t-176.5 -18.5q-91 0 -167.5 17t-142.5 54t-103 104.5t-37 160.5q0 77 29.5 135t78.5 93t108.5 60t124 41.5t120 31t101 35t64.5 47.5q0 44 -39.5 75t-130.5 31zM571 1632q125 -13 186.5 -67.5t44.5 -129t-108 -143.5l-112 -86q-3 1 -8 2 t-20.5 4t-30 7.5t-34.5 11t-35.5 14.5t-31.5 17.5t-24.5 21.5t-11.5 25t4 28.5t24 32.5l73 72q3 3 25.5 24.5t29.5 29.5t20.5 25.5t18.5 32t5 29.5q0 25 -15 49z" />
<glyph unicode="&#xe2;" horiz-adv-x="1144" d="M705 229v279q-18 -28 -68 -46.5t-97.5 -28.5t-85.5 -37t-38 -72q0 -117 139 -117q33 0 70.5 5.5t58.5 11.5zM528 860q-65 0 -119.5 -11t-105 -36.5t-79.5 -75t-29 -119.5q-95 125 -95 238q0 59 32 105t79 72t108.5 43t113 22.5t99.5 5.5q250 0 380 -94t130 -273v-762 q-68 37 -176 37q-53 0 -167.5 -18.5t-176.5 -18.5q-91 0 -167.5 17t-142.5 54t-103 104.5t-37 160.5q0 77 29.5 135t78.5 93t108.5 60t124 41.5t120 31t101 35t64.5 47.5q0 44 -39.5 75t-130.5 31zM557 1415q-3 -1 -7 -4t-17 -11.5t-25.5 -17.5t-28 -22t-28 -26t-23.5 -29 t-16 -31t-3.5 -31.5t11.5 -30.5q-203 47 -203 154q0 30 35 68t85 71.5t100 63t85 46.5l35 17q14 -7 37 -18t81.5 -44.5t103.5 -64.5t81.5 -70t36.5 -69q0 -108 -202 -154q17 28 10 56t-31 54.5t-50 47t-46 32.5z" />
<glyph unicode="&#xe3;" horiz-adv-x="1144" d="M705 229v279q-18 -28 -68 -46.5t-97.5 -28.5t-85.5 -37t-38 -72q0 -117 139 -117q33 0 70.5 5.5t58.5 11.5zM528 860q-65 0 -119.5 -11t-105 -36.5t-79.5 -75t-29 -119.5q-95 125 -95 238q0 59 32 105t79 72t108.5 43t113 22.5t99.5 5.5q250 0 380 -94t130 -273v-762 q-68 37 -176 37q-53 0 -167.5 -18.5t-176.5 -18.5q-91 0 -167.5 17t-142.5 54t-103 104.5t-37 160.5q0 77 29.5 135t78.5 93t108.5 60t124 41.5t120 31t101 35t64.5 47.5q0 44 -39.5 75t-130.5 31zM248 1266q-25 33 -30.5 81t7 91t48 73.5t87.5 30.5q56 0 201.5 -49 t204.5 -49q81 0 102 51q25 -33 30.5 -81t-7 -91t-48 -73.5t-87.5 -30.5q-56 0 -201.5 49t-204.5 49q-81 0 -102 -51z" />
<glyph unicode="&#xe4;" horiz-adv-x="1144" d="M705 229v279q-18 -28 -68 -46.5t-97.5 -28.5t-85.5 -37t-38 -72q0 -117 139 -117q33 0 70.5 5.5t58.5 11.5zM528 860q-65 0 -119.5 -11t-105 -36.5t-79.5 -75t-29 -119.5q-95 125 -95 238q0 59 32 105t79 72t108.5 43t113 22.5t99.5 5.5q250 0 380 -94t130 -273v-762 q-68 37 -176 37q-53 0 -167.5 -18.5t-176.5 -18.5q-91 0 -167.5 17t-142.5 54t-103 104.5t-37 160.5q0 77 29.5 135t78.5 93t108.5 60t124 41.5t120 31t101 35t64.5 47.5q0 44 -39.5 75t-130.5 31zM217 1286v203h187q42 0 70 -26t28 -52v-201h-184q-45 0 -73 23t-28 53z M614 1286v203h187q42 0 70 -26t28 -52v-201h-184q-45 0 -73 23t-28 53z" />
<glyph unicode="&#xe5;" horiz-adv-x="1144" d="M705 229v279q-18 -28 -68 -46.5t-97.5 -28.5t-85.5 -37t-38 -72q0 -117 139 -117q33 0 70.5 5.5t58.5 11.5zM528 860q-65 0 -119.5 -11t-105 -36.5t-79.5 -75t-29 -119.5q-95 125 -95 238q0 59 32 105t79 72t108.5 43t113 22.5t99.5 5.5q250 0 380 -94t130 -273v-762 q-68 37 -176 37q-53 0 -167.5 -18.5t-176.5 -18.5q-91 0 -167.5 17t-142.5 54t-103 104.5t-37 160.5q0 77 29.5 135t78.5 93t108.5 60t124 41.5t120 31t101 35t64.5 47.5q0 44 -39.5 75t-130.5 31zM608 1384v35q0 31 -53 31q-30 0 -39.5 -8t-9.5 -23v-35q0 -14 8.5 -19 t40.5 -5q31 0 42 5t11 19zM797 1436v-68q0 -70 -65 -108.5t-175 -38.5q-108 0 -173 39t-65 108v68q0 71 65.5 112t172.5 41q110 0 175 -41t65 -112z" />
<glyph unicode="&#xe6;" horiz-adv-x="1736" d="M528 860q-65 0 -119.5 -11t-105 -36.5t-79.5 -75t-29 -119.5q-95 125 -95 238q0 59 32 105t79 72t108.5 43t113 22.5t99.5 5.5q222 0 342 -84q117 84 320 84q230 0 341.5 -97t111.5 -268q0 -72 -20.5 -131t-67.5 -109.5t-135.5 -79t-211.5 -28.5q-46 0 -88 8.5t-61 16.5 l-19 8v-33q0 -84 54 -125t151 -41q154 0 247 60t95 143q74 -103 74 -186q0 -115 -117.5 -191t-308.5 -76q-79 0 -146 12.5t-107 30t-69 34.5t-40 30l-11 12q-4 -5 -12 -13t-38.5 -28.5t-67 -36t-97.5 -28.5t-129 -13q-91 0 -167.5 17t-142.5 54t-103 104.5t-37 160.5 q0 77 28.5 135t76 93t105.5 60t121.5 41.5t119.5 31t104 35t71 47.5q0 44 -39.5 75t-130.5 31zM549 207q156 0 156 168v94q-24 -19 -64 -32.5t-77 -22t-71.5 -19.5t-55.5 -32.5t-21 -53.5q0 -102 133 -102zM1044 688v-45q62 -16 117 -16q144 0 144 112q0 123 -125 123 q-74 0 -105 -43t-31 -131z" />
<glyph unicode="&#xe7;" horiz-adv-x="1073" d="M408 -219q0 28 12 57l59 146q-183 25 -285 123t-102 253v359q0 181 129 283t365 102q47 0 96 -5.5t108.5 -22t104.5 -42.5t75.5 -72t30.5 -106q0 -112 -96 -250q0 65 -22 116t-58.5 80t-78.5 43.5t-87 14.5q-32 0 -55.5 -2t-51.5 -9t-47 -21.5t-35.5 -36.5t-25 -57.5 t-8.5 -82.5v-217q0 -113 52 -161t163 -48q127 0 211 61.5t86 141.5q76 -106 76 -182q0 -108 -98 -182.5t-267 -86.5q0 -17 -4 -49q118 -5 181 -57.5t63 -151.5q0 -96 -78 -155.5t-180 -59.5q-63 0 -109.5 19.5t-67.5 47t-33 54.5t-13 47l-2 19q67 -29 145 -29q42 0 71.5 18 t29.5 54q0 69 -125 69q-36 0 -68 -5.5t-47 -11.5z" />
<glyph unicode="&#xe8;" horiz-adv-x="1128" d="M436 688v-45q62 -16 117 -16q143 0 143 112q0 123 -125 123q-74 0 -104.5 -43t-30.5 -131zM631 -25q-260 0 -399.5 101t-139.5 284v359q0 181 129 283t365 102q230 0 341 -97t111 -268q0 -72 -20.5 -131t-67.5 -109.5t-135 -79t-211 -28.5q-46 0 -88 8.5t-61 16.5l-19 8 v-33q0 -84 54 -125t151 -41q154 0 247 60t95 143q74 -103 74 -186q0 -115 -117.5 -191t-308.5 -76zM572 1632q-15 -24 -15 -49q0 -13 5 -26.5t10.5 -23.5t18 -24.5t19.5 -22t23.5 -23.5t21.5 -21l74 -72q33 -34 28.5 -61t-36 -46.5t-67 -32t-64.5 -18.5l-29 -6l-112 86 q-90 69 -107 143t44 129t186 68z" />
<glyph unicode="&#xe9;" horiz-adv-x="1128" d="M436 688v-45q62 -16 117 -16q143 0 143 112q0 123 -125 123q-74 0 -104.5 -43t-30.5 -131zM631 -25q-260 0 -399.5 101t-139.5 284v359q0 181 129 283t365 102q230 0 341 -97t111 -268q0 -72 -20.5 -131t-67.5 -109.5t-135 -79t-211 -28.5q-46 0 -88 8.5t-61 16.5l-19 8 v-33q0 -84 54 -125t151 -41q154 0 247 60t95 143q74 -103 74 -186q0 -115 -117.5 -191t-308.5 -76zM600 1632q125 -13 186.5 -67.5t44.5 -129t-108 -143.5l-113 -86q-3 1 -8 2t-20.5 4t-30 7.5t-34.5 11t-35.5 14.5t-31.5 17.5t-24.5 21.5t-11.5 25t4 28.5t24 32.5l74 72 q5 5 21.5 21t23.5 23.5t19.5 22t18 24.5t10.5 23.5t5 26.5q0 27 -14 49z" />
<glyph unicode="&#xea;" horiz-adv-x="1128" d="M436 688v-45q62 -16 117 -16q143 0 143 112q0 123 -125 123q-74 0 -104.5 -43t-30.5 -131zM631 -25q-260 0 -399.5 101t-139.5 284v359q0 181 129 283t365 102q230 0 341 -97t111 -268q0 -72 -20.5 -131t-67.5 -109.5t-135 -79t-211 -28.5q-46 0 -88 8.5t-61 16.5l-19 8 v-33q0 -84 54 -125t151 -41q154 0 247 60t95 143q74 -103 74 -186q0 -115 -117.5 -191t-308.5 -76zM585 1415q-3 -1 -7 -4t-17 -11.5t-25.5 -17.5t-28 -22t-28 -26t-23.5 -29t-16 -31t-3.5 -31.5t11.5 -30.5q-203 47 -203 154q0 30 35 68t85 71.5t100 63t85 46.5l35 17 q14 -7 37 -18t81.5 -44.5t103.5 -64.5t81.5 -70t36.5 -69q0 -108 -202 -154q17 28 10 56t-31 54.5t-50 47t-46 32.5z" />
<glyph unicode="&#xeb;" horiz-adv-x="1128" d="M436 688v-45q62 -16 117 -16q143 0 143 112q0 123 -125 123q-74 0 -104.5 -43t-30.5 -131zM631 -25q-260 0 -399.5 101t-139.5 284v359q0 181 129 283t365 102q230 0 341 -97t111 -268q0 -72 -20.5 -131t-67.5 -109.5t-135 -79t-211 -28.5q-46 0 -88 8.5t-61 16.5l-19 8 v-33q0 -84 54 -125t151 -41q154 0 247 60t95 143q74 -103 74 -186q0 -115 -117.5 -191t-308.5 -76zM246 1286v203h186q42 0 70 -26t28 -52v-201h-184q-45 0 -72.5 23t-27.5 53zM643 1286v203h186q42 0 70.5 -26t28.5 -52v-201h-185q-45 0 -72.5 23t-27.5 53z" />
<glyph unicode="&#xec;" horiz-adv-x="569" d="M113 145v957q20 0 46 -1t83.5 -9.5t101 -23t78.5 -46t35 -74.5v-956q-7 0 -19.5 0.5t-48 3t-68 8t-72.5 17t-68.5 27t-48 41t-19.5 56.5zM271 1632q-15 -24 -15 -49q0 -13 5 -26.5t10.5 -23.5t18 -24.5t19.5 -22t23.5 -23.5t21.5 -21l74 -72q33 -34 28.5 -61t-36 -46.5 t-67 -32t-64.5 -18.5l-29 -6l-112 86q-90 69 -107 143t44 129t186 68z" />
<glyph unicode="&#xed;" horiz-adv-x="569" d="M113 145v957q20 0 46 -1t83.5 -9.5t101 -23t78.5 -46t35 -74.5v-956q-7 0 -19.5 0.5t-48 3t-68 8t-72.5 17t-68.5 27t-48 41t-19.5 56.5zM299 1632q125 -13 186.5 -67.5t44.5 -129t-108 -143.5l-113 -86q-3 1 -8 2t-20.5 4t-30 7.5t-34.5 11t-35.5 14.5t-31.5 17.5 t-24.5 21.5t-11.5 25t4 28.5t24 32.5l74 72q5 5 21.5 21t23.5 23.5t19.5 22t18 24.5t10.5 23.5t5 26.5q0 27 -14 49z" />
<glyph unicode="&#xee;" horiz-adv-x="569" d="M113 145v957q20 0 46 -1t83.5 -9.5t101 -23t78.5 -46t35 -74.5v-956q-7 0 -19.5 0.5t-48 3t-68 8t-72.5 17t-68.5 27t-48 41t-19.5 56.5zM284 1415q-3 -1 -7 -4t-17 -11.5t-25.5 -17.5t-28 -22t-28 -26t-23.5 -29t-16 -31t-3.5 -31.5t11.5 -30.5q-203 47 -203 154 q0 30 35 68t85 71.5t100 63t85 46.5l35 17q14 -7 37 -18t81.5 -44.5t103.5 -64.5t81.5 -70t36.5 -69q0 -108 -202 -154q17 28 10 56t-31 54.5t-50 47t-47 32.5z" />
<glyph unicode="&#xef;" horiz-adv-x="569" d="M113 145v957q20 0 46 -1t83.5 -9.5t101 -23t78.5 -46t35 -74.5v-956q-7 0 -19.5 0.5t-48 3t-68 8t-72.5 17t-68.5 27t-48 41t-19.5 56.5zM-55 1286v203h186q42 0 70 -26t28 -52v-201h-184q-45 0 -72.5 23t-27.5 53zM342 1286v203h186q42 0 70.5 -26t28.5 -52v-201h-185 q-45 0 -72.5 23t-27.5 53z" />
<glyph unicode="&#xf0;" horiz-adv-x="1249" d="M92 360v359q0 177 133.5 281t372.5 104q44 0 93 -8t77 -16l27 -9q-24 93 -107 186l-256 -108q-84 151 -8 186l102 43q-119 58 -237 58q6 80 58 127t130 47q195 0 344 -107l252 107l7 -16q8 -16 10.5 -22t9.5 -23t9 -26t5.5 -24t2 -24.5t-4.5 -20.5t-11 -18.5t-20 -12.5 l-125 -53q99 -127 150 -300t51 -351v-359q0 -185 -132.5 -285t-397.5 -100q-269 0 -402 100t-133 285zM436 391q0 -92 39.5 -134t151.5 -42q109 0 147.5 42t38.5 134v342q0 129 -186 129q-112 0 -151.5 -41.5t-39.5 -132.5v-297z" />
<glyph unicode="&#xf1;" horiz-adv-x="1232" d="M776 143v568q0 75 -35 111t-120 36q-32 0 -71.5 -4.5t-63.5 -9.5l-23 -4v-854q-7 0 -19.5 0.5t-48 3.5t-68 8t-72.5 17t-68.5 28t-48 42t-19.5 58v967q10 -5 28.5 -13.5t77.5 -22t119 -13.5q49 0 149 21.5t156 21.5q73 0 137.5 -10t127 -36t107 -66t72 -104t27.5 -147 v-755q-7 0 -19.5 0.5t-48 4t-68 9t-72.5 17.5t-68.5 27.5t-48 41.5t-19.5 57zM307 1266q-25 33 -30.5 81t7 91t48.5 73.5t88 30.5q56 0 201 -49t204 -49q82 0 103 51q25 -33 30.5 -81t-7 -91t-48.5 -73.5t-88 -30.5q-56 0 -201 49t-204 49q-82 0 -103 -51z" />
<glyph unicode="&#xf2;" horiz-adv-x="1249" d="M1157 719v-359q0 -185 -132.5 -285t-397.5 -100q-269 0 -402 100t-133 285v359q0 184 133.5 284.5t401.5 100.5q265 0 397.5 -100.5t132.5 -284.5zM813 391v297q0 91 -38.5 132.5t-147.5 41.5q-112 0 -151.5 -41.5t-39.5 -132.5v-297q0 -92 39.5 -134t151.5 -42 q109 0 147.5 42t38.5 134zM613 1632q-15 -24 -15 -49q0 -13 5 -26.5t10.5 -23.5t18 -24.5t19.5 -22t23.5 -23.5t21.5 -21l74 -72q33 -34 28.5 -61t-36 -46.5t-67 -32t-64.5 -18.5l-29 -6l-112 86q-90 69 -107 143t44 129t186 68z" />
<glyph unicode="&#xf3;" horiz-adv-x="1249" d="M1157 719v-359q0 -185 -132.5 -285t-397.5 -100q-269 0 -402 100t-133 285v359q0 184 133.5 284.5t401.5 100.5q265 0 397.5 -100.5t132.5 -284.5zM813 391v297q0 91 -38.5 132.5t-147.5 41.5q-112 0 -151.5 -41.5t-39.5 -132.5v-297q0 -92 39.5 -134t151.5 -42 q109 0 147.5 42t38.5 134zM641 1632q125 -13 186.5 -67.5t44.5 -129t-108 -143.5l-113 -86q-3 1 -8 2t-20.5 4t-30 7.5t-34.5 11t-35.5 14.5t-31.5 17.5t-24.5 21.5t-11.5 25t4 28.5t24 32.5l74 72q5 5 21.5 21t23.5 23.5t19.5 22t18 24.5t10.5 23.5t5 26.5q0 27 -14 49z " />
<glyph unicode="&#xf4;" horiz-adv-x="1249" d="M1157 719v-359q0 -185 -132.5 -285t-397.5 -100q-269 0 -402 100t-133 285v359q0 184 133.5 284.5t401.5 100.5q265 0 397.5 -100.5t132.5 -284.5zM813 391v297q0 91 -38.5 132.5t-147.5 41.5q-112 0 -151.5 -41.5t-39.5 -132.5v-297q0 -92 39.5 -134t151.5 -42 q109 0 147.5 42t38.5 134zM626 1415q-3 -1 -7 -4t-17 -11.5t-25.5 -17.5t-28 -22t-28 -26t-23.5 -29t-16 -31t-3.5 -31.5t11.5 -30.5q-203 47 -203 154q0 30 35 68t85 71.5t100 63t85 46.5l35 17q14 -7 37 -18t81.5 -44.5t103.5 -64.5t81.5 -70t36.5 -69q0 -108 -202 -154 q17 28 10 56t-31 54.5t-50 47t-47 32.5z" />
<glyph unicode="&#xf5;" horiz-adv-x="1249" d="M1157 719v-359q0 -185 -132.5 -285t-397.5 -100q-269 0 -402 100t-133 285v359q0 184 133.5 284.5t401.5 100.5q265 0 397.5 -100.5t132.5 -284.5zM813 391v297q0 91 -38.5 132.5t-147.5 41.5q-112 0 -151.5 -41.5t-39.5 -132.5v-297q0 -92 39.5 -134t151.5 -42 q109 0 147.5 42t38.5 134zM317 1266q-25 33 -30.5 81t7 91t48.5 73.5t88 30.5q56 0 201.5 -49t204.5 -49q81 0 102 51q25 -33 30.5 -81t-7 -91t-48.5 -73.5t-88 -30.5q-56 0 -201 49t-204 49q-82 0 -103 -51z" />
<glyph unicode="&#xf6;" horiz-adv-x="1249" d="M1157 719v-359q0 -185 -132.5 -285t-397.5 -100q-269 0 -402 100t-133 285v359q0 184 133.5 284.5t401.5 100.5q265 0 397.5 -100.5t132.5 -284.5zM813 391v297q0 91 -38.5 132.5t-147.5 41.5q-112 0 -151.5 -41.5t-39.5 -132.5v-297q0 -92 39.5 -134t151.5 -42 q109 0 147.5 42t38.5 134zM287 1286v203h187q42 0 70 -26t28 -52v-201h-184q-45 0 -73 23t-28 53zM684 1286v203h187q42 0 70 -26t28 -52v-201h-184q-45 0 -73 23t-28 53z" />
<glyph unicode="&#xf7;" horiz-adv-x="1112" d="M416 88v188h190q45 0 79 -25.5t34 -55.5v-189h-187q-47 0 -81.5 24t-34.5 58zM416 854v188h190q45 0 79 -25t34 -56v-189h-187q-47 0 -81.5 24.5t-34.5 57.5zM270 653h723q6 -32 6 -75q0 -181 -153 -181h-727q-6 29 -6 68q0 33 6 62t21.5 59.5t48.5 48.5t81 18z" />
<glyph unicode="&#xf8;" horiz-adv-x="1249" d="M1157 719v-359q0 -185 -132.5 -285t-397.5 -100q-253 0 -389 91l-121 -107q-9 8 -23 21.5t-37.5 51.5t-23.5 72q0 44 39 78l43 37q-23 62 -23 141v359q0 184 133.5 284.5t401.5 100.5q251 0 387 -94l116 104q4 -3 10 -8t21.5 -20.5t27.5 -31.5t22 -39t10 -44 q0 -42 -39 -76l-47 -41q22 -64 22 -135zM436 688v-186l348 307q-41 53 -157 53q-112 0 -151.5 -41.5t-39.5 -132.5zM813 391v180l-346 -305q42 -51 160 -51q109 0 147.5 42t38.5 134z" />
<glyph unicode="&#xf9;" horiz-adv-x="1226" d="M457 936v-567q0 -75 36.5 -112.5t122.5 -37.5q31 0 69.5 5.5t61.5 10.5l23 5v854q7 0 19.5 -0.5t48 -3.5t68 -8.5t72.5 -17t68.5 -27.5t48 -42.5t19.5 -58.5v-969q-10 6 -29 14.5t-77 22.5t-115 14q-52 0 -152.5 -21.5t-152.5 -21.5q-73 0 -138 10t-128 36t-108 66 t-73 104t-28 147v756q14 0 37 -1.5t82.5 -11t105 -24.5t82.5 -47t37 -74zM598 1632q-15 -24 -15 -49q0 -13 5 -26.5t10.5 -23.5t18 -24.5t19.5 -22t23.5 -23.5t21.5 -21l74 -72q33 -34 28.5 -61t-36 -46.5t-67 -32t-64.5 -18.5l-29 -6l-112 86q-90 69 -107 143t44 129 t186 68z" />
<glyph unicode="&#xfa;" horiz-adv-x="1226" d="M457 936v-567q0 -75 36.5 -112.5t122.5 -37.5q31 0 69.5 5.5t61.5 10.5l23 5v854q7 0 19.5 -0.5t48 -3.5t68 -8.5t72.5 -17t68.5 -27.5t48 -42.5t19.5 -58.5v-969q-10 6 -29 14.5t-77 22.5t-115 14q-52 0 -152.5 -21.5t-152.5 -21.5q-73 0 -138 10t-128 36t-108 66 t-73 104t-28 147v756q14 0 37 -1.5t82.5 -11t105 -24.5t82.5 -47t37 -74zM627 1632q125 -13 186.5 -67.5t44.5 -129t-108 -143.5l-113 -86q-3 1 -8 2t-20.5 4t-30 7.5t-34.5 11t-35.5 14.5t-31.5 17.5t-24.5 21.5t-11.5 25t4 28.5t24 32.5l74 72q5 5 21.5 21t23.5 23.5 t19.5 22t18 24.5t10.5 23.5t5 26.5q0 27 -14 49z" />
<glyph unicode="&#xfb;" horiz-adv-x="1226" d="M457 936v-567q0 -75 36.5 -112.5t122.5 -37.5q31 0 69.5 5.5t61.5 10.5l23 5v854q7 0 19.5 -0.5t48 -3.5t68 -8.5t72.5 -17t68.5 -27.5t48 -42.5t19.5 -58.5v-969q-10 6 -29 14.5t-77 22.5t-115 14q-52 0 -152.5 -21.5t-152.5 -21.5q-73 0 -138 10t-128 36t-108 66 t-73 104t-28 147v756q14 0 37 -1.5t82.5 -11t105 -24.5t82.5 -47t37 -74zM612 1415q-3 -1 -7 -4t-17 -11.5t-25.5 -17.5t-28 -22t-28 -26t-23.5 -29t-16 -31t-3.5 -31.5t11.5 -30.5q-203 47 -203 154q0 30 35 68t85 71.5t100 63t85 46.5l35 17q14 -7 37 -18t81.5 -44.5 t103.5 -64.5t81.5 -70t36.5 -69q0 -108 -202 -154q17 28 10 56t-31 54.5t-50 47t-47 32.5z" />
<glyph unicode="&#xfc;" horiz-adv-x="1226" d="M457 936v-567q0 -75 36.5 -112.5t122.5 -37.5q31 0 69.5 5.5t61.5 10.5l23 5v854q7 0 19.5 -0.5t48 -3.5t68 -8.5t72.5 -17t68.5 -27.5t48 -42.5t19.5 -58.5v-969q-10 6 -29 14.5t-77 22.5t-115 14q-52 0 -152.5 -21.5t-152.5 -21.5q-73 0 -138 10t-128 36t-108 66 t-73 104t-28 147v756q14 0 37 -1.5t82.5 -11t105 -24.5t82.5 -47t37 -74zM272 1286v203h187q42 0 70 -26t28 -52v-201h-184q-45 0 -73 23t-28 53zM670 1286v203h186q42 0 70 -26t28 -52v-201h-184q-45 0 -72.5 23t-27.5 53z" />
<glyph unicode="&#xfd;" horiz-adv-x="1155" d="M395 164q-111 74 -195 217.5t-102 304.5l-47 408q13 0 36 -1t81.5 -9t104 -22.5t86.5 -45.5t47 -74l40 -287q8 -54 19.5 -100.5t24.5 -78t26.5 -57.5t26 -41t22 -25t15.5 -13l6 -4q4 3 11.5 9.5t27.5 32.5t37.5 59t36 91.5t28.5 126.5l41 287q4 31 26.5 56t52 40.5 t69.5 27t72.5 16.5t68 8t48 3.5t19.5 0.5l-49 -408q-23 -182 -123.5 -338t-214.5 -244l-80 -61q-113 -86 -170 -160t-57 -170q0 -41 10 -82.5t20 -62.5l11 -21q-83 -41 -160 -41q-94 0 -149.5 67t-55.5 183q0 55 16 105t38 85.5t66 78t76 68.5t93 71zM600 1632 q94 -10 153 -45t74.5 -82t-11 -104t-94.5 -109l-112 -86q-3 1 -8 2t-20.5 4t-30 7.5t-34.5 11t-35.5 14.5t-31.5 17.5t-24.5 21.5t-11.5 25t4 28.5t24 32.5l74 72q5 5 21.5 21t23.5 23.5t19.5 22t18 24.5t10.5 23.5t5 26.5q0 27 -14 49z" />
<glyph unicode="&#xfe;" horiz-adv-x="1206" d="M113 -332v1923h3h29.5t51.5 -3t67.5 -8.5t68 -18.5t63 -31t43.5 -47t18 -66v-272l-6 -90q10 5 28.5 13.5t75.5 22t113 13.5q120 0 221 -44.5t163 -132.5t62 -202v-371q0 -172 -130 -275.5t-316 -103.5q-59 0 -113.5 14t-78.5 28l-25 14q6 -54 6 -99v-438h-26t-42.5 1.5 t-57.5 6t-59 12t-61 20.5t-48.5 30.5t-37 44.5t-12.5 59zM457 715v-350q0 -64 56 -107t128 -43q60 0 94.5 42t34.5 128v309q0 85 -34.5 126.5t-94.5 41.5q-72 0 -128 -41.5t-56 -105.5z" />
<glyph unicode="&#xff;" horiz-adv-x="1155" d="M395 164q-111 74 -195 217.5t-102 304.5l-47 408q13 0 36 -1t81.5 -9t104 -22.5t86.5 -45.5t47 -74l40 -287q8 -54 19.5 -100.5t24.5 -78t26.5 -57.5t26 -41t22 -25t15.5 -13l6 -4q4 3 11.5 9.5t27.5 32.5t37.5 59t36 91.5t28.5 126.5l41 287q4 31 26.5 56t52 40.5 t69.5 27t72.5 16.5t68 8t48 3.5t19.5 0.5l-49 -408q-23 -182 -123.5 -338t-214.5 -244l-80 -61q-113 -86 -170 -160t-57 -170q0 -41 10 -82.5t20 -62.5l11 -21q-83 -41 -160 -41q-94 0 -149.5 67t-55.5 183q0 55 16 105t38 85.5t66 78t76 68.5t93 71zM246 1286v203h186 q42 0 70 -26t28 -52v-201h-184q-45 0 -72.5 23t-27.5 53zM643 1286v203h186q42 0 70.5 -26t28.5 -52v-201h-185q-45 0 -72.5 23t-27.5 53z" />
<glyph unicode="&#x100;" horiz-adv-x="1480" d="M739 1544q20 -12 54 -42.5t85.5 -89.5t102 -132t104 -179.5t91.5 -221.5l180 -545q65 -201 95 -261q14 -30 30 -53q-105 -34 -162 -34q-35 0 -66.5 6t-55.5 14t-46 25.5t-37 30.5t-31 39t-25.5 42.5t-22 48.5t-18.5 48.5t-18 52.5l-30 90h-459l-31 -90q-45 -133 -78 -184 q-76 -118 -227 -123h-14q-24 0 -64 8.5t-68 17.5l-28 8q10 14 19 30t18.5 39t16 38t17.5 48l15.5 46.5t18.5 56t18 56.5l180 545q38 115 92 222t104 179.5t101.5 132t85 89.5t53.5 42zM739 1135q-73 -199 -104 -310l-53 -192h315l-53 192q-14 49 -40 126.5t-46 130.5z M541 1847h549q6 -32 6 -75q0 -31 -6 -54t-21.5 -44t-47.5 -32.5t-79 -11.5h-553q-6 29 -6 66q0 32 6 56.5t22 47t49 35t81 12.5z" />
<glyph unicode="&#x101;" horiz-adv-x="1144" d="M705 229v279q-18 -28 -68 -46.5t-97.5 -28.5t-85.5 -37t-38 -72q0 -117 139 -117q33 0 70.5 5.5t58.5 11.5zM528 860q-65 0 -119.5 -11t-105 -36.5t-79.5 -75t-29 -119.5q-95 125 -95 238q0 59 32 105t79 72t108.5 43t113 22.5t99.5 5.5q250 0 380 -94t130 -273v-762 q-68 37 -176 37q-53 0 -167.5 -18.5t-176.5 -18.5q-91 0 -167.5 17t-142.5 54t-103 104.5t-37 160.5q0 77 29.5 135t78.5 93t108.5 60t124 41.5t120 31t101 35t64.5 47.5q0 44 -39.5 75t-130.5 31zM358 1470h549q6 -32 6 -75q0 -31 -6 -54t-21 -44.5t-47 -32.5t-79 -11h-553 q-6 29 -6 66q0 32 6 56t21.5 47t48.5 35.5t81 12.5z" />
<glyph unicode="&#x102;" horiz-adv-x="1480" d="M739 1544q20 -12 54 -42.5t85.5 -89.5t102 -132t104 -179.5t91.5 -221.5l180 -545q65 -201 95 -261q14 -30 30 -53q-105 -34 -162 -34q-35 0 -66.5 6t-55.5 14t-46 25.5t-37 30.5t-31 39t-25.5 42.5t-22 48.5t-18.5 48.5t-18 52.5l-30 90h-459l-31 -90q-45 -133 -78 -184 q-76 -118 -227 -123h-14q-24 0 -64 8.5t-68 17.5l-28 8q10 14 19 30t18.5 39t16 38t17.5 48l15.5 46.5t18.5 56t18 56.5l180 545q38 115 92 222t104 179.5t101.5 132t85 89.5t53.5 42zM739 1135q-73 -199 -104 -310l-53 -192h315l-53 192q-14 49 -40 126.5t-46 130.5z M740 1798q73 0 126.5 38.5t53.5 103.5q0 35 -16 75q75 -37 112 -88t37 -106q0 -88 -86 -156.5t-225 -68.5q-144 0 -231 67t-87 158q0 55 37.5 106t112.5 88q-16 -40 -16 -75q0 -65 54 -103.5t128 -38.5z" />
<glyph unicode="&#x103;" horiz-adv-x="1144" d="M705 229v279q-18 -28 -68 -46.5t-97.5 -28.5t-85.5 -37t-38 -72q0 -117 139 -117q33 0 70.5 5.5t58.5 11.5zM528 860q-65 0 -119.5 -11t-105 -36.5t-79.5 -75t-29 -119.5q-95 125 -95 238q0 59 32 105t79 72t108.5 43t113 22.5t99.5 5.5q250 0 380 -94t130 -273v-762 q-68 37 -176 37q-53 0 -167.5 -18.5t-176.5 -18.5q-91 0 -167.5 17t-142.5 54t-103 104.5t-37 160.5q0 77 29.5 135t78.5 93t108.5 60t124 41.5t120 31t101 35t64.5 47.5q0 44 -39.5 75t-130.5 31zM557 1421q73 0 126.5 38.5t53.5 103.5q0 35 -16 75q75 -37 112 -88t37 -106 q0 -88 -86 -156.5t-225 -68.5q-144 0 -230.5 67t-86.5 158q0 55 37 106t112 88q-16 -40 -16 -75q0 -65 54 -103.5t128 -38.5z" />
<glyph unicode="&#x104;" horiz-adv-x="1480" d="M739 1544q20 -12 54 -42.5t85.5 -89.5t102 -132t104 -179.5t91.5 -221.5l180 -545q65 -201 95 -261q14 -30 30 -53l-36 -12q-36 -13 -79.5 -32.5t-90 -46t-77.5 -62t-31 -72.5q0 -42 26 -61t62 -15t70 16t53 27q-3 -69 -45.5 -127t-106 -90t-130.5 -32q-53 0 -105.5 24 t-91.5 77t-39 122q0 55 26 103.5t70.5 84.5t92 61.5t102.5 45.5q-30 20 -53 47t-42.5 68.5t-29 66.5t-27.5 80l-30 90h-459l-31 -90q-45 -133 -78 -184q-76 -118 -227 -123h-14q-24 0 -64 8.5t-68 17.5l-28 8q10 14 19 30t18.5 39t16 38t17.5 48l15.5 46.5t18.5 56t18 56.5 l180 545q38 115 92 222t104 179.5t101.5 132t85 89.5t53.5 42zM739 1135q-73 -199 -104 -310l-53 -192h315l-53 192q-14 49 -40 126.5t-46 130.5z" />
<glyph unicode="&#x105;" horiz-adv-x="1144" d="M528 860q-65 0 -119.5 -11t-105 -36.5t-79.5 -75t-29 -119.5q-95 125 -95 238q0 59 32 105t79 72t108.5 43t113 22.5t99.5 5.5q250 0 380 -94t130 -273v-676q-43 -28 -75 -52t-72.5 -60t-63 -76t-22.5 -78q0 -40 25.5 -58.5t60.5 -16t69.5 14t55.5 27.5q-3 -69 -46 -127 t-106.5 -90t-130.5 -32q-85 0 -160 60.5t-75 162.5q0 160 203 260q-124 -21 -183 -21q-91 0 -167.5 17t-142.5 54t-103 104.5t-37 160.5q0 77 28.5 135t76 93t105.5 60t121.5 41.5t119.5 31t104 35t71 47.5q0 44 -39.5 75t-130.5 31zM705 229v244q-28 -24 -81.5 -41 t-97 -25.5t-77 -33t-33.5 -64.5q0 -102 139 -102q33 0 70.5 5.5t58.5 11.5z" />
<glyph unicode="&#x106;" horiz-adv-x="1470" d="M770 1253q-146 0 -225.5 -68t-79.5 -229v-421q0 -163 80 -232.5t225 -69.5q65 0 116 4t114.5 18.5t112.5 40t96.5 71.5t80.5 110q72 -127 59 -221.5t-97.5 -157t-208.5 -93t-273 -30.5q-109 0 -203.5 17t-179 57t-144.5 99.5t-95 150.5t-35 205v481q0 114 35 204.5 t95 150.5t145 99.5t179 56.5t203 17q85 0 163.5 -8.5t150 -28t128 -47.5t94.5 -69t52 -91t-2.5 -116t-65.5 -141q-104 241 -520 241zM785 2009q94 -10 153 -45t74.5 -82t-11 -104t-94.5 -109l-112 -86q-3 1 -8 2t-20.5 4t-30 7.5t-34.5 11t-35.5 14.5t-31.5 17.5t-24.5 21.5 t-11.5 25t4 28.5t24 32.5l74 72q5 5 21.5 21t23.5 23.5t19.5 22t18 24.5t10.5 23.5t5 26.5q0 27 -14 49z" />
<glyph unicode="&#x107;" horiz-adv-x="1073" d="M948 428q76 -106 76 -182q0 -117 -113 -194t-305 -77q-238 0 -376 102.5t-138 282.5v359q0 181 129 283t365 102q47 0 96 -5.5t108.5 -22t104.5 -42.5t75.5 -72t30.5 -106q0 -112 -96 -250q0 65 -22 116t-58.5 80t-78.5 43.5t-87 14.5q-32 0 -55.5 -2t-51.5 -9t-47 -21.5 t-35.5 -36.5t-25 -57.5t-8.5 -82.5v-217q0 -113 52 -161t163 -48q127 0 211 61.5t86 141.5zM596 1632q125 -13 186.5 -67.5t44.5 -129t-108 -143.5l-113 -86q-3 1 -8 2t-20.5 4t-30 7.5t-34.5 11t-35.5 14.5t-31.5 17.5t-24.5 21.5t-11.5 25t4 28.5t24 32.5l74 72 q5 5 21.5 21t23.5 23.5t19.5 22t18 24.5t10.5 23.5t5 26.5q0 27 -14 49z" />
<glyph unicode="&#x108;" horiz-adv-x="1470" d="M770 1253q-146 0 -225.5 -68t-79.5 -229v-421q0 -163 80 -232.5t225 -69.5q65 0 116 4t114.5 18.5t112.5 40t96.5 71.5t80.5 110q72 -127 59 -221.5t-97.5 -157t-208.5 -93t-273 -30.5q-109 0 -203.5 17t-179 57t-144.5 99.5t-95 150.5t-35 205v481q0 114 35 204.5 t95 150.5t145 99.5t179 56.5t203 17q85 0 163.5 -8.5t150 -28t128 -47.5t94.5 -69t52 -91t-2.5 -116t-65.5 -141q-104 241 -520 241zM770 1792q-3 -1 -7 -4t-17 -11.5t-25.5 -17.5t-28 -22t-28 -26t-23.5 -29t-16 -31t-3.5 -31.5t11.5 -30.5q-203 47 -203 154q0 30 35 68 t85 71.5t100 63t85 46.5l35 17q14 -7 37 -18t81.5 -44.5t103.5 -64.5t81.5 -70t36.5 -69q0 -108 -202 -154q17 28 10 56t-31 54.5t-50 47t-47 33.5z" />
<glyph unicode="&#x109;" horiz-adv-x="1073" d="M948 428q76 -106 76 -182q0 -117 -113 -194t-305 -77q-238 0 -376 102.5t-138 282.5v359q0 181 129 283t365 102q47 0 96 -5.5t108.5 -22t104.5 -42.5t75.5 -72t30.5 -106q0 -112 -96 -250q0 65 -22 116t-58.5 80t-78.5 43.5t-87 14.5q-32 0 -55.5 -2t-51.5 -9t-47 -21.5 t-35.5 -36.5t-25 -57.5t-8.5 -82.5v-217q0 -113 52 -161t163 -48q127 0 211 61.5t86 141.5zM582 1415q-3 -1 -7 -4t-17.5 -11.5t-25.5 -17.5t-28 -22t-28.5 -26t-23.5 -29t-16 -31t-3.5 -31.5t11.5 -30.5q-202 46 -202 154q0 30 35 68t85 71.5t100 63t85 46.5l35 17 q14 -7 37 -18t81.5 -44.5t103.5 -64.5t81.5 -70t36.5 -69q0 -107 -203 -154q17 28 10 56t-31 54.5t-49.5 47t-46.5 32.5z" />
<glyph unicode="&#x10c;" horiz-adv-x="1470" d="M770 1253q-146 0 -225.5 -68t-79.5 -229v-421q0 -163 80 -232.5t225 -69.5q65 0 116 4t114.5 18.5t112.5 40t96.5 71.5t80.5 110q72 -127 59 -221.5t-97.5 -157t-208.5 -93t-273 -30.5q-109 0 -203.5 17t-179 57t-144.5 99.5t-95 150.5t-35 205v481q0 114 35 204.5 t95 150.5t145 99.5t179 56.5t203 17q85 0 163.5 -8.5t150 -28t128 -47.5t94.5 -69t52 -91t-2.5 -116t-65.5 -141q-104 241 -520 241zM821 1587h-103q-12 7 -31 20t-68.5 49.5t-87 70t-68.5 74t-31 69.5q0 38 43.5 72.5t165.5 66.5q-15 -21 -15 -45q0 -30 36 -72.5t72 -69.5 l36 -28q6 4 15.5 11.5t34 28.5t43.5 41t34.5 45t15.5 44q0 25 -14 45q122 -32 165.5 -66.5t43.5 -72.5q0 -29 -29.5 -68.5t-72 -75.5t-84.5 -68t-72 -52z" />
<glyph unicode="&#x10d;" horiz-adv-x="1073" d="M948 428q76 -106 76 -182q0 -117 -113 -194t-305 -77q-238 0 -376 102.5t-138 282.5v359q0 181 129 283t365 102q47 0 96 -5.5t108.5 -22t104.5 -42.5t75.5 -72t30.5 -106q0 -112 -96 -250q0 65 -22 116t-58.5 80t-78.5 43.5t-87 14.5q-32 0 -55.5 -2t-51.5 -9t-47 -21.5 t-35.5 -36.5t-25 -57.5t-8.5 -82.5v-217q0 -113 52 -161t163 -48q127 0 211 61.5t86 141.5zM633 1210h-103q-12 7 -31 20t-68.5 49.5t-87 70t-68.5 74t-31 69.5q0 38 43.5 72.5t165.5 66.5q-15 -21 -15 -45q0 -30 36 -72.5t72 -70.5l36 -27q6 4 15.5 11.5t34 28.5t43.5 41 t34.5 45t15.5 44q0 25 -14 45q122 -32 165.5 -66.5t43.5 -72.5q0 -29 -29.5 -68.5t-72 -75.5t-84.5 -68t-72 -51z" />
<glyph unicode="&#x10e;" horiz-adv-x="1554" d="M768 0h-375q-11 0 -28.5 1.5t-49.5 6t-61.5 15.5t-58 27t-45.5 44t-17 64v1331h635q110 0 203.5 -15t182.5 -52t151 -95.5t99.5 -152t37.5 -213.5v-433q0 -120 -37.5 -213.5t-99.5 -152t-151 -95.5t-182.5 -52t-203.5 -15zM768 1239h-283v-991h283q322 0 322 301v393 q0 297 -322 297zM764 1587h-103q-12 7 -31 20t-68.5 49.5t-87 70t-68.5 74t-31 69.5q0 38 43.5 72.5t165.5 66.5q-15 -21 -15 -45q0 -30 36 -72.5t72 -69.5l36 -28q6 4 15.5 11.5t34 28.5t43.5 41t34.5 45t15.5 44q0 25 -14 45q122 -32 165.5 -66.5t43.5 -72.5 q0 -29 -29.5 -68.5t-71.5 -75.5t-84.5 -68t-71.5 -52z" />
<glyph unicode="&#x10f;" horiz-adv-x="1636" d="M750 1585q18 0 38.5 -1t65.5 -5.5t82.5 -16.5t75.5 -30.5t60 -50.5t22 -74v-1432q-40 23 -80 29t-103 6q-70 0 -178.5 -17.5t-138.5 -17.5q-239 0 -370.5 99.5t-131.5 281.5v369q0 114 62.5 202t164.5 132.5t224 44.5q54 0 109 -16t84 -32l28 -16q-14 66 -14 107v438z M750 221v494q0 64 -54.5 105.5t-126.5 41.5q-61 0 -97 -42t-36 -126v-307q0 -90 41 -134t141 -44q25 0 58 3t54 6zM1270 1489h192q29 0 47 -2.5t39.5 -11.5t32 -32t10.5 -59v17q0 -170 -50.5 -249t-184.5 -79q-98 0 -158 55q48 14 75 52.5t29 85t-6 96.5z" />
<glyph unicode="&#x110;" horiz-adv-x="1554" d="M129 854h4v635h635q110 0 203.5 -15t182.5 -52t151 -95.5t99.5 -152t37.5 -213.5v-433q0 -120 -37.5 -213.5t-99.5 -152t-151 -95.5t-182.5 -52t-203.5 -15h-375q-11 0 -28.5 1.5t-49.5 6t-61.5 15.5t-58 27t-45.5 44t-17 64v463h-131q-6 69 -0.5 120.5t37.5 82t90 30.5z M768 1239h-283v-385h299q9 -34 9 -72.5t-11 -75.5t-42 -61t-78 -24h-177v-373h283q322 0 322 301v393q0 297 -322 297z" />
<glyph unicode="&#x111;" horiz-adv-x="1206" d="M692 1438h58v147q21 0 46 -1t77.5 -9t93 -22t77.5 -44t46 -71h182q8 -33 8 -74q0 -66 -29 -113t-102 -47h-55v-1229q-40 23 -80 29t-103 6q-70 0 -178.5 -17.5t-138.5 -17.5q-239 0 -370.5 99.5t-131.5 281.5v369q0 114 62.5 202t164.5 132.5t224 44.5q54 0 109 -16 t84 -32l28 -16q-14 66 -14 107v57h-185q-6 29 -6 66q0 30 5.5 56.5t18.5 53.5t41 42.5t68 15.5zM750 221v494q0 64 -54.5 105.5t-126.5 41.5q-61 0 -97 -42t-36 -126v-307q0 -90 41 -134t141 -44q25 0 58 3t54 6z" />
<glyph unicode="&#x112;" horiz-adv-x="1277" d="M903 657h-418v-409h732q0 -9 -1.5 -23.5t-6.5 -46t-18 -60t-32.5 -56.5t-54 -45t-78.5 -17h-629q-6 0 -15.5 0.5t-36.5 3.5t-52 8.5t-55.5 17t-52.5 27.5t-37 42.5t-15 58.5v1331h1084q0 -5 -0.5 -14t-4.5 -35t-10.5 -49.5t-21 -52.5t-33.5 -50t-50.5 -35t-70.5 -14h-541 v-332h385q90 0 156.5 8.5t87.5 16.5l21 8q0 -47 -4.5 -84t-19 -76t-39 -64.5t-67.5 -42t-102 -16.5zM486 1847h549q6 -32 6 -75q0 -31 -6 -54t-21.5 -44t-47.5 -32.5t-79 -11.5h-553q-6 29 -6 66q0 32 6 56.5t22 47t49 35t81 12.5z" />
<glyph unicode="&#x113;" horiz-adv-x="1128" d="M436 688v-45q62 -16 117 -16q143 0 143 112q0 123 -125 123q-74 0 -104.5 -43t-30.5 -131zM631 -25q-260 0 -399.5 101t-139.5 284v359q0 181 129 283t365 102q230 0 341 -97t111 -268q0 -72 -20.5 -131t-67.5 -109.5t-135 -79t-211 -28.5q-46 0 -88 8.5t-61 16.5l-19 8 v-33q0 -84 54 -125t151 -41q154 0 247 60t95 143q74 -103 74 -186q0 -115 -117.5 -191t-308.5 -76zM387 1470h549q6 -32 6 -75q0 -31 -6 -54t-21.5 -44t-47.5 -32.5t-79 -11.5h-552q-7 29 -7 66q0 32 6 56.5t22 47t49 35t81 12.5z" />
<glyph unicode="&#x116;" horiz-adv-x="1277" d="M903 657h-418v-409h732q0 -9 -1.5 -23.5t-6.5 -46t-18 -60t-32.5 -56.5t-54 -45t-78.5 -17h-629q-6 0 -15.5 0.5t-36.5 3.5t-52 8.5t-55.5 17t-52.5 27.5t-37 42.5t-15 58.5v1331h1084q0 -5 -0.5 -14t-4.5 -35t-10.5 -49.5t-21 -52.5t-33.5 -50t-50.5 -35t-70.5 -14h-541 v-332h385q90 0 156.5 8.5t87.5 16.5l21 8q0 -47 -4.5 -84t-19 -76t-39 -64.5t-67.5 -42t-102 -16.5zM518 1663v199h221q43 0 75 -26t32 -52v-197h-219q-46 0 -77.5 23.5t-31.5 52.5z" />
<glyph unicode="&#x117;" horiz-adv-x="1128" d="M436 688v-45q62 -16 117 -16q143 0 143 112q0 123 -125 123q-74 0 -104.5 -43t-30.5 -131zM631 -25q-260 0 -399.5 101t-139.5 284v359q0 181 129 283t365 102q230 0 341 -97t111 -268q0 -72 -20.5 -131t-67.5 -109.5t-135 -79t-211 -28.5q-46 0 -88 8.5t-61 16.5l-19 8 v-33q0 -84 54 -125t151 -41q154 0 247 60t95 143q74 -103 74 -186q0 -115 -117.5 -191t-308.5 -76zM420 1286v199h221q43 0 75 -26t32 -52v-197h-220q-46 0 -77 23.5t-31 52.5z" />
<glyph unicode="&#x118;" horiz-adv-x="1277" d="M817 -487q-85 0 -160 60.5t-75 162.5q0 82 52.5 151.5t131.5 112.5h-369q-6 0 -15.5 0.5t-36.5 3.5t-52 8.5t-55.5 17t-52.5 27.5t-37 42.5t-15 58.5v1331h1084q0 -5 -0.5 -14t-4.5 -35t-10.5 -49.5t-21 -52.5t-33.5 -50t-50.5 -35t-70.5 -14h-541v-332h385 q90 0 156.5 8.5t87.5 16.5l21 8q0 -47 -4.5 -84t-19 -76t-39 -64.5t-67.5 -42t-102 -16.5h-418v-409h732q0 -69 -34 -125.5t-82 -94t-96 -71.5t-82 -75t-34 -87q0 -76 80 -76q35 0 73 13.5t58 29.5q-3 -69 -46 -127t-106.5 -90t-130.5 -32z" />
<glyph unicode="&#x119;" horiz-adv-x="1128" d="M741 -205q0 -76 80 -76q35 0 73 13.5t58 29.5q-3 -69 -45.5 -127t-106 -90t-130.5 -32q-53 0 -105.5 24t-91.5 77t-39 122q0 73 52 136t139 108q-260 0 -396.5 99.5t-136.5 280.5v359q0 181 129 283t365 102q230 0 341 -97t111 -268q0 -72 -20.5 -131t-67.5 -109.5 t-135 -79t-211 -28.5q-46 0 -88 8.5t-61 16.5l-19 8v-33q0 -84 54 -125t151 -41q154 0 247 60t95 143q74 -103 74 -186q0 -61 -32.5 -116t-79 -95.5t-93 -77.5t-79 -77.5t-32.5 -80.5zM436 688v-45q62 -16 117 -16q143 0 143 112q0 123 -125 123q-74 0 -104.5 -43 t-30.5 -131z" />
<glyph unicode="&#x11a;" horiz-adv-x="1277" d="M903 657h-418v-409h732q0 -9 -1.5 -23.5t-6.5 -46t-18 -60t-32.5 -56.5t-54 -45t-78.5 -17h-629q-6 0 -15.5 0.5t-36.5 3.5t-52 8.5t-55.5 17t-52.5 27.5t-37 42.5t-15 58.5v1331h1084q0 -5 -0.5 -14t-4.5 -35t-10.5 -49.5t-21 -52.5t-33.5 -50t-50.5 -35t-70.5 -14h-541 v-332h385q90 0 156.5 8.5t87.5 16.5l21 8q0 -47 -4.5 -84t-19 -76t-39 -64.5t-67.5 -42t-102 -16.5zM735 1587h-103q-12 7 -31 20t-68.5 49.5t-87 70t-68.5 74t-31 69.5q0 38 43.5 72.5t165.5 66.5q-15 -21 -15 -45q0 -30 36 -72.5t72 -69.5l36 -28q6 4 15.5 11.5t34 28.5 t43.5 41t34.5 45t15.5 44q0 25 -14 45q122 -32 165.5 -66.5t43.5 -72.5q0 -29 -29.5 -68.5t-72 -75.5t-84.5 -68t-72 -52z" />
<glyph unicode="&#x11b;" horiz-adv-x="1128" d="M436 688v-45q62 -16 117 -16q143 0 143 112q0 123 -125 123q-74 0 -104.5 -43t-30.5 -131zM631 -25q-260 0 -399.5 101t-139.5 284v359q0 181 129 283t365 102q230 0 341 -97t111 -268q0 -72 -20.5 -131t-67.5 -109.5t-135 -79t-211 -28.5q-46 0 -88 8.5t-61 16.5l-19 8 v-33q0 -84 54 -125t151 -41q154 0 247 60t95 143q74 -103 74 -186q0 -115 -117.5 -191t-308.5 -76zM637 1210h-102q-12 7 -31 20t-68.5 49.5t-87.5 70t-69 74t-31 69.5q0 38 43.5 72.5t165.5 66.5q-15 -21 -15 -45q0 -30 36 -72.5t72 -70.5l36 -27q6 4 15.5 11.5t34 28.5 t43.5 41t34.5 45t15.5 44q0 25 -14 45q122 -32 165.5 -66.5t43.5 -72.5q0 -29 -29.5 -68.5t-72 -75.5t-84.5 -68t-72 -51z" />
<glyph unicode="&#x11c;" d="M113 504v481q0 114 35 204.5t95 150.5t145 99.5t179 56.5t203 17q113 0 217 -18t190 -53.5t137.5 -95t51.5 -134.5q0 -87 -80 -200q-26 60 -71 105t-95 70.5t-114 40.5t-118.5 20t-117.5 5q-146 0 -225.5 -68t-79.5 -229v-421q0 -163 80 -232.5t225 -69.5q58 0 99.5 6 t82 23.5t65 48t39.5 81.5t15 122v18h-194q-107 0 -157 58.5t-50 214.5q57 -23 241 -23h512v-299q0 -112 -35 -199.5t-94.5 -145t-144.5 -95t-178 -53t-201 -15.5q-109 0 -203.5 17t-179 57t-144.5 99.5t-95 150.5t-35 205zM770 1792q-3 -1 -7 -4t-17 -11.5t-25.5 -17.5 t-28 -22t-28 -26t-23.5 -29t-16 -31t-3.5 -31.5t11.5 -30.5q-203 47 -203 154q0 30 35 68t85 71.5t100 63t85 46.5l35 17q14 -7 37 -18t81.5 -44.5t103.5 -64.5t81.5 -70t36.5 -69q0 -108 -202 -154q17 28 10 56t-31 54.5t-50 47t-47 33.5z" />
<glyph unicode="&#x11d;" horiz-adv-x="1146" d="M1065 1106v-440q0 -183 -127 -284t-363 -101q-60 0 -123.5 12.5t-96.5 25.5l-33 13q-9 -33 -9 -58q0 -92 228 -92h67h33h75.5t71.5 -2.5t71 -8t63 -16t59 -25.5t46 -38.5t38 -54t22 -72t9 -92.5q0 -173 -131 -271t-392 -98q-228 0 -351.5 64.5t-123.5 165.5q0 88 82 192 q8 -42 29 -74.5t53 -51.5t64 -31t75 -17t71.5 -6.5t68.5 -1.5q117 0 169 26t52 85q0 26 -11 42.5t-34.5 24t-49 10t-65.5 2.5h-100q-66 0 -118 3.5t-104.5 13t-90 26.5t-68 42.5t-45.5 63.5t-15 87q0 58 29 110.5t92 127.5q-44 38 -72 119t-28 139v79q0 76 25 137.5 t67.5 102t100 68t120 39.5t131.5 12q58 0 173 -22.5t165 -22.5q76 0 201 47zM727 696v148q-64 22 -139 22q-83 0 -122.5 -34t-39.5 -117v-19q0 -92 30.5 -134t118.5 -42q85 0 118.5 43t33.5 133zM573 1415q-3 -1 -7 -4t-17 -11.5t-25.5 -17.5t-28 -22t-28 -26t-23.5 -29 t-16 -31t-3.5 -31.5t11.5 -30.5q-203 47 -203 154q0 30 35 68t85 71.5t100 63t85 46.5l35 17q14 -7 37 -18t81.5 -44.5t103.5 -64.5t81.5 -70t36.5 -69q0 -108 -202 -154q17 28 10 56t-31 54.5t-50 47t-46 32.5z" />
<glyph unicode="&#x11e;" d="M113 504v481q0 114 35 204.5t95 150.5t145 99.5t179 56.5t203 17q113 0 217 -18t190 -53.5t137.5 -95t51.5 -134.5q0 -87 -80 -200q-26 60 -71 105t-95 70.5t-114 40.5t-118.5 20t-117.5 5q-146 0 -225.5 -68t-79.5 -229v-421q0 -163 80 -232.5t225 -69.5q58 0 99.5 6 t82 23.5t65 48t39.5 81.5t15 122v18h-194q-107 0 -157 58.5t-50 214.5q57 -23 241 -23h512v-299q0 -112 -35 -199.5t-94.5 -145t-144.5 -95t-178 -53t-201 -15.5q-109 0 -203.5 17t-179 57t-144.5 99.5t-95 150.5t-35 205zM770 1798q73 0 126.5 38.5t53.5 103.5q0 35 -16 75 q75 -37 112 -88t37 -106q0 -88 -86 -156.5t-225 -68.5q-144 0 -231 67t-87 158q0 55 37.5 106t112.5 88q-16 -40 -16 -75q0 -65 54 -103.5t128 -38.5z" />
<glyph unicode="&#x11f;" horiz-adv-x="1146" d="M1065 1106v-440q0 -183 -127 -284t-363 -101q-60 0 -123.5 12.5t-96.5 25.5l-33 13q-9 -33 -9 -58q0 -92 228 -92h67h33h75.5t71.5 -2.5t71 -8t63 -16t59 -25.5t46 -38.5t38 -54t22 -72t9 -92.5q0 -173 -131 -271t-392 -98q-228 0 -351.5 64.5t-123.5 165.5q0 88 82 192 q8 -42 29 -74.5t53 -51.5t64 -31t75 -17t71.5 -6.5t68.5 -1.5q117 0 169 26t52 85q0 26 -11 42.5t-34.5 24t-49 10t-65.5 2.5h-100q-66 0 -118 3.5t-104.5 13t-90 26.5t-68 42.5t-45.5 63.5t-15 87q0 58 29 110.5t92 127.5q-44 38 -72 119t-28 139v79q0 76 25 137.5 t67.5 102t100 68t120 39.5t131.5 12q58 0 173 -22.5t165 -22.5q76 0 201 47zM727 696v148q-64 22 -139 22q-83 0 -122.5 -34t-39.5 -117v-19q0 -92 30.5 -134t118.5 -42q85 0 118.5 43t33.5 133zM575 1421q73 0 127 38.5t54 103.5q0 33 -17 75q75 -37 112.5 -88t37.5 -106 q0 -88 -86 -156.5t-225 -68.5q-144 0 -231 67t-87 158q0 55 37.5 106t112.5 88q-17 -42 -17 -75q0 -65 54 -103.5t128 -38.5z" />
<glyph unicode="&#x122;" d="M113 504v481q0 114 35 204.5t95 150.5t145 99.5t179 56.5t203 17q113 0 217 -18t190 -53.5t137.5 -95t51.5 -134.5q0 -87 -80 -200q-26 60 -71 105t-95 70.5t-114 40.5t-118.5 20t-117.5 5q-146 0 -225.5 -68t-79.5 -229v-421q0 -163 80 -232.5t225 -69.5q58 0 99.5 6 t82 23.5t65 48t39.5 81.5t15 122v18h-194q-107 0 -157 58.5t-50 214.5q57 -23 241 -23h512v-299q0 -112 -35 -199.5t-94.5 -145t-144.5 -95t-178 -53t-201 -15.5q-109 0 -203.5 17t-179 57t-144.5 99.5t-95 150.5t-35 205zM643 -74h193q24 0 37.5 -1t33.5 -6.5t31 -16 t19 -31t8 -49.5v16q0 -170 -50.5 -248.5t-185.5 -78.5q-98 0 -158 55q48 14 75 52t29.5 84.5t-5.5 96.5z" />
<glyph unicode="&#x123;" horiz-adv-x="1146" d="M1065 1106v-440q0 -183 -127 -284t-363 -101q-60 0 -123.5 12.5t-96.5 25.5l-33 13q-9 -33 -9 -58q0 -92 228 -92h67h33h75.5t71.5 -2.5t71 -8t63 -16t59 -25.5t46 -38.5t38 -54t22 -72t9 -92.5q0 -173 -131 -271t-392 -98q-228 0 -351.5 64.5t-123.5 165.5q0 88 82 192 q8 -42 29 -74.5t53 -51.5t64 -31t75 -17t71.5 -6.5t68.5 -1.5q117 0 169 26t52 85q0 26 -11 42.5t-34.5 24t-49 10t-65.5 2.5h-100q-66 0 -118 3.5t-104.5 13t-90 26.5t-68 42.5t-45.5 63.5t-15 87q0 58 29 110.5t92 127.5q-44 38 -72 119t-28 139v79q0 76 25 137.5 t67.5 102t100 68t120 39.5t131.5 12q58 0 173 -22.5t165 -22.5q76 0 201 47zM727 696v148q-64 22 -139 22q-83 0 -122.5 -34t-39.5 -117v-19q0 -92 30.5 -134t118.5 -42q85 0 118.5 43t33.5 133zM745 1231h-192q-24 0 -37.5 1t-33.5 6.5t-31 16t-19 31t-8 49.5v-16 q0 170 50.5 249t184.5 79q97 0 158 -56q-48 -14 -75 -52t-29 -84.5t6 -96.5z" />
<glyph unicode="&#x124;" horiz-adv-x="1562" d="M1077 137v479h-592v-636q-7 0 -20 0.5t-49.5 3.5t-69.5 8t-74 17t-70 28t-49 42t-20 58v1372q7 0 20 -0.5t49.5 -3.5t69.5 -8t74 -17t70 -28t49 -42t20 -58v-484h592v641q7 0 20 -0.5t49.5 -3.5t70 -8t74 -17t70 -28t49.5 -42t20 -58v-1372q-7 0 -20 0.5t-49.5 3.5t-70 8 t-74 17t-70 28t-49.5 42t-20 58zM780 1792q-3 -1 -7 -4t-17 -11.5t-25.5 -17.5t-28 -22t-28 -26t-23.5 -29t-16 -31t-3.5 -31.5t11.5 -30.5q-203 47 -203 154q0 30 35 68t85 71.5t100 63t85 46.5l35 17q14 -7 37 -18t81.5 -44.5t103.5 -64.5t81.5 -70t36.5 -69 q0 -108 -202 -154q17 28 10 56t-31 54.5t-50 47t-47 33.5z" />
<glyph unicode="&#x125;" horiz-adv-x="1226" d="M457 715v-729q-7 0 -19.5 0.5t-48 3.5t-68 8t-72.5 17t-68.5 28t-48 42t-19.5 58v1442q16 0 30 -0.5t52 -3.5t68 -9t68.5 -19.5t64 -31.5t43.5 -47.5t18 -66.5v-260q0 -18 -3.5 -42.5t-7.5 -40.5l-4 -15q11 6 31.5 15t79.5 24.5t115 15.5q92 0 170.5 -22.5t141 -67 t98.5 -118.5t36 -171v-739q-14 0 -37 1.5t-82.5 10.5t-105 24t-82.5 46.5t-37 74.5v551q0 164 -147 164q-66 0 -116 -39.5t-50 -103.5zM612 1792q-3 -1 -7 -4t-17 -11.5t-25.5 -17.5t-28 -22t-28 -26t-23.5 -29t-16 -31t-3.5 -31.5t11.5 -30.5q-203 47 -203 154q0 30 35 68 t85 71.5t100 63t85 46.5l35 17q14 -7 37 -18t81.5 -44.5t103.5 -64.5t81.5 -70t36.5 -69q0 -108 -202 -154q17 28 10 56t-31 54.5t-50 47t-47 33.5z" />
<glyph unicode="&#x12a;" horiz-adv-x="618" d="M133 137v1372q7 0 20 -0.5t49.5 -3.5t69.5 -8t74 -17t70 -28t49 -42t20 -58v-1372q-7 0 -20 0.5t-49.5 3.5t-69.5 8t-74 17t-70 28t-49 42t-20 58zM115 1847h549q6 -32 6 -75q0 -31 -6 -54t-21.5 -44t-47.5 -32.5t-79 -11.5h-553q-6 29 -6 66q0 32 6 56.5t22 47t49 35 t81 12.5z" />
<glyph unicode="&#x12b;" horiz-adv-x="569" d="M113 145v957q20 0 46 -1t83.5 -9.5t101 -23t78.5 -46t35 -74.5v-956q-7 0 -19.5 0.5t-48 3t-68 8t-72.5 17t-68.5 27t-48 41t-19.5 56.5zM86 1470h549q6 -32 6 -75q0 -31 -6 -54t-21.5 -44t-47.5 -32.5t-79 -11.5h-553q-6 29 -6 66q0 32 6 56.5t22 47t49 35t81 12.5z" />
<glyph unicode="&#x12e;" horiz-adv-x="618" d="M250 -487q-53 0 -105.5 24t-91.5 77t-39 122q0 171 232 280q-113 46 -113 121v1372q7 0 20 -0.5t49.5 -3.5t69.5 -8t74 -17t70 -28t49 -42t20 -58v-1372q-72 -39 -117.5 -88t-45.5 -97q0 -76 79 -76q35 0 73 13.5t58 29.5q-3 -69 -45.5 -127t-106 -90t-130.5 -32z" />
<glyph unicode="&#x12f;" horiz-adv-x="569" d="M268 -205q0 -76 80 -76q35 0 73 13.5t58 29.5q-3 -69 -45.5 -127t-106 -90t-130.5 -32q-53 0 -105.5 24t-91.5 77t-39 122q0 95 66.5 170t167.5 129q-82 40 -82 108v951q19 0 47.5 -1.5t85 -10.5t100 -24.5t77.5 -47t34 -74.5v-950q-67 -19 -128 -79t-61 -112zM141 1266 v198h181q43 0 74.5 -26t31.5 -52v-196h-178q-46 0 -77.5 23.5t-31.5 52.5z" />
<glyph unicode="&#x130;" horiz-adv-x="618" d="M133 137v1372q7 0 20 -0.5t49.5 -3.5t69.5 -8t74 -17t70 -28t49 -42t20 -58v-1372q-7 0 -20 0.5t-49.5 3.5t-69.5 8t-74 17t-70 28t-49 42t-20 58zM147 1663v199h222q43 0 74.5 -26t31.5 -52v-197h-219q-46 0 -77.5 23.5t-31.5 52.5z" />
<glyph unicode="&#x131;" horiz-adv-x="569" d="M113 145v957q20 0 46 -1t83.5 -9.5t101 -23t78.5 -46t35 -74.5v-956q-7 0 -19.5 0.5t-48 3t-68 8t-72.5 17t-68.5 27t-48 41t-19.5 56.5z" />
<glyph unicode="&#x134;" horiz-adv-x="636" d="M504 1348v-1395q0 -152 -79 -256.5t-212 -104.5q-58 0 -109.5 13t-84 32t-56.5 37.5t-35 31.5l-10 13q62 0 110.5 32t74 81t38.5 98t13 93v1486q13 0 26.5 -0.5t51 -3.5t69 -8.5t71 -17.5t67 -28t46.5 -43t19 -60zM331 1792q-3 -1 -7 -4t-17 -11.5t-25.5 -17.5t-28 -22 t-28 -26t-23.5 -29t-16 -31t-3.5 -31.5t11.5 -30.5q-203 47 -203 154q0 30 35 68t85 71.5t100 63t85 46.5l35 17q14 -7 37 -18t81.5 -44.5t103.5 -64.5t81.5 -70t36.5 -69q0 -108 -202 -154q17 28 10 56t-31 54.5t-50 47t-46 33.5z" />
<glyph unicode="&#x135;" horiz-adv-x="567" d="M455 936v-1079q0 -144 -77 -245t-204 -101q-41 0 -73 5t-92 34t-122 83q48 0 87.5 20.5t64.5 52t42.5 71t24.5 76t7 69.5v1172q7 0 19.5 -0.5t48 -3.5t67.5 -8.5t71.5 -17t68 -27.5t48 -42.5t19.5 -58.5zM319 1384l-47 41l-47 -41q-2 -1 -21 -17.5t-26 -23.5t-20 -21.5 t-18 -28t-5 -27.5q0 -33 17 -56q-126 44 -167.5 70.5t-41.5 62.5q0 47 76 112t253 177q177 -112 253.5 -177t76.5 -112q0 -36 -41.5 -62.5t-167.5 -70.5q17 23 17 56q0 14 -5.5 27.5t-18 27.5t-20.5 22t-26 23t-21 18z" />
<glyph unicode="&#x136;" horiz-adv-x="1398" d="M485 655v-675q-7 0 -20 0.5t-49.5 3.5t-69.5 8t-74 17t-70 28t-49 42t-20 58v1372q7 0 20 -0.5t49.5 -3.5t69.5 -8t74 -17t70 -28t49 -42t20 -58v-447q204 75 420 463q43 78 118 111.5t153 33.5q28 0 71.5 -7t72.5 -14l30 -7q-36 -58 -89 -148.5t-85 -144.5t-80.5 -125 t-89 -117t-95.5 -92t-114 -76q76 -27 147 -83.5t124 -122.5t106 -149t89.5 -153t78 -145.5t69.5 -116.5q-125 -28 -174 -28q-80 0 -162 33.5t-127 111.5q-11 19 -38 67.5t-42.5 76.5t-45.5 75.5t-53 78t-57.5 70.5t-67 66.5t-74 51.5t-85.5 40zM573 -74h193q24 0 37.5 -1 t33.5 -6.5t31 -16t19 -31t8 -49.5v16q0 -170 -50.5 -248.5t-185.5 -78.5q-97 0 -157 55q48 14 75 52t29 84.5t-6 96.5z" />
<glyph unicode="&#x137;" horiz-adv-x="1165" d="M1092 1063q-41 -53 -86 -132t-75 -132t-84 -111t-122 -94q70 -30 122.5 -66.5t85 -71.5t63 -87t50 -96.5t53.5 -118.5t66 -134q-151 -34 -200 -34q-57 0 -99 16.5t-65.5 44t-44 64t-34 75.5t-35.5 80t-48 76t-73 65t-109 46v-467q-7 0 -19.5 0.5t-48 3.5t-68 8t-72.5 17 t-68.5 28t-48 42t-19.5 58v1446q7 0 19.5 -0.5t48 -3.5t68 -8t72.5 -17t68.5 -28t48 -42t19.5 -58v-719q51 22 97.5 84t111.5 184q58 113 215 113q113 0 211 -31zM457 -74h192q24 0 37.5 -1t33.5 -6.5t31 -16t19 -31t8 -49.5v16q0 -170 -50 -248.5t-185 -78.5q-98 0 -158 55 q48 14 75 52t29 84.5t-6 96.5z" />
<glyph unicode="&#x139;" horiz-adv-x="1181" d="M979 0h-582q-6 0 -15.5 0.5t-36.5 3.5t-52 8.5t-55.5 17t-52.5 27.5t-37 42.5t-15 58.5v1351q7 0 20 -0.5t49.5 -3.5t69.5 -8t74 -17t70 -28t49 -42t20 -58v-1104h420q88 0 154 9t88 19l22 9q0 -50 -2.5 -84.5t-13.5 -75.5t-31 -66t-56 -42t-87 -17zM326 2009 q94 -10 153 -45t74.5 -82t-11 -104t-94.5 -109l-112 -86q-3 1 -8 2t-20.5 4t-30 7.5t-34.5 11t-35.5 14.5t-31.5 17.5t-24.5 21.5t-11.5 25t4 28.5t24 32.5l74 72q5 5 21.5 21t23.5 23.5t19.5 22t18 24.5t10.5 23.5t5 26.5q0 27 -14 49z" />
<glyph unicode="&#x13a;" horiz-adv-x="569" d="M102 332v1257q15 0 34.5 -1t64 -5t83 -14.5t77.5 -26.5t62 -44.5t23 -65.5v-1035q0 -38 1 -63t4 -66t11.5 -68.5t21.5 -55.5t35 -44t52 -18q-59 -96 -186 -96q-94 0 -159.5 49t-94.5 125.5t-29 171.5zM287 2073q125 -13 186.5 -67.5t44.5 -129t-108 -143.5l-113 -86 l-12.5 2.5t-30 6.5t-42 12t-43.5 17t-39 23t-24.5 28t-3.5 34t27 40l74 72q5 5 21.5 21t23.5 23.5t19.5 22t18 24.5t10.5 23.5t5 26.5q0 28 -14 50z" />
<glyph unicode="&#x13b;" horiz-adv-x="1181" d="M979 0h-582q-6 0 -15.5 0.5t-36.5 3.5t-52 8.5t-55.5 17t-52.5 27.5t-37 42.5t-15 58.5v1351q7 0 20 -0.5t49.5 -3.5t69.5 -8t74 -17t70 -28t49 -42t20 -58v-1104h420q88 0 154 9t88 19l22 9q0 -50 -2.5 -84.5t-13.5 -75.5t-31 -66t-56 -42t-87 -17zM479 -74h193 q24 0 37.5 -1t33.5 -6.5t31 -16t19 -31t8 -49.5v16q0 -170 -50.5 -248.5t-185.5 -78.5q-97 0 -157 55q48 14 75 52t29 84.5t-6 96.5z" />
<glyph unicode="&#x13c;" horiz-adv-x="569" d="M102 332v1257q15 0 34.5 -1t64 -5t83 -14.5t77.5 -26.5t62 -44.5t23 -65.5v-1035q0 -38 1 -63t4 -66t11.5 -68.5t21.5 -55.5t35 -44t52 -18q-59 -96 -186 -96q-94 0 -159.5 49t-94.5 125.5t-29 171.5zM178 -74h193q24 0 37.5 -1t33.5 -6.5t31 -16t19 -31t8 -49.5v16 q0 -170 -50.5 -248.5t-185.5 -78.5q-98 0 -158 55q48 14 75 52t29.5 84.5t-5.5 96.5z" />
<glyph unicode="&#x13d;" horiz-adv-x="1181" d="M979 0h-582q-6 0 -15.5 0.5t-36.5 3.5t-52 8.5t-55.5 17t-52.5 27.5t-37 42.5t-15 58.5v1351q7 0 20 -0.5t49.5 -3.5t69.5 -8t74 -17t70 -28t49 -42t20 -58v-1104h420q88 0 154 9t88 19l22 9q0 -50 -2.5 -84.5t-13.5 -75.5t-31 -66t-56 -42t-87 -17zM674 1489h192 q29 0 47 -2.5t39.5 -11.5t32 -32t10.5 -59v17q0 -170 -50.5 -249t-184.5 -79q-98 0 -158 55q48 14 75 52.5t29 85t-6 96.5z" />
<glyph unicode="&#x13e;" horiz-adv-x="985" d="M102 332v1257q15 0 34.5 -1t64 -5t83 -14.5t77.5 -26.5t62 -44.5t23 -65.5v-1035q0 -38 1 -63t4 -66t11.5 -68.5t21.5 -55.5t35 -44t52 -18q-59 -96 -186 -96q-94 0 -159.5 49t-94.5 125.5t-29 171.5zM618 1489h193q29 0 47 -2.5t39.5 -11.5t32 -32t10.5 -59v17 q0 -170 -50.5 -249t-184.5 -79q-98 0 -158 55q48 14 75 52.5t29 85t-6 96.5z" />
<glyph unicode="&#x141;" horiz-adv-x="1181" d="M979 0h-582q-6 0 -15.5 0.5t-36.5 3.5t-52 8.5t-55.5 17t-52.5 27.5t-37 42.5t-15 58.5v458l-70 -28q-59 89 -68 140q-18 96 87 138l51 21v622q7 0 20 -0.5t49.5 -3.5t69.5 -8t74 -17t70 -28t49 -42t20 -58v-320l107 47q5 -8 20.5 -32t21.5 -34.5t18 -33t14 -35t5.5 -32 t-3 -33.5t-16.5 -30t-30.5 -30t-48.5 -26l-88 -37v-508h420q88 0 154 9t88 19l22 9q0 -285 -190 -285z" />
<glyph unicode="&#x142;" horiz-adv-x="608" d="M123 334v293l-64 -25q-4 4 -9.5 11.5t-19 30t-23 44t-14 51t1 54t28 49.5t61.5 41l39 16v690q20 0 48 -1.5t84 -10.5t99 -24t77 -46.5t34 -74.5v-396l88 39q35 -35 56 -90t12.5 -108.5t-54.5 -73.5l-102 -45v-359q0 -42 0.5 -65.5t3.5 -59t8 -56.5t15.5 -46t26 -39 t38.5 -25t53 -14q-22 -35 -49 -58t-57 -32t-50.5 -11.5t-50.5 -2.5q-76 0 -131.5 27.5t-87 76t-46.5 108.5t-15 132z" />
<glyph unicode="&#x143;" horiz-adv-x="1564" d="M575 1360l533 -846q-29 137 -29 268v707q7 0 20 -0.5t49.5 -3.5t70 -8.5t74 -17t70 -27.5t49.5 -42.5t20 -58.5v-1351q-106 0 -190.5 16.5t-130 39.5t-75.5 46.5t-40 39.5l-9 17l-524 838q22 -127 22 -240v-757q-7 0 -20 0.5t-49.5 3.5t-69.5 8t-74 17t-70 28t-49 42 t-20 58v1352q61 0 98 -1t86.5 -4.5t82 -12t68 -22.5t61.5 -36t46 -53zM799 2009q94 -10 153 -45t74.5 -82t-11 -104t-94.5 -109l-112 -86q-3 1 -8 2t-20.5 4t-30 7.5t-34.5 11t-35.5 14.5t-31.5 17.5t-24.5 21.5t-11.5 25t4 28.5t24 32.5l74 72q5 5 21.5 21t23.5 23.5 t19.5 22t18 24.5t10.5 23.5t5 26.5q0 27 -14 49z" />
<glyph unicode="&#x144;" horiz-adv-x="1232" d="M776 143v568q0 75 -35 111t-120 36q-32 0 -71.5 -4.5t-63.5 -9.5l-23 -4v-854q-7 0 -19.5 0.5t-48 3.5t-68 8t-72.5 17t-68.5 28t-48 42t-19.5 58v967q10 -5 28.5 -13.5t77.5 -22t119 -13.5q49 0 149 21.5t156 21.5q73 0 137.5 -10t127 -36t107 -66t72 -104t27.5 -147 v-755q-7 0 -19.5 0.5t-48 4t-68 9t-72.5 17.5t-68.5 27.5t-48 41.5t-19.5 57zM631 1632q125 -13 186.5 -67.5t44.5 -129t-108 -143.5l-113 -86q-3 1 -8 2t-20.5 4t-30 7.5t-34.5 11t-35.5 14.5t-31.5 17.5t-24.5 21.5t-11.5 25t4 28.5t24 32.5l74 72q5 5 21.5 21t23.5 23.5 t19.5 22t18 24.5t10.5 23.5t5 26.5q0 27 -14 49z" />
<glyph unicode="&#x145;" horiz-adv-x="1564" d="M575 1360l533 -846q-29 137 -29 268v707q7 0 20 -0.5t49.5 -3.5t70 -8.5t74 -17t70 -27.5t49.5 -42.5t20 -58.5v-1351q-106 0 -190.5 16.5t-130 39.5t-75.5 46.5t-40 39.5l-9 17l-524 838q22 -127 22 -240v-757q-7 0 -20 0.5t-49.5 3.5t-69.5 8t-74 17t-70 28t-49 42 t-20 58v1352q61 0 98 -1t86.5 -4.5t82 -12t68 -22.5t61.5 -36t46 -53zM657 -74h193q24 0 37.5 -1t33.5 -6.5t31 -16t19 -31t8 -49.5v16q0 -170 -50.5 -248.5t-185.5 -78.5q-97 0 -157 55q48 14 75 52t29 84.5t-6 96.5z" />
<glyph unicode="&#x146;" horiz-adv-x="1232" d="M776 143v568q0 75 -35 111t-120 36q-32 0 -71.5 -4.5t-63.5 -9.5l-23 -4v-854q-7 0 -19.5 0.5t-48 3.5t-68 8t-72.5 17t-68.5 28t-48 42t-19.5 58v967q10 -5 28.5 -13.5t77.5 -22t119 -13.5q49 0 149 21.5t156 21.5q73 0 137.5 -10t127 -36t107 -66t72 -104t27.5 -147 v-755q-7 0 -19.5 0.5t-48 4t-68 9t-72.5 17.5t-68.5 27.5t-48 41.5t-19.5 57zM492 -74h192q24 0 37.5 -1t33.5 -6.5t31 -16t19 -31t8 -49.5v16q0 -170 -50 -248.5t-185 -78.5q-98 0 -158 55q48 14 75 52t29 84.5t-6 96.5z" />
<glyph unicode="&#x147;" horiz-adv-x="1564" d="M575 1360l533 -846q-29 137 -29 268v707q7 0 20 -0.5t49.5 -3.5t70 -8.5t74 -17t70 -27.5t49.5 -42.5t20 -58.5v-1351q-106 0 -190.5 16.5t-130 39.5t-75.5 46.5t-40 39.5l-9 17l-524 838q22 -127 22 -240v-757q-7 0 -20 0.5t-49.5 3.5t-69.5 8t-74 17t-70 28t-49 42 t-20 58v1352q61 0 98 -1t86.5 -4.5t82 -12t68 -22.5t61.5 -36t46 -53zM836 1587h-103q-12 7 -31 20t-68.5 49.5t-87 70t-68.5 74t-31 69.5q0 38 43.5 72.5t165.5 66.5q-15 -21 -15 -45q0 -30 36 -72.5t72 -69.5l36 -28q6 4 15.5 11.5t34 28.5t43.5 41t34.5 45t15.5 44 q0 25 -14 45q122 -32 165.5 -66.5t43.5 -72.5q0 -29 -29.5 -68.5t-71.5 -75.5t-84.5 -68t-71.5 -52z" />
<glyph unicode="&#x148;" horiz-adv-x="1232" d="M776 143v568q0 75 -35 111t-120 36q-32 0 -71.5 -4.5t-63.5 -9.5l-23 -4v-854q-7 0 -19.5 0.5t-48 3.5t-68 8t-72.5 17t-68.5 28t-48 42t-19.5 58v967q10 -5 28.5 -13.5t77.5 -22t119 -13.5q49 0 149 21.5t156 21.5q73 0 137.5 -10t127 -36t107 -66t72 -104t27.5 -147 v-755q-7 0 -19.5 0.5t-48 4t-68 9t-72.5 17.5t-68.5 27.5t-48 41.5t-19.5 57zM668 1210h-103q-12 7 -31 20t-68.5 49.5t-87 70t-68.5 74t-31 69.5q0 39 43.5 73t164.5 66q-14 -20 -14 -45q0 -30 35.5 -72.5t71.5 -70.5l36 -27q6 4 15.5 11.5t34.5 28.5t44 41t34.5 45 t15.5 44q0 24 -15 45q122 -32 165.5 -66.5t43.5 -72.5q0 -29 -29.5 -68.5t-71.5 -75.5t-84 -68t-71 -51z" />
<glyph unicode="&#x14c;" d="M1423 1004v-519q0 -245 -163 -377.5t-490 -132.5q-331 0 -494 132.5t-163 377.5v519q0 244 163 376.5t494 132.5q326 0 489.5 -133t163.5 -376zM1071 512v465q0 74 -12 122.5t-44 88t-93 58t-154 18.5t-154 -18.5t-93 -58t-44 -88t-12 -122.5v-465q0 -74 12 -123t44 -89 t93 -58.5t154 -18.5t154 18.5t93 58.5t44 89t12 123zM572 1847h549q6 -32 6 -75q0 -31 -6 -54t-21.5 -44t-47.5 -32.5t-79 -11.5h-553q-6 29 -6 66q0 32 6 56.5t22 47t49 35t81 12.5z" />
<glyph unicode="&#x14d;" horiz-adv-x="1249" d="M1157 719v-359q0 -185 -132.5 -285t-397.5 -100q-269 0 -402 100t-133 285v359q0 184 133.5 284.5t401.5 100.5q265 0 397.5 -100.5t132.5 -284.5zM813 391v297q0 91 -38.5 132.5t-147.5 41.5q-112 0 -151.5 -41.5t-39.5 -132.5v-297q0 -92 39.5 -134t151.5 -42 q109 0 147.5 42t38.5 134zM428 1470h549q6 -32 6 -75q0 -31 -6 -54t-21.5 -44t-47.5 -32.5t-79 -11.5h-553q-6 29 -6 66q0 32 6 56.5t22 47t49 35t81 12.5z" />
<glyph unicode="&#x150;" d="M1423 1004v-519q0 -245 -163 -377.5t-490 -132.5q-331 0 -494 132.5t-163 377.5v519q0 244 163 376.5t494 132.5q326 0 489.5 -133t163.5 -376zM1071 512v465q0 74 -12 122.5t-44 88t-93 58t-154 18.5t-154 -18.5t-93 -58t-44 -88t-12 -122.5v-465q0 -74 12 -123t44 -89 t93 -58.5t154 -18.5t154 18.5t93 58.5t44 89t12 123zM572 2009q89 -3 137.5 -44.5t48.5 -102.5q0 -37 -21.5 -78t-60.5 -70l-102 -77q-2 0 -15 3.5t-33.5 12t-40 19.5t-33.5 28t-14 35q0 20 17 39l57 63q3 3 14.5 15t16 17t14 16t13.5 18t10 17t8 19.5t2 18.5q0 27 -18 51z M1006 2009q95 -9 147.5 -56.5t52.5 -113.5q0 -45 -27 -89.5t-79 -80.5l-121 -82q-6 2 -16 5.5t-35 15.5t-44.5 24.5t-35.5 32t-16 39.5q0 25 20 45l70 70q5 5 21.5 21t23.5 23.5t19.5 22t18 24.5t10.5 23.5t5 26.5q0 27 -14 49z" />
<glyph unicode="&#x151;" horiz-adv-x="1249" d="M1157 719v-359q0 -185 -132.5 -285t-397.5 -100q-269 0 -402 100t-133 285v359q0 184 133.5 284.5t401.5 100.5q265 0 397.5 -100.5t132.5 -284.5zM813 391v297q0 91 -38.5 132.5t-147.5 41.5q-112 0 -151.5 -41.5t-39.5 -132.5v-297q0 -92 39.5 -134t151.5 -42 q109 0 147.5 42t38.5 134zM428 1632q89 -3 137.5 -44.5t48.5 -102.5q0 -37 -21.5 -78t-60.5 -70l-102 -77q-2 0 -15 3.5t-33.5 12t-39.5 19.5t-33 28t-14 35q0 21 16 39l58 63q3 3 12.5 13t13.5 14.5t12.5 14t12.5 15.5l10 15t9 16t5 16t2 17q0 27 -18 51zM862 1632 q95 -9 148 -56.5t53 -113.5q0 -44 -27.5 -89t-79.5 -81l-120 -82q-6 2 -16 5.5t-35.5 15.5t-45 24.5t-35.5 32t-16 39.5q0 24 21 45l69 70q3 3 25.5 24.5t29.5 29.5t20.5 25.5t18.5 32t5 29.5q0 25 -15 49z" />
<glyph unicode="&#x152;" horiz-adv-x="1843" d="M768 252h33v983q-23 2 -33 2q-93 0 -154 -17.5t-93 -53.5t-44 -78.5t-12 -104.5v-477q0 -62 12 -104.5t44 -78.5t93 -53.5t154 -17.5zM807 0q-350 0 -522 123.5t-172 355.5v531q0 223 164.5 351t492.5 128h1012q0 -5 -0.5 -14t-4 -35t-10.5 -49.5t-21.5 -52.5t-34 -50 t-51.5 -35t-71 -14h-434v-332h279q90 0 156.5 7.5t87.5 15.5l22 8q0 -46 -4.5 -83t-19.5 -75.5t-40 -64t-68 -42t-102 -16.5h-311v-409h627q0 -9 -1.5 -24.5t-7 -46.5t-18.5 -59.5t-33 -56.5t-54.5 -44.5t-78.5 -16.5h-2h-2h-2h-2h-2h-2h-2h-2h-2h-2h-2h-2h-2h-2h-2h-2h-2 h-2h-2h-2h-2h-2h-2h-2h-2h-2h-2h-2h-2h-3h-2h-2h-2h-2h-2h-2h-2h-2h-2h-2h-2h-2h-2h-2h-2h-2h-2h-2h-2h-2h-2h-2h-2h-2h-2h-2h-2h-2h-2h-2h-2h-2h-2h-2h-2h-2h-2h-2h-2h-2h-2h-2h-2h-2h-2h-2h-2h-2h-2h-2h-2h-2h-3h-2h-2h-2h-2h-2h-2h-2h-2h-2h-2h-2h-2h-2h-2h-2h-2h-2h-2 h-2h-2h-2h-2h-2h-2h-2h-2h-2h-2h-2h-2h-2h-2h-2h-2h-2h-2h-2h-2h-2h-2h-2h-2h-2h-2h-2h-2h-2h-3h-2h-2h-2h-2h-2h-2h-2h-2h-2h-2h-2h-2h-2h-2h-2h-2h-2h-2h-2h-2h-2h-2h-2h-2h-2h-2h-2h-2h-2h-2h-2h-2h-2h-2h-2h-2h-2h-2h-2h-2h-2h-2h-3h-2h-2h-2h-2h-2h-2h-2h-2h-2h-2h-2 h-2h-2h-2h-2h-2h-2h-2h-2h-2h-2h-2h-2h-2h-2h-2h-2h-2h-2h-2h-2h-2h-2h-2h-2h-2h-2h-3h-2h-2h-2h-2h-2h-2h-2h-2h-2h-2h-2h-2h-2h-2h-2h-2h-2h-2h-2h-2h-2h-2h-2h-2h-2h-2h-2h-2h-2h-2h-2h-2h-2h-3h-2h-2h-2h-2h-2h-2h-2h-2h-2h-2h-2h-2h-2h-2h-2h-2h-2h-2h-2h-2h-2h-2h-2 h-2h-2h-2h-2h-2h-2h-3h-2h-2h-2h-2h-2h-2h-2h-2h-2h-2h-2h-2h-2h-2h-2h-2h-2h-2h-2h-2h-2h-2h-2h-2h-2h-3h-2h-2h-2h-2h-2h-2h-2h-2h-2h-2h-2h-2h-2h-2h-2h-2h-2h-2h-2h-2h-2h-3h-2h-2h-2h-2h-2h-2h-2h-2h-2h-2h-2h-2h-2h-2h-2h-2h-2h-2h-2h-3h-2h-2h-2h-2h-2h-2h-2h-2h-2 h-2h-2h-2h-2h-2h-2h-3h-2h-2h-2h-2h-2h-2h-2h-2h-2h-2h-2h-2h-3h-2h-2h-2h-2h-2h-2h-2h-10z" />
<glyph unicode="&#x153;" horiz-adv-x="1851" d="M1354 -25q-236 0 -363 91q-124 -91 -364 -91q-269 0 -402 100t-133 285v359q0 184 133.5 284.5t401.5 100.5q231 0 356 -86q120 86 326 86q230 0 341 -97t111 -268q0 -72 -20.5 -131t-67.5 -109.5t-135 -79t-211 -28.5q-46 0 -88 8.5t-61 16.5l-19 8v-33q0 -84 54 -125 t151 -41q154 0 247 60t95 143q74 -103 74 -186q0 -115 -117.5 -191t-308.5 -76zM813 391v297q0 91 -38.5 132.5t-147.5 41.5q-112 0 -151.5 -41.5t-39.5 -132.5v-297q0 -92 39.5 -134t151.5 -42q109 0 147.5 42t38.5 134zM1159 688v-45q62 -16 117 -16q143 0 143 112 q0 123 -125 123q-74 0 -104.5 -43t-30.5 -131z" />
<glyph unicode="&#x154;" horiz-adv-x="1325" d="M1219 1038q0 -167 -99 -278.5t-272 -114.5q73 -48 133 -108t105.5 -126.5t80.5 -127.5t79.5 -137t82.5 -130q-125 -32 -174 -32q-188 0 -278 145q-17 27 -52 90.5t-65 112t-72 106t-93.5 101.5t-109.5 69v-628q-7 0 -20 0.5t-49.5 4t-69.5 9.5t-74 17.5t-70 27.5 t-49 41.5t-20 56.5v1352h514q130 0 230.5 -20t179 -63.5t120.5 -120.5t42 -185v-62zM647 1239h-162v-371h179q110 0 156 48.5t46 152.5q0 96 -52 133t-167 37zM662 2009q94 -10 153 -45t74.5 -82t-11 -104t-94.5 -109l-112 -86q-3 1 -8 2t-20.5 4t-30 7.5t-34.5 11 t-35.5 14.5t-31.5 17.5t-24.5 21.5t-11.5 25t4 28.5t24 32.5l74 72q5 5 21.5 21t23.5 23.5t19.5 22t18 24.5t10.5 23.5t5 26.5q0 27 -14 49z" />
<glyph unicode="&#x155;" horiz-adv-x="919" d="M457 -14q-7 0 -19.5 0.5t-48 3.5t-68 8t-72.5 17t-68.5 28t-48 42t-19.5 58v967q104 -49 180 -49q43 0 151 21.5t177 21.5q58 0 109 -10.5t96 -33.5t71.5 -66t26.5 -101q0 -40 -13 -80t-31 -68t-36.5 -50.5t-31.5 -34.5l-13 -11q0 56 -21 97t-55 63.5t-79 32.5t-92 8.5 t-95 -12.5v-852zM510 1632q125 -13 186.5 -67.5t44.5 -129t-108 -143.5l-113 -86q-3 1 -8 2t-20.5 4t-30 7.5t-34.5 11t-35.5 14.5t-31.5 17.5t-24.5 21.5t-11.5 25t4 28.5t24 32.5l74 72q5 5 21.5 21t23.5 23.5t19.5 22t18 24.5t10.5 23.5t5 26.5q0 27 -14 49z" />
<glyph unicode="&#x156;" horiz-adv-x="1325" d="M1219 1038q0 -167 -99 -278.5t-272 -114.5q73 -48 133 -108t105.5 -126.5t80.5 -127.5t79.5 -137t82.5 -130q-125 -32 -174 -32q-188 0 -278 145q-17 27 -52 90.5t-65 112t-72 106t-93.5 101.5t-109.5 69v-628q-7 0 -20 0.5t-49.5 4t-69.5 9.5t-74 17.5t-70 27.5 t-49 41.5t-20 56.5v1352h514q130 0 230.5 -20t179 -63.5t120.5 -120.5t42 -185v-62zM647 1239h-162v-371h179q110 0 156 48.5t46 152.5q0 96 -52 133t-167 37zM537 -74h192q24 0 37.5 -1t33.5 -6.5t31 -16t19 -31t8 -49.5v16q0 -170 -50 -248.5t-185 -78.5q-98 0 -158 55 q48 14 75 52t29 84.5t-6 96.5z" />
<glyph unicode="&#x157;" horiz-adv-x="919" d="M457 -14q-7 0 -19.5 0.5t-48 3.5t-68 8t-72.5 17t-68.5 28t-48 42t-19.5 58v967q104 -49 180 -49q43 0 151 21.5t177 21.5q58 0 109 -10.5t96 -33.5t71.5 -66t26.5 -101q0 -40 -13 -80t-31 -68t-36.5 -50.5t-31.5 -34.5l-13 -11q0 56 -21 97t-55 63.5t-79 32.5t-92 8.5 t-95 -12.5v-852zM334 -74h192q24 0 37.5 -1t33.5 -6.5t31 -16t19 -31t8 -49.5v16q0 -170 -50 -248.5t-185 -78.5q-98 0 -158 55q48 14 75 52t29 84.5t-6 96.5z" />
<glyph unicode="&#x158;" horiz-adv-x="1325" d="M1219 1038q0 -167 -99 -278.5t-272 -114.5q73 -48 133 -108t105.5 -126.5t80.5 -127.5t79.5 -137t82.5 -130q-125 -32 -174 -32q-188 0 -278 145q-17 27 -52 90.5t-65 112t-72 106t-93.5 101.5t-109.5 69v-628q-7 0 -20 0.5t-49.5 4t-69.5 9.5t-74 17.5t-70 27.5 t-49 41.5t-20 56.5v1352h514q130 0 230.5 -20t179 -63.5t120.5 -120.5t42 -185v-62zM647 1239h-162v-371h179q110 0 156 48.5t46 152.5q0 96 -52 133t-167 37zM698 1587h-103q-12 7 -31 20t-68.5 49.5t-87 70t-68.5 74t-31 69.5q0 38 43.5 72.5t165.5 66.5q-15 -21 -15 -45 q0 -30 36 -72.5t72 -69.5l36 -28q6 4 15.5 11.5t34 28.5t43.5 41t34.5 45t15.5 44q0 25 -14 45q122 -32 165.5 -66.5t43.5 -72.5q0 -29 -29.5 -68.5t-71.5 -75.5t-84.5 -68t-71.5 -52z" />
<glyph unicode="&#x159;" horiz-adv-x="919" d="M457 -14q-7 0 -19.5 0.5t-48 3.5t-68 8t-72.5 17t-68.5 28t-48 42t-19.5 58v967q104 -49 180 -49q43 0 151 21.5t177 21.5q58 0 109 -10.5t96 -33.5t71.5 -66t26.5 -101q0 -40 -13 -80t-31 -68t-36.5 -50.5t-31.5 -34.5l-13 -11q0 56 -21 97t-55 63.5t-79 32.5t-92 8.5 t-95 -12.5v-852zM547 1210h-103q-12 7 -31 20t-68.5 49.5t-87 70t-68.5 74t-31 69.5q0 38 43.5 72.5t165.5 66.5q-15 -21 -15 -45q0 -30 36 -72.5t72 -70.5l36 -27q6 4 15.5 11.5t34 28.5t43.5 41t34.5 45t15.5 44q0 25 -14 45q122 -32 165.5 -66.5t43.5 -72.5 q0 -29 -29.5 -68.5t-72 -75.5t-84.5 -68t-72 -51z" />
<glyph unicode="&#x15a;" horiz-adv-x="1386" d="M72 1063q0 450 622 450q572 0 572 -266q0 -100 -84 -241q2 10 2 28q0 64 -47.5 110t-126 68t-155 31.5t-159.5 9.5q-127 0 -193.5 -32t-66.5 -119q0 -47 30 -78.5t81 -47t117 -26t139 -21.5t145.5 -27.5t138.5 -49.5t117 -82t81 -131t30 -190q0 -153 -84 -260.5 t-229.5 -159.5t-339.5 -52q-104 0 -200 16.5t-176.5 49t-128.5 87t-48 122.5q0 97 92 211q0 -53 32 -94.5t80 -65.5t113 -39t121.5 -20.5t114.5 -5.5q288 0 288 186q0 54 -30 90t-81 55.5t-116.5 32t-138.5 23.5t-146 26t-138.5 45t-116.5 74t-81 118.5t-30 174.5zM705 2009 q94 -10 153 -45t74.5 -82t-11 -104t-94.5 -109l-112 -86q-3 1 -8 2t-20.5 4t-30 7.5t-34.5 11t-35.5 14.5t-31.5 17.5t-24.5 21.5t-11.5 25t4 28.5t24 32.5l74 72q5 5 21.5 21t23.5 23.5t19.5 22t18 24.5t10.5 23.5t5 26.5q0 27 -14 49z" />
<glyph unicode="&#x15b;" horiz-adv-x="1105" d="M717 332q0 28 -23 46t-61.5 26.5t-88.5 13.5t-105 11.5t-110 17t-105 32.5t-88.5 54.5t-61.5 87t-23 127.5q0 356 494 356q210 0 328 -56t118 -157q0 -92 -96 -203q0 56 -50.5 95.5t-119.5 56t-145 16.5q-85 0 -138 -21.5t-53 -64.5q0 -26 23 -41.5t61.5 -23t88.5 -12.5 t105 -12.5t110 -19.5t105 -37.5t88.5 -62.5t61.5 -98t23 -141q0 -165 -129.5 -256t-380.5 -91q-218 0 -344.5 65t-126.5 171q0 102 129 219q8 -211 342 -211q172 0 172 113zM559 1632q125 -13 186.5 -67.5t44.5 -129t-108 -143.5l-113 -86q-3 1 -8 2t-20.5 4t-30 7.5 t-34.5 11t-35.5 14.5t-31.5 17.5t-24.5 21.5t-11.5 25t4 28.5t24 32.5l74 72q5 5 21.5 21t23.5 23.5t19.5 22t18 24.5t10.5 23.5t5 26.5q0 27 -14 49z" />
<glyph unicode="&#x15c;" horiz-adv-x="1386" d="M72 1063q0 450 622 450q572 0 572 -266q0 -100 -84 -241q2 10 2 28q0 64 -47.5 110t-126 68t-155 31.5t-159.5 9.5q-127 0 -193.5 -32t-66.5 -119q0 -47 30 -78.5t81 -47t117 -26t139 -21.5t145.5 -27.5t138.5 -49.5t117 -82t81 -131t30 -190q0 -153 -84 -260.5 t-229.5 -159.5t-339.5 -52q-104 0 -200 16.5t-176.5 49t-128.5 87t-48 122.5q0 97 92 211q0 -53 32 -94.5t80 -65.5t113 -39t121.5 -20.5t114.5 -5.5q288 0 288 186q0 54 -30 90t-81 55.5t-116.5 32t-138.5 23.5t-146 26t-138.5 45t-116.5 74t-81 118.5t-30 174.5zM690 1792 q-3 -1 -7 -4t-17 -11.5t-25.5 -17.5t-28 -22t-28 -26t-23.5 -29t-16 -31t-3.5 -31.5t11.5 -30.5q-203 47 -203 154q0 30 35 68t85 71.5t100 63t85 46.5l35 17q14 -7 37 -18t81.5 -44.5t103.5 -64.5t81.5 -70t36.5 -69q0 -108 -202 -154q17 28 10 56t-31 54.5t-50 47 t-47 33.5z" />
<glyph unicode="&#x15d;" horiz-adv-x="1105" d="M717 332q0 28 -23 46t-61.5 26.5t-88.5 13.5t-105 11.5t-110 17t-105 32.5t-88.5 54.5t-61.5 87t-23 127.5q0 356 494 356q210 0 328 -56t118 -157q0 -92 -96 -203q0 56 -50.5 95.5t-119.5 56t-145 16.5q-85 0 -138 -21.5t-53 -64.5q0 -26 23 -41.5t61.5 -23t88.5 -12.5 t105 -12.5t110 -19.5t105 -37.5t88.5 -62.5t61.5 -98t23 -141q0 -165 -129.5 -256t-380.5 -91q-218 0 -344.5 65t-126.5 171q0 102 129 219q8 -211 342 -211q172 0 172 113zM545 1415q-3 -1 -7 -4t-17 -11.5t-25.5 -17.5t-28 -22t-28 -26t-23.5 -29t-16 -31t-3.5 -31.5 t11.5 -30.5q-203 47 -203 154q0 30 35 68t85 71.5t100 63t85 46.5l35 17q14 -7 37 -18t81.5 -44.5t103.5 -64.5t81.5 -70t36.5 -69q0 -107 -203 -154q17 28 10 56t-31 54.5t-49.5 47t-45.5 32.5z" />
<glyph unicode="&#x15e;" horiz-adv-x="1386" d="M508 -219q0 28 12 57l58 142q-93 6 -175 25.5t-149 51.5t-106 82.5t-39 112.5q0 97 92 211q0 -53 32 -94.5t80 -65.5t113 -39t121.5 -20.5t114.5 -5.5q288 0 288 186q0 54 -30 90t-81 55.5t-116.5 32t-138.5 23.5t-146 26t-138.5 45t-116.5 74t-81 118.5t-30 174.5 q0 450 622 450q572 0 572 -266q0 -100 -84 -241q2 10 2 28q0 64 -47.5 110t-126 68t-155 31.5t-159.5 9.5q-127 0 -193.5 -32t-66.5 -119q0 -47 30 -78.5t81 -47t117 -26t139 -21.5t145.5 -27.5t138.5 -49.5t117 -82t81 -131t30 -190q0 -209 -149.5 -328.5t-405.5 -138.5 q0 -18 -4 -54q118 -5 180.5 -57.5t62.5 -151.5q0 -96 -78 -155.5t-180 -59.5q-63 0 -109.5 19.5t-67.5 47t-33 54.5t-13 47l-2 19q68 -29 146 -29q42 0 71 18t29 54q0 69 -125 69q-36 0 -68 -5.5t-47 -11.5z" />
<glyph unicode="&#x15f;" horiz-adv-x="1105" d="M365 -219q0 28 12 57l57 142q-169 15 -264.5 77t-95.5 154q0 102 129 219q8 -211 342 -211q172 0 172 113q0 28 -23 46t-61.5 26.5t-88.5 13.5t-105 11.5t-110 17t-105 32.5t-88.5 54.5t-61.5 87t-23 127.5q0 356 494 356q210 0 328 -56t118 -157q0 -92 -96 -203 q0 56 -50.5 95.5t-119.5 56t-145 16.5q-85 0 -138 -21.5t-53 -64.5q0 -26 23 -41.5t61.5 -23t88.5 -12.5t105 -12.5t110 -19.5t105 -37.5t88.5 -62.5t61.5 -98t23 -141q0 -154 -111.5 -243t-327.5 -102q0 -17 -4 -49q118 -5 181 -57.5t63 -151.5q0 -96 -78 -155.5 t-180 -59.5q-63 0 -109.5 19.5t-67.5 47t-33 54.5t-14 47l-1 19q67 -29 145 -29q42 0 71 18t29 54q0 69 -124 69q-36 0 -68 -5.5t-46 -11.5z" />
<glyph unicode="&#x160;" horiz-adv-x="1386" d="M72 1063q0 450 622 450q572 0 572 -266q0 -100 -84 -241q2 10 2 28q0 64 -47.5 110t-126 68t-155 31.5t-159.5 9.5q-127 0 -193.5 -32t-66.5 -119q0 -47 30 -78.5t81 -47t117 -26t139 -21.5t145.5 -27.5t138.5 -49.5t117 -82t81 -131t30 -190q0 -153 -84 -260.5 t-229.5 -159.5t-339.5 -52q-104 0 -200 16.5t-176.5 49t-128.5 87t-48 122.5q0 97 92 211q0 -53 32 -94.5t80 -65.5t113 -39t121.5 -20.5t114.5 -5.5q288 0 288 186q0 54 -30 90t-81 55.5t-116.5 32t-138.5 23.5t-146 26t-138.5 45t-116.5 74t-81 118.5t-30 174.5zM741 1587 h-103q-12 7 -31 20t-68.5 49.5t-87 70t-68.5 74t-31 69.5q0 38 43.5 72.5t165.5 66.5q-15 -21 -15 -45q0 -30 36 -72.5t72 -69.5l36 -28q6 4 15.5 11.5t34 28.5t43.5 41t34.5 45t15.5 44q0 25 -14 45q122 -32 165.5 -66.5t43.5 -72.5q0 -29 -29.5 -68.5t-72 -75.5t-84.5 -68 t-72 -52z" />
<glyph unicode="&#x161;" horiz-adv-x="1105" d="M717 332q0 28 -23 46t-61.5 26.5t-88.5 13.5t-105 11.5t-110 17t-105 32.5t-88.5 54.5t-61.5 87t-23 127.5q0 356 494 356q210 0 328 -56t118 -157q0 -92 -96 -203q0 56 -50.5 95.5t-119.5 56t-145 16.5q-85 0 -138 -21.5t-53 -64.5q0 -26 23 -41.5t61.5 -23t88.5 -12.5 t105 -12.5t110 -19.5t105 -37.5t88.5 -62.5t61.5 -98t23 -141q0 -165 -129.5 -256t-380.5 -91q-218 0 -344.5 65t-126.5 171q0 102 129 219q8 -211 342 -211q172 0 172 113zM596 1210h-102q-12 7 -31 20t-68.5 49.5t-87.5 70t-69 74t-31 69.5q0 38 43.5 72.5t165.5 66.5 q-15 -21 -15 -45q0 -30 36 -72.5t72 -70.5l36 -27q6 4 15.5 11.5t34 28.5t43.5 41t34.5 45t15.5 44q0 25 -14 45q122 -32 165.5 -66.5t43.5 -72.5q0 -29 -29.5 -68.5t-71.5 -75.5t-84.5 -68t-71.5 -51z" />
<glyph unicode="&#x162;" horiz-adv-x="1226" d="M424 -219q0 28 12 57l80 193q-82 40 -82 106v1102h-196q-59 0 -102 16.5t-68 42t-40 64.5t-19.5 76t-4.5 84q98 -33 266 -33h688q75 0 141 8.5t95 16.5l29 8q0 -48 -4.5 -84.5t-18.5 -75.5t-38.5 -64.5t-68 -42t-102.5 -16.5h-205v-1259q-49 0 -110 8q0 -20 -4 -60 q118 -5 180.5 -57.5t62.5 -151.5q0 -96 -78 -155.5t-180 -59.5q-63 0 -109.5 19.5t-67.5 47t-33 54.5t-13 47l-2 19q68 -29 146 -29q42 0 71 18t29 54q0 69 -125 69q-36 0 -68 -5.5t-47 -11.5z" />
<glyph unicode="&#x163;" horiz-adv-x="970" d="M346 -219q0 28 12 57l64 154q-152 31 -230.5 125.5t-78.5 242.5v883q7 0 19.5 0.5t48 -0.5t68 -5.5t72.5 -15.5t68.5 -27.5t48 -45.5t19.5 -66v-65h407q0 -10 -1.5 -27t-12 -60t-28 -76t-56.5 -60t-92 -27h-217v-350q0 -103 36 -149t142 -46q225 0 225 213 q111 -103 111 -205q0 -46 -17.5 -87.5t-57.5 -80t-116.5 -62.5t-181.5 -26q0 -15 -4 -47q118 -5 181 -57.5t63 -151.5q0 -96 -78 -155.5t-180 -59.5q-46 0 -83 10.5t-60 27t-40 36.5t-25 39.5t-12.5 36t-5.5 26.5v11q68 -29 146 -29q42 0 71 18t29 54q0 69 -125 69 q-36 0 -68 -5.5t-47 -11.5z" />
<glyph unicode="&#x164;" horiz-adv-x="1226" d="M991 1239h-205v-1259q-7 0 -20 0.5t-49.5 3.5t-69.5 8t-74 17t-70 28t-49 42t-20 58v1102h-196q-59 0 -102 16.5t-68 42t-40 64.5t-19.5 76t-4.5 84q98 -33 266 -33h688q75 0 141 8.5t95 16.5l29 8q0 -48 -4.5 -84.5t-18.5 -75.5t-38.5 -64.5t-68 -42t-102.5 -16.5z M660 1587h-103q-12 7 -31 20t-68.5 49.5t-87 70t-68.5 74t-31 69.5q0 38 43.5 72.5t165.5 66.5q-15 -21 -15 -45q0 -30 36 -72.5t72 -69.5l36 -28q6 4 15.5 11.5t34 28.5t43.5 41t34.5 45t15.5 44q0 25 -14 45q122 -32 165.5 -66.5t43.5 -72.5q0 -29 -29.5 -68.5 t-71.5 -75.5t-84.5 -68t-71.5 -52z" />
<glyph unicode="&#x165;" horiz-adv-x="1533" d="M113 360v883q7 0 19.5 0.5t48 -0.5t68 -5.5t72.5 -15.5t68.5 -27.5t48 -45.5t19.5 -66v-65h407q0 -10 -1.5 -27t-12 -60t-28 -76t-56.5 -60t-92 -27h-217v-350q0 -103 36 -149t142 -46q225 0 225 213q111 -103 111 -205q0 -37 -10.5 -71t-38 -68.5t-70 -59.5t-112 -41 t-158.5 -16q-228 0 -348.5 101t-120.5 284zM1102 1489h84h112q57 0 91 -26t34 -81v-100q0 -86 -10 -143t-35 -101.5t-72 -65t-118 -20.5q-92 0 -158 56q39 10 65.5 35.5t37 52t14 61.5t2.5 53.5t-4 38.5z" />
<glyph unicode="&#x16a;" d="M1423 1352v-889q0 -95 -34.5 -175.5t-95.5 -137.5t-143.5 -97t-178.5 -59t-201 -19q-106 0 -202.5 19t-180 59t-144.5 97t-95.5 137.5t-34.5 175.5v1046q7 0 20 -0.5t49.5 -3.5t69.5 -8t74 -17t70 -28t49 -42t20 -58v-858q0 -125 83.5 -193t221.5 -68q136 0 218.5 68.5 t82.5 192.5v1015q7 0 20 -0.5t49.5 -3.5t69.5 -8t74 -17t70 -28t49 -42t20 -58zM572 1847h549q6 -32 6 -75q0 -31 -6 -54t-21.5 -44t-47.5 -32.5t-79 -11.5h-553q-6 29 -6 66q0 32 6 56.5t22 47t49 35t81 12.5z" />
<glyph unicode="&#x16b;" horiz-adv-x="1226" d="M457 936v-567q0 -75 36.5 -112.5t122.5 -37.5q31 0 69.5 5.5t61.5 10.5l23 5v854q7 0 19.5 -0.5t48 -3.5t68 -8.5t72.5 -17t68.5 -27.5t48 -42.5t19.5 -58.5v-969q-10 6 -29 14.5t-77 22.5t-115 14q-52 0 -152.5 -21.5t-152.5 -21.5q-73 0 -138 10t-128 36t-108 66 t-73 104t-28 147v756q14 0 37 -1.5t82.5 -11t105 -24.5t82.5 -47t37 -74zM414 1470h549q6 -32 6 -75q0 -31 -6 -54t-21.5 -44t-47.5 -32.5t-79 -11.5h-553q-6 29 -6 66q0 32 6 56.5t22 47t49 35t81 12.5z" />
<glyph unicode="&#x16c;" d="M1423 1352v-889q0 -95 -34.5 -175.5t-95.5 -137.5t-143.5 -97t-178.5 -59t-201 -19q-106 0 -202.5 19t-180 59t-144.5 97t-95.5 137.5t-34.5 175.5v1046q7 0 20 -0.5t49.5 -3.5t69.5 -8t74 -17t70 -28t49 -42t20 -58v-858q0 -125 83.5 -193t221.5 -68q136 0 218.5 68.5 t82.5 192.5v1015q7 0 20 -0.5t49.5 -3.5t69.5 -8t74 -17t70 -28t49 -42t20 -58zM770 1798q73 0 126.5 38.5t53.5 103.5q0 35 -16 75q75 -37 112 -88t37 -106q0 -88 -86 -156.5t-225 -68.5q-144 0 -231 67t-87 158q0 55 37.5 106t112.5 88q-16 -40 -16 -75q0 -65 54 -103.5 t128 -38.5z" />
<glyph unicode="&#x16d;" horiz-adv-x="1226" d="M457 936v-567q0 -75 36.5 -112.5t122.5 -37.5q31 0 69.5 5.5t61.5 10.5l23 5v854q7 0 19.5 -0.5t48 -3.5t68 -8.5t72.5 -17t68.5 -27.5t48 -42.5t19.5 -58.5v-969q-10 6 -29 14.5t-77 22.5t-115 14q-52 0 -152.5 -21.5t-152.5 -21.5q-73 0 -138 10t-128 36t-108 66 t-73 104t-28 147v756q14 0 37 -1.5t82.5 -11t105 -24.5t82.5 -47t37 -74zM612 1421q73 0 127 38.5t54 103.5q0 33 -17 75q75 -37 112.5 -88t37.5 -106q0 -88 -86.5 -156.5t-225.5 -68.5q-144 0 -230.5 67t-86.5 158q0 55 37 106t112 88q-16 -40 -16 -75q0 -65 54 -103.5 t128 -38.5z" />
<glyph unicode="&#x16e;" d="M1423 1352v-889q0 -95 -34.5 -175.5t-95.5 -137.5t-143.5 -97t-178.5 -59t-201 -19q-106 0 -202.5 19t-180 59t-144.5 97t-95.5 137.5t-34.5 175.5v1046q7 0 20 -0.5t49.5 -3.5t69.5 -8t74 -17t70 -28t49 -42t20 -58v-858q0 -125 83.5 -193t221.5 -68q136 0 218.5 68.5 t82.5 192.5v1015q7 0 20 -0.5t49.5 -3.5t69.5 -8t74 -17t70 -28t49 -42t20 -58zM821 1761v35q0 31 -53 31q-30 0 -39.5 -8t-9.5 -23v-35q0 -14 8.5 -19t40.5 -5q30 0 41.5 5t11.5 19zM1010 1813v-68q0 -70 -65 -108.5t-175 -38.5q-108 0 -172.5 39t-64.5 108v68q0 71 65 112 t172 41q110 0 175 -41t65 -112z" />
<glyph unicode="&#x16f;" horiz-adv-x="1226" d="M457 936v-567q0 -75 36.5 -112.5t122.5 -37.5q31 0 69.5 5.5t61.5 10.5l23 5v854q7 0 19.5 -0.5t48 -3.5t68 -8.5t72.5 -17t68.5 -27.5t48 -42.5t19.5 -58.5v-969q-10 6 -29 14.5t-77 22.5t-115 14q-52 0 -152.5 -21.5t-152.5 -21.5q-73 0 -138 10t-128 36t-108 66 t-73 104t-28 147v756q14 0 37 -1.5t82.5 -11t105 -24.5t82.5 -47t37 -74zM664 1384v35q0 31 -54 31q-30 0 -39.5 -8t-9.5 -23v-35q0 -14 8.5 -19t40.5 -5q31 0 42.5 5t11.5 19zM852 1436v-68q0 -70 -65 -108.5t-175 -38.5q-108 0 -172.5 39t-64.5 108v68q0 71 65 112t172 41 q110 0 175 -41t65 -112z" />
<glyph unicode="&#x170;" d="M1423 1352v-889q0 -95 -34.5 -175.5t-95.5 -137.5t-143.5 -97t-178.5 -59t-201 -19q-106 0 -202.5 19t-180 59t-144.5 97t-95.5 137.5t-34.5 175.5v1046q7 0 20 -0.5t49.5 -3.5t69.5 -8t74 -17t70 -28t49 -42t20 -58v-858q0 -125 83.5 -193t221.5 -68q136 0 218.5 68.5 t82.5 192.5v1015q7 0 20 -0.5t49.5 -3.5t69.5 -8t74 -17t70 -28t49 -42t20 -58zM572 2009q89 -3 137.5 -44.5t48.5 -102.5q0 -37 -21.5 -78t-60.5 -70l-102 -77q-2 0 -15 3.5t-33.5 12t-40 19.5t-33.5 28t-14 35q0 20 17 39l57 63q3 3 14.5 15t16 17t14 16t13.5 18t10 17 t8 19.5t2 18.5q0 27 -18 51zM1006 2009q95 -9 147.5 -56.5t52.5 -113.5q0 -45 -27 -89.5t-79 -80.5l-121 -82q-6 2 -16 5.5t-35 15.5t-44.5 24.5t-35.5 32t-16 39.5q0 25 20 45l70 70q5 5 21.5 21t23.5 23.5t19.5 22t18 24.5t10.5 23.5t5 26.5q0 27 -14 49z" />
<glyph unicode="&#x171;" horiz-adv-x="1226" d="M457 936v-567q0 -75 36.5 -112.5t122.5 -37.5q31 0 69.5 5.5t61.5 10.5l23 5v854q7 0 19.5 -0.5t48 -3.5t68 -8.5t72.5 -17t68.5 -27.5t48 -42.5t19.5 -58.5v-969q-10 6 -29 14.5t-77 22.5t-115 14q-52 0 -152.5 -21.5t-152.5 -21.5q-73 0 -138 10t-128 36t-108 66 t-73 104t-28 147v756q14 0 37 -1.5t82.5 -11t105 -24.5t82.5 -47t37 -74zM414 1632q89 -3 137.5 -44.5t48.5 -102.5q0 -37 -21.5 -78t-60.5 -70l-102 -77q-2 0 -15 3.5t-33.5 12t-39.5 19.5t-33 28t-14 35q0 21 16 39l57 63q3 3 14.5 15t16 17t14 16t13.5 18t10 17t8 19.5 t2 18.5q0 27 -18 51zM848 1632q95 -9 148 -56.5t53 -113.5q0 -44 -27.5 -89t-79.5 -81l-121 -82q-6 2 -16 5.5t-35 15.5t-44.5 24.5t-35.5 32t-16 39.5q0 25 20 45l70 70q5 5 21.5 21t23.5 23.5t19.5 22t18 24.5t10.5 23.5t5 26.5q0 27 -14 49z" />
<glyph unicode="&#x172;" d="M819 -487q-85 0 -160 60.5t-75 162.5q0 69 41 130.5t106 108.5q-127 5 -237.5 38t-196 92.5t-135 151.5t-49.5 206v1046q7 0 20 -0.5t49.5 -3.5t69.5 -8t74 -17t70 -28t49 -42t20 -58v-858q0 -125 83.5 -193t221.5 -68q136 0 218.5 68.5t82.5 192.5v1015q7 0 20 -0.5 t49.5 -3.5t69.5 -8t74 -17t70 -28t49 -42t20 -58v-889q0 -92 -29.5 -165.5t-76.5 -121t-103.5 -86.5t-113 -70t-103.5 -61.5t-76.5 -72t-29.5 -91.5q0 -76 80 -76q35 0 73 13.5t58 29.5q-3 -69 -46 -127t-106.5 -90t-130.5 -32z" />
<glyph unicode="&#x173;" horiz-adv-x="1226" d="M883 -205q0 -76 80 -76q35 0 73 13.5t58 29.5q-3 -69 -46 -127t-106.5 -90t-130.5 -32q-53 0 -105.5 24t-91.5 77t-39 122q0 45 16.5 85.5t48.5 74t62 57t74 51.5q-22 -3 -56.5 -11.5t-66 -14t-65.5 -5.5q-475 0 -475 365v749q7 0 19.5 -0.5t48 -4.5t68 -9.5t72.5 -17.5 t68.5 -27.5t48 -40.5t19.5 -55v-563q0 -146 159 -146q31 0 69.5 4.5t61.5 9.5l23 5v845q14 0 37 -1t82.5 -9t105 -22.5t82.5 -46.5t37 -76v-864q-9 -7 -25 -19t-55.5 -47t-70 -67t-55.5 -71.5t-25 -68.5z" />
<glyph unicode="&#x178;" horiz-adv-x="1376" d="M514 133v473q-89 94 -156 199.5t-105 192.5t-105 221t-144 254q111 28 174 28q191 0 264 -145l86 -172q114 -234 160 -316q19 34 41 78.5t49.5 104t44.5 94.5l115 233q62 123 242 123q91 0 192 -33q-63 -110 -132 -247.5t-111 -223.5t-111.5 -192.5t-153.5 -198.5v-626 q-7 0 -20 0.5t-49 3t-69 8t-73.5 17t-69.5 27t-49 41t-20 56.5zM346 1663v203h187q42 0 70 -26t28 -52v-201h-184q-45 0 -73 23t-28 53zM743 1663v203h187q42 0 70 -26t28 -52v-201h-184q-45 0 -73 23t-28 53z" />
<glyph unicode="&#x179;" horiz-adv-x="1271" d="M1071 0h-1020q-8 119 17 223.5t75.5 186.5t115.5 156.5t141.5 150t147 149.5t139 171.5t112.5 201.5h-729q0 5 0.5 14t4 35t10 49.5t21 52.5t34.5 50t52 35t72 14h950q1 -124 -37 -248t-101 -228t-139.5 -201.5t-156 -180.5t-146.5 -152.5t-115.5 -130t-59.5 -100.5h538 q90 0 156.5 9t87.5 19l21 9q-3 -48 -8 -84t-18 -76t-32.5 -65.5t-53.5 -42.5t-79 -17zM691 2009q94 -10 153 -45t74.5 -82t-11 -104t-94.5 -109l-112 -86q-3 1 -8 2t-20.5 4t-30 7.5t-34.5 11t-35.5 14.5t-31.5 17.5t-24.5 21.5t-11.5 25t4 28.5t24 32.5l74 72q5 5 21.5 21 t23.5 23.5t19.5 22t18 24.5t10.5 23.5t5 26.5q0 27 -14 49z" />
<glyph unicode="&#x17a;" horiz-adv-x="1032" d="M563 829h-502q0 5 0.5 14t4.5 35t10.5 49.5t21 52.5t34.5 50t52 35t72 14h756q-12 -37 -25 -109.5t-24 -109.5q-15 -55 -59.5 -116t-105.5 -121t-124.5 -118t-131.5 -127.5t-112 -129.5h580q0 -5 -0.5 -14t-4.5 -35t-10.5 -49t-21 -52t-33.5 -49.5t-50.5 -34.5t-70.5 -14 h-764q-16 73 -16 113q0 87 41 171t106.5 155t134 134t138.5 132t104 124zM578 1632q94 -10 153 -45t74.5 -82t-11 -104t-94.5 -109l-112 -86q-3 1 -8 2t-20.5 4t-30 7.5t-34.5 11t-35.5 14.5t-31.5 17.5t-24.5 21.5t-11.5 25t4 28.5t24 32.5l74 72q5 5 21.5 21t23.5 23.5 t19.5 22t18 24.5t10.5 23.5t5 26.5q0 27 -14 49z" />
<glyph unicode="&#x17b;" horiz-adv-x="1271" d="M1071 0h-1020q-8 119 17 223.5t75.5 186.5t115.5 156.5t141.5 150t147 149.5t139 171.5t112.5 201.5h-729q0 5 0.5 14t4 35t10 49.5t21 52.5t34.5 50t52 35t72 14h950q1 -124 -37 -248t-101 -228t-139.5 -201.5t-156 -180.5t-146.5 -152.5t-115.5 -130t-59.5 -100.5h538 q90 0 156.5 9t87.5 19l21 9q-3 -48 -8 -84t-18 -76t-32.5 -65.5t-53.5 -42.5t-79 -17zM510 1663v199h221q43 0 75 -26t32 -52v-197h-219q-46 0 -77.5 23.5t-31.5 52.5z" />
<glyph unicode="&#x17c;" horiz-adv-x="1032" d="M563 829h-502q0 5 0.5 14t4.5 35t10.5 49.5t21 52.5t34.5 50t52 35t72 14h756q-12 -37 -25 -109.5t-24 -109.5q-15 -55 -59.5 -116t-105.5 -121t-124.5 -118t-131.5 -127.5t-112 -129.5h580q0 -5 -0.5 -14t-4.5 -35t-10.5 -49t-21 -52t-33.5 -49.5t-50.5 -34.5t-70.5 -14 h-764q-16 73 -16 113q0 87 41 171t106.5 155t134 134t138.5 132t104 124zM397 1286v199h221q43 0 75 -26t32 -52v-197h-219q-46 0 -77.5 23.5t-31.5 52.5z" />
<glyph unicode="&#x17d;" horiz-adv-x="1271" d="M1071 0h-1020q-8 119 17 223.5t75.5 186.5t115.5 156.5t141.5 150t147 149.5t139 171.5t112.5 201.5h-729q0 5 0.5 14t4 35t10 49.5t21 52.5t34.5 50t52 35t72 14h950q1 -124 -37 -248t-101 -228t-139.5 -201.5t-156 -180.5t-146.5 -152.5t-115.5 -130t-59.5 -100.5h538 q90 0 156.5 9t87.5 19l21 9q-3 -48 -8 -84t-18 -76t-32.5 -65.5t-53.5 -42.5t-79 -17zM709 1587h-103q-12 7 -31 20t-68.5 49.5t-87 70t-68.5 74t-31 69.5q0 38 43.5 72.5t165.5 66.5q-15 -21 -15 -45q0 -30 36 -72.5t72 -69.5l36 -28q6 4 15.5 11.5t34 28.5t43.5 41 t34.5 45t15.5 44q0 25 -14 45q122 -32 165.5 -66.5t43.5 -72.5q0 -29 -29.5 -68.5t-72 -75.5t-84.5 -68t-72 -52z" />
<glyph unicode="&#x17e;" horiz-adv-x="1032" d="M563 829h-502q0 5 0.5 14t4.5 35t10.5 49.5t21 52.5t34.5 50t52 35t72 14h756q-12 -37 -25 -109.5t-24 -109.5q-15 -55 -59.5 -116t-105.5 -121t-124.5 -118t-131.5 -127.5t-112 -129.5h580q0 -5 -0.5 -14t-4.5 -35t-10.5 -49t-21 -52t-33.5 -49.5t-50.5 -34.5t-70.5 -14 h-764q-16 73 -16 113q0 87 41 171t106.5 155t134 134t138.5 132t104 124zM567 1210h-102q-12 7 -31 20t-68.5 49.5t-87.5 70t-69 74t-31 69.5q0 38 43.5 72.5t165.5 66.5q-14 -20 -14 -45q0 -30 35.5 -72.5t71.5 -70.5l36 -27q6 4 15.5 11.5t34 28.5t43.5 41t34.5 45 t15.5 44q0 25 -14 45q122 -32 165.5 -66.5t43.5 -72.5q0 -29 -29.5 -68.5t-72 -75.5t-84.5 -68t-72 -51z" />
<glyph unicode="&#x192;" horiz-adv-x="1095" d="M500 637q-25 -147 -66.5 -416.5t-58.5 -374.5q-24 -146 -118.5 -240.5t-211.5 -94.5q-153 0 -266 159q58 0 106.5 25t79.5 65t50.5 82.5t25.5 83.5q35 215 102.5 643t102.5 643q27 173 185.5 276t377.5 103q383 0 383 -186q0 -118 -145 -279q-18 100 -32 131 q-30 61 -117 77q-45 9 -112 9q-47 0 -83 -13.5t-59 -41.5t-38.5 -58.5t-25.5 -77t-15.5 -83.5t-12.5 -92.5t-13 -89.5h387q-2 -10 -6 -27t-21 -60t-40 -76t-65 -60t-94 -27h-200z" />
<glyph unicode="&#x218;" horiz-adv-x="1386" d="M72 1063q0 450 622 450q572 0 572 -266q0 -100 -84 -241q2 10 2 28q0 64 -47.5 110t-126 68t-155 31.5t-159.5 9.5q-127 0 -193.5 -32t-66.5 -119q0 -47 30 -78.5t81 -47t117 -26t139 -21.5t145.5 -27.5t138.5 -49.5t117 -82t81 -131t30 -190q0 -153 -84 -260.5 t-229.5 -159.5t-339.5 -52q-104 0 -200 16.5t-176.5 49t-128.5 87t-48 122.5q0 97 92 211q0 -53 32 -94.5t80 -65.5t113 -39t121.5 -20.5t114.5 -5.5q288 0 288 186q0 54 -30 90t-81 55.5t-116.5 32t-138.5 23.5t-146 26t-138.5 45t-116.5 74t-81 118.5t-30 174.5zM551 -74 h192q24 0 37.5 -1t33.5 -6.5t31 -16t19 -31t8 -49.5v16q0 -170 -50 -248.5t-185 -78.5q-98 0 -158 55q48 14 75 52t29.5 84.5t-5.5 96.5z" />
<glyph unicode="&#x219;" horiz-adv-x="1105" d="M717 332q0 28 -23 46t-61.5 26.5t-88.5 13.5t-105 11.5t-110 17t-105 32.5t-88.5 54.5t-61.5 87t-23 127.5q0 356 494 356q210 0 328 -56t118 -157q0 -92 -96 -203q0 56 -50.5 95.5t-119.5 56t-145 16.5q-85 0 -138 -21.5t-53 -64.5q0 -26 23 -41.5t61.5 -23t88.5 -12.5 t105 -12.5t110 -19.5t105 -37.5t88.5 -62.5t61.5 -98t23 -141q0 -165 -129.5 -256t-380.5 -91q-218 0 -344.5 65t-126.5 171q0 102 129 219q8 -211 342 -211q172 0 172 113zM395 -74h193q24 0 37.5 -1t33.5 -6.5t31 -16t19 -31t8 -49.5v16q0 -170 -50.5 -248.5t-185.5 -78.5 q-97 0 -157 55q48 14 75 52t29 84.5t-6 96.5z" />
<glyph unicode="&#x21a;" horiz-adv-x="1226" d="M991 1239h-205v-1259q-7 0 -20 0.5t-49.5 3.5t-69.5 8t-74 17t-70 28t-49 42t-20 58v1102h-196q-59 0 -102 16.5t-68 42t-40 64.5t-19.5 76t-4.5 84q98 -33 266 -33h688q75 0 141 8.5t95 16.5l29 8q0 -48 -4.5 -84.5t-18.5 -75.5t-38.5 -64.5t-68 -42t-102.5 -16.5z M479 -74h193q24 0 37.5 -1t33.5 -6.5t31 -16t19 -31t8 -49.5v16q0 -170 -50.5 -248.5t-185.5 -78.5q-97 0 -157 55q48 14 75 52t29 84.5t-6 96.5z" />
<glyph unicode="&#x21b;" horiz-adv-x="970" d="M113 360v883q7 0 19.5 0.5t48 -0.5t68 -5.5t72.5 -15.5t68.5 -27.5t48 -45.5t19.5 -66v-65h407q0 -10 -1.5 -27t-12 -60t-28 -76t-56.5 -60t-92 -27h-217v-350q0 -103 36 -149t142 -46q225 0 225 213q111 -103 111 -205q0 -37 -10.5 -71t-38 -68.5t-70 -59.5t-112 -41 t-158.5 -16q-228 0 -348.5 101t-120.5 284zM360 -74h193q24 0 37.5 -1t33.5 -6.5t31 -16t19 -31t8 -49.5v16q0 -170 -50.5 -248.5t-185.5 -78.5q-97 0 -157 55q48 14 75 52t29 84.5t-6 96.5z" />
<glyph unicode="&#x2c6;" horiz-adv-x="1001" d="M526 1415q-3 -1 -7 -4t-17 -11.5t-25.5 -17.5t-28 -22t-28 -26t-23.5 -29t-16 -31t-3.5 -31.5t11.5 -30.5q-203 47 -203 154q0 30 35 68t85 71.5t100 63t85 46.5l35 17q14 -7 37 -18t81.5 -44.5t103.5 -64.5t81.5 -70t36.5 -69q0 -108 -202 -154q17 28 10 56t-31 54.5 t-50 47t-47 32.5z" />
<glyph unicode="&#x2c7;" horiz-adv-x="1001" d="M635 1210h-103q-12 7 -31 20t-68.5 49.5t-87 70t-68.5 74t-31 69.5q0 38 43.5 72.5t165.5 66.5q-15 -21 -15 -45q0 -30 36 -72.5t72 -70.5l36 -27q6 4 15.5 11.5t34 28.5t43.5 41t34.5 45t15.5 44q0 25 -14 45q122 -32 165.5 -66.5t43.5 -72.5q0 -29 -29.5 -68.5 t-72 -75.5t-84.5 -68t-72 -51z" />
<glyph unicode="&#x2d8;" horiz-adv-x="1169" d="M588 1421q73 0 126.5 38.5t53.5 103.5q0 35 -16 75q75 -37 112 -88t37 -106q0 -88 -86 -156.5t-225 -68.5q-144 0 -231 67t-87 158q0 55 37.5 106t112.5 88q-16 -40 -16 -75q0 -65 54 -103.5t128 -38.5z" />
<glyph unicode="&#x2d9;" horiz-adv-x="497" d="M84 1286v199h221q43 0 75 -26t32 -52v-197h-219q-46 0 -77.5 23.5t-31.5 52.5z" />
<glyph unicode="&#x2da;" horiz-adv-x="698" d="M401 1384v35q0 31 -53 31q-30 0 -39.5 -8t-9.5 -23v-35q0 -14 8.5 -19t40.5 -5q30 0 41.5 5t11.5 19zM590 1436v-68q0 -70 -65 -108.5t-175 -38.5q-108 0 -172.5 39t-64.5 108v68q0 71 65 112t172 41q110 0 175 -41t65 -112z" />
<glyph unicode="&#x2db;" horiz-adv-x="1705" d="M838 119l153 -60l-15 -7q-15 -8 -34 -18t-45.5 -26.5t-52 -33.5t-51.5 -39.5t-45 -44t-31 -46.5t-12 -49q0 -35 21.5 -53t51.5 -18q33 0 78 12t59 20q-4 -100 -91.5 -171.5t-190.5 -71.5q-53 0 -105.5 24t-91.5 77t-39 122q0 74 45.5 140.5t110.5 109t129.5 74 t109.5 45.5z" />
<glyph unicode="&#x2dc;" horiz-adv-x="796" d="M100 1266q-25 33 -30.5 81t7 91t48.5 73.5t88 30.5q56 0 201 -49t204 -49q82 0 103 51q25 -33 30.5 -81t-7 -91t-48.5 -73.5t-88 -30.5q-56 0 -201 49t-204 49q-82 0 -103 -51z" />
<glyph unicode="&#x2dd;" horiz-adv-x="958" d="M281 1632q89 -3 137.5 -44.5t48.5 -102.5q0 -37 -21.5 -78t-60.5 -70l-102 -77q-2 0 -15 3.5t-33.5 12t-40 19.5t-33.5 28t-14 35q0 20 17 39l57 63q3 3 14.5 15t16 17t14 16t13.5 18t10 17t8 19.5t2 18.5q0 27 -18 51zM715 1632q95 -9 147.5 -56.5t52.5 -113.5 q0 -45 -27 -89.5t-79 -80.5l-121 -82q-6 2 -16 5.5t-35 15.5t-44.5 24.5t-35.5 32t-16 39.5q0 25 20 45l70 70q5 5 21.5 21t23.5 23.5t19.5 22t18 24.5t10.5 23.5t5 26.5q0 27 -14 49z" />
<glyph unicode="&#x3a9;" horiz-adv-x="2279" d="M1073 653v160q0 128 36 231.5t111.5 168.5t180.5 65q37 0 69 -6.5t65 -22.5t53.5 -50t23.5 -83q-68 60 -146 60q-118 0 -185 -104t-67 -263v-160q0 -128 -35.5 -231.5t-111 -168.5t-180.5 -65q-37 0 -69 6.5t-65 22.5t-53.5 50t-23.5 83q67 -59 145 -59q118 0 185 103.5 t67 262.5zM567 1266q-43 -76 -43 -138q0 -46 25.5 -85t66.5 -69t90.5 -58.5t99.5 -60.5t91 -67.5t66.5 -87t25.5 -112.5q0 -101 -61.5 -161t-145.5 -60q-85 0 -145 57q2 -14 2 -43q-7 -83 -75.5 -141t-151.5 -58q-91 0 -163.5 42.5t-117 113.5t-67.5 157.5t-23 178.5 q0 87 21 172t63 161t100.5 134.5t139.5 92.5t174 34q5 0 14.5 -1t13.5 -1zM1712 203q43 76 43 137q0 40 -20 76t-52.5 62t-74.5 53.5t-85.5 51t-85.5 55t-74.5 64t-52.5 79t-20 100.5q0 101 61.5 161t145.5 60t145 -58q-2 14 -2 43q7 83 75.5 141t152.5 58q91 0 163.5 -42.5 t116.5 -113.5t67 -156.5t23 -178.5q0 -87 -20.5 -172t-63 -161t-100.5 -134.5t-139 -92.5t-174 -34q-5 0 -15 1t-14 1z" />
<glyph unicode="&#x3bc;" horiz-adv-x="1226" d="M457 936v-567q0 -75 36.5 -112.5t122.5 -37.5q31 0 69.5 5.5t61.5 10.5l23 5v854q7 0 19.5 -0.5t48 -3.5t68 -8.5t72.5 -17t68.5 -27.5t48 -42.5t19.5 -58.5v-969q-10 6 -29 14.5t-77 22.5t-115 14q-52 0 -152.5 -21.5t-152.5 -21.5q-70 0 -146 13l9 -33q6 -33 6 -74 v-377q-7 0 -19.5 0.5t-48 3.5t-68 8.5t-72.5 17t-68.5 27.5t-48 42.5t-19.5 58.5v1432q14 0 37 -1.5t82.5 -11t105 -24.5t82.5 -47t37 -74z" />
<glyph unicode="&#x3c0;" horiz-adv-x="2279" d="M1073 442v160q0 128 36 231.5t111.5 168.5t180.5 65q37 0 69 -6.5t65 -22.5t53.5 -50t23.5 -83q-68 60 -146 60q-118 0 -185 -104t-67 -263v-160q0 -128 -35.5 -231.5t-111 -168.5t-180.5 -65q-37 0 -69 6.5t-65 22.5t-53.5 50t-23.5 83q67 -59 145 -59q118 0 185 103.5 t67 262.5zM567 1055q-43 -76 -43 -137q0 -40 20 -76t52.5 -62t74.5 -53.5t85.5 -51t85.5 -55t74.5 -64t52.5 -79t20 -100.5q0 -101 -61.5 -161t-145.5 -60q-85 0 -145 57q2 -14 2 -43q-7 -83 -75.5 -141t-151.5 -58q-91 0 -163.5 42.5t-117 113.5t-67.5 157.5t-23 178.5 q0 87 21 172t63 161t100.5 134.5t139.5 92.5t174 34q5 0 14.5 -1t13.5 -1zM1712 -8q43 76 43 137q0 40 -20 76t-52.5 62t-74.5 53.5t-85.5 51t-85.5 55t-74.5 64t-52.5 79t-20 100.5q0 101 61.5 161t145.5 60q85 0 145 -57q-2 14 -2 43q7 83 75.5 140.5t152.5 57.5 q91 0 163.5 -42.5t116.5 -113.5t67 -156.5t23 -178.5q0 -87 -20.5 -172t-63 -161t-100.5 -134.5t-139 -92.5t-174 -34q-5 0 -15 1t-14 1z" />
<glyph unicode="&#x2000;" horiz-adv-x="1036" />
<glyph unicode="&#x2001;" horiz-adv-x="2073" />
<glyph unicode="&#x2002;" horiz-adv-x="1036" />
<glyph unicode="&#x2003;" horiz-adv-x="2073" />
<glyph unicode="&#x2004;" horiz-adv-x="691" />
<glyph unicode="&#x2005;" horiz-adv-x="518" />
<glyph unicode="&#x2006;" horiz-adv-x="345" />
<glyph unicode="&#x2007;" horiz-adv-x="345" />
<glyph unicode="&#x2008;" horiz-adv-x="259" />
<glyph unicode="&#x2009;" horiz-adv-x="414" />
<glyph unicode="&#x200a;" horiz-adv-x="115" />
<glyph unicode="&#x2010;" horiz-adv-x="1007" d="M246 641h641q8 -33 8 -74t-9 -73.5t-40 -59t-82 -26.5h-645q-6 28 -6 65q0 30 5.5 56.5t18.5 53.5t41 42.5t68 15.5z" />
<glyph unicode="&#x2011;" horiz-adv-x="1007" d="M246 641h641q8 -33 8 -74t-9 -73.5t-40 -59t-82 -26.5h-645q-6 28 -6 65q0 30 5.5 56.5t18.5 53.5t41 42.5t68 15.5z" />
<glyph unicode="&#x2012;" horiz-adv-x="1007" d="M246 641h641q8 -33 8 -74t-9 -73.5t-40 -59t-82 -26.5h-645q-6 28 -6 65q0 30 5.5 56.5t18.5 53.5t41 42.5t68 15.5z" />
<glyph unicode="&#x2013;" horiz-adv-x="1542" d="M188 653h1315q1 -5 2.5 -14.5t3.5 -36t0.5 -50.5t-10 -53.5t-24.5 -51t-46.5 -36t-72.5 -14.5h-1319q-1 5 -2.5 14.5t-3 36t0.5 50.5t11.5 53.5t25.5 51t47 36t72 14.5z" />
<glyph unicode="&#x2014;" horiz-adv-x="1740" d="M188 653h1514q1 -5 2.5 -14.5t3.5 -36t0.5 -50.5t-10.5 -53.5t-25 -51t-46.5 -36t-72.5 -14.5h-1517q-1 5 -2.5 14.5t-3 36t0.5 50.5t11.5 53.5t25.5 51t47 36t72 14.5z" />
<glyph unicode="&#x2018;" horiz-adv-x="563" d="M432 952h-84h-112q-57 0 -91 26t-34 81v100q0 86 10 143t35 101.5t72 65t118 20.5q93 0 158 -55q-39 -10 -65.5 -35.5t-37 -52.5t-14 -61.5t-2.5 -53.5t4 -39z" />
<glyph unicode="&#x2019;" horiz-adv-x="563" d="M131 1489h84h113q57 0 91 -26t34 -81v-100q0 -86 -10 -143.5t-35.5 -101.5t-72.5 -64.5t-118 -20.5q-92 0 -158 56q39 10 65.5 35.5t37 52t14 61.5t2.5 53.5t-4 38.5z" />
<glyph unicode="&#x201a;" horiz-adv-x="563" d="M131 311h84h113q125 0 125 -106v-101q0 -173 -49 -251t-187 -78q-93 0 -158 55q39 10 65.5 35.5t37 52.5t14 61.5t2.5 53.5t-4 39z" />
<glyph unicode="&#x201c;" horiz-adv-x="983" d="M432 952h-84h-112q-57 0 -91 26t-34 81v100q0 86 10 143t35 101.5t72 65t118 20.5q93 0 158 -55q-39 -10 -65.5 -35.5t-37 -52.5t-14 -61.5t-2.5 -53.5t4 -39zM852 952h-84h-113q-57 0 -91 26t-34 81v100q0 86 10 143.5t35.5 101.5t72.5 64.5t118 20.5q93 0 158 -55 q-39 -10 -65.5 -35.5t-37 -52.5t-14 -61.5t-2.5 -53.5t4 -39z" />
<glyph unicode="&#x201d;" horiz-adv-x="983" d="M551 1489h84h113q57 0 90.5 -26t33.5 -81v-100q0 -86 -10 -143t-35 -101.5t-72 -65t-118 -20.5q-92 0 -158 56q39 10 65.5 35.5t37 52t14 61.5t2.5 53.5t-4 38.5zM131 1489h84h113q57 0 91 -26t34 -81v-100q0 -86 -10 -143.5t-35.5 -101.5t-72.5 -64.5t-118 -20.5 q-92 0 -158 56q39 10 65.5 35.5t37 52t14 61.5t2.5 53.5t-4 38.5z" />
<glyph unicode="&#x201e;" horiz-adv-x="983" d="M131 309h84h113q125 0 125 -106v-101q0 -173 -49 -251t-187 -78q-93 0 -158 55q39 10 65.5 35.5t37 52.5t14 61.5t2.5 53.5t-4 39zM551 309h84h113q124 0 124 -106v-101q0 -86 -10 -143t-35 -101t-72 -64.5t-118 -20.5q-93 0 -158 55q39 10 65.5 35.5t37 52.5t14 61.5 t2.5 53.5t-4 39z" />
<glyph unicode="&#x2020;" horiz-adv-x="929" d="M145 1079h148v512q7 0 19.5 -0.5t48 -3.5t68 -8t72.5 -17t68.5 -28t48 -42t19.5 -58v-355h270q14 -34 11 -78t-15 -83.5t-43.5 -67t-75.5 -27.5h-147v-1319q-14 0 -37 1t-82.5 9.5t-105 23t-82.5 46.5t-37 76v1163h-275q-12 36 -8 79.5t16 81.5t43.5 65t75.5 30z" />
<glyph unicode="&#x2021;" horiz-adv-x="929" d="M145 1079h148v512q7 0 19.5 -0.5t48 -3.5t68 -8t72.5 -17t68.5 -28t48 -42t19.5 -58v-355h270q14 -34 11 -78t-15 -83.5t-43.5 -67t-75.5 -27.5h-147v-567h270q14 -34 11 -78t-15 -83.5t-43.5 -67t-75.5 -27.5h-147v-496q-14 0 -37 1t-82.5 9.5t-105 23t-82.5 46.5 t-37 76v340h-275q-12 36 -8 79.5t16 81.5t43.5 65t75.5 30h148v567h-275q-12 36 -8 79.5t16 81.5t43.5 65t75.5 30z" />
<glyph unicode="&#x2022;" horiz-adv-x="1048" d="M956 659v-213q0 -153 -107.5 -235t-326.5 -82q-218 0 -324 82t-106 235v213q0 150 106.5 232t323.5 82q219 0 326.5 -82t107.5 -232z" />
<glyph unicode="&#x2026;" horiz-adv-x="1579" d="M111 82v229h190q45 0 79 -26t34 -56v-229h-187q-47 0 -81.5 24t-34.5 58zM637 82v229h190q45 0 79 -26t34 -56v-229h-186q-47 0 -82 24t-35 58zM1163 82v229h191q44 0 78 -26t34 -56v-229h-186q-47 0 -82 24t-35 58z" />
<glyph unicode="&#x202f;" horiz-adv-x="414" />
<glyph unicode="&#x2030;" horiz-adv-x="2185" d="M356 414l934 934q4 -4 25 -25.5t27.5 -28.5t23 -26t23 -30t16 -28t13 -32t3.5 -31q0 -56 -53 -109l-917 -919q-89 91 -112 124q-30 43 -30 74q0 50 47 97zM2126 850v-221q0 -110 -95 -166.5t-262 -56.5q-32 0 -59.5 2.5t-39.5 5.5l-11 2q12 -23 12 -60v-153 q0 -110 -94.5 -166.5t-261.5 -56.5q-164 0 -258 56.5t-94 166.5v223q0 108 95 168.5t257 60.5q69 0 106 -12q-4 33 -4 70v137q0 107 95.5 169t256.5 62q163 0 260 -62t97 -169zM770 1274v-223q0 -110 -95 -167t-259 -57q-166 0 -261.5 57t-95.5 167v223q0 107 97 168t260 61 q162 0 258 -61t96 -168zM1380 256v127q0 33 -13 49.5t-52 16.5q-38 0 -52 -16.5t-14 -49.5v-127q0 -34 13.5 -51t52.5 -17q40 0 52.5 16.5t12.5 51.5zM481 1104v127q0 33 -12.5 49t-52.5 16q-38 0 -52 -16t-14 -49v-127q0 -34 13.5 -51t52.5 -17q40 0 52.5 16.5t12.5 51.5z M1835 678v127q0 36 -13 51.5t-53 15.5q-39 0 -52 -16t-13 -51v-127q0 -34 13 -50t52 -16q40 0 53 16t13 50z" />
<glyph unicode="&#x2039;" horiz-adv-x="907" d="M418 530l356 -356q-78 -139 -170 -139q-27 0 -54 10.5t-56.5 33.5t-47.5 39.5t-49 47.5l-235 237q-70 70 -70 127t72 129l411 412q91 -51 130.5 -91t39.5 -77q0 -33 -25 -65.5t-81 -88.5l-8.5 -8.5l-7.5 -7.5z" />
<glyph unicode="&#x203a;" horiz-adv-x="907" d="M133 174l356 356l-204 203q-6 6 -22 21.5t-21.5 21.5t-18.5 19t-18 19.5t-14 18t-12.5 18.5t-8.5 16.5t-6.5 18t-1.5 17.5q0 37 39.5 77t130.5 91l411 -412q72 -72 72 -129t-70 -127l-235 -237q-31 -31 -49 -47.5t-47.5 -39.5t-56.5 -33.5t-54 -10.5q-92 0 -170 139z" />
<glyph unicode="&#x2044;" horiz-adv-x="1183" d="M76 414l948 940q71 -60 106 -114.5t34 -100t-18.5 -81t-53.5 -71.5l-932 -913q-68 56 -103 109.5t-36 96t13 75t42 59.5z" />
<glyph unicode="&#x205f;" horiz-adv-x="518" />
<glyph unicode="&#x20ac;" horiz-adv-x="1366" d="M725 459h-254q26 -228 311 -228q84 0 166.5 26t139 69.5t65.5 91.5q64 -94 64 -178q0 -82 -68.5 -144t-171.5 -91.5t-221 -29.5q-104 0 -196 17t-175 57t-142.5 99.5t-94.5 150.5t-35 205v481q0 115 32 205t87.5 150t135.5 99.5t171.5 56.5t199.5 17q110 0 207 -25.5 t164.5 -83.5t67.5 -138q0 -89 -88 -199q0 52 -32.5 90.5t-85 58t-104 28.5t-102.5 9q-151 0 -223 -58.5t-78 -211.5h594q0 -4 -0.5 -11.5t-4.5 -29t-11.5 -40.5t-23 -43t-37 -41t-56.5 -28.5t-78 -11.5h-383v-110h471q0 -4 -0.5 -11.5t-4.5 -29.5t-11.5 -41.5t-23 -44 t-37 -41.5t-56.5 -29t-78 -12z" />
<glyph unicode="&#x2122;" horiz-adv-x="2351" d="M813 1081v193h-123v-623q-7 0 -18 0.5t-44 3t-62.5 6.5t-66 14t-62.5 23t-44 34.5t-18 47.5v494h-119v-193q-7 2 -19.5 5t-44.5 15t-56 27t-44 41t-20 56v264h923v-264q0 -30 -18.5 -55.5t-45.5 -41t-54 -27t-45 -15.5zM1882 780v244l-164 -248q-6 0 -17 0.5t-41.5 5 t-58 12.5t-59 25t-51.5 41l-96 152v-361q-7 0 -18 0.5t-43.5 3t-62.5 6.5t-66 14t-62 23t-44 34.5t-18 47.5v709q55 0 86.5 -0.5t75.5 -3.5t70.5 -9t56 -16.5t50 -28t34.5 -40.5l188 -310l246 408h137q46 0 80.5 -11.5t51.5 -26.5t27 -35t12 -32.5t2 -23.5v-709 q-7 0 -18.5 0.5t-44 3t-62.5 6.5t-66 14t-62 23t-44.5 34.5t-18.5 47.5z" />
<glyph unicode="&#x2202;" horiz-adv-x="1609" d="M997 1063h-872q-29 0 -50 13t-31 31.5t-16 37.5t-7 32l-1 13h1004q188 0 305 -89.5t117 -236.5q0 -72 -32.5 -124.5t-92.5 -59.5q29 63 29 123q0 118 -90 187.5t-263 72.5zM580 276q14 -2 38 -2q68 0 112 27t64.5 72.5t32.5 101.5t22.5 117t26.5 115t52 100.5t92 69.5 q43 16 82 16q75 0 131.5 -53t56.5 -140q0 -37 -12 -67q50 18 94 18q98 0 157.5 -73.5t59.5 -167.5q0 -95 -51 -176.5t-133 -134t-180.5 -82t-196.5 -29.5q-104 0 -195 30t-160.5 96.5t-92.5 161.5z" />
<glyph unicode="&#x220f;" horiz-adv-x="1609" d="M1030 276q-23 -95 -92.5 -161.5t-160.5 -96.5t-195 -30q-98 0 -197 29.5t-180.5 82t-133 134t-51.5 176.5q0 94 60 167.5t158 73.5q44 0 94 -18q-13 33 -13 67q0 87 57 140t132 53q39 0 82 -16q56 -23 92 -69.5t52 -100.5t26 -115t22 -117t32.5 -101.5t64.5 -72.5 t112 -27q25 0 39 2zM1485 1063h-873q-173 -3 -262.5 -72t-89.5 -188q0 -60 29 -123q-60 7 -92.5 59.5t-32.5 124.5q0 147 117 236.5t305 89.5h1003q0 -5 -1 -13.5t-6.5 -30.5t-15.5 -39t-31 -30.5t-50 -13.5z" />
<glyph unicode="&#x2211;" horiz-adv-x="1742" d="M809 14q41 72 41 127q0 43 -24 79.5t-62 64t-84 54.5t-92 56.5t-84 62.5t-62 80.5t-24 104.5q0 94 57 149.5t135 55.5q79 0 135 -53q-2 14 -2 41q7 77 70.5 130.5t140.5 53.5q68 0 125 -26t97 -70.5t68 -103.5t41 -124t13 -133q0 -101 -31 -198.5t-88 -176.5 t-146.5 -127.5t-196.5 -48.5q-4 0 -13.5 1t-13.5 1zM143 268v363q0 190 88 312t234 122q84 0 137.5 -32.5t63.5 -96.5q-57 29 -121 29q-123 0 -197 -91t-74 -270v-309q0 -83 25.5 -154t78 -129t143 -91.5t210.5 -33.5h264q119 0 211.5 33.5t148.5 91t84.5 129.5t28.5 154 v450q0 180 -72 270.5t-194 90.5q-53 0 -121 -21q10 58 63.5 87.5t137.5 29.5q146 0 231.5 -119.5t85.5 -310.5v-504q0 -220 -161.5 -359.5t-444.5 -139.5h-264q-141 0 -253.5 38t-184.5 105t-110 157.5t-38 198.5z" />
<glyph unicode="&#x2212;" horiz-adv-x="1114" d="M270 705h723q1 -5 2.5 -14.5t3.5 -35.5t0.5 -50t-10 -53.5t-24.5 -50.5t-46.5 -35.5t-72.5 -14.5h-727q-1 5 -2.5 14.5t-3 35.5t0.5 50t11.5 53.5t25.5 50.5t47 35.5t72 14.5z" />
<glyph unicode="&#x221a;" horiz-adv-x="1310" d="M371 530q-88 -2 -148 -32t-123 -121q-2 0 -11 29t-18.5 86t-9.5 114q0 84 68.5 146.5t214.5 62.5q80 0 139 -14q-28 63 -94.5 102t-185.5 62q4 7 12.5 18.5t36 40.5t57.5 51.5t77 41t95 18.5q35 0 71.5 -12t78 -41.5t74 -92t45.5 -149.5q36 53 36 159q0 103 -30 168 q49 0 102.5 -16.5t101 -46t78.5 -78t31 -106.5q0 -167 -143 -291q31 0 44.5 0.5t37.5 3t38 8.5t35.5 16.5t39 27.5t40.5 41.5t49 57.5q4 0 13 -27t17.5 -81t8.5 -111q0 -72 -43.5 -122.5t-106.5 -71.5t-138 -21q-63 0 -138 21q34 -74 100 -114t189 -50q-5 -7 -13.5 -18.5 t-37.5 -40.5t-60 -51.5t-78 -41t-94 -18.5q-28 0 -54.5 6t-59.5 25t-60.5 50t-54 86t-43.5 128q-37 -58 -37 -142q0 -73 37 -186q4 0 4 -2h-6q-15 0 -40 4.5t-62 15t-73.5 30.5t-68 47t-51.5 69.5t-20 93.5q0 69 27 133t104 135z" />
<glyph unicode="&#x221e;" horiz-adv-x="1480" d="M731 1538h17q35 29 55 47t44.5 53t24.5 64q0 25 -14 45q128 -49 168.5 -77t40.5 -62q0 -42 -44 -89t-136 -116q187 -221 289 -524l180 -545q65 -201 95 -261q14 -30 30 -53q-105 -34 -162 -34q-35 0 -66.5 6t-55.5 14t-46 25.5t-37 30.5t-31 39t-25.5 42.5t-22 48.5 t-18.5 48.5t-18 52.5l-30 90h-459l-31 -90q-45 -133 -78 -184q-76 -118 -227 -123h-14q-24 0 -64 8.5t-68 17.5l-28 8q10 14 19 30t18.5 39t16 38t17.5 48l15.5 46.5t18.5 56t18 56.5l180 545q95 291 289 524q-92 69 -136 116t-44 89q0 34 40.5 62t168.5 77q-15 -21 -15 -45 q0 -22 11.5 -45.5t35.5 -48t37.5 -36.5t40.5 -34zM739 1135q-73 -199 -104 -310l-53 -192h315l-53 192q-14 49 -40 126.5t-46 130.5z" />
<glyph unicode="&#x222b;" horiz-adv-x="1742" d="M934 14q-4 0 -13.5 -1t-13.5 -1q-107 0 -197 48.5t-146.5 127.5t-88 176.5t-31.5 198.5q0 68 13 133t41 124t68 103.5t97 70.5t125 26q77 0 140.5 -53.5t70.5 -130.5q0 -27 -2 -41q56 53 136 53q78 0 135 -55.5t57 -149.5q0 -57 -24 -104.5t-62 -80.5t-84 -62.5 t-92 -56.5t-84 -54.5t-62 -64t-24 -79.5q0 -55 41 -127zM1599 631v-363q0 -108 -38 -198.5t-110 -157.5t-184 -105t-253 -38h-264q-283 0 -445 139.5t-162 359.5v504q0 190 86 310t232 120q84 0 137.5 -29.5t63.5 -87.5q-68 21 -121 21q-122 0 -194.5 -91t-72.5 -270v-450 q0 -82 28.5 -154t84.5 -129.5t149 -91t212 -33.5h264q120 0 210.5 33.5t142.5 91.5t77.5 129t25.5 154v309q0 179 -73.5 270t-196.5 91q-64 0 -121 -29q10 64 63.5 96.5t137.5 32.5q146 0 233.5 -122t87.5 -312z" />
<glyph unicode="&#x2248;" horiz-adv-x="1404" d="M334 496q112 0 212.5 -18t205.5 -43.5t184 -35.5q94 -12 129 -12q74 0 134.5 27.5t127.5 97.5q27 -69 27 -141q0 -123 -69 -178.5t-202 -55.5q-99 0 -198.5 16.5t-168.5 36t-165.5 36t-190.5 16.5q-88 0 -157 -26t-125 -93q-27 85 -27 156q0 217 283 217zM334 969 q112 0 212.5 -18t205.5 -43.5t184 -35.5q94 -12 129 -12q74 0 134.5 27.5t127.5 97.5q27 -69 27 -141q0 -123 -69 -178.5t-202 -55.5q-99 0 -198.5 16.5t-168.5 36t-165.5 36t-190.5 16.5q-88 0 -157 -26t-125 -93q-27 86 -27 156q0 217 283 217z" />
<glyph unicode="&#x2260;" horiz-adv-x="1007" d="M246 453h145l41 153h-313q-6 29 -6 66q0 30 5.5 56.5t18.5 53.5t41 42.5t68 15.5h250l65 241q172 -29 137 -155l-24 -86h213q8 -33 8 -74q0 -66 -29 -113t-102 -47h-152l-43 -153h318q8 -33 8 -74q0 -66 -29 -113t-102 -47h-256l-62 -227q-7 1 -18.5 2.5t-40.5 9 t-49.5 18t-34 31t-6.5 45.5l33 121h-211q-6 29 -6 66q0 30 5.5 56.5t18.5 53.5t41 42.5t68 15.5z" />
<glyph unicode="&#x2264;" horiz-adv-x="913" d="M268 254h543q7 -27 8.5 -65.5t-5.5 -83t-38 -75t-82 -30.5h-581q-35 93 9 172t146 82zM418 858l305 -303q-53 -66 -98.5 -96t-91 -26.5t-88.5 31t-99 83.5l-184 184q-70 70 -70 127t72 129l356 359q91 -51 130.5 -91t39.5 -77q0 -9 -1.5 -17.5t-6.5 -18t-8.5 -16.5 t-12.5 -18.5t-14 -18t-18 -19.5t-18.5 -19t-21.5 -21.5t-22 -21.5z" />
<glyph unicode="&#x2265;" horiz-adv-x="909" d="M264 254h543q7 -27 8.5 -65.5t-5.5 -83t-38 -75t-82 -30.5h-581q-35 93 9 172t146 82zM154 555l305 303l-150 150q-6 6 -22 21.5t-21.5 21.5t-18.5 19t-18 19.5t-14 18t-12.5 18.5t-8.5 16.5t-6.5 18t-1.5 17.5q0 37 39.5 77t130.5 91l357 -359q71 -71 71 -129t-69 -127 l-185 -184q-56 -56 -98.5 -83.5t-88 -31t-91 26.5t-98.5 96z" />
<glyph unicode="&#x25ca;" horiz-adv-x="1705" d="M387 1255l51 -47q40 4 66 4q147 0 424.5 -62t378.5 -118l51 27q92 47 92 96q0 22 -16 53q155 -75 155 -153q0 -54 -78 -99l-77 -47q26 -68 28 -102l51 -461q3 -27 3 -53q0 -145 -108 -224t-327 -79q-94 0 -198 14q-343 42 -518 171t-175 321q0 7 5 57l61 479q8 56 37 105 l-84 77q-99 89 -96 146q0 25 17.5 43t47 27.5t60.5 13.5t65 4q-24 -17 -24 -43q0 -50 108 -150zM676 295l422 -62q3 0 10 -1t10 -1q66 0 95.5 34t29.5 87q0 13 -4 41l-16 56q-24 -27 -47.5 -36.5t-65.5 -9.5l-451 72q-40 10 -65 28.5t-53 53.5l-17 -51q-4 -28 -4 -41 q0 -61 36.5 -107t119.5 -63zM1239 707l-10 149l-182 37q-48 0 -48 -35l2 -151l187 -35h10q18 0 29.5 7.5t11.5 20.5v7zM541 987l-11 -156q0 -18 16 -33.5t40 -21.5l198 -33l4 156q0 14 -15.5 30.5t-35.5 20.5z" />
<glyph unicode="&#xe000;" horiz-adv-x="1095" d="M0 1096h1096v-1096h-1096v1096z" />
<glyph unicode="&#xfb06;" horiz-adv-x="2076" d="M717 332q0 28 -23 46t-61.5 26.5t-88.5 13.5t-105 11.5t-110 17t-105 32.5t-88.5 54.5t-61.5 87t-23 127.5q0 356 494 356q101 0 198 -17q-20 72 3 133t76.5 99.5t125.5 60t152 21.5q92 0 172.5 -20.5t147 -62.5t105 -115.5t38.5 -170.5v-14h407q0 -10 -1.5 -27t-12 -60 t-28 -76t-56.5 -60t-92 -27h-217v-350q0 -103 36 -149t142 -46q225 0 225 213q111 -103 111 -205q0 -37 -10.5 -71t-38 -68.5t-70 -59.5t-112 -41t-158.5 -16q-228 0 -348.5 101t-120.5 284v621q0 110 -39.5 155.5t-120.5 45.5q-80 0 -115.5 -56t0.5 -127q47 -47 47 -108 q0 -92 -96 -203q0 56 -50.5 95.5t-119.5 56t-145 16.5q-85 0 -138 -21.5t-53 -64.5q0 -26 23 -41.5t61.5 -23t88.5 -12.5t105 -12.5t110 -19.5t105 -37.5t88.5 -62.5t61.5 -98t23 -141q0 -165 -129.5 -256t-380.5 -91q-218 0 -344.5 65t-126.5 171q0 102 129 219 q8 -211 342 -211q172 0 172 113z" />
<glyph horiz-adv-x="573" />
<glyph horiz-adv-x="1001" d="M487 1630q177 0 177 -149q0 -32 -25 -98.5t-51 -117.5l-25 -51q-41 -22 -86 -22q-49 0 -90.5 25t-28.5 79l25 97q2 6 5 19q9 32 12.5 47.5t5.5 40t-4 40t-20 34.5t-38 36q71 20 143 20z" />
<glyph horiz-adv-x="2043" d="M948 428q76 -106 76 -182q0 -117 -113 -194t-305 -77q-238 0 -376 102.5t-138 282.5v359q0 181 129 283t365 102q64 0 143 -12q-18 70 4.5 130t73.5 98t119 59.5t141 21.5q92 0 172.5 -20.5t147 -62.5t105 -115.5t38.5 -170.5v-14h407q0 -10 -1.5 -27t-12 -60t-28 -76 t-56.5 -60t-92 -27h-217v-350q0 -103 36 -149t142 -46q225 0 225 213q111 -103 111 -205q0 -37 -10.5 -71t-38 -68.5t-70 -59.5t-112 -41t-158.5 -16q-228 0 -348.5 101t-120.5 284v621q0 110 -39.5 155.5t-120.5 45.5q-75 0 -102.5 -47t-8.5 -115q86 -62 86 -164 q0 -112 -96 -250q0 65 -22 116t-58.5 80t-78.5 43.5t-87 14.5q-32 0 -55.5 -2t-51.5 -9t-47 -21.5t-35.5 -36.5t-25 -57.5t-8.5 -82.5v-217q0 -113 52 -161t163 -48q127 0 211 61.5t86 141.5z" />
<glyph horiz-adv-x="2086" d="M2015 856v-516l-229 -135v-283l-494 -262l-245 131l-250 -131l-494 262v283l-231 135v516l231 133v281l494 264l250 -133l245 133l494 -264v-281zM1921 365v464l-209 121v254l-446 236l-219 -121l-226 121l-444 -236v-254l-211 -121v-464l211 -119v-256l444 -238l226 123 l219 -123l446 238v256zM1833 805v-416l-188 -110v-228l-400 -213l-198 109l-205 -109l-398 213v228l-186 110v416l186 110v228l398 213l205 -111l198 111l400 -213v-228zM754 1087v-892q0 -31 20 -54t48 -33.5t56 -16.5t48 -7h20v428h260q40 0 69.5 16t43 38.5t21.5 45 t9 38.5l1 16h-404v272h383q29 0 50 15.5t30.5 37t15.5 43.5t7 38v15h-678z" />
<glyph horiz-adv-x="512" d="M96 -74h193q24 0 37.5 -1t33.5 -6.5t31 -16t19 -31t8 -49.5v16q0 -170 -50.5 -248.5t-185.5 -78.5q-97 0 -157 55q48 14 75 52t29 84.5t-6 96.5z" />
<glyph horiz-adv-x="802" d="M113 143v1104q0 170 102 272.5t272 102.5q207 0 256 -199q-64 0 -111 -6.5t-78.5 -22t-51 -34.5t-29.5 -49.5t-13 -60t-3 -74.5v-324h350q0 -5 -0.5 -14t-4.5 -35t-11 -49.5t-21 -52.5t-33.5 -50t-51 -35t-69.5 -14h-159v-616q-7 0 -19.5 0.5t-48 3.5t-68 8t-72.5 17 t-68.5 28t-48 42t-19.5 58z" />
<glyph horiz-adv-x="1605" d="M905 143v459h-448v-616q-7 0 -19.5 0.5t-48 3.5t-68 8t-72.5 17t-68.5 28t-48 42t-19.5 58v1051q0 114 76 203.5t194 134.5t252 45q244 0 332 -109q109 154 313 154q98 0 167 -47t89 -152q-64 0 -111.5 -7t-79 -22t-51.5 -34t-30 -49.5t-13.5 -60.5t-3.5 -74v-324h352 q0 -10 -1.5 -27t-12 -60t-28 -76t-56.5 -60t-92 -27h-162v-616q-7 0 -19.5 0.5t-48 3.5t-67.5 8t-71.5 17t-68 28t-48 42t-19.5 58zM457 1137v-285h448v301q-16 172 -252 172q-88 0 -142 -52.5t-54 -135.5z" />
<glyph horiz-adv-x="802" d="M113 143v1125q0 87 43.5 161t112.5 122t153.5 75t169.5 27q151 0 248.5 -61.5t97.5 -149.5q0 -53 -36 -107.5t-107 -93.5q-30 160 -181 160q-67 0 -112 -40.5t-45 -123.5v-385h350q0 -5 -0.5 -14t-4.5 -35t-11 -49.5t-21 -52.5t-33.5 -50t-51 -35t-69.5 -14h-159v-616 q-7 0 -19.5 0.5t-48 3.5t-68 8t-72.5 17t-68.5 28t-48 42t-19.5 58z" />
<glyph horiz-adv-x="1605" d="M905 143v459h-448v-616q-7 0 -19.5 0.5t-48 3.5t-68 8t-72.5 17t-68.5 28t-48 42t-19.5 58v1051q0 114 76 203.5t194 134.5t252 45q231 0 334 -115q68 89 181 140t232 51q152 0 249.5 -60t97.5 -149q0 -103 -144 -203q-26 160 -178 160q-67 0 -113.5 -40.5t-46.5 -123.5 v-385h352q0 -10 -1.5 -27t-12 -60t-28 -76t-56.5 -60t-92 -27h-162v-616q-7 0 -19.5 0.5t-48 3.5t-67.5 8t-71.5 17t-68 28t-48 42t-19.5 58zM457 1137v-285h448v285q0 188 -252 188q-88 0 -142 -52.5t-54 -135.5z" />
<glyph horiz-adv-x="1400" d="M1294 1087v-686q0 -208 -160 -317t-432 -109q-275 0 -435.5 109t-160.5 317v686q0 207 161 316.5t435 109.5q272 0 432 -109.5t160 -316.5zM942 432v625q0 109 -57 158t-183 49q-129 0 -186 -49t-57 -158v-625q0 -110 57 -159.5t186 -49.5q126 0 183 49.5t57 159.5z" />
<glyph horiz-adv-x="1400" d="M465 1489q112 0 224.5 7.5t168.5 14.5l57 7q-26 -176 -26 -256v-1004h348q1 -5 3 -14.5t6 -36.5t4.5 -51t-3.5 -54t-15 -51.5t-33.5 -36t-55.5 -14.5h-946q-8 42 -10 77t0.5 60t11.5 44.5t18 32.5t26 21.5t28.5 13t32.5 6.5t32 2.5t33 0.5h6h178v973q-4 -2 -39 -2h-49 q-99 0 -139.5 -48.5t-36.5 -162.5q-68 46 -111.5 100t-58 105.5t0.5 100t56 85t115.5 58.5t173.5 22z" />
<glyph horiz-adv-x="1400" d="M129 0v236q0 90 33.5 163t88 121t124.5 90t143 71.5t143 64.5t124.5 69.5t88 86t33.5 114.5v35q0 91 -56.5 146.5t-166.5 55.5q-56 0 -105 -6t-104 -24.5t-94 -49t-64.5 -84.5t-25.5 -126q-146 122 -146 249q0 128 141.5 214.5t397.5 86.5q255 0 415.5 -116.5 t160.5 -309.5v-81q0 -90 -34 -164.5t-89.5 -125t-126.5 -94t-144.5 -73t-144.5 -61t-126.5 -59t-89.5 -65t-34 -81.5v-25h590q45 0 86 6.5t66.5 15t44.5 17.5t28 15l8 7q0 -7 0.5 -18.5t-2 -44.5t-8.5 -63t-21 -67t-37 -63.5t-59 -44.5t-84 -18h-954z" />
<glyph horiz-adv-x="1400" d="M668 1253q-56 0 -105 -6t-104.5 -24.5t-94.5 -49t-64.5 -84.5t-25.5 -126q-70 67 -103.5 135t-31.5 128.5t38.5 113.5t102.5 91t166 60t222 22q257 0 416 -108.5t159 -298.5v-51q0 -89 -51.5 -174.5t-122.5 -108.5q83 -22 139 -115t56 -188v-61q0 -196 -164 -314.5 t-432 -118.5q-156 0 -272.5 32.5t-178 87.5t-82 125.5t8.5 150.5t102 157q21 -295 422 -295q123 0 183 56t60 149v13q0 31 -1 48.5t-10 47t-26.5 46.5t-53.5 32.5t-87 19.5q-20 2 -36 5t-39.5 17t-39 36t-27 64.5t-11.5 100.5v29h104q117 0 162 38t45 140q0 178 -223 178z " />
<glyph horiz-adv-x="1400" d="M88 365q6 117 80.5 273t171.5 292.5t209.5 271t182 207.5t102.5 104q6 0 17 -1t43 -4.5t60.5 -9.5t64 -18.5t60.5 -28t42.5 -40.5t17.5 -55v-746h192q0 -14 -1.5 -33t-12 -60t-29 -72t-57.5 -55.5t-92 -24.5v-385q-20 0 -46 1t-85.5 9.5t-104.5 23.5t-81 47t-36 76v228 h-698zM786 610v334q0 29 3 66.5t7 60.5l3 23q-33 -70 -74 -125q-111 -136 -233 -359h294z" />
<glyph horiz-adv-x="1400" d="M647 -25q-261 0 -401 85.5t-140 218.5q0 121 119 249q21 -295 422 -295q120 0 188 56t68 164v88q0 211 -239 211h-230q-78 0 -136.5 -3t-77.5 -5l-19 -3q18 109 18 205v3v3v3v3v3v3v3v3v3v3v3v3v3v3v3v3v3v3v3v3v3v3v3v3v3v3v3v3v3v3v3v3v3v3v3v3v3v3v3v3v3v3v3v3v3v3v3 v3v3v3v3v3v3v3v3v3v3v3v3v3v3v3v3v3v3v3v3v3v3v3v3v3v3v3v3v3v3v3v3v3v3v3v3v3v3v3v3v3v3v3v3v3v3v3v3v3v3v3v3v3v3v3v3v3v3v3v3v3v3v2v3v3v9q0 76 43 137.5t127 61.5h557q79 0 137.5 8.5t77.5 17.5l19 9q0 -12 -0.5 -23.5t-4.5 -43.5t-11 -58t-22.5 -59.5t-37 -56 t-56.5 -38.5t-79 -16h-398v-158l-6 -72h94q183 0 313.5 -43.5t206.5 -141.5t76 -247v-145q0 -139 -79 -241.5t-215.5 -154t-313.5 -51.5z" />
<glyph horiz-adv-x="1400" d="M1294 541v-140q0 -208 -160 -317t-432 -109q-275 0 -435.5 109t-160.5 317v686q0 207 161 316.5t435 109.5q194 0 328 -43.5t189 -115.5t33.5 -170t-124.5 -203q-3 51 -16.5 91.5t-34 69t-52 49t-64.5 32.5t-78 19t-86 9t-95 2q-131 0 -187 -44t-56 -152v-58 q0 -16 -2.5 -39t-4.5 -38l-3 -15q3 2 9.5 6.5t30.5 14.5t52.5 18t77.5 14.5t104 6.5q169 0 296 -46.5t201 -144t74 -235.5zM702 223q126 0 183 49.5t57 159.5v78q0 108 -54 157.5t-165 49.5q-124 0 -192 -45.5t-72 -149.5v-90q0 -110 57 -159.5t186 -49.5z" />
<glyph horiz-adv-x="1400" d="M963 1229h-623q-81 0 -140.5 -8.5t-78.5 -17.5l-19 -9v16q0 21 2 43t8.5 56.5t21.5 64t37.5 56.5t60 43t85.5 16h1022v-41q0 -135 -37 -260.5t-96.5 -224.5t-132 -192.5t-146.5 -182t-136.5 -174.5t-106 -188t-51.5 -206q-94 -40 -189 -40q-153 0 -153 131q0 83 30 166.5 t80.5 158.5t113 149.5t130 151.5t128.5 152.5t112.5 164.5t77.5 175z" />
<glyph horiz-adv-x="1400" d="M106 401v45q0 108 55 197.5t146 112.5q-66 23 -123 116.5t-57 182.5v32q0 206 157 316t418 110q169 0 296 -46.5t201.5 -144t74.5 -235.5v-32q0 -89 -55.5 -182.5t-122.5 -116.5q89 -23 143.5 -112.5t54.5 -197.5v-38q0 -209 -160.5 -321t-431.5 -112q-275 0 -435.5 109 t-160.5 317zM942 426q0 110 -56.5 157.5t-183.5 47.5q-130 0 -186.5 -48t-56.5 -163q0 -107 56.5 -152t186.5 -45q128 0 184 46t56 157zM479 1071q0 -107 45.5 -148.5t161.5 -41.5h33q113 0 158 41.5t45 148.5q0 106 -53 149.5t-167 43.5q-117 0 -170 -43.5t-53 -149.5z" />
<glyph horiz-adv-x="1400" d="M109 948v139q0 208 159.5 317t431.5 109q275 0 435.5 -109t160.5 -317v-686q0 -207 -161 -316.5t-435 -109.5q-265 0 -411 76.5t-146 202.5q0 120 131 254q3 -51 16.5 -91.5t34 -69t52 -49t64.5 -32.5t78 -19t86 -9t95 -2q131 0 187.5 44.5t56.5 151.5v57q0 16 2.5 39.5 t5.5 38.5l2 15q-3 -2 -9.5 -6.5t-30.5 -14.5t-52.5 -18t-77.5 -14.5t-104 -6.5q-169 0 -296 46.5t-201 144t-74 235.5zM700 1266q-126 0 -182.5 -49.5t-56.5 -159.5v-78q0 -108 54 -157.5t165 -49.5q124 0 192 45.5t72 149.5v90q0 110 -57.5 159.5t-186.5 49.5z" />
</font>
</defs>
</svg>
