<?xml version="1.0" standalone="no"?>
<!DOCTYPE svg PUBLIC "-//W3C//DTD SVG 1.1//EN" "http://www.w3.org/Graphics/SVG/1.1/DTD/svg11.dtd" >
<svg xmlns="http://www.w3.org/2000/svg">
<metadata></metadata>
<defs>
<font id="diavlo_bookregular" horiz-adv-x="1417" >
<font-face units-per-em="2048" ascent="1536" descent="-512" />
<missing-glyph horiz-adv-x="573" />
<glyph unicode="ff" horiz-adv-x="1368" d="M827 88v764h-520v-866q-7 0 -18 0.5t-39 6t-50 15t-39.5 30.5t-17.5 50v1088q0 151 114 240t284 89q106 0 194 -25.5t129 -74.5q53 90 163.5 141t238.5 51q96 0 176 -19t134 -62.5t54 -104.5q0 -67 -55 -125q0 55 -47 94t-115 56.5t-147 17.5q-118 0 -196.5 -57 t-78.5 -160v-244h387q0 -6 -1 -15.5t-6.5 -33.5t-15 -43t-30.5 -34t-49 -15h-285v-866q-7 0 -18 0.5t-39 6t-50 15t-39.5 30.5t-17.5 50zM307 1145v-152h520v203q0 80 -82.5 123t-203.5 43q-113 0 -173.5 -55t-60.5 -162z" />
<glyph unicode="fi" horiz-adv-x="1134" d="M541 711h-234v-725q-7 0 -18 0.5t-39 6t-50 15t-39.5 30.5t-17.5 50v1180q0 99 64.5 176t163.5 115t211 38q96 0 176 -19t134 -62.5t54 -104.5q0 -67 -55 -125q0 55 -47 94t-115 56.5t-147 17.5q-118 0 -196.5 -57t-78.5 -160v-385h234q114 0 200 45.5t86 122.5v18 q7 0 18 -0.5t39 -5.5t50 -14.5t39.5 -31t17.5 -50.5v-950q-7 0 -18 0.5t-39 6t-50 15t-39.5 30.5t-17.5 50v705q-42 -39 -118 -60.5t-168 -21.5z" />
<glyph unicode="fl" horiz-adv-x="1134" d="M143 88v1180q0 99 64.5 176t163.5 115t211 38q33 0 78.5 -5.5t103 -19t105 -34t80 -53.5t32.5 -74v-1069q0 -69 12.5 -134.5t47.5 -118t87 -52.5q-59 -51 -120 -51q-93 0 -142 82.5t-49 207.5v1123q-91 55 -235 55q-118 0 -196.5 -57t-78.5 -160v-244h387q0 -6 -1 -15.5 t-6.5 -33.5t-15 -43t-30.5 -34t-49 -15h-285v-866q-7 0 -18 0.5t-39 6t-50 15t-39.5 30.5t-17.5 50z" />
<glyph unicode="ffi" horiz-adv-x="1818" d="M1225 711h-234v-725q-7 0 -18 0.5t-39 6t-50 15t-39.5 30.5t-17.5 50v623h-520v-725q-7 0 -18 0.5t-39 6t-50 15t-39.5 30.5t-17.5 50v1088q0 151 115 240t285 89q105 0 191.5 -25.5t129.5 -74.5q53 90 163.5 141t238.5 51q96 0 176 -19t134 -62.5t54 -104.5 q0 -67 -55 -125q0 55 -47 94t-115 56.5t-147 17.5q-118 0 -196.5 -57t-78.5 -160v-385h234q113 0 199.5 46.5t86.5 119.5v20q7 0 18 -0.5t39 -5.5t50 -14.5t39.5 -31t17.5 -50.5v-950q-7 0 -18 0.5t-39 6t-50 15t-39.5 30.5t-17.5 50v707q-43 -40 -118.5 -62t-167.5 -22z M307 1145v-293h520v350q0 77 -83 118.5t-201 41.5q-114 0 -175 -55.5t-61 -161.5z" />
<glyph unicode="ffl" horiz-adv-x="1818" d="M827 88v764h-520v-866q-7 0 -18 0.5t-39 6t-50 15t-39.5 30.5t-17.5 50v1088q0 151 115 240t285 89q105 0 191.5 -25.5t129.5 -74.5q53 90 163.5 141t238.5 51q33 0 78.5 -5.5t103 -19t105 -34t80 -53.5t32.5 -74v-1069q0 -69 12.5 -134.5t47.5 -118t87 -52.5 q-59 -51 -120 -51q-93 0 -142 82.5t-49 207.5v1123q-91 55 -235 55q-118 0 -196.5 -57t-78.5 -160v-244h387q0 -6 -1 -15.5t-6.5 -33.5t-15 -43t-30.5 -34t-49 -15h-285v-866q-7 0 -18 0.5t-39 6t-50 15t-39.5 30.5t-17.5 50zM307 1145v-152h520v201q0 82 -81.5 125 t-202.5 43q-114 0 -175 -55.5t-61 -161.5z" />
<glyph unicode="fj" horiz-adv-x="1134" d="M518 711h-211v-725q-7 0 -18 0.5t-39 6t-50 15t-39.5 30.5t-17.5 50v1180q0 99 64.5 176t163.5 115t211 38q96 0 176 -19t134 -62.5t54 -104.5q0 -67 -55 -125q0 55 -47 94t-115 56.5t-147 17.5q-118 0 -196.5 -57t-78.5 -160v-385h211q76 0 144.5 16.5t116.5 54t48 89.5 v26q7 0 18 -0.5t39 -6t50 -15t39.5 -30.5t17.5 -50v-1135q0 -122 -52 -206t-138 -84q-62 0 -121 51q52 0 87 52.5t47.5 118t12.5 134.5v921q-95 -77 -309 -77z" />
<glyph unicode=" "  horiz-adv-x="573" />
<glyph unicode="&#x09;" horiz-adv-x="573" />
<glyph unicode="&#xa0;" horiz-adv-x="573" />
<glyph unicode="!" horiz-adv-x="532" d="M389 1352v-1002q-7 0 -18 0.5t-39 6t-50 15t-39.5 31t-17.5 50.5v1001q7 0 18 -0.5t39 -6t50 -15t39.5 -30.5t17.5 -50zM389 135v-135h-129q-13 0 -24 11.5t-11 25.5v135h127q15 0 26 -11t11 -26z" />
<glyph unicode="&#x22;" horiz-adv-x="763" d="M477 1208l2 222h66q47 0 63.5 -29.5t16.5 -81.5v-70q0 -254 -136 -254q-44 0 -71 27q59 14 59 186zM164 1208l2 222h65q47 0 63.5 -29.5t16.5 -81.5v-70q0 -254 -135 -254q-45 0 -72 27q60 15 60 186z" />
<glyph unicode="#" horiz-adv-x="1376" d="M727 106l68 289h-369l-98 -415q-6 1 -16.5 3.5t-36.5 12.5t-44.5 23t-30 36.5t-3.5 50.5l67 289h-201q-1 6 -2.5 16t-1 35.5t6 45t23 35.5t46.5 16h164l80 336h-199q-1 6 -2.5 16t-1 35t6 44.5t23 35.5t46.5 16h162l104 430q6 -1 16.5 -4t36.5 -13.5t44.5 -23.5t30 -37 t3.5 -51l-71 -301h366l105 430q6 -1 16.5 -4t36.5 -13.5t44.5 -23.5t30 -37t3.5 -51l-72 -301h205q1 -6 2.5 -16t1.5 -35t-5.5 -44.5t-23.5 -35.5t-47 -16h-170l-80 -336h205q1 -6 2.5 -16t1.5 -35.5t-5.5 -45t-23.5 -35.5t-47 -16h-168l-98 -415q-6 1 -16.5 3.5t-36.5 12.5 t-44.5 23t-30 36.5t-3.5 50.5zM541 879l-80 -336h368l80 336h-368z" />
<glyph unicode="$" horiz-adv-x="1253" d="M545 -68v45q-89 3 -158.5 15.5t-129.5 38.5t-92 72t-32 110q0 74 47 164q0 -56 18.5 -99t50 -70t79.5 -45t99.5 -25.5t117.5 -10.5v545q-47 8 -75.5 14t-71.5 16.5t-69.5 20.5t-61 27t-56 35.5t-44.5 45t-35.5 57.5t-21 71.5t-8.5 87.5q0 209 113.5 303.5t329.5 105.5 v123q5 0 14 -0.5t31 -6t39 -15t31 -30.5t14 -50v-21q87 -3 153 -15.5t121 -38t84 -70.5t29 -109q0 -72 -47 -166q0 70 -24 119t-71.5 75.5t-105.5 39t-139 14.5v-480q55 -10 95 -19t88.5 -25.5t82.5 -36t68 -51t55 -70.5t34 -93t13 -120q0 -199 -114.5 -309t-321.5 -124 v-147q-5 0 -14 0.5t-31 6t-39 15t-31 30.5t-14 50zM930 399q0 59 -17.5 102t-53.5 71t-79 45t-106 30v-518q136 11 196 81t60 189zM283 1065q0 -54 17.5 -91.5t55 -61.5t80.5 -38t109 -26v457q-138 -9 -200 -64.5t-62 -175.5z" />
<glyph unicode="%" horiz-adv-x="1579" d="M692 1255v-247q0 -94 -81 -144.5t-220 -50.5t-220 50.5t-81 144.5v247q0 92 82 145.5t219 53.5t219 -53.5t82 -145.5zM557 1063v141q0 66 -35.5 98.5t-130.5 32.5q-99 0 -132.5 -32t-33.5 -99v-141q0 -69 33.5 -100t132.5 -31q96 0 131 31.5t35 99.5zM1489 422v-248 q0 -94 -81 -144t-220 -50t-220 50t-81 144v248q0 92 82 145.5t219 53.5t219 -53.5t82 -145.5zM1354 229v142q0 66 -35.5 98.5t-130.5 32.5q-99 0 -132.5 -32t-33.5 -99v-142q0 -69 33.5 -100t132.5 -31q96 0 131 31.5t35 99.5zM274 322l969 970q4 -4 11 -12t22 -30.5 t22.5 -43.5t4 -47.5t-24.5 -46.5l-969 -971q-4 4 -11 12t-22 30.5t-22.5 44t-4 48t24.5 46.5z" />
<glyph unicode="&#x26;" horiz-adv-x="1214" d="M133 356v62q0 113 56 200.5t167 118.5q-103 28 -152.5 108t-49.5 191v51q0 168 135 269.5t348 101.5q87 0 168 -14.5t148.5 -46.5t107.5 -78t40 -114t-50 -148q0 66 -34.5 116t-94 78.5t-131 42t-154.5 13.5q-152 0 -231.5 -69t-79.5 -181q0 -128 64.5 -187t221.5 -63 v270q6 0 17 -1t38 -6.5t48 -15.5t38 -31t17 -50v-166h262q0 -6 -1 -15.5t-6.5 -34.5t-15 -44.5t-30.5 -35t-49 -15.5h-160v-154q0 -42 8.5 -81t17.5 -57l9 -18q-50 6 -87.5 26t-57 44t-31 53t-14.5 48t-3 34v105h-63q-244 -29 -244 -275q0 -115 83.5 -187.5t248.5 -72.5 q122 0 216 23t156 81t62 146q50 -81 49.5 -149t-41 -113.5t-110.5 -78t-154.5 -47t-177.5 -14.5q-226 0 -365 105.5t-139 275.5z" />
<glyph unicode="'" horiz-adv-x="450" d="M164 1208l2 222h65q47 0 63.5 -29.5t16.5 -81.5v-70q0 -254 -135 -254q-45 0 -72 27q60 15 60 186z" />
<glyph unicode="(" horiz-adv-x="636" d="M276 524q0 -243 43.5 -453t117 -334.5t159.5 -129.5q-59 -51 -121 -51q-76 0 -145.5 76.5t-119 205.5t-79 307.5t-29.5 374.5q0 262 49.5 484t135.5 351.5t188 129.5q62 0 121 -51q-86 -5 -159.5 -129.5t-117 -333t-43.5 -447.5z" />
<glyph unicode=")" horiz-adv-x="636" d="M360 524q0 179 -25.5 345.5t-68.5 289t-102 197t-123 78.5q59 51 121 51q102 0 188 -129.5t135.5 -351.5t49.5 -484q0 -196 -29.5 -374.5t-79 -307.5t-119 -205.5t-145.5 -76.5q-62 0 -121 51q64 4 123 78.5t102 197t68.5 291t25.5 350.5z" />
<glyph unicode="*" horiz-adv-x="804" d="M270 961l-39 16q-51 30 -51 84q0 70 129 172q-70 24 -133 24q-28 0 -46 -10t-38 -33q-4 28 -4 43q0 42 27.5 72.5t89.5 30.5q35 0 145 -45q-31 165 -125 182q41 41 86 41q47 0 82 -56t47 -157q41 34 72 77.5t31 76.5q0 24 -8 45l38 -17q52 -31 52 -84q0 -79 -131 -172 q65 -24 135 -24q28 0 46 10t38 33q4 -28 4 -43q0 -42 -27.5 -72.5t-89.5 -30.5q-15 0 -35 5t-33 10t-39.5 16.5t-35.5 15.5q10 -72 40.5 -124t82.5 -60q-41 -41 -86 -41q-47 0 -82 55t-47 156q-44 -35 -74.5 -77.5t-30.5 -75.5q0 -16 10 -43z" />
<glyph unicode="+" horiz-adv-x="1017" d="M430 221v230h-280q-1 6 -2.5 16t-1.5 35t5.5 44.5t23 35.5t46.5 16h209v270q6 1 16 3t35.5 2t45 -5.5t35.5 -23.5t16 -47v-199h290q1 -6 3 -16t2 -35t-5.5 -44.5t-23.5 -35.5t-47 -16h-219v-301q-6 -1 -16 -2.5t-35.5 -1.5t-45 5.5t-35.5 23t-16 46.5z" />
<glyph unicode="," horiz-adv-x="471" d="M139 182h47h101q14 0 25.5 -12t11.5 -27v-129q0 -254 -136 -254q-50 0 -92 27q38 7 58 46t19.5 82t-3.5 81z" />
<glyph unicode="-" horiz-adv-x="1017" d="M221 598h647q1 -6 3 -16t2 -35t-5.5 -44.5t-23.5 -35.5t-47 -16h-647q-1 6 -2.5 16t-1.5 35t5.5 44.5t23 35.5t46.5 16z" />
<glyph unicode="." horiz-adv-x="471" d="M147 39v143h140q14 0 25.5 -12t11.5 -27v-143h-138q-15 0 -27 12t-12 27z" />
<glyph unicode="/" horiz-adv-x="645" d="M39 -362l438 1902q6 -1 16.5 -4t36.5 -13.5t44.5 -23.5t30 -37t3.5 -51l-438 -1900q-6 1 -16.5 3.5t-36.5 13t-44.5 23.5t-30 36.5t-3.5 50.5z" />
<glyph unicode="0" horiz-adv-x="1294" d="M1151 1087v-741q0 -181 -136 -276t-368 -95t-368 95t-136 276v741q0 181 136 276t368 95t368 -95t136 -276zM979 377v680q0 137 -79 198.5t-253 61.5t-253 -61.5t-79 -198.5v-680q0 -137 79 -198.5t253 -61.5t253 61.5t79 198.5z" />
<glyph unicode="1" horiz-adv-x="1075" d="M334 1434q88 0 178.5 5t137.5 10l46 5q-18 -102 -18 -192v-1110h350q1 -6 2.5 -16.5t1.5 -36.5t-5.5 -46t-23.5 -36.5t-47 -16.5h-811q-1 6 -2.5 16.5t-1 36.5t6 46t23 36.5t46.5 16.5h289v1136q-105 -6 -160 -6q-196 0 -196 -156q-58 79 -58 146q0 81 65 121.5t177 40.5 z" />
<glyph unicode="2" horiz-adv-x="1200" d="M113 0v180q0 105 44 186.5t114 134t154.5 95.5t169 82t154.5 82.5t114 108t44 147.5v35q0 113 -79.5 184.5t-231.5 71.5q-83 0 -154.5 -13.5t-131 -42t-94 -78.5t-34.5 -116q-50 80 -50 148t40 114t107.5 78t148.5 46.5t168 14.5q213 0 348 -101.5t135 -269.5v-81 q0 -88 -27 -159t-73 -119t-105.5 -87.5t-125.5 -69t-132 -58t-125.5 -60t-105.5 -69t-73 -92t-27 -122.5v-18h667q44 0 80.5 5t51.5 10l14 5q0 -7 -0.5 -18.5t-7.5 -41t-18.5 -52.5t-37 -41.5t-59.5 -18.5h-862z" />
<glyph unicode="3" horiz-adv-x="1234" d="M1112 414v-62q0 -170 -139 -273.5t-365 -103.5q-93 0 -177.5 14.5t-154.5 47t-110.5 78t-41 113.5t49.5 149q0 -88 62 -146t156 -81t216 -23q165 0 248.5 71t83.5 185q0 250 -244 279q-39 6 -55 19q-38 33 -33 126h17q162 3 228.5 61.5t66.5 188.5q0 112 -79.5 181 t-232.5 69q-113 0 -202 -23t-150 -81t-61 -146q-50 80 -50 148t39.5 114t107.5 78t148.5 46.5t167.5 14.5q213 0 348.5 -101.5t135.5 -269.5v-51q0 -111 -49.5 -191t-153.5 -108q111 -31 167 -120t56 -203z" />
<glyph unicode="4" horiz-adv-x="1107" d="M102 418h-71q6 103 74 242.5t159 265t193 246.5t170 191.5t96 94.5q7 0 19 -1t42.5 -7t53.5 -15.5t42 -30.5t19 -48v-801h158q0 -10 -2.5 -26t-11 -44.5t-32 -47.5t-57.5 -19h-55v-438q-13 0 -32.5 2.5t-55.5 10.5t-60 31.5t-24 57.5v336h-625zM739 1270q-18 -39 -43 -64 q-133 -133 -274 -320.5t-191 -330.5h496v569q0 30 3 66.5t6 57.5z" />
<glyph unicode="5" horiz-adv-x="1171" d="M342 922h219q239 0 373.5 -93.5t134.5 -287.5v-189q0 -182 -136.5 -279.5t-367.5 -97.5q-53 0 -105.5 5t-111.5 17.5t-107.5 31.5t-87 51t-57 72.5t-11 98.5t45.5 126q0 -88 62 -146t156 -81t216 -23q168 0 250 59t82 193v135q0 128 -81.5 197t-250.5 69h-260l-133 -2 q10 44 10 142v352q0 7 0.5 17.5t6.5 38.5t15.5 49.5t30.5 39t50 17.5h563q44 0 80 5t50 10l15 5q0 -7 -0.5 -18.5t-7.5 -41t-18.5 -52.5t-37 -41.5t-59.5 -18.5h-516v-246q0 -33 -3 -61.5t-6 -40.5z" />
<glyph unicode="6" horiz-adv-x="1284" d="M1151 512v-166q0 -181 -136 -276t-368 -95t-368 95t-136 276v741q0 181 136 276t368 95q95 0 178 -12.5t154 -43t111 -75t40.5 -114.5t-49.5 -156q0 88 -62 146t-156 81t-216 23q-176 0 -254 -57t-78 -193v-176q0 -27 -2 -62t-4 -57l-2 -21q4 6 12.5 15.5t40 34t69 43 t102 34t137.5 15.5q219 0 351 -95.5t132 -275.5zM647 117q174 0 253 61.5t79 198.5v104q0 137 -75.5 198.5t-235.5 61.5q-345 0 -353 -245v-119q0 -137 79 -198.5t253 -61.5z" />
<glyph unicode="7" horiz-adv-x="1107" d="M889 1282h-723q-44 0 -80.5 -5t-51.5 -10l-14 -5q0 7 0.5 18.5t7.5 41t18.5 52.5t37 41.5t59.5 18.5h934q0 -138 -39 -264.5t-101 -224.5t-137.5 -190t-151 -179t-137.5 -174t-101 -191.5t-39 -214.5q-31 -16 -64 -16q-104 0 -104 75q0 97 32.5 191t86 175t119 161.5 t136 162t132 162.5t110.5 179t70 196z" />
<glyph unicode="8" horiz-adv-x="1294" d="M143 346v72q0 214 203 309q-182 86 -182 299v61q0 180 132 275.5t351 95.5t351 -95.5t132 -275.5v-61q0 -213 -182 -299q203 -95 203 -309v-66q0 -182 -136.5 -279.5t-367.5 -97.5q-232 0 -368 95t-136 276zM979 383q0 139 -80 205.5t-252 66.5t-252 -67.5t-80 -210.5 q0 -137 79 -198.5t253 -61.5q173 0 252.5 64t79.5 202zM336 1057q0 -137 66.5 -197t228.5 -63h33q162 3 228 63t66 197t-75.5 198.5t-235.5 61.5t-235.5 -61.5t-75.5 -198.5z" />
<glyph unicode="9" horiz-adv-x="1284" d="M133 926v161q0 181 136 276t368 95t368 -95t136 -276v-741q0 -181 -136 -276t-368 -95q-95 0 -178 12.5t-154 43t-111 75.5t-40.5 115t49.5 156q0 -88 62 -146t156 -81t216 -23q176 0 254 57t78 193v180q0 27 2 62t4 56l2 21q-4 -6 -12.5 -15.5t-40 -33.5t-69 -43 t-102 -34t-137.5 -15q-219 0 -351 95.5t-132 275.5zM637 1317q-174 0 -253 -61.5t-79 -198.5v-101q0 -137 75.5 -198.5t235.5 -61.5q353 0 353 246v115q0 137 -79 198.5t-253 61.5z" />
<glyph unicode=":" horiz-adv-x="471" d="M178 39v143h139q14 0 25.5 -12t11.5 -27v-143h-137q-15 0 -27 12t-12 27zM178 782v144h139q14 0 25.5 -12t11.5 -27v-144h-137q-15 0 -27 12t-12 27z" />
<glyph unicode=";" horiz-adv-x="471" d="M178 782v144h139q14 0 25.5 -12t11.5 -27v-144h-137q-15 0 -27 12t-12 27zM170 182h47h100q14 0 25.5 -12t11.5 -27v-129q0 -254 -135 -254q-50 0 -92 27q38 7 58 46t19.5 82t-3.5 81z" />
<glyph unicode="&#x3c;" horiz-adv-x="851" d="M287 512l401 -401q-2 -3 -5.5 -8.5t-14.5 -19t-22.5 -23.5t-28 -18.5t-31.5 -8.5q-30 0 -54 24l-356 357q-53 53 -53 98t55 100l410 410q9 -5 22 -14.5t34.5 -37t21.5 -52.5t-25 -50z" />
<glyph unicode="=" horiz-adv-x="1017" d="M221 762h647q4 -22 4 -49q0 -99 -75 -99h-647q-5 21 -5 48q0 100 76 100zM221 446h647q4 -22 4 -49q0 -98 -75 -98h-647q-5 20 -5 47q0 100 76 100z" />
<glyph unicode="&#x3e;" horiz-adv-x="851" d="M164 111l401 401l-354 356q-25 25 -25 50t19.5 51t38.5 39l20 14l410 -410q55 -55 55 -100t-53 -98l-357 -357q-24 -24 -53 -24q-24 0 -49.5 19.5t-38.5 39.5z" />
<glyph unicode="?" horiz-adv-x="1083" d="M518 1307q-148 0 -233.5 -52.5t-85.5 -156.5q-59 89 -56 156.5t56.5 112.5t136 68t182.5 23q217 0 350 -92t133 -258v-51q0 -70 -26 -127.5t-67.5 -97.5t-91.5 -75t-100.5 -67.5t-92 -67t-67.5 -82t-26 -104.5v-98q-6 0 -16.5 0.5t-37.5 6.5t-47 16t-37 32t-17 53v41 q0 59 25 109t65 86.5t88.5 70t97 66t88.5 67.5t65 82.5t25 102.5q0 110 -78.5 173t-232.5 63zM535 135v-135h-129q-13 0 -24 11.5t-11 25.5v135h127q15 0 26 -11t11 -26z" />
<glyph unicode="@" horiz-adv-x="1828" d="M1522 479v344q0 83 -25.5 153t-78 127t-143 89.5t-210.5 32.5h-305q-119 0 -208.5 -32.5t-141.5 -89.5t-77.5 -127t-25.5 -153v-628q0 -159 77.5 -260t201.5 -101q54 0 112 21q-20 -125 -211 -125q-152 0 -248 125t-96 313v682q0 220 168 364t451 144h305 q282 0 450.5 -144.5t168.5 -363.5v-397q0 -478 -680 -478q-81 0 -152 9t-138 31t-114.5 55.5t-76.5 86t-29 119.5q0 71 24.5 124.5t65.5 85t94.5 55t110 35.5t113.5 26t104 27t82.5 38t48.5 60q0 86 -52 132t-186 46q-146 0 -232.5 -56t-86.5 -161q-56 79 -56 150 q0 67 53 116t136.5 72t185.5 23q194 0 298 -87t104 -243v-318q0 -16 -3 -35.5t-14.5 -51.5t-31 -57.5t-57 -47t-87.5 -27.5q35 76 35 170v213q-9 -31 -49 -52t-93.5 -30t-114.5 -23.5t-111.5 -31.5t-84 -54.5t-33.5 -92.5q0 -84 99 -129.5t254 -45.5q92 0 164.5 9.5 t139.5 34.5t110.5 66t69.5 107.5t26 155.5z" />
<glyph unicode="A" horiz-adv-x="1284" d="M643 1466l11 -8q11 -9 32 -29t47 -49t58.5 -75.5t64.5 -103t66.5 -136.5t62.5 -170l166 -533q95 -313 133 -370q-18 -6 -53 -6q-32 0 -59.5 10t-47.5 24t-39.5 41.5t-31 47.5t-26 59t-21 60t-19.5 64q-2 7 -3.5 11t-3 10t-3.5 11l-41 133h-590l-39 -133 q-43 -148 -69 -200q-66 -138 -185 -138q-16 0 -29 1.5t-18 2.5l-6 2q33 52 133 370l166 533q22 71 48 136t51 114.5t51.5 93.5t50 75.5t46 58t40 43t30.5 28t20 16.5zM461 842l-72 -244h504l-72 244q-23 78 -50 147.5t-49 112.5t-41 75.5t-29 46.5l-9 13q-11 -13 -30 -40 t-67.5 -129t-84.5 -226z" />
<glyph unicode="B" horiz-adv-x="1212" d="M164 102v1332h422q483 0 483 -347v-61q0 -103 -46.5 -182.5t-125.5 -116.5q88 -40 140.5 -122.5t52.5 -186.5v-62q0 -179 -135 -267.5t-369 -88.5h-252q-7 0 -18.5 1t-40.5 6.5t-51.5 15t-41 30.5t-18.5 49zM602 655h-266v-514h250q174 0 253 58t79 188q0 129 -78 198.5 t-238 69.5zM586 1292h-250v-495h266q159 0 227 64t68 196q0 128 -74.5 181.5t-236.5 53.5z" />
<glyph unicode="C" horiz-adv-x="1372" d="M729 1307q-414 0 -414 -351v-477q0 -97 31.5 -167t89.5 -109.5t130 -57.5t163 -18q66 0 130.5 8t127.5 27t110.5 47t77 71.5t29.5 96.5q41 -77 44 -140.5t-28.5 -106t-82.5 -74t-122 -48.5t-141 -25t-145 -8q-118 0 -219.5 25.5t-185.5 79.5t-132.5 148.5t-48.5 220.5 v536q0 102 32.5 183.5t87 134.5t130.5 89t159 51t177 15q75 0 145 -8t141 -25t122 -48t82.5 -74t28.5 -106t-44 -140q0 59 -44 108t-114.5 79t-153 46.5t-163.5 16.5z" />
<glyph unicode="D" horiz-adv-x="1435" d="M707 0h-375q-10 0 -24 1t-41.5 7t-48.5 15.5t-37.5 30t-16.5 48.5v1332h543q95 0 176.5 -13t158.5 -47t131 -86t86.5 -135.5t32.5 -191.5v-488q0 -108 -32.5 -191.5t-86.5 -135.5t-131 -86t-158.5 -47t-176.5 -13zM707 1292h-371v-1151h371q91 0 163 18.5t129.5 58 t89 109.5t31.5 167v448q0 350 -413 350z" />
<glyph unicode="E" horiz-adv-x="1159" d="M842 711h-506v-570h731q0 -7 -1 -18t-6.5 -34.5t-15 -41.5t-30.5 -32.5t-49 -14.5h-629q-7 0 -18.5 0.5t-41 6t-52.5 15t-41.5 30.5t-18.5 50v1332h903q0 -6 -0.5 -15.5t-6 -34t-15 -43t-30.5 -34t-50 -15.5h-629v-440h473q62 0 106 8t57 16l13 7q0 -28 -5 -53.5 t-19 -54.5t-44.5 -46.5t-74.5 -17.5z" />
<glyph unicode="F" horiz-adv-x="1009" d="M336 852h391q62 0 106 8t57 16l13 7q0 -28 -5 -53.5t-19 -54.5t-44.5 -46.5t-74.5 -17.5h-424v-731q-7 0 -18.5 0.5t-41 6t-52.5 15t-41.5 30.5t-18.5 50v1352h842q0 -6 -0.5 -15.5t-6.5 -34t-15.5 -43t-30.5 -34t-50 -15.5h-567v-440z" />
<glyph unicode="G" d="M709 -25q-118 0 -216.5 25.5t-178.5 79.5t-125.5 148t-45.5 221v536q0 102 30 183t82 135t125 89t154.5 50.5t174.5 15.5q68 0 131.5 -5.5t128 -18.5t116 -33t91 -52t58.5 -72.5t12.5 -97t-42.5 -122.5q0 59 -44.5 108t-116.5 79t-158.5 46.5t-175.5 16.5 q-90 0 -159.5 -18t-123.5 -57.5t-82.5 -109t-28.5 -166.5v-477q0 -97 28.5 -166.5t82.5 -109.5t123.5 -58t159.5 -18q76 0 130.5 7t107 27.5t84.5 56.5t51.5 96.5t19.5 144.5v127h-287q-37 0 -63.5 17.5t-37.5 43t-16.5 51t-5.5 42.5v18q54 -31 158 -31h424v-299 q0 -100 -30 -178.5t-81.5 -129t-125 -84t-154 -47.5t-174.5 -14z" />
<glyph unicode="H" horiz-adv-x="1443" d="M1108 82v588h-772v-690q-7 0 -18.5 0.5t-41 6t-52.5 15t-41.5 30.5t-18.5 50v1372q7 0 18.5 -0.5t41 -6t52.5 -15t41.5 -30.5t18.5 -50v-539h772v641q7 0 18.5 -0.5t41 -6t52.5 -15t41.5 -30.5t18.5 -50v-1372q-7 0 -18.5 0.5t-41 6t-52.5 15t-41.5 30.5t-18.5 50z" />
<glyph unicode="I" horiz-adv-x="499" d="M164 82v1372q7 0 18.5 -0.5t41 -6t52.5 -15t41.5 -30.5t18.5 -50v-1372q-7 0 -18.5 0.5t-41 6t-52.5 15t-41.5 30.5t-18.5 50z" />
<glyph unicode="J" horiz-adv-x="499" d="M336 1348v-1446q0 -130 -54.5 -220t-146.5 -90q-68 0 -129 56q42 0 74.5 31.5t49.5 82t25.5 103.5t8.5 106v1483q7 0 18.5 -0.5t41 -6t52.5 -15t41.5 -31.5t18.5 -53z" />
<glyph unicode="K" horiz-adv-x="1222" d="M336 721v-741q-7 0 -18.5 0.5t-41 6t-52.5 15t-41.5 30.5t-18.5 50v1372q7 0 18.5 -0.5t41 -6t52.5 -15t41.5 -30.5t18.5 -50v-516q84 7 154 32.5t125 64.5t109.5 103.5t99 133.5t100.5 171q63 117 190 117q16 0 31 -1.5t22 -2.5l7 -2q-26 -39 -74 -129.5t-93 -166.5 t-105.5 -158.5t-138.5 -140.5t-165 -79q93 -13 179 -80.5t154 -167.5t121 -196t104.5 -199.5t78.5 -144.5q-24 -6 -59 -6q-57 0 -115.5 25.5t-93.5 90.5q-16 29 -45 86q-41 78 -62 117t-61 105t-69 100t-75 79.5t-90 68.5t-103.5 42t-125.5 23z" />
<glyph unicode="L" horiz-adv-x="1032" d="M918 0h-582q-7 0 -18.5 0.5t-41 6t-52.5 15t-41.5 30.5t-18.5 50v1352q7 0 18.5 -0.5t41 -6t52.5 -15t41.5 -30.5t18.5 -50v-1211h508q62 0 106 7.5t57 15.5l13 8q0 -37 -7 -72.5t-31.5 -67.5t-63.5 -32z" />
<glyph unicode="M" horiz-adv-x="1644" d="M1309 82v950q0 38 3.5 84.5t7.5 73.5l3 27l-455 -930q-4 0 -11 0.5t-27 6t-38.5 15t-41.5 30.5t-41 50l-387 828q14 -99 14 -185v-1052q-7 0 -18.5 0.5t-41 6t-52.5 15t-41.5 30.5t-18.5 50v1352h125q7 0 14.5 -0.5t27 -6t36.5 -15t37 -31t34 -50.5l381 -817l441 920 q221 0 221 -103v-1351q-7 0 -18.5 0.5t-41 6t-52.5 15t-41.5 30.5t-18.5 50z" />
<glyph unicode="N" horiz-adv-x="1445" d="M440 1331l596 -971l94 -155q-20 107 -20 168v1061q7 0 18.5 -0.5t41 -6.5t52.5 -15.5t41.5 -30.5t18.5 -50v-1351q-61 0 -112.5 13.5t-80.5 33t-49.5 39.5t-27.5 34l-8 13l-689 1112q21 -99 21 -185v-1060q-7 0 -18.5 0.5t-41 6t-52.5 15t-41.5 30.5t-18.5 50v1352 q45 0 69 -1t59.5 -6t58 -15.5t47 -30.5t42.5 -50z" />
<glyph unicode="O" d="M1274 1004v-574q0 -218 -141 -336.5t-424 -118.5q-284 0 -425 118t-141 337v574q0 219 141 336.5t425 117.5q283 0 424 -118t141 -336zM1102 457v520q0 68 -9 117.5t-34.5 93.5t-69 71t-114 42.5t-168.5 15.5q-120 0 -199 -22t-120.5 -69t-57 -105t-15.5 -144v-520 q0 -86 15.5 -144t57 -105t120.5 -69t199 -22q98 0 168.5 15.5t114 42.5t69 71t34.5 93.5t9 117.5z" />
<glyph unicode="P" horiz-adv-x="1189" d="M164 82v1352h360q96 0 175 -11.5t153.5 -42.5t125.5 -80.5t81.5 -130.5t30.5 -188v-37q0 -455 -566 -455h-188v-509q-7 0 -18.5 0.5t-41 6t-52.5 15t-41.5 30.5t-18.5 50zM524 1292h-188v-661h188q76 0 130.5 7t107 27.5t85 56.5t52 96.5t19.5 144.5q0 97 -28 163 t-83.5 101.5t-122.5 50t-160 14.5z" />
<glyph unicode="Q" d="M1274 1004v-574q0 -205 -124 -322.5t-372 -130.5v-57q0 -62 28 -109t76 -74t105.5 -40.5t122.5 -13.5q88 0 164 25.5t125 78t49 123.5q35 -71 35 -137q0 -80 -56 -136.5t-138.5 -81t-180.5 -24.5q-131 0 -238 39t-175 121.5t-68 197.5v91q-244 15 -364 131t-120 319v574 q0 219 141 336.5t425 117.5q283 0 424 -118t141 -336zM1102 457v520q0 68 -9 117.5t-34.5 93.5t-69 71t-114 42.5t-168.5 15.5q-120 0 -199 -22t-120.5 -69t-57 -105t-15.5 -144v-520q0 -86 15.5 -144t57 -105t120.5 -69t199 -22q98 0 168.5 15.5t114 42.5t69 71t34.5 93.5 t9 117.5z" />
<glyph unicode="R" horiz-adv-x="1163" d="M1069 1026q0 -169 -115 -263.5t-301 -94.5q67 -26 128.5 -78.5t105 -112.5t85.5 -133t70 -134.5t59 -124.5t52 -95q-24 -6 -59 -6q-136 0 -199 116q-18 34 -46 87t-44 83.5t-41 75.5t-43 71t-45 61t-51 56t-56.5 45t-66.5 38.5t-76 26.5t-90 18v-682q-7 0 -18.5 1 t-41 6.5t-52.5 15t-41.5 30.5t-18.5 49v1352h422q483 0 483 -347v-61zM586 1292h-250v-495h266q159 0 227 64t68 196q0 128 -74.5 181.5t-236.5 53.5z" />
<glyph unicode="S" horiz-adv-x="1294" d="M180 377q0 -52 18.5 -93t54 -67.5t78.5 -45t100 -27.5t110 -13t116 -4q170 0 262.5 73.5t92.5 198.5q0 49 -12.5 87t-50.5 66t-60 44.5t-91.5 33.5t-90.5 21t-108 19q-97 17 -147 27.5t-129 38.5t-118.5 64t-71 99.5t-31.5 147.5q0 411 545 411q496 0 496 -235 q0 -72 -47 -166q0 62 -25.5 108t-65.5 73t-101 43t-121 21t-136 5q-176 0 -270 -56.5t-94 -185.5q0 -62 31 -104t83.5 -64.5t121 -37t144 -26t150.5 -25.5t143.5 -42.5t121 -70.5t83.5 -114.5t31 -170.5q0 -106 -41 -189.5t-114 -136.5t-169.5 -81t-210.5 -28 q-102 0 -186.5 10t-165 34.5t-126.5 74t-46 119.5q0 74 47 164z" />
<glyph unicode="T" horiz-adv-x="1120" d="M973 1292h-330v-1312q-7 0 -18.5 0.5t-41 6t-52.5 15t-41.5 30.5t-18.5 50v1210h-324q-44 0 -74.5 17.5t-44.5 46.5t-19 54.5t-5 53.5q4 -3 14 -8t55 -13.5t107 -8.5h760q62 0 106 7.5t57 14.5l13 8q0 -28 -5 -53.5t-19 -54.5t-44.5 -46.5t-74.5 -17.5z" />
<glyph unicode="U" d="M1274 1352v-944q0 -105 -45.5 -189t-124.5 -136.5t-179.5 -80t-215.5 -27.5t-216 27.5t-179.5 80t-124.5 136.5t-46 189v1046q7 0 18.5 -0.5t41 -6t52.5 -15t41.5 -30.5t18.5 -50v-914q0 -150 107.5 -230.5t286.5 -80.5q178 0 285.5 80.5t107.5 230.5v1016q7 0 18.5 -0.5 t41 -6t52.5 -15t41.5 -30.5t18.5 -50z" />
<glyph unicode="V" horiz-adv-x="1335" d="M668 -35q-9 7 -25.5 21t-63.5 66t-89.5 114t-95 167.5t-89.5 223.5l-162 512q-6 19 -17.5 56t-17.5 55.5t-16 49.5t-16 48.5t-14 42t-14 39t-13 31.5t-13 28.5t-12 20.5q18 6 53 6q24 0 45.5 -6t39 -14t34 -24.5t27.5 -29.5t24 -38t20.5 -40t18.5 -45.5t15.5 -45.5 t15 -48.5t14.5 -46.5l166 -518q39 -124 85.5 -219t73.5 -127l26 -33q4 4 11 12.5t28.5 41t42 71.5t49 107.5t53.5 146.5l166 518q4 13 14.5 46.5t15 48.5t15.5 45.5t18.5 45.5t20.5 40t24 38t27.5 29.5t34 24.5t39 14t45.5 6q16 0 29 -1.5t19 -2.5l5 -2q-6 -9 -12 -20.5 t-13 -28.5t-13 -31.5t-14 -39t-14 -42t-16 -48.5t-16 -49.5t-17.5 -55.5t-17.5 -56l-162 -512q-37 -118 -88 -222.5t-97.5 -169t-87 -112.5t-65.5 -68z" />
<glyph unicode="W" horiz-adv-x="1986" d="M668 -35q-9 5 -24 16.5t-59.5 58t-86 105t-94 163.5t-91.5 229l-170 532q-6 19 -17.5 56t-17.5 55.5t-16 49.5t-16 48.5t-14 42t-14 39t-13 31.5t-13 28.5t-12 20.5q18 6 53 6q24 0 45.5 -6t39 -14t34 -24.5t27.5 -29.5t24 -38t20.5 -40t18.5 -45.5t15.5 -45.5t15 -48.5 t14.5 -46.5l166 -518q39 -124 85.5 -223t73.5 -135l26 -37q4 4 12 12.5t33.5 44.5t52 83.5t66.5 135t79 193.5q-8 35 -20.5 93t-33.5 207t-21 261q0 98 40.5 148t141.5 50q-10 -102 -10 -182q0 -124 17 -249t44.5 -225.5t61 -193t66.5 -159.5t60.5 -117.5t44.5 -76.5l17 -25 q4 5 11 14.5t28 44.5t41.5 76.5t49.5 111.5t54 148l166 518q4 13 14.5 46.5t15 48.5t15.5 45.5t18.5 45.5t20.5 40t24 38t27.5 29.5t34 24.5t39 14t45.5 6q16 0 29 -1.5t18 -2.5l6 -2q-6 -9 -12 -20.5t-13 -28.5t-13 -31.5t-14 -39t-14 -42t-16 -48.5t-16 -49.5t-17.5 -55.5 t-17.5 -56l-170 -532q-29 -90 -64 -170.5t-68 -136.5t-66.5 -103t-61 -76t-49 -49.5t-33.5 -28.5l-12 -8q-8 7 -21.5 19.5t-53.5 58t-78.5 97.5t-88 137t-88.5 176q-33 -95 -78.5 -180.5t-86.5 -139t-77 -93.5t-57 -58z" />
<glyph unicode="X" horiz-adv-x="1146" d="M1143 1438q-30 -45 -82 -147t-99 -194.5t-118.5 -202.5t-143.5 -183q72 -73 143.5 -182t118.5 -201.5t99 -194.5t82 -147q-25 -6 -60 -6q-123 0 -186 116q-14 27 -53.5 100.5t-54.5 101t-48 84t-54.5 87t-52 69.5t-61.5 70q-30 -31 -60.5 -70t-51.5 -68.5t-55 -88 t-47.5 -83.5t-54.5 -102t-54 -100q-63 -116 -187 -116q-16 0 -30.5 1.5t-21.5 2.5l-7 2q30 45 81.5 147t98 194.5t118 201.5t144.5 182q-73 73 -144.5 183t-118 202.5t-98 194.5t-81.5 147q24 6 59 6q124 0 187 -117q9 -18 45.5 -86.5t47 -88.5t40.5 -73.5t46.5 -78 t42.5 -63.5t50 -67t51 -55q26 27 50 55.5t49.5 66t43 64.5t46 77t42 74.5t47 87.5t46.5 87q63 117 186 117q16 0 31 -1.5t22 -2.5z" />
<glyph unicode="Y" horiz-adv-x="1146" d="M659 -20q-7 0 -18.5 0.5t-41 6t-52.5 15.5t-41.5 31.5t-18.5 50.5v532q-81 73 -160 196.5t-130 233.5t-106.5 228t-86.5 166q24 6 59 6q124 0 187 -117q32 -60 98.5 -201t117 -228t107.5 -144q56 57 107 145t116.5 226t100.5 202q63 117 186 117q16 0 31 -1.5t22 -2.5 l7 -2q-31 -48 -87 -166t-107.5 -228t-130.5 -233.5t-159 -196.5v-636z" />
<glyph unicode="Z" horiz-adv-x="1153" d="M999 0h-933q-6 110 28.5 214.5t97 191.5t141 170.5t164 167.5t161 166t137 181.5t88.5 200.5h-774q0 6 0.5 15.5t6 34t15 43t30.5 34t50 15.5h856q-1 -96 -27.5 -191t-71 -176t-102.5 -159t-122.5 -148t-129.5 -136t-126 -129t-110 -121t-82 -118t-42 -115h672 q62 0 106 7.5t57 15.5l13 8q0 -26 -4.5 -53t-15 -55.5t-32 -46t-51.5 -17.5z" />
<glyph unicode="[" horiz-adv-x="569" d="M164 -61v1495h362q0 -5 -0.5 -13.5t-6 -30.5t-15 -39t-30.5 -30.5t-50 -13.5h-98v-1344h98q29 0 50.5 -13t31 -32t14.5 -37.5t6 -31.5v-13h-200q-7 0 -17.5 0.5t-38.5 6.5t-49.5 15.5t-39 30.5t-17.5 50z" />
<glyph unicode="\" horiz-adv-x="641" d="M539 -412l-564 1938q3 1 8.5 2.5t22 4.5t32 4.5t35 0t35 -7.5t28.5 -19.5t18 -33.5l561 -1936q-6 -2 -16.5 -5t-38 -6.5t-49.5 -1t-43.5 17.5t-28.5 42z" />
<glyph unicode="]" horiz-adv-x="569" d="M406 1434v-1495q0 -29 -16.5 -50t-40.5 -30.5t-48 -15.5t-41 -7h-16h-201q0 5 0.5 13.5t5.5 30.5t14.5 39t31 30.5t50.5 13.5h99v1344h-99q-29 0 -50 13t-30.5 31.5t-15 37.5t-5.5 32l-1 13h363z" />
<glyph unicode="^" horiz-adv-x="1118" d="M973 881l-402 401l-356 -356q-26 -23 -49 -23q-25 0 -51.5 19.5t-40.5 39.5l-13 19l410 410q56 56 100 53q45 3 99 -51l356 -357q25 -25 25 -53q0 -24 -19.5 -49.5t-39.5 -39.5z" />
<glyph unicode="_" horiz-adv-x="1116" d="M76 -18h1036q4 -23 4 -50q0 -98 -76 -98h-1036q-4 20 -4 47q0 101 76 101z" />
<glyph unicode="`" horiz-adv-x="1001" d="M516 1374l117 -112q22 -22 20.5 -39t-18.5 -28.5t-37.5 -19t-37.5 -11.5l-17 -3l-164 133q-49 40 -67.5 79t-11 68.5t30.5 55t50.5 41t56.5 25.5q-12 -24 -12 -47q0 -52 90 -142z" />
<glyph unicode="a" horiz-adv-x="1042" d="M752 162v403q-9 -32 -49.5 -52.5t-94 -29.5t-114 -23.5t-111 -32t-84 -57t-33.5 -96.5q0 -74 60 -121t184 -47q67 0 127.5 14t87.5 28zM102 276q0 71 24.5 124.5t65.5 85t94.5 55t110 35.5t113.5 26t104 27t82.5 38t48.5 60q0 86 -52 132t-185 46q-146 0 -233 -56 t-87 -161q-55 78 -55 150q0 67 53 116t136.5 72t185.5 23q193 0 297 -86.5t104 -243.5v-733q-64 26 -135 26q-45 0 -139.5 -18.5t-153.5 -18.5q-73 0 -138 16.5t-120.5 50.5t-88 94t-32.5 140z" />
<glyph unicode="b" horiz-adv-x="1087" d="M965 725v-424q0 -156 -110.5 -241t-319.5 -85q-97 0 -214 34t-178 40v1481q9 0 17.5 -0.5t31 -3.5t39.5 -11t36 -20.5t29.5 -35t10.5 -52.5v-285q0 -62 -5 -108.5t-10 -61.5l-5 -16q3 5 9 12.5t32 27t58.5 34.5t91.5 27t128 12q151 0 255 -88.5t104 -235.5zM307 715v-555 q8 -6 23.5 -14.5t73.5 -22.5t126 -14q153 0 212 53t59 170v362q0 111 -60.5 166t-160.5 55q-106 0 -189.5 -57t-83.5 -143z" />
<glyph unicode="c" horiz-adv-x="1019" d="M885 336q59 -89 53 -156.5t-64 -113t-143.5 -68.5t-185.5 -23q-196 0 -309 87.5t-113 242.5v414q0 155 113 242.5t309 87.5q93 0 171 -23t130 -68.5t54.5 -113t-56.5 -156.5q0 102 -84.5 159.5t-202.5 57.5q-140 0 -205 -54t-65 -163v-352q0 -109 65 -163t205 -54 q141 0 234.5 57t93.5 160z" />
<glyph unicode="d" horiz-adv-x="1087" d="M780 160v555q0 86 -83 143t-189 57q-100 0 -160.5 -55t-60.5 -166v-362q0 -117 58.5 -170t211.5 -53q68 0 124 12.5t77 25.5zM123 301v424q0 147 104 235.5t254 88.5q69 0 127.5 -11.5t92.5 -28t58 -33.5t33 -28l9 -12q-21 47 -21 186v408q9 0 17.5 -0.5t31 -3.5 t39.5 -11t36 -20.5t29.5 -35t10.5 -52.5v-1421q-58 26 -139 26q-39 0 -130 -18.5t-143 -18.5q-195 0 -302 85.5t-107 240.5z" />
<glyph unicode="e" horiz-adv-x="1040" d="M885 336q53 -76 53 -143q0 -69 -57 -119.5t-145 -74.5t-191 -24q-196 0 -309 87.5t-113 242.5v414q0 155 109.5 242.5t304.5 87.5q190 0 289.5 -83.5t99.5 -226.5q0 -135 -100.5 -219t-313.5 -84q-61 0 -126 12.5t-99 36.5v-149q0 -109 65 -163t205 -54q141 0 234.5 57 t93.5 160zM287 688v-72q1 -2 34.5 -10.5t86 -17t92.5 -8.5q141 0 201.5 40t60.5 119q0 176 -225 176q-132 0 -191 -57.5t-59 -169.5z" />
<glyph unicode="f" horiz-adv-x="684" d="M143 88v1180q0 99 64.5 176t163.5 115t211 38q96 0 176 -19t134 -62.5t54 -104.5q0 -67 -55 -125q0 55 -47 94t-115 56.5t-147 17.5q-118 0 -196.5 -57t-78.5 -160v-244h387q0 -6 -1 -15.5t-6.5 -33.5t-15 -43t-30.5 -34t-49 -15h-285v-866q-7 0 -18 0.5t-39 6t-50 15 t-39.5 30.5t-17.5 50z" />
<glyph unicode="g" horiz-adv-x="1017" d="M82 223q0 55 24.5 100.5t71.5 98.5q-65 80 -65 207v116q0 64 20 116t54.5 86.5t81.5 58t98.5 33.5t109.5 10q59 0 154.5 -19.5t140.5 -19.5q78 0 143 32v-413q0 -157 -104 -243.5t-297 -86.5q-80 0 -146 15.5t-92 30.5l-26 15q-17 -76 -17 -108q0 -79 54 -102t192 -23h68 q50 0 84.5 -1.5t81 -7t78 -16.5t65.5 -31t54 -48.5t33 -71t13 -96.5q0 -162 -110.5 -256.5t-331.5 -94.5q-118 0 -210.5 23.5t-149 72.5t-56.5 117q0 69 56 148q0 -108 94 -167.5t266 -59.5q153 0 216 56t63 152q0 38 -13 65t-33 42.5t-54.5 23.5t-68 10.5t-83.5 2.5h-101 q-52 0 -89 2.5t-82 9.5t-75.5 23t-57.5 41t-40.5 64.5t-13.5 92.5zM276 659q0 -115 51.5 -171t186.5 -56t186.5 56t51.5 171v209q-11 6 -31 14t-84 22t-131 14q-132 0 -181 -46.5t-49 -156.5v-56z" />
<glyph unicode="h" horiz-adv-x="1107" d="M307 715v-729q-7 0 -18 0.5t-39 6t-50 15t-39.5 30.5t-17.5 50v1442q10 0 17 -0.5t30 -3t40 -10.5t36.5 -20.5t30 -35.5t10.5 -53v-285q0 -62 -5 -108.5t-10 -61.5l-5 -16q3 5 9 12.5t32 27t58.5 34.5t91.5 27t128 12q151 0 255 -88.5t104 -235.5v-739q-7 0 -18 1 t-39 6.5t-50 15t-39.5 30.5t-17.5 49v606q0 111 -60.5 166t-160.5 55q-106 0 -189.5 -57t-83.5 -143z" />
<glyph unicode="i" horiz-adv-x="450" d="M143 88v950q7 0 18 -0.5t39 -5.5t50 -14.5t39.5 -31t17.5 -50.5v-950q-7 0 -18 0.5t-39 6t-50 15t-39.5 30.5t-17.5 50zM143 1270v135h129q13 0 24 -11.5t11 -25.5v-135h-127q-15 0 -26 11t-11 26z" />
<glyph unicode="j" horiz-adv-x="450" d="M305 936v-1135q0 -122 -52 -206t-138 -84q-62 0 -121 51q52 0 87 52.5t47.5 118t12.5 134.5v1171q7 0 18 -0.5t39 -6t50 -15t39.5 -30.5t17.5 -50zM143 1270v135h129q13 0 24 -11.5t11 -25.5v-135h-127q-15 0 -26 11t-11 26z" />
<glyph unicode="k" horiz-adv-x="989" d="M518 594q84 -19 151.5 -63t108.5 -96.5t75.5 -117.5t53.5 -120.5t41.5 -112t40.5 -84.5q-59 -14 -86 -14q-47 0 -79.5 27t-52 71.5t-38.5 98t-49 109t-73 103t-121 81.5t-183 42v-532q-7 0 -18 0.5t-39 6t-50 15t-39.5 30.5t-17.5 50v1446q7 0 18 -0.5t39 -6t50 -15 t39.5 -30.5t17.5 -50v-781q69 0 121 17t96.5 58t79.5 92.5t80 135.5q44 84 170 84q30 0 61 -8q-18 -26 -53 -88.5t-67 -112.5t-74.5 -104.5t-94.5 -89t-108 -41.5z" />
<glyph unicode="l" horiz-adv-x="450" d="M133 276v1258q9 0 21.5 -1t40 -6.5t48.5 -15t37.5 -30.5t16.5 -49v-1090q0 -69 12.5 -134.5t47.5 -118t87 -52.5q-59 -51 -120 -51q-93 0 -142 82.5t-49 207.5z" />
<glyph unicode="m" horiz-adv-x="1765" d="M1458 88v623q0 200 -248 200q-110 0 -177.5 -47.5t-67.5 -118.5v-759q-7 0 -18 0.5t-39 6t-50 15t-39.5 30.5t-17.5 50v623q0 107 -56.5 153.5t-191.5 46.5q-67 0 -128.5 -11.5t-89.5 -23.5l-28 -12v-878q-7 0 -18 0.5t-39 6t-50 15t-39.5 30.5t-17.5 50v950 q80 -37 117 -37q50 0 156 24t166 24q94 0 181 -28.5t126 -82.5q43 41 132 76t226 35q72 0 137.5 -18.5t119.5 -55t86 -98.5t32 -142v-749q-7 0 -18 1t-39 6.5t-50 15t-39.5 30.5t-17.5 49z" />
<glyph unicode="n" horiz-adv-x="1107" d="M801 88v623q0 99 -58 149.5t-190 50.5q-67 0 -128.5 -10.5t-89.5 -21.5l-28 -11v-882q-7 0 -18 0.5t-39 6t-50 15t-39.5 30.5t-17.5 50v950q60 -32 133 -32q47 0 146 21.5t160 21.5q75 0 139 -14.5t121 -48t90 -96t33 -149.5v-755q-7 0 -18 1t-39 6.5t-50 15t-39.5 30.5 t-17.5 49z" />
<glyph unicode="o" horiz-adv-x="1130" d="M1008 719v-414q0 -159 -110.5 -244.5t-332.5 -85.5q-221 0 -331.5 85.5t-110.5 244.5v414q0 159 110.5 244.5t331.5 85.5q222 0 332.5 -85.5t110.5 -244.5zM844 336v352q0 57 -11.5 96t-41 70.5t-85.5 46t-141 14.5t-140.5 -14.5t-85 -46t-41 -70t-11.5 -96.5v-352 q0 -58 11.5 -96.5t41 -70t85 -46t140.5 -14.5t141 14.5t85.5 46t41 70.5t11.5 96z" />
<glyph unicode="p" horiz-adv-x="1087" d="M143 -383v1421q53 -23 102 -26t84.5 6.5t93 20t112.5 10.5q209 0 319.5 -85t110.5 -241v-424q0 -147 -104 -235.5t-255 -88.5q-69 0 -127.5 11.5t-92.5 28t-57.5 33.5t-32.5 28l-9 12q20 -47 20 -186v-285v-123q-9 0 -17.5 0.5t-31 3.5t-39.5 11t-36 20.5t-29.5 35 t-10.5 52.5zM307 868v-559q0 -86 83.5 -143t189.5 -57q100 0 160.5 55t60.5 166v362q0 117 -59 170t-212 53q-68 0 -124 -11.5t-78 -23.5z" />
<glyph unicode="q" horiz-adv-x="1087" d="M123 299v424q0 156 110.5 241t319.5 85q65 0 150.5 -18.5t121.5 -18.5q61 0 119 26v-1544q-9 0 -17.5 0.5t-31 3.5t-39.5 11t-36 20.5t-29.5 35t-10.5 52.5v285q0 62 5 108.5t11 61.5l5 16q-3 -5 -9.5 -12.5t-32 -27t-58.5 -34.5t-92 -27t-128 -12q-150 0 -254 88.5 t-104 235.5zM780 309v559q-8 5 -23.5 13t-73.5 21t-126 13q-153 0 -211.5 -53t-58.5 -170v-362q0 -111 60.5 -166t160.5 -55q106 0 189 57t83 143z" />
<glyph unicode="r" horiz-adv-x="778" d="M504 903q-48 0 -97.5 -8.5t-74.5 -17.5l-25 -9v-882q-7 0 -18 0.5t-39 6t-50 15t-39.5 30.5t-17.5 50v950q60 -32 125 -32q40 0 124.5 21.5t144.5 21.5q111 0 176 -42.5t65 -123.5q0 -69 -57 -146q0 81 -61 123.5t-156 42.5z" />
<glyph unicode="s" horiz-adv-x="987" d="M82 729q0 155 103 237.5t298 82.5q169 0 274 -49t105 -148q0 -73 -59 -164q0 106 -81 161.5t-239 55.5q-138 0 -187.5 -40t-49.5 -136q0 -43 28.5 -69.5t74.5 -35.5t105.5 -17t121 -12.5t121 -23.5t105.5 -49t74.5 -90t28.5 -145q0 -144 -108 -228t-314 -84 q-112 0 -198.5 20.5t-141.5 67t-55 115.5q0 72 55 158q0 -106 89.5 -161.5t250.5 -55.5q147 0 202.5 46t55.5 132q0 59 -36.5 93.5t-94.5 46.5t-128 18t-140.5 17t-128.5 34.5t-94.5 79.5t-36.5 143z" />
<glyph unicode="t" horiz-adv-x="849" d="M143 305v963q7 0 18 -1t39 -7t50 -16t39.5 -31t17.5 -50v-170h428q0 -6 -1 -15.5t-6.5 -33.5t-15 -43t-30.5 -34t-49 -15h-326v-490q0 -118 48.5 -180.5t164.5 -62.5q111 0 186.5 58.5t75.5 158.5q56 -82 56 -152q0 -98 -99.5 -153.5t-234.5 -55.5q-166 0 -263.5 88 t-97.5 242z" />
<glyph unicode="u" horiz-adv-x="1107" d="M307 936v-623q0 -99 58 -149.5t190 -50.5q67 0 128.5 10.5t89.5 21.5l28 11v882q7 0 18 -0.5t39 -6t50 -15t39.5 -30.5t17.5 -50v-950q-60 32 -134 32q-47 0 -145.5 -21.5t-159.5 -21.5q-75 0 -139 14.5t-121 48t-90 96t-33 149.5v755q7 0 18 -1t39 -6.5t50 -15 t39.5 -30.5t17.5 -49z" />
<glyph unicode="v" horiz-adv-x="1003" d="M942 1038l-41 -399q-10 -95 -37 -184t-61.5 -154t-77 -123t-79.5 -95t-71.5 -66.5t-51 -40.5t-21.5 -13q-5 2 -21.5 13t-51.5 40.5t-71.5 66.5t-79 95t-77.5 123t-62 154t-37 184l-41 399q6 0 17 -0.5t39 -6t50 -15t41.5 -30.5t22.5 -50l41 -342q10 -80 37 -156 t59 -127.5t62.5 -91.5t51.5 -59l20 -19q8 7 21 20t48.5 57.5t64.5 93t57 125.5t38 157l41 342q5 45 47.5 70.5t82.5 28.5z" />
<glyph unicode="w" horiz-adv-x="1601" d="M61 1038q6 0 17 -0.5t39 -6t50 -15t41.5 -30.5t22.5 -50l41 -342q10 -80 37 -156t59 -127.5t62.5 -91.5t51.5 -59l20 -19q7 4 19 11.5t45 33t62 54t61.5 74.5t51.5 94q-49 142 -49 340q0 47 2.5 80t13 70.5t29 60.5t53 40t82.5 19q-20 -134 -20 -258q0 -98 13.5 -184.5 t35.5 -147.5t48.5 -111.5t53 -81.5t48.5 -53t35 -30l14 -9v-2q8 7 21 20t48.5 57.5t64.5 93t57 125.5t38 157l41 342q5 45 47.5 70.5t82.5 28.5l40 3l-41 -399q-10 -95 -37.5 -184t-63 -154.5t-77 -123t-80.5 -96t-70.5 -66t-50.5 -39.5l-20 -13q-7 3 -19 9.5t-47 30.5 t-68 53.5t-75.5 80t-75.5 107.5q-33 -53 -77.5 -101.5t-84.5 -80t-75 -55t-56 -33.5l-20 -11q-7 4 -20 12.5t-50.5 39.5t-72.5 67t-79.5 95t-78.5 123.5t-61.5 154t-37.5 184.5z" />
<glyph unicode="x" horiz-adv-x="917" d="M655 84l-196 330l-197 -330q-59 -98 -178 -98l-64 6q17 22 82 129l144 241q22 37 46.5 74.5t37.5 56.5l14 19q-49 66 -98 150l-144 241q-65 107 -82 129q35 6 64 6q115 0 174 -98l201 -328l200 328q59 98 175 98l63 -6q-17 -22 -82 -129l-143 -241q-22 -37 -46.5 -74.5 t-38.5 -56.5l-14 -19q50 -66 99 -150l143 -241q65 -107 82 -129q-34 -6 -63 -6q-120 0 -179 98z" />
<glyph unicode="y" horiz-adv-x="1024" d="M82 1038q6 0 17 -0.5t39 -6t50 -15t41.5 -30.5t22.5 -50l41 -342q8 -68 34.5 -133.5t59 -110t63 -79.5t51.5 -51l21 -17q8 6 22 17.5t50 50t65 80.5t57 108.5t36 134.5l41 342q5 45 47.5 70.5t82.5 28.5l40 3l-41 -399q-20 -186 -107 -324.5t-197 -222.5l-79 -61 q-64 -50 -98.5 -80.5t-72.5 -73.5t-54.5 -87t-16.5 -95q0 -81 47 -184q-22 -11 -45 -11q-27 0 -52.5 8t-53.5 28.5t-45 64t-17 104.5q0 65 22.5 124.5t65 111t88.5 92.5t107 84q-92 45 -182 191.5t-109 330.5z" />
<glyph unicode="z" horiz-adv-x="911" d="M655 883h-563q0 6 0.5 15.5t6.5 33.5t15.5 43t30.5 34t50 15h653q-7 -24 -16.5 -75t-16.5 -75q-27 -92 -93.5 -186t-142.5 -168.5t-149.5 -142t-125 -129t-58.5 -107.5h614q0 -6 -0.5 -15.5t-6 -33.5t-15 -43t-30.5 -34t-50 -15h-686q-4 18 -4 57q0 67 25.5 131t69 118 t96.5 107t112 107t112 107.5t100 120.5t72 135z" />
<glyph unicode="{" horiz-adv-x="524" d="M41 557q5 2 13.5 6t29.5 20.5t37 37t29.5 57.5t13.5 80v553q0 76 29 128t74 71t103 2t113 -72q-79 0 -113 -52.5t-34 -150.5v-489q0 -40 -12.5 -74.5t-31 -55.5t-36.5 -35.5t-30 -22.5l-13 -7q5 -2 13.5 -6t29.5 -20t37 -36t29.5 -54.5t13.5 -74.5v-489q0 -98 34 -150.5 t113 -52.5q-55 -55 -113 -72t-103 2t-74 71t-29 128v553q0 31 -7 59.5t-17.5 48.5t-23.5 36.5t-26.5 27.5t-24 18.5t-17.5 11.5z" />
<glyph unicode="|" horiz-adv-x="491" d="M164 -393v1929q7 0 18 -0.5t39 -6t50 -15t39.5 -30.5t17.5 -50v-1930q-7 0 -18 0.5t-39 6.5t-50 15.5t-39.5 30.5t-17.5 50z" />
<glyph unicode="}" horiz-adv-x="524" d="M483 557l-7 -3q-7 -4 -17.5 -11.5t-23.5 -18.5t-26.5 -27.5t-24 -36.5t-17.5 -48.5t-7 -59.5v-553q0 -76 -29 -128t-74 -71t-103 -2t-113 72q79 0 113 52.5t34 150.5v489q0 40 12.5 74.5t31 55t36.5 35t30 20.5l13 6l-13 7q-12 8 -30 22.5t-36.5 35.5t-31 55.5 t-12.5 74.5v489q0 98 -34 150.5t-113 52.5q55 55 113 72t103 -2t74 -71t29 -128v-553q0 -43 12.5 -79.5t31 -58t36.5 -36.5t30 -21z" />
<glyph unicode="~" horiz-adv-x="1300" d="M90 639q-8 46 -8 70q0 58 44.5 95.5t143.5 37.5q92 0 381.5 -53.5t388.5 -53.5q127 0 170 60q1 -9 5 -31t4 -35q0 -61 -43.5 -100t-145.5 -39q-93 0 -382 53t-386 53q-130 0 -172 -57z" />
<glyph unicode="&#xa1;" horiz-adv-x="532" d="M225 82v1001q7 0 18 -0.5t39 -5.5t50 -14.5t39.5 -31t17.5 -50.5v-1001q-7 0 -18 0.5t-39 6t-50 15t-39.5 30.5t-17.5 50zM225 1298v136h129q13 0 24 -11.5t11 -25.5v-135h-127q-15 0 -26 10.5t-11 25.5z" />
<glyph unicode="&#xa2;" horiz-adv-x="1040" d="M485 -31v13q-170 14 -266 99.5t-96 227.5v410q0 149 93 234t269 94v110q5 0 13.5 -0.5t29.5 -6t37 -15t29.5 -30.5t13.5 -50v-13q85 -9 150 -36t104.5 -70t36.5 -107.5t-55 -140.5q0 89 -63 143t-173 68v-774q125 11 201 67t76 148q53 -82 52.5 -145.5t-47.5 -108.5 t-119.5 -70.5t-162.5 -31.5v-117q-5 0 -13.5 0.5t-29.5 6t-37 15t-29.5 30.5t-13.5 50zM287 340q0 -98 46 -151.5t152 -63.5v778q-114 -6 -156 -57t-42 -158v-348z" />
<glyph unicode="&#xa3;" horiz-adv-x="1253" d="M918 1221q-4 92 -77.5 134t-230.5 42q-121 0 -185.5 -57t-64.5 -164v-261h379q0 -6 -1 -15.5t-6.5 -33.5t-15 -43t-30.5 -34t-49 -15h-277v-498l-10 -133q23 -7 62 -17.5t143 -28t188 -17.5q58 0 120 16.5t116.5 47.5t89.5 82.5t35 113.5q45 -89 45 -166 q0 -63 -38.5 -113t-99 -77.5t-125.5 -41.5t-128 -14q-94 0 -187 13t-142 25t-143 40.5t-122 36.5q24 100 24 176v987q0 152 119 241t303 89q172 0 267.5 -45t95.5 -129q0 -66 -55 -141z" />
<glyph unicode="&#xa5;" horiz-adv-x="1253" d="M322 680h141q-68 78 -136.5 194.5t-113.5 215t-93.5 202t-78.5 148.5q24 6 59 6q124 0 187 -117q32 -60 98.5 -201t117 -228t107.5 -144q56 57 107 145t116.5 226t100.5 202q63 117 186 117q16 0 31 -1.5t22 -2.5l7 -2q-35 -53 -103 -201.5t-150.5 -304t-168.5 -254.5 h211q16 -46 -2.5 -91.5t-69.5 -45.5h-201v-189h273q16 -46 -2.5 -91.5t-69.5 -45.5h-201v-237q-7 0 -18.5 0.5t-41 6t-52.5 15.5t-41.5 31.5t-18.5 50.5v133h-274q-14 45 3.5 91t68.5 46h202v189h-274q-14 45 3.5 91t68.5 46z" />
<glyph unicode="&#xa6;" horiz-adv-x="491" d="M164 784v752q7 0 18 -0.5t39 -6t50 -15t39.5 -30.5t17.5 -50v-752q-7 0 -18 0.5t-39 6t-50 15t-39.5 30.5t-17.5 50zM164 -393v751q7 0 18 -0.5t39 -6t50 -15t39.5 -30.5t17.5 -50v-752q-7 0 -18 0.5t-39 6.5t-50 15.5t-39.5 30.5t-17.5 50z" />
<glyph unicode="&#xa7;" horiz-adv-x="1222" d="M154 -229q0 76 34 143q56 -248 422 -248q73 0 127 8.5t88.5 27t56.5 39.5t32.5 53.5t14 61.5t3.5 70q0 59 -26 100.5t-70 65.5t-101.5 40.5t-120.5 29.5t-126 27.5t-120.5 40t-101.5 61.5t-70 97t-26 142q0 61 26.5 125t69.5 107q-6 -44 -6 -78q0 -90 28.5 -153t77 -97.5 t111 -57t132 -36t139 -28.5t132 -41.5t111 -67.5t77 -114.5t28.5 -174.5q0 -391 -486 -391q-212 0 -334 61t-122 187zM1075 1286q0 -68 -35 -139q-59 248 -419 248q-62 0 -111 -7t-82.5 -19t-57.5 -31.5t-37.5 -39.5t-21.5 -49t-10 -54t-2 -60q0 -59 26 -100.5t70 -65.5 t101.5 -40t120.5 -29t126 -28t120.5 -41.5t101.5 -64t70 -101.5t26 -149q0 -127 -96 -217q6 44 6 78q0 78 -25.5 136.5t-53 91t-95.5 60.5t-101 36.5t-122 26.5q-87 18 -131.5 29.5t-114 42.5t-104 71t-62 110.5t-27.5 165.5q0 389 486 389q212 0 333 -61.5t121 -188.5z" />
<glyph unicode="&#xa8;" horiz-adv-x="1001" d="M322 1270v135h129q13 0 23.5 -11.5t10.5 -25.5v-135h-127q-15 0 -25.5 11t-10.5 26zM623 1270v135h129q13 0 23.5 -11.5t10.5 -25.5v-135h-127q-15 0 -25.5 11t-10.5 26z" />
<glyph unicode="&#xa9;" horiz-adv-x="1667" d="M834 1055q-47 0 -72.5 -1.5t-58 -10.5t-48.5 -26.5t-27.5 -50.5t-11.5 -81v-307q0 -35 6 -62t14.5 -45.5t26 -31t32 -19t41 -10t46 -4t52.5 -0.5q57 0 100.5 4.5t89.5 16.5t75.5 38.5t39.5 66.5q32 -57 32 -94q0 -43 -30 -74.5t-81 -48t-106.5 -23.5t-119.5 -7 q-59 0 -109.5 8t-98 27.5t-80.5 50t-53 78.5t-20 110v342q0 77 29.5 132t82 85t114 43t135.5 13q64 0 119.5 -7t106.5 -23.5t81 -48t30 -75.5q0 -37 -32 -94q-19 68 -105.5 98.5t-199.5 30.5zM1384 516v418q0 100 -25.5 172.5t-87 129t-171.5 84.5t-271 28 q-158 0 -266.5 -28t-168.5 -84.5t-85.5 -129t-25.5 -172.5v-418q0 -100 25.5 -172.5t85.5 -129t168.5 -84.5t266.5 -28q161 0 271 28t171.5 84.5t87 129t25.5 172.5zM143 449v552q0 219 186.5 344t504.5 125t504 -125t186 -344v-552q0 -219 -186 -344t-504 -125t-504.5 125 t-186.5 344z" />
<glyph unicode="&#xaa;" horiz-adv-x="915" d="M629 786v291q-20 -25 -63.5 -42t-88.5 -27.5t-88 -24t-70.5 -40t-27.5 -66.5q0 -117 170 -117q16 0 32.5 1t30 2.5t26.5 3.5t23.5 4t19.5 4t16 4t11.5 3.5t6.5 2.5zM143 874q0 65 30.5 110.5t76.5 67t104 39t110.5 28t97.5 33t63 54.5q-2 65 -38.5 100t-127.5 35 q-226 0 -226 -174q-65 65 -65 129q0 75 84.5 116.5t206.5 41.5q151 0 232 -65t81 -183v-553q-58 19 -121 19q-31 0 -99.5 -10.5t-111.5 -10.5q-57 0 -108 12t-94.5 37t-69 69.5t-25.5 104.5z" />
<glyph unicode="&#xab;" horiz-adv-x="1282" d="M287 512l401 -401q-2 -3 -5.5 -8.5t-14.5 -19t-22.5 -23.5t-28 -18.5t-31.5 -8.5q-30 0 -54 24l-356 357q-53 53 -53 98t55 100l410 410q9 -5 22 -14.5t34.5 -37t21.5 -52.5t-25 -50zM717 512l401 -401q-2 -3 -5.5 -8.5t-14.5 -19t-22.5 -23.5t-28 -18.5t-31.5 -8.5 q-29 0 -53 24l-357 357q-53 53 -53 98t55 100l410 410q9 -5 22 -14.5t34.5 -37t21.5 -52.5t-25 -50z" />
<glyph unicode="&#xac;" horiz-adv-x="1337" d="M1026 78v567l-883 2q-33 0 -53 17q-17 18 -21.5 50.5t-0.5 55.5l4 23h960q75 0 111 -31q31 -34 31 -109v-503q0 -35 -19 -54q-18 -18 -50.5 -22.5t-55.5 0.5z" />
<glyph unicode="&#xad;" horiz-adv-x="1017" d="M221 598h647q1 -6 3 -16t2 -35t-5.5 -44.5t-23.5 -35.5t-47 -16h-647q-1 6 -2.5 16t-1.5 35t5.5 44.5t23 35.5t46.5 16z" />
<glyph unicode="&#xae;" horiz-adv-x="1026" d="M328 795v473h149q95 0 155 -39t60 -129q0 -57 -28 -100.5t-78 -55.5q93 -53 123 -192q-43 -11 -66 -11q-47 0 -59 37q-38 119 -150 135v-174q-4 0 -11.5 0.5t-25.5 3.5t-32 8.5t-25.5 17t-11.5 26.5zM477 1184h-43v-187h43q48 0 77.5 23.5t29.5 73.5q0 54 -26.5 72 t-80.5 18zM821 879v241q0 113 -70 174.5t-243 61.5q-169 0 -237 -61.5t-68 -174.5v-241q0 -54 14.5 -94.5t48 -72.5t94 -48.5t148.5 -16.5q174 0 243.5 60t69.5 172zM104 846v313q0 131 110.5 206t297.5 75q189 0 299.5 -75t110.5 -206v-313q0 -131 -111 -207t-299 -76 q-187 0 -297.5 76t-110.5 207z" />
<glyph unicode="&#xaf;" horiz-adv-x="778" d="M199 1366h473l2.5 -15t1.5 -33t-5.5 -42.5t-23.5 -33.5t-47 -15h-473l-2.5 15t-1 33t6 42.5t23 33.5t46.5 15z" />
<glyph unicode="&#xb0;" horiz-adv-x="735" d="M633 1362v-217q0 -83 -71 -127.5t-195 -44.5q-123 0 -194 44.5t-71 127.5v217q0 79 72.5 126.5t192.5 47.5q122 0 194 -47.5t72 -126.5zM514 1192v125q0 57 -31.5 86t-115.5 29q-86 0 -116 -28.5t-30 -86.5v-125q0 -60 29.5 -87.5t116.5 -27.5q85 0 116 27.5t31 87.5z " />
<glyph unicode="&#xb1;" horiz-adv-x="1019" d="M432 383v168h-280q-1 6 -2.5 16t-1.5 35t5.5 44.5t23 35.5t46.5 16h209v271q6 1 16 2.5t35.5 1.5t45 -5.5t35.5 -23.5t16 -47v-199h290q1 -6 3 -16t2 -35t-5.5 -44.5t-23.5 -35.5t-47 -16h-219v-240q-6 -1 -16 -2.5t-35.5 -1t-45 6t-35.5 23t-16 46.5zM258 201h586 l2.5 -15t1.5 -33t-5.5 -42t-23.5 -33t-47 -15h-586l-2.5 15t-1 33t6 42t23 33t46.5 15z" />
<glyph unicode="&#xb2;" horiz-adv-x="790" d="M123 700v103q0 47 19 86t55.5 69t66.5 48.5t76 40.5q35 17 51.5 25t43.5 25t39.5 31t23 35t10.5 45v15q0 49 -32.5 79.5t-94.5 30.5q-76 0 -132.5 -30.5t-72.5 -102.5q-43 48 -43 100q0 45 38 77t93 46.5t117 14.5q115 0 186.5 -54t71.5 -143v-39q0 -41 -14 -76 t-33 -58.5t-51 -46.5t-57 -35.5t-62 -29.5q-94 -45 -122 -68q-42 -37 -46 -83h297q28 0 54 4t38 8l12 4q0 -5 -0.5 -13t-4 -29t-10 -37t-21.5 -29t-35 -13h-461z" />
<glyph unicode="&#xb3;" horiz-adv-x="786" d="M649 918v-31q0 -88 -73.5 -143.5t-194.5 -55.5q-67 0 -123.5 13.5t-95.5 46t-39 79.5q0 18 10.5 47t32.5 54q23 -133 215 -133q68 0 102.5 29.5t34.5 78.5q0 108 -96 117q-13 1 -21 3.5t-20 9.5t-18.5 24.5t-6.5 44.5v18h33q64 0 91.5 26.5t27.5 78.5q0 49 -32 77.5 t-95 28.5q-183 0 -205 -133q-22 25 -32.5 53.5t-10.5 46.5q0 66 75 103t173 37q114 0 186 -54.5t72 -142.5v-24q0 -45 -18.5 -84t-53.5 -62q39 -24 60.5 -65.5t21.5 -87.5z" />
<glyph unicode="&#xb4;" horiz-adv-x="1001" d="M311 1262l117 112q90 90 90 142q0 23 -12 47q29 -10 56.5 -25.5t50.5 -41t30.5 -55t-11 -68.5t-67.5 -79l-164 -133l-49 13q-99 33 -41 88z" />
<glyph unicode="&#xb6;" horiz-adv-x="1228" d="M938 1296h-152q9 -36 9 -110v-1391q0 -123 -45 -207t-125 -84q-61 0 -121 52q52 0 87 52.5t47.5 118t12.5 134.5v430q0 29 2 53.5t4 34.5l2 10q-60 -24 -141 -24q-154 0 -265.5 91.5t-111.5 233.5v410q0 156 104 243.5t298 90.5h329q50 0 100.5 7.5t98 24t77.5 46.5 t30 69q51 -59 51 -121q0 -79 -83 -121.5t-208 -42.5zM1047 1049v-1192q0 -54 -3 -90.5t-14.5 -77.5t-32.5 -66t-58.5 -43.5t-90.5 -23.5q2 1 6 4.5t13.5 23.5t16.5 50t13 90t6 137v1358q6 -2 15.5 -6t34.5 -18.5t44 -32.5t34.5 -48.5t15.5 -64.5z" />
<glyph unicode="&#xb7;" horiz-adv-x="409" d="M117 506v143h139q14 0 25.5 -12t11.5 -27v-143h-137q-15 0 -27 12t-12 27z" />
<glyph unicode="&#xb8;" horiz-adv-x="1241" d="M469 -225q2 16 10 45l72 252q32 0 62.5 -20.5t23.5 -53.5l-19 -102h5q92 0 153.5 -51t61.5 -142q0 -85 -62.5 -134.5t-152.5 -49.5q-65 0 -109.5 34.5t-44.5 86.5q52 -23 106 -23q53 0 89 22t36 70q0 46 -36.5 67t-88.5 21q-18 0 -44.5 -5.5t-44.5 -11.5z" />
<glyph unicode="&#xb9;" horiz-adv-x="622" d="M219 1427q44 0 84.5 4.5t58.5 8.5l19 4v-643h137q4 -15 4 -33q0 -66 -57 -66h-356q-3 13 -3 27q0 72 60 72h84v518h-23q-46 0 -68.5 -19t-37.5 -53q-39 59 -39 88q0 46 36.5 69t100.5 23z" />
<glyph unicode="&#xba;" horiz-adv-x="970" d="M827 1206v-307q0 -119 -86 -183.5t-256 -64.5q-171 0 -256.5 64.5t-85.5 183.5v307q0 119 85.5 183.5t256.5 64.5q170 0 256 -64.5t86 -183.5zM680 922v262q0 86 -40 126t-155 40t-155.5 -40t-40.5 -126v-262q0 -86 40.5 -126t155.5 -40t155 40t40 126z" />
<glyph unicode="&#xbb;" horiz-adv-x="1282" d="M594 111l401 401l-354 356q-25 25 -25 50t19.5 51t38.5 39l20 14l410 -410q55 -55 55 -100t-53 -98l-356 -357q-24 -24 -54 -24q-24 0 -49.5 19.5t-38.5 39.5zM164 111l401 401l-354 356q-25 25 -25 50t19.5 51t38.5 39l20 14l410 -410q55 -55 55 -100t-53 -98l-357 -357 q-24 -24 -53 -24q-24 0 -49.5 19.5t-38.5 39.5z" />
<glyph unicode="&#xbc;" horiz-adv-x="1404" d="M784 215l-8 8q3 64 52.5 155t113 169.5t113 133t67.5 69.5q5 0 13 -0.5t29 -4t37 -9.5t29 -19t13 -31v-373h76q0 -4 -0.5 -10.5t-4.5 -23.5t-10.5 -30t-21.5 -23.5t-35 -10.5h-4v-213q-9 0 -24.5 2t-42.5 7.5t-45.5 20t-18.5 36.5v147h-328zM1112 313v260 q-131 -151 -182 -260h182zM219 1427q44 0 84.5 4.5t58.5 8.5l19 4v-643h137q4 -15 4 -33q0 -66 -57 -66h-356q-3 13 -3 27q0 72 60 72h84v518h-23q-46 0 -68.5 -19t-37.5 -53q-39 59 -39 88q0 46 36.5 69t100.5 23zM360 401l725 727q3 -3 8.5 -9t16.5 -23t16.5 -33t3 -35.5 t-17.5 -34.5l-725 -725q-3 3 -8 9t-16 22.5t-16.5 32t-3.5 35t17 34.5z" />
<glyph unicode="&#xbd;" horiz-adv-x="1536" d="M219 1427q44 0 84.5 4.5t58.5 8.5l19 4v-643h137q4 -15 4 -33q0 -66 -57 -66h-356q-3 13 -3 27q0 72 60 72h84v518h-23q-46 0 -68.5 -19t-37.5 -53q-39 59 -39 88q0 46 36.5 69t100.5 23zM360 401l725 727q3 -3 8.5 -9t16.5 -23t16.5 -33t3 -35.5t-17.5 -34.5l-725 -725 q-3 3 -8 9t-16 22.5t-16.5 32t-3.5 35t17 34.5zM922 -10v102q0 47 19 86t55.5 69t66.5 48.5t76 40.5q43 20 64.5 32t50 32.5t41 44.5t12.5 53v14q0 50 -32.5 80.5t-94.5 30.5q-76 0 -132.5 -31t-72.5 -103q-43 48 -43 101q0 45 38 77t92.5 46t117.5 14q115 0 186.5 -54 t71.5 -143v-38q0 -41 -14 -76t-33 -58.5t-51 -46.5t-57 -35.5t-62 -29.5q-37 -18 -49.5 -24t-41.5 -23t-40.5 -29.5t-23 -32.5t-13.5 -43h297q28 0 54 4t38 8l12 5q0 -5 -0.5 -13t-4.5 -29t-10.5 -37t-21.5 -29t-35 -13h-460z" />
<glyph unicode="&#xbe;" horiz-adv-x="1445" d="M827 215l-8 8q3 64 52.5 155t113 169.5t113 133t67.5 69.5q5 0 13 -0.5t29 -4t37 -9.5t29 -19t13 -31v-373h76q0 -4 -0.5 -10.5t-4.5 -23.5t-10.5 -30t-21.5 -23.5t-35 -10.5h-4v-213q-9 0 -24.5 2t-42.5 7.5t-45.5 20t-18.5 36.5v147h-328zM1155 313v260 q-131 -151 -182 -260h182zM422 401l725 727q3 -3 8.5 -9t16.5 -23t16.5 -33t3 -35.5t-17.5 -34.5l-725 -725q-3 3 -8 9t-16 22.5t-16.5 32t-3.5 35t17 34.5zM649 918v-31q0 -88 -73.5 -143.5t-194.5 -55.5q-67 0 -123.5 13.5t-95.5 46t-39 79.5q0 18 10.5 47t32.5 54 q23 -133 215 -133q68 0 102.5 29.5t34.5 78.5q0 108 -96 117q-13 1 -21 3.5t-20 9.5t-18.5 24.5t-6.5 44.5v18h33q64 0 91.5 26.5t27.5 78.5q0 49 -32 77.5t-95 28.5q-183 0 -205 -133q-22 25 -32.5 53.5t-10.5 46.5q0 66 75 103t173 37q114 0 186 -54.5t72 -142.5v-24 q0 -45 -18.5 -84t-53.5 -62q39 -24 60.5 -65.5t21.5 -87.5z" />
<glyph unicode="&#xbf;" horiz-adv-x="1083" d="M565 127q148 0 234 52.5t86 156.5q59 -89 56 -156.5t-57 -113t-136.5 -68.5t-182.5 -23q-217 0 -350 92.5t-133 258.5v51q0 70 26 127.5t67.5 97t92 74.5t100.5 67.5t91.5 67t67.5 82t26 104.5v99q6 0 16.5 -0.5t37.5 -6.5t47.5 -16.5t37.5 -32.5t17 -53v-41 q0 -59 -25 -109t-65 -86.5t-88.5 -70t-97.5 -66t-89 -67.5t-65 -82.5t-25 -102.5q0 -110 78.5 -172.5t232.5 -62.5zM549 1298v136h129q13 0 24 -11.5t11 -25.5v-135h-127q-15 0 -26 10.5t-11 25.5z" />
<glyph unicode="&#xc0;" horiz-adv-x="1284" d="M643 1466l11 -8q11 -9 32 -29t47 -49t58.5 -75.5t64.5 -103t66.5 -136.5t62.5 -170l166 -533q95 -313 133 -370q-18 -6 -53 -6q-32 0 -59.5 10t-47.5 24t-39.5 41.5t-31 47.5t-26 59t-21 60t-19.5 64q-2 7 -3.5 11t-3 10t-3.5 11l-41 133h-590l-39 -133 q-43 -148 -69 -200q-66 -138 -185 -138q-16 0 -29 1.5t-18 2.5l-6 2q33 52 133 370l166 533q22 71 48 136t51 114.5t51.5 93.5t50 75.5t46 58t40 43t30.5 28t20 16.5zM461 842l-72 -244h504l-72 244q-23 78 -50 147.5t-49 112.5t-41 75.5t-29 46.5l-9 13q-11 -13 -30 -40 t-67.5 -129t-84.5 -226zM612 1751l117 -112q22 -22 20.5 -39t-18.5 -28.5t-37.5 -19t-37.5 -10.5l-17 -4l-164 133q-49 40 -67.5 79t-11 68.5t30.5 55t50.5 41t56.5 25.5q-12 -24 -12 -47q0 -52 90 -142z" />
<glyph unicode="&#xc1;" horiz-adv-x="1284" d="M643 1466l11 -8q11 -9 32 -29t47 -49t58.5 -75.5t64.5 -103t66.5 -136.5t62.5 -170l166 -533q95 -313 133 -370q-18 -6 -53 -6q-32 0 -59.5 10t-47.5 24t-39.5 41.5t-31 47.5t-26 59t-21 60t-19.5 64q-2 7 -3.5 11t-3 10t-3.5 11l-41 133h-590l-39 -133 q-43 -148 -69 -200q-66 -138 -185 -138q-16 0 -29 1.5t-18 2.5l-6 2q33 52 133 370l166 533q22 71 48 136t51 114.5t51.5 93.5t50 75.5t46 58t40 43t30.5 28t20 16.5zM461 842l-72 -244h504l-72 244q-23 78 -50 147.5t-49 112.5t-41 75.5t-29 46.5l-9 13q-11 -13 -30 -40 t-67.5 -129t-84.5 -226zM561 1638l117 113q90 90 90 141q0 23 -12 47q29 -10 56 -25.5t50.5 -41t31 -54.5t-11 -68t-67.5 -79l-164 -133l-48 12q-97 34 -42 88z" />
<glyph unicode="&#xc2;" horiz-adv-x="1284" d="M643 1466l11 -8q11 -9 32 -29t47 -49t58.5 -75.5t64.5 -103t66.5 -136.5t62.5 -170l166 -533q95 -313 133 -370q-18 -6 -53 -6q-32 0 -59.5 10t-47.5 24t-39.5 41.5t-31 47.5t-26 59t-21 60t-19.5 64q-2 7 -3.5 11t-3 10t-3.5 11l-41 133h-590l-39 -133 q-43 -148 -69 -200q-66 -138 -185 -138q-16 0 -29 1.5t-18 2.5l-6 2q33 52 133 370l166 533q22 71 48 136t51 114.5t51.5 93.5t50 75.5t46 58t40 43t30.5 28t20 16.5zM461 842l-72 -244h504l-72 244q-23 78 -50 147.5t-49 112.5t-41 75.5t-29 46.5l-9 13q-11 -13 -30 -40 t-67.5 -129t-84.5 -226zM645 1788l-65 -59q-90 -83 -90 -142q0 -23 12 -47q-28 10 -54.5 26t-47 41.5t-25.5 54.5t17 66.5t73 75.5l180 134l181 -134q51 -38 73 -75.5t17 -66.5t-25.5 -54.5t-47 -41.5t-54.5 -26q12 24 12 47q0 59 -90 142z" />
<glyph unicode="&#xc3;" horiz-adv-x="1284" d="M643 1466l11 -8q11 -9 32 -29t47 -49t58.5 -75.5t64.5 -103t66.5 -136.5t62.5 -170l166 -533q95 -313 133 -370q-18 -6 -53 -6q-32 0 -59.5 10t-47.5 24t-39.5 41.5t-31 47.5t-26 59t-21 60t-19.5 64q-2 7 -3.5 11t-3 10t-3.5 11l-41 133h-590l-39 -133 q-43 -148 -69 -200q-66 -138 -185 -138q-16 0 -29 1.5t-18 2.5l-6 2q33 52 133 370l166 533q22 71 48 136t51 114.5t51.5 93.5t50 75.5t46 58t40 43t30.5 28t20 16.5zM461 842l-72 -244h504l-72 244q-23 78 -50 147.5t-49 112.5t-41 75.5t-29 46.5l-9 13q-11 -13 -30 -40 t-67.5 -129t-84.5 -226zM369 1599q-8 44 -6.5 86.5t32 73.5t86.5 31q54 0 164 -47t172 -47q36 0 58.5 11.5t42.5 41.5q8 -31 6 -65.5t-10.5 -62.5t-36.5 -46.5t-72 -18.5q-56 0 -165 47.5t-169 47.5q-39 0 -60.5 -12t-41.5 -40z" />
<glyph unicode="&#xc4;" horiz-adv-x="1284" d="M643 1466l11 -8q11 -9 32 -29t47 -49t58.5 -75.5t64.5 -103t66.5 -136.5t62.5 -170l166 -533q95 -313 133 -370q-18 -6 -53 -6q-32 0 -59.5 10t-47.5 24t-39.5 41.5t-31 47.5t-26 59t-21 60t-19.5 64q-2 7 -3.5 11t-3 10t-3.5 11l-41 133h-590l-39 -133 q-43 -148 -69 -200q-66 -138 -185 -138q-16 0 -29 1.5t-18 2.5l-6 2q33 52 133 370l166 533q22 71 48 136t51 114.5t51.5 93.5t50 75.5t46 58t40 43t30.5 28t20 16.5zM461 842l-72 -244h504l-72 244q-23 78 -50 147.5t-49 112.5t-41 75.5t-29 46.5l-9 13q-11 -13 -30 -40 t-67.5 -129t-84.5 -226zM414 1647v135h129q13 0 23.5 -11.5t10.5 -25.5v-135h-127q-15 0 -25.5 11t-10.5 26zM715 1647v135h129q13 0 23.5 -11.5t10.5 -25.5v-135h-127q-15 0 -25.5 11t-10.5 26z" />
<glyph unicode="&#xc5;" horiz-adv-x="1284" d="M643 1466l11 -8q11 -9 32 -29t47 -49t58.5 -75.5t64.5 -103t66.5 -136.5t62.5 -170l166 -533q95 -313 133 -370q-18 -6 -53 -6q-32 0 -59.5 10t-47.5 24t-39.5 41.5t-31 47.5t-26 59t-21 60t-19.5 64q-2 7 -3.5 11t-3 10t-3.5 11l-41 133h-590l-39 -133 q-43 -148 -69 -200q-66 -138 -185 -138q-16 0 -29 1.5t-18 2.5l-6 2q33 52 133 370l166 533q22 71 48 136t51 114.5t51.5 93.5t50 75.5t46 58t40 43t30.5 28t20 16.5zM461 842l-72 -244h504l-72 244q-23 78 -50 147.5t-49 112.5t-41 75.5t-29 46.5l-9 13q-11 -13 -30 -40 t-67.5 -129t-84.5 -226zM815 1778v-140q0 -53 -46 -81.5t-124 -28.5t-124 28.5t-46 81.5v140q0 52 46.5 82t123.5 30t123.5 -30t46.5 -82zM735 1673v72q0 38 -18.5 56t-71.5 18q-55 0 -72.5 -18t-17.5 -56v-72q0 -39 17 -56.5t73 -17.5q54 0 72 17.5t18 56.5z" />
<glyph unicode="&#xc6;" horiz-adv-x="1611" d="M891 1296v-440h373q62 0 106 8t57 16l13 7q0 -28 -5.5 -53.5t-19.5 -54.5t-44.5 -46.5t-74.5 -17.5h-405v-578h629q0 -10 -2.5 -26t-11 -44.5t-32 -47.5t-57.5 -19h-526q-7 0 -18.5 0.5t-41 6t-52.5 15t-41.5 30.5t-18.5 50v355h-373l-39 -133q-43 -148 -69 -200 q-66 -138 -185 -138q-16 0 -29 1.5t-18 2.5l-6 2q33 52 133 370l166 533q67 218 161 350.5t187 188.5h873q0 -6 -0.5 -15t-6.5 -33t-15.5 -42t-30.5 -33t-50 -15h-526zM719 598v692q-76 -49 -138 -150.5t-120 -297.5l-72 -244h330z" />
<glyph unicode="&#xc7;" horiz-adv-x="1372" d="M606 -225q2 16 10 45l46 157q-107 7 -197.5 36.5t-164 84t-115.5 144.5t-42 207v536q0 102 32.5 183.5t87 134.5t130.5 89t159 51t177 15q75 0 145 -8t141 -25t122 -48t82.5 -74t28.5 -106t-44 -140q0 59 -44 108t-114.5 79t-153 46.5t-163.5 16.5q-414 0 -414 -351v-477 q0 -97 31.5 -167t89.5 -109.5t130 -57.5t163 -18q66 0 130.5 8t127.5 27t110.5 47t77 71.5t29.5 96.5q34 -63 41.5 -117.5t-8 -94.5t-50 -72t-80.5 -53t-103.5 -35.5t-115 -21t-118.5 -8.5l-14 -79h4q92 0 153.5 -51t61.5 -142q0 -85 -62.5 -134.5t-152.5 -49.5 q-65 0 -109.5 34.5t-44.5 86.5q52 -23 107 -23q53 0 89 22t36 70q0 46 -36.5 67t-88.5 21q-18 0 -45 -5.5t-44 -11.5z" />
<glyph unicode="&#xc8;" horiz-adv-x="1159" d="M842 711h-506v-570h731q0 -7 -1 -18t-6.5 -34.5t-15 -41.5t-30.5 -32.5t-49 -14.5h-629q-7 0 -18.5 0.5t-41 6t-52.5 15t-41.5 30.5t-18.5 50v1332h903q0 -6 -0.5 -15.5t-6 -34t-15 -43t-30.5 -34t-50 -15.5h-629v-440h473q62 0 106 8t57 16l13 7q0 -28 -5 -53.5 t-19 -54.5t-44.5 -46.5t-74.5 -17.5zM604 1751l117 -112q22 -22 20.5 -39t-18.5 -28.5t-37.5 -19t-37.5 -10.5l-17 -4l-164 133q-49 40 -67.5 79t-11 68.5t30.5 55t50.5 41t56.5 25.5q-12 -24 -12 -47q0 -52 90 -142z" />
<glyph unicode="&#xc9;" horiz-adv-x="1159" d="M842 711h-506v-570h731q0 -7 -1 -18t-6.5 -34.5t-15 -41.5t-30.5 -32.5t-49 -14.5h-629q-7 0 -18.5 0.5t-41 6t-52.5 15t-41.5 30.5t-18.5 50v1332h903q0 -6 -0.5 -15.5t-6 -34t-15 -43t-30.5 -34t-50 -15.5h-629v-440h473q62 0 106 8t57 16l13 7q0 -28 -5 -53.5 t-19 -54.5t-44.5 -46.5t-74.5 -17.5zM553 1638l117 113q90 90 90 141q0 23 -12 47q29 -10 56 -25.5t50.5 -41t31 -54.5t-11 -68t-67.5 -79l-164 -133l-48 12q-97 34 -42 88z" />
<glyph unicode="&#xca;" horiz-adv-x="1159" d="M842 711h-506v-570h731q0 -7 -1 -18t-6.5 -34.5t-15 -41.5t-30.5 -32.5t-49 -14.5h-629q-7 0 -18.5 0.5t-41 6t-52.5 15t-41.5 30.5t-18.5 50v1332h903q0 -6 -0.5 -15.5t-6 -34t-15 -43t-30.5 -34t-50 -15.5h-629v-440h473q62 0 106 8t57 16l13 7q0 -28 -5 -53.5 t-19 -54.5t-44.5 -46.5t-74.5 -17.5zM637 1788l-65 -59q-90 -83 -90 -142q0 -23 12 -47q-28 10 -54.5 26t-47 41.5t-25.5 54.5t17 66.5t73 75.5l180 134l181 -134q51 -38 73 -75.5t17 -66.5t-25.5 -54.5t-47 -41.5t-54.5 -26q12 24 12 47q0 59 -90 142z" />
<glyph unicode="&#xcb;" horiz-adv-x="1159" d="M842 711h-506v-570h731q0 -7 -1 -18t-6.5 -34.5t-15 -41.5t-30.5 -32.5t-49 -14.5h-629q-7 0 -18.5 0.5t-41 6t-52.5 15t-41.5 30.5t-18.5 50v1332h903q0 -6 -0.5 -15.5t-6 -34t-15 -43t-30.5 -34t-50 -15.5h-629v-440h473q62 0 106 8t57 16l13 7q0 -28 -5 -53.5 t-19 -54.5t-44.5 -46.5t-74.5 -17.5zM406 1647v135h129q13 0 23.5 -11.5t10.5 -25.5v-135h-127q-15 0 -25.5 11t-10.5 26zM707 1647v135h129q13 0 23.5 -11.5t10.5 -25.5v-135h-127q-15 0 -25.5 11t-10.5 26z" />
<glyph unicode="&#xcc;" horiz-adv-x="499" d="M164 82v1372q7 0 18.5 -0.5t41 -6t52.5 -15t41.5 -30.5t18.5 -50v-1372q-7 0 -18.5 0.5t-41 6t-52.5 15t-41.5 30.5t-18.5 50zM217 1751l117 -112q22 -22 20.5 -39t-18.5 -28.5t-37.5 -19t-37.5 -10.5l-17 -4l-164 133q-49 40 -67.5 79t-11 68.5t30.5 55t50.5 41 t56.5 25.5q-12 -24 -12 -47q0 -52 90 -142z" />
<glyph unicode="&#xcd;" horiz-adv-x="499" d="M164 82v1372q7 0 18.5 -0.5t41 -6t52.5 -15t41.5 -30.5t18.5 -50v-1372q-7 0 -18.5 0.5t-41 6t-52.5 15t-41.5 30.5t-18.5 50zM166 1638l117 113q90 90 90 141q0 21 -13 47q29 -10 56.5 -25.5t51 -41t31 -54.5t-11 -68t-67.5 -79l-164 -133l-48 12q-97 34 -42 88z" />
<glyph unicode="&#xce;" horiz-adv-x="499" d="M164 82v1372q7 0 18.5 -0.5t41 -6t52.5 -15t41.5 -30.5t18.5 -50v-1372q-7 0 -18.5 0.5t-41 6t-52.5 15t-41.5 30.5t-18.5 50zM250 1788l-65 -59q-90 -83 -90 -142q0 -23 12 -47q-28 10 -54.5 26t-47 41.5t-25.5 54.5t17 66.5t73 75.5l180 134l181 -134q51 -38 73 -75.5 t17 -66.5t-25.5 -54.5t-47 -41.5t-54.5 -26q12 24 12 47q0 59 -90 142z" />
<glyph unicode="&#xcf;" horiz-adv-x="499" d="M164 82v1372q7 0 18.5 -0.5t41 -6t52.5 -15t41.5 -30.5t18.5 -50v-1372q-7 0 -18.5 0.5t-41 6t-52.5 15t-41.5 30.5t-18.5 50zM18 1647v135h129q13 0 24 -11.5t11 -25.5v-135h-127q-15 0 -26 11t-11 26zM319 1647v135h130q13 0 23.5 -11.5t10.5 -25.5v-135h-127 q-15 0 -26 11t-11 26z" />
<glyph unicode="&#xd0;" horiz-adv-x="1435" d="M113 793h51v641h543q95 0 176.5 -13t158.5 -47t131 -86t86.5 -135.5t32.5 -191.5v-488q0 -108 -32.5 -191.5t-86.5 -135.5t-131 -86t-158.5 -47t-176.5 -13h-375q-10 0 -24 1t-41.5 7t-48.5 15.5t-37.5 30t-16.5 48.5v543h-123q-4 20 -4 47q0 101 76 101zM707 1292h-371 v-499h424q4 -23 4 -50q0 -98 -76 -98h-352v-504h371q91 0 163 18.5t129.5 58t89 109.5t31.5 167v448q0 350 -413 350z" />
<glyph unicode="&#xd1;" horiz-adv-x="1445" d="M440 1331l596 -971l94 -155q-20 107 -20 168v1061q7 0 18.5 -0.5t41 -6.5t52.5 -15.5t41.5 -30.5t18.5 -50v-1351q-61 0 -112.5 13.5t-80.5 33t-49.5 39.5t-27.5 34l-8 13l-689 1112q21 -99 21 -185v-1060q-7 0 -18.5 0.5t-41 6t-52.5 15t-41.5 30.5t-18.5 50v1352 q45 0 69 -1t59.5 -6t58 -15.5t47 -30.5t42.5 -50zM449 1600q-8 44 -6 86.5t32.5 73t86.5 30.5q54 0 163.5 -47t171.5 -47q36 0 58.5 11.5t42.5 41.5q8 -31 6 -65t-10.5 -62.5t-36.5 -46.5t-72 -18q-56 0 -165 47t-169 47q-39 0 -60.5 -11.5t-41.5 -39.5z" />
<glyph unicode="&#xd2;" d="M1274 1004v-574q0 -218 -141 -336.5t-424 -118.5q-284 0 -425 118t-141 337v574q0 219 141 336.5t425 117.5q283 0 424 -118t141 -336zM1102 457v520q0 68 -9 117.5t-34.5 93.5t-69 71t-114 42.5t-168.5 15.5q-120 0 -199 -22t-120.5 -69t-57 -105t-15.5 -144v-520 q0 -86 15.5 -144t57 -105t120.5 -69t199 -22q98 0 168.5 15.5t114 42.5t69 71t34.5 93.5t9 117.5zM678 1751l117 -112q22 -22 20.5 -39t-18.5 -28.5t-37.5 -19t-37.5 -10.5l-17 -4l-164 133q-49 40 -67.5 79t-11 68.5t30.5 55t50.5 41t56.5 25.5q-12 -24 -12 -47 q0 -52 90 -142z" />
<glyph unicode="&#xd3;" d="M1274 1004v-574q0 -218 -141 -336.5t-424 -118.5q-284 0 -425 118t-141 337v574q0 219 141 336.5t425 117.5q283 0 424 -118t141 -336zM1102 457v520q0 68 -9 117.5t-34.5 93.5t-69 71t-114 42.5t-168.5 15.5q-120 0 -199 -22t-120.5 -69t-57 -105t-15.5 -144v-520 q0 -86 15.5 -144t57 -105t120.5 -69t199 -22q98 0 168.5 15.5t114 42.5t69 71t34.5 93.5t9 117.5zM627 1638l116 113q91 91 91 141q0 21 -13 47q29 -10 56.5 -25.5t51 -41t31 -54.5t-11 -68t-67.5 -79l-164 -133l-48 12q-97 34 -42 88z" />
<glyph unicode="&#xd4;" d="M1274 1004v-574q0 -218 -141 -336.5t-424 -118.5q-284 0 -425 118t-141 337v574q0 219 141 336.5t425 117.5q283 0 424 -118t141 -336zM1102 457v520q0 68 -9 117.5t-34.5 93.5t-69 71t-114 42.5t-168.5 15.5q-120 0 -199 -22t-120.5 -69t-57 -105t-15.5 -144v-520 q0 -86 15.5 -144t57 -105t120.5 -69t199 -22q98 0 168.5 15.5t114 42.5t69 71t34.5 93.5t9 117.5zM710 1788l-65 -59q-90 -83 -90 -142q0 -23 12 -47q-28 10 -54.5 26t-47 41.5t-25.5 54.5t17 66.5t73 75.5l180 134l181 -134q51 -38 73 -75.5t17 -66.5t-25.5 -54.5 t-47 -41.5t-54.5 -26q12 24 12 47q0 59 -90 142z" />
<glyph unicode="&#xd5;" d="M1274 1004v-574q0 -218 -141 -336.5t-424 -118.5q-284 0 -425 118t-141 337v574q0 219 141 336.5t425 117.5q283 0 424 -118t141 -336zM1102 457v520q0 68 -9 117.5t-34.5 93.5t-69 71t-114 42.5t-168.5 15.5q-120 0 -199 -22t-120.5 -69t-57 -105t-15.5 -144v-520 q0 -86 15.5 -144t57 -105t120.5 -69t199 -22q98 0 168.5 15.5t114 42.5t69 71t34.5 93.5t9 117.5zM434 1599q-8 44 -6 86.5t32.5 73.5t86.5 31q54 0 164 -47t172 -47q36 0 57.5 11.5t42.5 41.5q8 -31 6 -65.5t-10.5 -62.5t-36.5 -46.5t-72 -18.5q-56 0 -164.5 47.5 t-168.5 47.5q-39 0 -61 -12t-42 -40z" />
<glyph unicode="&#xd6;" d="M1274 1004v-574q0 -218 -141 -336.5t-424 -118.5q-284 0 -425 118t-141 337v574q0 219 141 336.5t425 117.5q283 0 424 -118t141 -336zM1102 457v520q0 68 -9 117.5t-34.5 93.5t-69 71t-114 42.5t-168.5 15.5q-120 0 -199 -22t-120.5 -69t-57 -105t-15.5 -144v-520 q0 -86 15.5 -144t57 -105t120.5 -69t199 -22q98 0 168.5 15.5t114 42.5t69 71t34.5 93.5t9 117.5zM480 1647v135h129q13 0 23.5 -11.5t10.5 -25.5v-135h-127q-15 0 -25.5 11t-10.5 26zM781 1647v135h129q13 0 23.5 -11.5t10.5 -25.5v-135h-127q-15 0 -25.5 11t-10.5 26z" />
<glyph unicode="&#xd7;" horiz-adv-x="915" d="M616 262l-161 162l-207 -209q-5 3 -13 9.5t-26 24.5t-28 36t-8.5 42t22.5 44l155 157l-207 201q3 5 9 13.5t24 26.5t35 28t41 9t45 -22l158 -151l207 209q5 -3 13 -9t26 -24t28 -35t8.5 -41t-22.5 -45l-156 -160l213 -213q-3 -5 -9.5 -13t-24.5 -25.5t-36 -27.5t-42 -8.5 t-44 21.5z" />
<glyph unicode="&#xd8;" d="M152 141l47 56q-56 95 -56 237v570q0 219 141 336.5t425 117.5q292 0 436 -129l108 131q4 -3 10 -9t18 -23.5t18 -35.5t2 -43.5t-23 -48.5l-57 -67q53 -100 53 -229v-570q0 -218 -141 -336t-424 -118q-294 0 -433 124l-104 -124q-4 3 -9.5 9t-17 24t-16.5 36t-0.5 43.5 t23.5 48.5zM315 461q0 -63 9 -113l718 860q-83 109 -335 109q-120 0 -199 -22t-120.5 -69t-57 -105t-15.5 -144v-516zM1102 461v516q0 60 -8 104l-717 -858q82 -102 330 -102q98 0 168.5 15.5t114 42.5t69 71t34.5 93.5t9 117.5z" />
<glyph unicode="&#xd9;" d="M1274 1352v-944q0 -105 -45.5 -189t-124.5 -136.5t-179.5 -80t-215.5 -27.5t-216 27.5t-179.5 80t-124.5 136.5t-46 189v1046q7 0 18.5 -0.5t41 -6t52.5 -15t41.5 -30.5t18.5 -50v-914q0 -150 107.5 -230.5t286.5 -80.5q178 0 285.5 80.5t107.5 230.5v1016q7 0 18.5 -0.5 t41 -6t52.5 -15t41.5 -30.5t18.5 -50zM678 1751l117 -112q22 -22 20.5 -39t-18.5 -28.5t-37.5 -19t-37.5 -10.5l-17 -4l-164 133q-49 40 -67.5 79t-11 68.5t30.5 55t50.5 41t56.5 25.5q-12 -24 -12 -47q0 -52 90 -142z" />
<glyph unicode="&#xda;" d="M1274 1352v-944q0 -105 -45.5 -189t-124.5 -136.5t-179.5 -80t-215.5 -27.5t-216 27.5t-179.5 80t-124.5 136.5t-46 189v1046q7 0 18.5 -0.5t41 -6t52.5 -15t41.5 -30.5t18.5 -50v-914q0 -150 107.5 -230.5t286.5 -80.5q178 0 285.5 80.5t107.5 230.5v1016q7 0 18.5 -0.5 t41 -6t52.5 -15t41.5 -30.5t18.5 -50zM627 1638l116 113q91 91 91 141q0 21 -13 47q29 -10 56.5 -25.5t51 -41t31 -54.5t-11 -68t-67.5 -79l-164 -133l-48 12q-97 34 -42 88z" />
<glyph unicode="&#xdb;" d="M1274 1352v-944q0 -105 -45.5 -189t-124.5 -136.5t-179.5 -80t-215.5 -27.5t-216 27.5t-179.5 80t-124.5 136.5t-46 189v1046q7 0 18.5 -0.5t41 -6t52.5 -15t41.5 -30.5t18.5 -50v-914q0 -150 107.5 -230.5t286.5 -80.5q178 0 285.5 80.5t107.5 230.5v1016q7 0 18.5 -0.5 t41 -6t52.5 -15t41.5 -30.5t18.5 -50zM710 1788l-65 -59q-90 -83 -90 -142q0 -23 12 -47q-28 10 -54.5 26t-47 41.5t-25.5 54.5t17 66.5t73 75.5l180 134l181 -134q51 -38 73 -75.5t17 -66.5t-25.5 -54.5t-47 -41.5t-54.5 -26q12 24 12 47q0 59 -90 142z" />
<glyph unicode="&#xdc;" d="M1274 1352v-944q0 -105 -45.5 -189t-124.5 -136.5t-179.5 -80t-215.5 -27.5t-216 27.5t-179.5 80t-124.5 136.5t-46 189v1046q7 0 18.5 -0.5t41 -6t52.5 -15t41.5 -30.5t18.5 -50v-914q0 -150 107.5 -230.5t286.5 -80.5q178 0 285.5 80.5t107.5 230.5v1016q7 0 18.5 -0.5 t41 -6t52.5 -15t41.5 -30.5t18.5 -50zM479 1647v135h129q13 0 24 -11.5t11 -25.5v-135h-127q-15 0 -26 11t-11 26zM780 1647v135h129q13 0 24 -11.5t11 -25.5v-135h-127q-15 0 -26 11t-11 26z" />
<glyph unicode="&#xdd;" horiz-adv-x="1146" d="M659 -20q-7 0 -18.5 0.5t-41 6t-52.5 15.5t-41.5 31.5t-18.5 50.5v532q-81 73 -160 196.5t-130 233.5t-106.5 228t-86.5 166q24 6 59 6q124 0 187 -117q32 -60 98.5 -201t117 -228t107.5 -144q56 57 107 145t116.5 226t100.5 202q63 117 186 117q16 0 31 -1.5t22 -2.5 l7 -2q-31 -48 -87 -166t-107.5 -228t-130.5 -233.5t-159 -196.5v-636zM475 1639l117 112q90 90 90 142q0 23 -12 47q29 -10 56.5 -25.5t50.5 -41t30.5 -55t-11 -68.5t-67.5 -79l-164 -133l-49 13q-99 33 -41 88z" />
<glyph unicode="&#xde;" horiz-adv-x="1189" d="M164 82v1454q7 0 18.5 -0.5t41 -5.5t52.5 -14.5t41.5 -31t18.5 -50.5v-152h188q95 0 175 -13t154 -46t125 -83.5t81.5 -129.5t30.5 -181v-36q0 -102 -30.5 -181.5t-82 -130.5t-125 -83.5t-154 -46t-174.5 -13.5h-188v-358q-7 0 -18.5 0.5t-41 6t-52.5 15t-41.5 30.5 t-18.5 50zM524 1141h-188v-662h188q76 0 130.5 7t107 27.5t85 56.5t52 96.5t19.5 144.5t-19.5 144.5t-52 96t-85 56t-107 27t-130.5 6.5z" />
<glyph unicode="&#xdf;" horiz-adv-x="1304" d="M307 -20q-7 0 -18 0.5t-39 6t-50 15t-39.5 30.5t-17.5 50v1063q0 88 42.5 163.5t111.5 124t154.5 76t173.5 27.5q97 0 176.5 -17t142 -51.5t97 -92.5t34.5 -136q0 -53 -20 -99t-52 -79.5t-71 -64t-78 -58t-71 -54.5t-52 -61t-20 -71q0 -48 29.5 -76t76.5 -40.5 t103.5 -21.5t113 -26.5t103.5 -48t76.5 -94t29.5 -156.5q0 -144 -108.5 -229t-313.5 -85q-92 0 -169.5 20t-131 67.5t-53.5 115.5q0 72 55 158q0 -104 83 -160.5t216 -56.5q77 0 129 13.5t79.5 39t38.5 56t11 71.5q0 50 -22.5 85t-59.5 51.5t-84 30.5t-96 22t-96 27 t-84 44.5t-59.5 74.5t-22.5 118q0 54 26.5 105t66.5 88.5t86 75t86 66.5t66.5 61.5t26.5 61.5q0 96 -77.5 142.5t-204.5 46.5q-151 0 -237.5 -79.5t-86.5 -215.5v-1124z" />
<glyph unicode="&#xe0;" horiz-adv-x="1042" d="M752 162v403q-9 -32 -49.5 -52.5t-94 -29.5t-114 -23.5t-111 -32t-84 -57t-33.5 -96.5q0 -74 60 -121t184 -47q67 0 127.5 14t87.5 28zM102 276q0 71 24.5 124.5t65.5 85t94.5 55t110 35.5t113.5 26t104 27t82.5 38t48.5 60q0 86 -52 132t-185 46q-146 0 -233 -56 t-87 -161q-55 78 -55 150q0 67 53 116t136.5 72t185.5 23q193 0 297 -86.5t104 -243.5v-733q-64 26 -135 26q-45 0 -139.5 -18.5t-153.5 -18.5q-73 0 -138 16.5t-120.5 50.5t-88 94t-32.5 140zM489 1374l117 -112q22 -22 20.5 -39t-18.5 -28.5t-37.5 -19t-37.5 -11.5l-17 -3 l-164 133q-49 40 -67.5 79t-11 68.5t30.5 55t50.5 41t56.5 25.5q-12 -24 -12 -47q0 -52 90 -142z" />
<glyph unicode="&#xe1;" horiz-adv-x="1042" d="M752 162v403q-9 -32 -49.5 -52.5t-94 -29.5t-114 -23.5t-111 -32t-84 -57t-33.5 -96.5q0 -74 60 -121t184 -47q67 0 127.5 14t87.5 28zM102 276q0 71 24.5 124.5t65.5 85t94.5 55t110 35.5t113.5 26t104 27t82.5 38t48.5 60q0 86 -52 132t-185 46q-146 0 -233 -56 t-87 -161q-55 78 -55 150q0 67 53 116t136.5 72t185.5 23q193 0 297 -86.5t104 -243.5v-733q-64 26 -135 26q-45 0 -139.5 -18.5t-153.5 -18.5q-73 0 -138 16.5t-120.5 50.5t-88 94t-32.5 140zM438 1262l117 112q90 90 90 142q0 23 -12 47q29 -10 56.5 -25.5t50.5 -41 t30.5 -55t-11 -68.5t-67.5 -79l-164 -133l-49 13q-99 33 -41 88z" />
<glyph unicode="&#xe2;" horiz-adv-x="1042" d="M752 162v403q-9 -32 -49.5 -52.5t-94 -29.5t-114 -23.5t-111 -32t-84 -57t-33.5 -96.5q0 -74 60 -121t184 -47q67 0 127.5 14t87.5 28zM102 276q0 71 24.5 124.5t65.5 85t94.5 55t110 35.5t113.5 26t104 27t82.5 38t48.5 60q0 86 -52 132t-185 46q-146 0 -233 -56 t-87 -161q-55 78 -55 150q0 67 53 116t136.5 72t185.5 23q193 0 297 -86.5t104 -243.5v-733q-64 26 -135 26q-45 0 -139.5 -18.5t-153.5 -18.5q-73 0 -138 16.5t-120.5 50.5t-88 94t-32.5 140zM522 1411l-65 -59q-90 -83 -90 -142q0 -23 12 -47q-28 10 -54.5 26t-47 41.5 t-25.5 54.5t17 66.5t73 75.5l180 134l181 -134q51 -38 73 -75.5t17 -66.5t-25.5 -54.5t-47 -41.5t-54.5 -26q12 24 12 47q0 59 -90 142z" />
<glyph unicode="&#xe3;" horiz-adv-x="1042" d="M752 162v403q-9 -32 -49.5 -52.5t-94 -29.5t-114 -23.5t-111 -32t-84 -57t-33.5 -96.5q0 -74 60 -121t184 -47q67 0 127.5 14t87.5 28zM102 276q0 71 24.5 124.5t65.5 85t94.5 55t110 35.5t113.5 26t104 27t82.5 38t48.5 60q0 86 -52 132t-185 46q-146 0 -233 -56 t-87 -161q-55 78 -55 150q0 67 53 116t136.5 72t185.5 23q193 0 297 -86.5t104 -243.5v-733q-64 26 -135 26q-45 0 -139.5 -18.5t-153.5 -18.5q-73 0 -138 16.5t-120.5 50.5t-88 94t-32.5 140zM246 1223q-10 31 -8 65t11.5 61.5t38 45.5t70.5 18q54 0 164 -47t172 -47 q36 0 58.5 11.5t42.5 41.5q8 -32 6 -65.5t-10.5 -62t-36.5 -46.5t-72 -18q-56 0 -165 47t-169 47q-39 0 -60.5 -11.5t-41.5 -39.5z" />
<glyph unicode="&#xe4;" horiz-adv-x="1042" d="M752 162v403q-9 -32 -49.5 -52.5t-94 -29.5t-114 -23.5t-111 -32t-84 -57t-33.5 -96.5q0 -74 60 -121t184 -47q67 0 127.5 14t87.5 28zM102 276q0 71 24.5 124.5t65.5 85t94.5 55t110 35.5t113.5 26t104 27t82.5 38t48.5 60q0 86 -52 132t-185 46q-146 0 -233 -56 t-87 -161q-55 78 -55 150q0 67 53 116t136.5 72t185.5 23q193 0 297 -86.5t104 -243.5v-733q-64 26 -135 26q-45 0 -139.5 -18.5t-153.5 -18.5q-73 0 -138 16.5t-120.5 50.5t-88 94t-32.5 140zM291 1270v135h129q13 0 23.5 -11.5t10.5 -25.5v-135h-127q-15 0 -25.5 11 t-10.5 26zM592 1270v135h129q13 0 23.5 -11.5t10.5 -25.5v-135h-127q-15 0 -25.5 11t-10.5 26z" />
<glyph unicode="&#xe5;" horiz-adv-x="1042" d="M752 162v403q-9 -32 -49.5 -52.5t-94 -29.5t-114 -23.5t-111 -32t-84 -57t-33.5 -96.5q0 -74 60 -121t184 -47q67 0 127.5 14t87.5 28zM102 276q0 71 24.5 124.5t65.5 85t94.5 55t110 35.5t113.5 26t104 27t82.5 38t48.5 60q0 86 -52 132t-185 46q-146 0 -233 -56 t-87 -161q-55 78 -55 150q0 67 53 116t136.5 72t185.5 23q193 0 297 -86.5t104 -243.5v-733q-64 26 -135 26q-45 0 -139.5 -18.5t-153.5 -18.5q-73 0 -138 16.5t-120.5 50.5t-88 94t-32.5 140zM670 1401v-139q0 -53 -46 -82t-124 -29t-124 29t-46 82v139q0 52 46.5 82 t123.5 30t123.5 -30t46.5 -82zM590 1296v72q0 38 -18.5 56t-71.5 18q-55 0 -72.5 -18t-17.5 -56v-72q0 -39 17 -56t73 -17q54 0 72 17.5t18 55.5z" />
<glyph unicode="&#xe6;" horiz-adv-x="1662" d="M188 688q-55 78 -55 150q0 67 53 116t136.5 72t185.5 23q213 0 319 -109q106 109 320 109q192 0 296.5 -84t104.5 -226q0 -135 -100 -219t-313 -84q-41 0 -96.5 9.5t-92 19t-37.5 12.5v-147q0 -105 61 -156t197 -51q149 0 244.5 57t95.5 160q54 -77 54 -143 q0 -69 -57.5 -119.5t-145 -74t-191.5 -23.5q-127 0 -221 38t-145 109q-37 -66 -128.5 -106.5t-189.5 -40.5q-75 0 -140.5 16.5t-121 50t-87.5 92.5t-32 137q0 71 24.5 124.5t65.5 85t94.5 55t110 35.5t113.5 26t104 27t82.5 38t48.5 60v6q-2 83 -54 127.5t-183 44.5 q-146 0 -233 -56t-87 -161zM745 549q-18 -30 -74.5 -49t-123 -31t-131 -29t-107.5 -57t-43 -102q0 -81 63 -126.5t160 -45.5q98 0 177 60t79 132v248zM909 688v-78q1 -2 35 -9t86 -14t92 -7q141 0 201.5 40t60.5 119q0 176 -237 176q-135 0 -186.5 -56t-51.5 -171z" />
<glyph unicode="&#xe7;" horiz-adv-x="1019" d="M420 -225q2 16 10 45l45 160q-166 15 -259 100t-93 225v414q0 155 113 242.5t309 87.5q93 0 171 -23t130 -68.5t54.5 -113t-56.5 -156.5q0 102 -84.5 159.5t-202.5 57.5q-140 0 -205 -54t-65 -163v-352q0 -109 65 -163t205 -54q141 0 234.5 57t93.5 160q56 -84 53 -149.5 t-53.5 -111t-128.5 -70t-172 -28.5l-15 -81h4q92 0 153.5 -51t61.5 -142q0 -85 -62.5 -134.5t-152.5 -49.5q-65 0 -109 34.5t-44 86.5q52 -23 106 -23q53 0 89 22t36 70q0 46 -36.5 67t-88.5 21q-18 0 -44.5 -5.5t-43.5 -11.5z" />
<glyph unicode="&#xe8;" horiz-adv-x="1040" d="M885 336q53 -76 53 -143q0 -69 -57 -119.5t-145 -74.5t-191 -24q-196 0 -309 87.5t-113 242.5v414q0 155 109.5 242.5t304.5 87.5q190 0 289.5 -83.5t99.5 -226.5q0 -135 -100.5 -219t-313.5 -84q-61 0 -126 12.5t-99 36.5v-149q0 -109 65 -163t205 -54q141 0 234.5 57 t93.5 160zM287 688v-72q1 -2 34.5 -10.5t86 -17t92.5 -8.5q141 0 201.5 40t60.5 119q0 176 -225 176q-132 0 -191 -57.5t-59 -169.5zM489 1374l117 -112q22 -22 20.5 -39t-18.5 -28.5t-37.5 -19t-37.5 -11.5l-17 -3l-164 133q-49 40 -67.5 79t-11 68.5t30.5 55t50.5 41 t56.5 25.5q-12 -24 -12 -47q0 -52 90 -142z" />
<glyph unicode="&#xe9;" horiz-adv-x="1040" d="M885 336q53 -76 53 -143q0 -69 -57 -119.5t-145 -74.5t-191 -24q-196 0 -309 87.5t-113 242.5v414q0 155 109.5 242.5t304.5 87.5q190 0 289.5 -83.5t99.5 -226.5q0 -135 -100.5 -219t-313.5 -84q-61 0 -126 12.5t-99 36.5v-149q0 -109 65 -163t205 -54q141 0 234.5 57 t93.5 160zM287 688v-72q1 -2 34.5 -10.5t86 -17t92.5 -8.5q141 0 201.5 40t60.5 119q0 176 -225 176q-132 0 -191 -57.5t-59 -169.5zM438 1262l117 112q90 90 90 142q0 23 -12 47q29 -10 56.5 -25.5t50.5 -41t30.5 -55t-11 -68.5t-67.5 -79l-164 -133l-49 13q-99 33 -41 88z " />
<glyph unicode="&#xea;" horiz-adv-x="1040" d="M885 336q53 -76 53 -143q0 -69 -57 -119.5t-145 -74.5t-191 -24q-196 0 -309 87.5t-113 242.5v414q0 155 109.5 242.5t304.5 87.5q190 0 289.5 -83.5t99.5 -226.5q0 -135 -100.5 -219t-313.5 -84q-61 0 -126 12.5t-99 36.5v-149q0 -109 65 -163t205 -54q141 0 234.5 57 t93.5 160zM287 688v-72q1 -2 34.5 -10.5t86 -17t92.5 -8.5q141 0 201.5 40t60.5 119q0 176 -225 176q-132 0 -191 -57.5t-59 -169.5zM520 1411l-65 -59q-90 -83 -90 -142q0 -23 12 -47q-28 10 -54.5 26t-47 41.5t-25.5 54.5t17 66.5t73 75.5l180 134l181 -134 q51 -38 73 -75.5t17 -66.5t-25.5 -54.5t-47 -41.5t-54.5 -26q12 24 12 47q0 59 -90 142z" />
<glyph unicode="&#xeb;" horiz-adv-x="1040" d="M885 336q53 -76 53 -143q0 -69 -57 -119.5t-145 -74.5t-191 -24q-196 0 -309 87.5t-113 242.5v414q0 155 109.5 242.5t304.5 87.5q190 0 289.5 -83.5t99.5 -226.5q0 -135 -100.5 -219t-313.5 -84q-61 0 -126 12.5t-99 36.5v-149q0 -109 65 -163t205 -54q141 0 234.5 57 t93.5 160zM287 688v-72q1 -2 34.5 -10.5t86 -17t92.5 -8.5q141 0 201.5 40t60.5 119q0 176 -225 176q-132 0 -191 -57.5t-59 -169.5zM291 1270v135h129q13 0 24 -11.5t11 -25.5v-135h-127q-15 0 -26 11t-11 26zM592 1270v135h129q13 0 24 -11.5t11 -25.5v-135h-127 q-15 0 -26 11t-11 26z" />
<glyph unicode="&#xec;" horiz-adv-x="450" d="M143 82v942q9 0 21.5 -1t40 -6.5t48.5 -15t37.5 -30.5t16.5 -49v-942q-7 0 -18 0.5t-39 6t-50 15t-39.5 30.5t-17.5 50zM192 1374l117 -112q22 -22 20.5 -39t-18.5 -28.5t-37.5 -19t-37.5 -11.5l-17 -3l-164 133q-49 40 -67.5 79t-11 68.5t30.5 55t50.5 41t56.5 25.5 q-12 -24 -12 -47q0 -52 90 -142z" />
<glyph unicode="&#xed;" horiz-adv-x="450" d="M143 82v942q9 0 21.5 -1t40 -6.5t48.5 -15t37.5 -30.5t16.5 -49v-942q-7 0 -18 0.5t-39 6t-50 15t-39.5 30.5t-17.5 50zM141 1262l117 112q90 90 90 142q0 23 -12 47q29 -10 56.5 -25.5t50.5 -41t30.5 -55t-11 -68.5t-67.5 -79l-164 -133l-49 13q-99 33 -41 88z" />
<glyph unicode="&#xee;" horiz-adv-x="450" d="M143 82v942q9 0 21.5 -1t40 -6.5t48.5 -15t37.5 -30.5t16.5 -49v-942q-7 0 -18 0.5t-39 6t-50 15t-39.5 30.5t-17.5 50zM225 1411l-65 -59q-90 -83 -90 -142q0 -23 12 -47q-28 10 -54.5 26t-47 41.5t-25.5 54.5t17 66.5t73 75.5l180 134l181 -134q51 -38 73 -75.5 t17 -66.5t-25.5 -54.5t-47 -41.5t-54.5 -26q12 24 12 47q0 59 -90 142z" />
<glyph unicode="&#xef;" horiz-adv-x="450" d="M143 82v942q9 0 21.5 -1t40 -6.5t48.5 -15t37.5 -30.5t16.5 -49v-942q-7 0 -18 0.5t-39 6t-50 15t-39.5 30.5t-17.5 50zM-6 1270v135h129q13 0 24 -11.5t11 -25.5v-135h-127q-15 0 -26 11t-11 26zM295 1270v135h129q13 0 24 -11.5t11 -25.5v-135h-127q-15 0 -26 11 t-11 26z" />
<glyph unicode="&#xf0;" horiz-adv-x="1130" d="M123 305v414q0 155 106 242.5t316 87.5q97 0 169 -21t107 -53q-41 151 -145 270l-244 -102q-12 23 -18.5 39.5t-10 39t8 40t37.5 28.5l116 49q-79 53 -164.5 76t-152.5 17q37 112 147 112q71 0 161 -35t173 -102l238 100q12 -24 19 -41t9.5 -39t-8.5 -39t-37 -28 l-123 -51q181 -218 181 -529v-475q0 -159 -110.5 -244.5t-332.5 -85.5q-221 0 -331.5 85.5t-110.5 244.5zM287 336q0 -58 11.5 -96.5t41 -70t85 -46t140.5 -14.5t141 14.5t85.5 46t41 70.5t11.5 96v379q0 87 -87 143.5t-210 56.5q-79 0 -131.5 -15t-80 -47t-38 -70.5 t-10.5 -94.5v-352z" />
<glyph unicode="&#xf1;" horiz-adv-x="1107" d="M797 88v623q0 99 -58 149.5t-190 50.5q-67 0 -128.5 -10.5t-89.5 -21.5l-28 -11v-882q-7 0 -18 0.5t-39 6t-50 15t-39.5 30.5t-17.5 50v950q60 -32 133 -32q47 0 146 21.5t160 21.5q75 0 139 -14.5t121 -48t90 -96t33 -149.5v-755q-7 0 -18 1t-39 6.5t-50 15t-39.5 30.5 t-17.5 49zM270 1223q-8 44 -6 86.5t32.5 73t86.5 30.5q54 0 164 -47t172 -47q36 0 57.5 11.5t42.5 41.5q6 -44 5.5 -87t-30.5 -74t-87 -31q-56 0 -165 47t-169 47q-39 0 -61 -11.5t-42 -39.5z" />
<glyph unicode="&#xf2;" horiz-adv-x="1130" d="M1008 719v-414q0 -159 -110.5 -244.5t-332.5 -85.5q-221 0 -331.5 85.5t-110.5 244.5v414q0 159 110.5 244.5t331.5 85.5q222 0 332.5 -85.5t110.5 -244.5zM844 336v352q0 57 -11.5 96t-41 70.5t-85.5 46t-141 14.5t-140.5 -14.5t-85 -46t-41 -70t-11.5 -96.5v-352 q0 -58 11.5 -96.5t41 -70t85 -46t140.5 -14.5t141 14.5t85.5 46t41 70.5t11.5 96zM530 1374l117 -112q22 -22 20.5 -39t-18.5 -28.5t-37.5 -19t-37.5 -11.5l-17 -3l-164 133q-49 40 -67.5 79t-11 68.5t30.5 55t50.5 41t56.5 25.5q-12 -24 -12 -47q0 -52 90 -142z" />
<glyph unicode="&#xf3;" horiz-adv-x="1130" d="M1008 719v-414q0 -159 -110.5 -244.5t-332.5 -85.5q-221 0 -331.5 85.5t-110.5 244.5v414q0 159 110.5 244.5t331.5 85.5q222 0 332.5 -85.5t110.5 -244.5zM844 336v352q0 57 -11.5 96t-41 70.5t-85.5 46t-141 14.5t-140.5 -14.5t-85 -46t-41 -70t-11.5 -96.5v-352 q0 -58 11.5 -96.5t41 -70t85 -46t140.5 -14.5t141 14.5t85.5 46t41 70.5t11.5 96zM479 1262l117 112q90 90 90 142q0 23 -12 47q29 -10 56.5 -25.5t50.5 -41t30.5 -55t-11 -68.5t-67.5 -79l-164 -133l-49 13q-99 33 -41 88z" />
<glyph unicode="&#xf4;" horiz-adv-x="1130" d="M1008 719v-414q0 -159 -110.5 -244.5t-332.5 -85.5q-221 0 -331.5 85.5t-110.5 244.5v414q0 159 110.5 244.5t331.5 85.5q222 0 332.5 -85.5t110.5 -244.5zM844 336v352q0 57 -11.5 96t-41 70.5t-85.5 46t-141 14.5t-140.5 -14.5t-85 -46t-41 -70t-11.5 -96.5v-352 q0 -58 11.5 -96.5t41 -70t85 -46t140.5 -14.5t141 14.5t85.5 46t41 70.5t11.5 96zM563 1411l-65 -59q-90 -83 -90 -142q0 -23 12 -47q-28 10 -54.5 26t-47 41.5t-25.5 54.5t17 66.5t73 75.5l180 134l181 -134q51 -38 73 -75.5t17 -66.5t-25.5 -54.5t-47 -41.5t-54.5 -26 q12 24 12 47q0 59 -90 142z" />
<glyph unicode="&#xf5;" horiz-adv-x="1130" d="M1008 719v-414q0 -159 -110.5 -244.5t-332.5 -85.5q-221 0 -331.5 85.5t-110.5 244.5v414q0 159 110.5 244.5t331.5 85.5q222 0 332.5 -85.5t110.5 -244.5zM844 336v352q0 57 -11.5 96t-41 70.5t-85.5 46t-141 14.5t-140.5 -14.5t-85 -46t-41 -70t-11.5 -96.5v-352 q0 -58 11.5 -96.5t41 -70t85 -46t140.5 -14.5t141 14.5t85.5 46t41 70.5t11.5 96zM287 1223q-10 31 -8 65t11.5 61.5t38 45.5t70.5 18q54 0 164 -47t172 -47q36 0 58.5 11.5t42.5 41.5q8 -32 6 -65.5t-10.5 -62t-36.5 -46.5t-72 -18q-56 0 -165 47t-169 47 q-39 0 -60.5 -11.5t-41.5 -39.5z" />
<glyph unicode="&#xf6;" horiz-adv-x="1130" d="M1008 719v-414q0 -159 -110.5 -244.5t-332.5 -85.5q-221 0 -331.5 85.5t-110.5 244.5v414q0 159 110.5 244.5t331.5 85.5q222 0 332.5 -85.5t110.5 -244.5zM844 336v352q0 57 -11.5 96t-41 70.5t-85.5 46t-141 14.5t-140.5 -14.5t-85 -46t-41 -70t-11.5 -96.5v-352 q0 -58 11.5 -96.5t41 -70t85 -46t140.5 -14.5t141 14.5t85.5 46t41 70.5t11.5 96zM332 1270v135h129q13 0 23.5 -11.5t10.5 -25.5v-135h-127q-15 0 -25.5 11t-10.5 26zM633 1270v135h129q13 0 23.5 -11.5t10.5 -25.5v-135h-127q-15 0 -25.5 11t-10.5 26z" />
<glyph unicode="&#xf7;" horiz-adv-x="1017" d="M432 145v144h139q14 0 25.5 -12t11.5 -27v-144h-137q-15 0 -27 12t-12 27zM432 807v143h139q14 0 25.5 -12t11.5 -27v-143h-137q-15 0 -27 12t-12 27zM221 598h647q1 -6 3 -16t2 -35t-5.5 -44.5t-23.5 -35.5t-47 -16h-647q-1 6 -2.5 16t-1.5 35t5.5 44.5t23 35.5t46.5 16 z" />
<glyph unicode="&#xf8;" horiz-adv-x="1130" d="M1008 719v-410q0 -158 -110.5 -243.5t-332.5 -85.5q-247 0 -358 108l-107 -106q-3 4 -8.5 10t-16 25.5t-14.5 38t2 43t27 44.5l49 52q-16 56 -16 114v410q0 159 110.5 244.5t331.5 85.5q218 0 336 -91l105 107q4 -4 9.5 -10t16.5 -25t15.5 -37.5t-1 -43t-26.5 -44.5 l-43 -43q31 -64 31 -143zM844 340v297l6 104l-533 -542q55 -86 248 -86q85 0 141 14.5t85.5 46t41 70.5t11.5 96zM287 688v-254l-6 -104l514 522q-63 63 -230 63q-85 0 -140.5 -14.5t-85 -46t-41 -70t-11.5 -96.5z" />
<glyph unicode="&#xf9;" horiz-adv-x="1107" d="M307 936v-623q0 -99 58 -149.5t190 -50.5q67 0 128.5 10.5t89.5 21.5l28 11v882q7 0 18 -0.5t39 -6t50 -15t39.5 -30.5t17.5 -50v-950q-60 32 -134 32q-47 0 -145.5 -21.5t-159.5 -21.5q-75 0 -139 14.5t-121 48t-90 96t-33 149.5v755q7 0 18 -1t39 -6.5t50 -15 t39.5 -30.5t17.5 -49zM514 1374l117 -112q22 -22 20.5 -39t-18.5 -28.5t-37.5 -19t-37.5 -11.5l-17 -3l-164 133q-49 40 -67.5 79t-11 68.5t30.5 55t50.5 41t56.5 25.5q-12 -24 -12 -47q0 -52 90 -142z" />
<glyph unicode="&#xfa;" horiz-adv-x="1107" d="M307 936v-623q0 -99 58 -149.5t190 -50.5q67 0 128.5 10.5t89.5 21.5l28 11v882q7 0 18 -0.5t39 -6t50 -15t39.5 -30.5t17.5 -50v-950q-60 32 -134 32q-47 0 -145.5 -21.5t-159.5 -21.5q-75 0 -139 14.5t-121 48t-90 96t-33 149.5v755q7 0 18 -1t39 -6.5t50 -15 t39.5 -30.5t17.5 -49zM463 1262l117 112q90 90 90 142q0 21 -13 47q29 -10 56.5 -25.5t51 -41t31 -55t-11 -68.5t-67.5 -79l-164 -133l-49 13q-99 33 -41 88z" />
<glyph unicode="&#xfb;" horiz-adv-x="1107" d="M307 936v-623q0 -99 58 -149.5t190 -50.5q67 0 128.5 10.5t89.5 21.5l28 11v882q7 0 18 -0.5t39 -6t50 -15t39.5 -30.5t17.5 -50v-950q-60 32 -134 32q-47 0 -145.5 -21.5t-159.5 -21.5q-75 0 -139 14.5t-121 48t-90 96t-33 149.5v755q7 0 18 -1t39 -6.5t50 -15 t39.5 -30.5t17.5 -49zM546 1411l-65 -59q-90 -83 -90 -142q0 -23 12 -47q-28 10 -54.5 26t-47 41.5t-25.5 54.5t17 66.5t73 75.5l180 134l181 -134q51 -38 73 -75.5t17 -66.5t-25.5 -54.5t-47 -41.5t-54.5 -26q12 24 12 47q0 59 -90 142z" />
<glyph unicode="&#xfc;" horiz-adv-x="1107" d="M307 936v-623q0 -99 58 -149.5t190 -50.5q67 0 128.5 10.5t89.5 21.5l28 11v882q7 0 18 -0.5t39 -6t50 -15t39.5 -30.5t17.5 -50v-950q-60 32 -134 32q-47 0 -145.5 -21.5t-159.5 -21.5q-75 0 -139 14.5t-121 48t-90 96t-33 149.5v755q7 0 18 -1t39 -6.5t50 -15 t39.5 -30.5t17.5 -49zM315 1270v135h129q13 0 24 -11.5t11 -25.5v-135h-127q-15 0 -26 11t-11 26zM616 1270v135h129q13 0 24 -11.5t11 -25.5v-135h-127q-15 0 -26 11t-11 26z" />
<glyph unicode="&#xfd;" horiz-adv-x="1024" d="M82 1038q6 0 17 -0.5t39 -6t50 -15t41.5 -30.5t22.5 -50l41 -342q8 -68 34.5 -133.5t59 -110t63 -79.5t51.5 -51l21 -17q8 6 22 17.5t50 50t65 80.5t57 108.5t36 134.5l41 342q5 45 47.5 70.5t82.5 28.5l40 3l-41 -399q-20 -186 -107 -324.5t-197 -222.5l-79 -61 q-64 -50 -98.5 -80.5t-72.5 -73.5t-54.5 -87t-16.5 -95q0 -81 47 -184q-22 -11 -45 -11q-27 0 -52.5 8t-53.5 28.5t-45 64t-17 104.5q0 65 22.5 124.5t65 111t88.5 92.5t107 84q-92 45 -182 191.5t-109 330.5zM440 1262l117 112q90 90 90 142q0 23 -12 47q29 -10 56.5 -25.5 t50.5 -41t30.5 -55t-11 -68.5t-67.5 -79l-164 -133l-49 13q-99 33 -41 88z" />
<glyph unicode="&#xfe;" horiz-adv-x="1087" d="M143 -383v1911q10 0 17 -0.5t30 -3t40 -10.5t36.5 -20.5t30 -35.5t10.5 -53v-283q0 -62 -5 -108.5t-10 -61.5l-5 -16q3 5 9 12.5t32 27t58.5 34.5t91.5 27t128 12q151 0 255 -88.5t104 -235.5v-426q0 -147 -104 -235.5t-255 -88.5q-69 0 -127.5 11.5t-92.5 28t-57.5 33.5 t-32.5 28l-9 12q20 -47 20 -186v-285v-123q-9 0 -17.5 0.5t-31 3.5t-39.5 11t-36 20.5t-29.5 35t-10.5 52.5zM307 715v-406q0 -86 83.5 -143t189.5 -57q100 0 160.5 55t60.5 166v364q0 111 -60.5 166t-160.5 55q-106 0 -189.5 -57t-83.5 -143z" />
<glyph unicode="&#xff;" horiz-adv-x="1024" d="M82 1038q6 0 17 -0.5t39 -6t50 -15t41.5 -30.5t22.5 -50l41 -342q8 -68 34.5 -133.5t59 -110t63 -79.5t51.5 -51l21 -17q8 6 22 17.5t50 50t65 80.5t57 108.5t36 134.5l41 342q5 45 47.5 70.5t82.5 28.5l40 3l-41 -399q-20 -186 -107 -324.5t-197 -222.5l-79 -61 q-64 -50 -98.5 -80.5t-72.5 -73.5t-54.5 -87t-16.5 -95q0 -81 47 -184q-22 -11 -45 -11q-27 0 -52.5 8t-53.5 28.5t-45 64t-17 104.5q0 65 22.5 124.5t65 111t88.5 92.5t107 84q-92 45 -182 191.5t-109 330.5zM293 1270v135h129q13 0 24 -11.5t11 -25.5v-135h-127 q-15 0 -26 11t-11 26zM594 1270v135h129q13 0 24 -11.5t11 -25.5v-135h-127q-15 0 -26 11t-11 26z" />
<glyph unicode="&#x100;" horiz-adv-x="1284" d="M643 1466l11 -8q11 -9 32 -29t47 -49t58.5 -75.5t64.5 -103t66.5 -136.5t62.5 -170l166 -533q95 -313 133 -370q-18 -6 -53 -6q-32 0 -59.5 10t-47.5 24t-39.5 41.5t-31 47.5t-26 59t-21 60t-19.5 64q-2 7 -3.5 11t-3 10t-3.5 11l-41 133h-590l-39 -133 q-43 -148 -69 -200q-66 -138 -185 -138q-16 0 -29 1.5t-18 2.5l-6 2q33 52 133 370l166 533q22 71 48 136t51 114.5t51.5 93.5t50 75.5t46 58t40 43t30.5 28t20 16.5zM461 842l-72 -244h504l-72 244q-23 78 -50 147.5t-49 112.5t-41 75.5t-29 46.5l-9 13q-11 -13 -30 -40 t-67.5 -129t-84.5 -226zM443 1743h473l2.5 -15t1.5 -33t-5.5 -42.5t-23.5 -33.5t-47 -15h-473l-2.5 15t-1 33t6 42.5t23 33.5t46.5 15z" />
<glyph unicode="&#x101;" horiz-adv-x="1042" d="M752 162v403q-9 -32 -49.5 -52.5t-94 -29.5t-114 -23.5t-111 -32t-84 -57t-33.5 -96.5q0 -74 60 -121t184 -47q67 0 127.5 14t87.5 28zM102 276q0 71 24.5 124.5t65.5 85t94.5 55t110 35.5t113.5 26t104 27t82.5 38t48.5 60q0 86 -52 132t-185 46q-146 0 -233 -56 t-87 -161q-55 78 -55 150q0 67 53 116t136.5 72t185.5 23q193 0 297 -86.5t104 -243.5v-733q-64 26 -135 26q-45 0 -139.5 -18.5t-153.5 -18.5q-73 0 -138 16.5t-120.5 50.5t-88 94t-32.5 140zM322 1366h473l2.5 -15t1.5 -33t-5.5 -42.5t-23.5 -33.5t-47 -15h-473l-2.5 15 t-1 33t6 42.5t23 33.5t46.5 15z" />
<glyph unicode="&#x102;" horiz-adv-x="1284" d="M643 1466l11 -8q11 -9 32 -29t47 -49t58.5 -75.5t64.5 -103t66.5 -136.5t62.5 -170l166 -533q95 -313 133 -370q-18 -6 -53 -6q-32 0 -59.5 10t-47.5 24t-39.5 41.5t-31 47.5t-26 59t-21 60t-19.5 64q-2 7 -3.5 11t-3 10t-3.5 11l-41 133h-590l-39 -133 q-43 -148 -69 -200q-66 -138 -185 -138q-16 0 -29 1.5t-18 2.5l-6 2q33 52 133 370l166 533q22 71 48 136t51 114.5t51.5 93.5t50 75.5t46 58t40 43t30.5 28t20 16.5zM461 842l-72 -244h504l-72 244q-23 78 -50 147.5t-49 112.5t-41 75.5t-29 46.5l-9 13q-11 -13 -30 -40 t-67.5 -129t-84.5 -226zM645 1665q81 0 130.5 52.5t49.5 123.5q0 36 -16 76q55 0 87.5 -44.5t32.5 -109.5q0 -88 -76 -158.5t-206 -70.5q-135 0 -212 70.5t-77 158.5q0 66 32.5 110t88.5 44q-16 -40 -16 -76q0 -71 49.5 -123.5t132.5 -52.5z" />
<glyph unicode="&#x103;" horiz-adv-x="1042" d="M752 162v403q-9 -32 -49.5 -52.5t-94 -29.5t-114 -23.5t-111 -32t-84 -57t-33.5 -96.5q0 -74 60 -121t184 -47q67 0 127.5 14t87.5 28zM102 276q0 71 24.5 124.5t65.5 85t94.5 55t110 35.5t113.5 26t104 27t82.5 38t48.5 60q0 86 -52 132t-185 46q-146 0 -233 -56 t-87 -161q-55 78 -55 150q0 67 53 116t136.5 72t185.5 23q193 0 297 -86.5t104 -243.5v-733q-64 26 -135 26q-45 0 -139.5 -18.5t-153.5 -18.5q-73 0 -138 16.5t-120.5 50.5t-88 94t-32.5 140zM522 1288q81 0 130.5 52.5t49.5 123.5q0 36 -16 76q55 0 88 -44.5t33 -109.5 q0 -88 -76 -158.5t-207 -70.5q-135 0 -211.5 70.5t-76.5 158.5q0 67 32.5 110.5t87.5 43.5q-16 -40 -16 -76q0 -71 49.5 -123.5t132.5 -52.5z" />
<glyph unicode="&#x104;" horiz-adv-x="1284" d="M643 1466l11 -8q11 -9 32 -29t47 -49t58.5 -75.5t64.5 -103t66.5 -136.5t62.5 -170l166 -533q95 -313 133 -370q-36 -3 -82.5 -23t-91 -52t-75.5 -80.5t-31 -100.5q0 -41 31 -69.5t93 -28.5q58 0 107 22q0 -62 -54 -102.5t-126 -40.5q-95 0 -152 54.5t-57 156.5 q0 81 71 169.5t195 131.5q-15 13 -28 29t-25 39.5t-19.5 38.5t-18.5 47t-15 44.5t-15.5 50.5t-13.5 46l-41 133h-590l-39 -133q-43 -148 -69 -200q-66 -138 -185 -138q-16 0 -29 1.5t-18 2.5l-6 2q33 52 133 370l166 533q22 71 48 136t51 114.5t51.5 93.5t50 75.5t46 58 t40 43t30.5 28t20 16.5zM461 842l-72 -244h504l-72 244q-23 78 -50 147.5t-49 112.5t-41 75.5t-29 46.5l-9 13q-11 -13 -30 -40t-67.5 -129t-84.5 -226z" />
<glyph unicode="&#x105;" horiz-adv-x="1042" d="M102 276q0 71 24.5 124.5t65.5 85t94.5 55t110 35.5t113.5 26t104 27t82.5 38t48.5 60q0 86 -52 132t-185 46q-146 0 -233 -56t-87 -161q-59 89 -56 156.5t57 113t136.5 68.5t182.5 23q193 0 297 -86.5t104 -243.5v-656q-39 -29 -74.5 -61.5t-73 -76.5t-60.5 -93.5 t-23 -95.5q0 -41 31.5 -69.5t93.5 -28.5q57 0 106 22q0 -62 -54 -102.5t-126 -40.5q-95 0 -152 54.5t-57 156.5q0 65 40.5 136t123.5 136q-110 -20 -203 -20q-74 0 -138.5 15.5t-120 49t-88 93t-32.5 138.5zM752 150v415q-9 -31 -49 -52t-93.5 -30t-114.5 -23.5 t-111.5 -31.5t-84 -54.5t-33.5 -92.5q0 -170 244 -170q67 0 127.5 9.5t87.5 19.5z" />
<glyph unicode="&#x106;" horiz-adv-x="1372" d="M729 1307q-414 0 -414 -351v-477q0 -97 31.5 -167t89.5 -109.5t130 -57.5t163 -18q66 0 130.5 8t127.5 27t110.5 47t77 71.5t29.5 96.5q41 -77 44 -140.5t-28.5 -106t-82.5 -74t-122 -48.5t-141 -25t-145 -8q-118 0 -219.5 25.5t-185.5 79.5t-132.5 148.5t-48.5 220.5 v536q0 102 32.5 183.5t87 134.5t130.5 89t159 51t177 15q75 0 145 -8t141 -25t122 -48t82.5 -74t28.5 -106t-44 -140q0 59 -44 108t-114.5 79t-153 46.5t-163.5 16.5zM628 1639l117 112q90 90 90 142q0 23 -12 47q29 -10 56.5 -25.5t50.5 -41t30.5 -55t-11 -68.5t-67.5 -79 l-164 -133l-49 13q-99 33 -41 88z" />
<glyph unicode="&#x107;" horiz-adv-x="1019" d="M885 336q59 -89 53 -156.5t-64 -113t-143.5 -68.5t-185.5 -23q-196 0 -309 87.5t-113 242.5v414q0 155 113 242.5t309 87.5q93 0 171 -23t130 -68.5t54.5 -113t-56.5 -156.5q0 102 -84.5 159.5t-202.5 57.5q-140 0 -205 -54t-65 -163v-352q0 -109 65 -163t205 -54 q141 0 234.5 57t93.5 160zM438 1262l117 112q90 90 90 142q0 23 -12 47q29 -10 56.5 -25.5t50.5 -41t30.5 -55t-11 -68.5t-67.5 -79l-164 -133l-49 13q-99 33 -41 88z" />
<glyph unicode="&#x108;" horiz-adv-x="1372" d="M729 1307q-414 0 -414 -351v-477q0 -97 31.5 -167t89.5 -109.5t130 -57.5t163 -18q66 0 130.5 8t127.5 27t110.5 47t77 71.5t29.5 96.5q41 -77 44 -140.5t-28.5 -106t-82.5 -74t-122 -48.5t-141 -25t-145 -8q-118 0 -219.5 25.5t-185.5 79.5t-132.5 148.5t-48.5 220.5 v536q0 102 32.5 183.5t87 134.5t130.5 89t159 51t177 15q75 0 145 -8t141 -25t122 -48t82.5 -74t28.5 -106t-44 -140q0 59 -44 108t-114.5 79t-153 46.5t-163.5 16.5zM712 1788l-65 -59q-90 -83 -90 -142q0 -23 12 -47q-28 10 -54.5 26t-47 41.5t-25.5 54.5t17 66.5t73 75.5 l180 134l181 -134q51 -38 73 -75.5t17 -66.5t-25.5 -54.5t-47 -41.5t-54.5 -26q12 24 12 47q0 59 -90 142z" />
<glyph unicode="&#x109;" horiz-adv-x="1019" d="M885 336q59 -89 53 -156.5t-64 -113t-143.5 -68.5t-185.5 -23q-196 0 -309 87.5t-113 242.5v414q0 155 113 242.5t309 87.5q93 0 171 -23t130 -68.5t54.5 -113t-56.5 -156.5q0 102 -84.5 159.5t-202.5 57.5q-140 0 -205 -54t-65 -163v-352q0 -109 65 -163t205 -54 q141 0 234.5 57t93.5 160zM522 1411l-65 -59q-90 -83 -90 -142q0 -23 12 -47q-28 10 -54.5 26t-47 41.5t-25.5 54.5t17 66.5t73 75.5l180 134l180 -134q51 -38 73 -75.5t17.5 -66.5t-25 -54.5t-47 -41.5t-54.5 -26q12 24 12 47q0 59 -90 142z" />
<glyph unicode="&#x10c;" horiz-adv-x="1372" d="M729 1307q-414 0 -414 -351v-477q0 -97 31.5 -167t89.5 -109.5t130 -57.5t163 -18q66 0 130.5 8t127.5 27t110.5 47t77 71.5t29.5 96.5q41 -77 44 -140.5t-28.5 -106t-82.5 -74t-122 -48.5t-141 -25t-145 -8q-118 0 -219.5 25.5t-185.5 79.5t-132.5 148.5t-48.5 220.5 v536q0 102 32.5 183.5t87 134.5t130.5 89t159 51t177 15q75 0 145 -8t141 -25t122 -48t82.5 -74t28.5 -106t-44 -140q0 59 -44 108t-114.5 79t-153 46.5t-163.5 16.5zM647 1749l66 -63l65 63q90 90 90 141q0 24 -12 48q29 -10 54.5 -25t46.5 -40t26.5 -54t-15 -67.5 t-69.5 -78.5l-164 -133h-45l-164 133q-49 40 -69.5 78.5t-15 67.5t26.5 54t46.5 40t54.5 25q-12 -24 -12 -48q0 -51 90 -141z" />
<glyph unicode="&#x10d;" horiz-adv-x="1019" d="M885 336q59 -89 53 -156.5t-64 -113t-143.5 -68.5t-185.5 -23q-196 0 -309 87.5t-113 242.5v414q0 155 113 242.5t309 87.5q93 0 171 -23t130 -68.5t54.5 -113t-56.5 -156.5q0 102 -84.5 159.5t-202.5 57.5q-140 0 -205 -54t-65 -163v-352q0 -109 65 -163t205 -54 q141 0 234.5 57t93.5 160zM457 1372l65 -63l66 63q90 90 90 141q0 24 -12 48q29 -10 54.5 -25t46.5 -40t26.5 -54t-15 -67.5t-69.5 -78.5l-164 -133h-45l-164 133q-49 40 -69.5 78.5t-15 67.5t26.5 54t46.5 40t54.5 25q-12 -24 -12 -48q0 -51 90 -141z" />
<glyph unicode="&#x10e;" horiz-adv-x="1435" d="M707 0h-375q-10 0 -24 1t-41.5 7t-48.5 15.5t-37.5 30t-16.5 48.5v1332h543q95 0 176.5 -13t158.5 -47t131 -86t86.5 -135.5t32.5 -191.5v-488q0 -108 -32.5 -191.5t-86.5 -135.5t-131 -86t-158.5 -47t-176.5 -13zM707 1292h-371v-1151h371q91 0 163 18.5t129.5 58 t89 109.5t31.5 167v448q0 350 -413 350zM626 1749l66 -63l65 63q90 90 90 141q0 24 -12 48q29 -10 54.5 -25t46.5 -40t26.5 -54t-15 -67.5t-69.5 -78.5l-164 -133h-45l-164 133q-49 40 -69.5 78.5t-15 67.5t26.5 54t46.5 40t54.5 25q-12 -24 -12 -48q0 -51 90 -141z" />
<glyph unicode="&#x10f;" horiz-adv-x="1327" d="M780 160v555q0 86 -83 143t-189 57q-100 0 -160.5 -55t-60.5 -166v-362q0 -117 58.5 -170t211.5 -53q68 0 124 12.5t77 25.5zM123 301v424q0 147 104 235.5t254 88.5q69 0 127.5 -11.5t92.5 -28t58 -33.5t33 -28l9 -12q-21 47 -21 186v408q9 0 17.5 -0.5t31 -3.5 t39.5 -11t36 -20.5t29.5 -35t10.5 -52.5v-1421q-58 26 -139 26q-39 0 -130 -18.5t-143 -18.5q-195 0 -302 85.5t-107 240.5zM1098 1434h47h100q14 0 25.5 -12t11.5 -27v-129q0 -254 -135 -254q-52 0 -92 26q38 7 57.5 46t19 82t-3.5 81z" />
<glyph unicode="&#x110;" horiz-adv-x="1435" d="M113 793h51v641h543q95 0 176.5 -13t158.5 -47t131 -86t86.5 -135.5t32.5 -191.5v-488q0 -108 -32.5 -191.5t-86.5 -135.5t-131 -86t-158.5 -47t-176.5 -13h-375q-10 0 -24 1t-41.5 7t-48.5 15.5t-37.5 30t-16.5 48.5v543h-123q-4 20 -4 47q0 101 76 101zM707 1292h-371 v-499h424q4 -23 4 -50q0 -98 -76 -98h-352v-504h371q91 0 163 18.5t129.5 58t89 109.5t31.5 167v448q0 350 -413 350z" />
<glyph unicode="&#x111;" horiz-adv-x="1087" d="M123 301v424q0 147 104 235.5t254 88.5q77 0 140 -14t99.5 -36t52.5 -35.5t26 -25.5q-19 48 -19 184v70h-174l-2.5 15t-1 33t6 42.5t23 33.5t46.5 15h102v199q9 0 17.5 -0.5t31 -3.5t39.5 -11t36 -20.5t29.5 -35t10.5 -52.5v-76h166l2.5 -15t1.5 -33t-5.5 -42.5 t-23.5 -33.5t-47 -15h-94v-1206q-58 26 -139 26q-39 0 -130 -18.5t-143 -18.5q-195 0 -302 85.5t-107 240.5zM780 160v555q0 86 -83 143t-189 57q-100 0 -160.5 -55t-60.5 -166v-362q0 -117 58.5 -170t211.5 -53q68 0 124 12.5t77 25.5z" />
<glyph unicode="&#x112;" horiz-adv-x="1159" d="M842 711h-506v-570h731q0 -7 -1 -18t-6.5 -34.5t-15 -41.5t-30.5 -32.5t-49 -14.5h-629q-7 0 -18.5 0.5t-41 6t-52.5 15t-41.5 30.5t-18.5 50v1332h903q0 -6 -0.5 -15.5t-6 -34t-15 -43t-30.5 -34t-50 -15.5h-629v-440h473q62 0 106 8t57 16l13 7q0 -28 -5 -53.5 t-19 -54.5t-44.5 -46.5t-74.5 -17.5zM437 1743h473l2.5 -15t1.5 -33t-5.5 -42.5t-23.5 -33.5t-47 -15h-473l-2.5 15t-1 33t6 42.5t23 33.5t46.5 15z" />
<glyph unicode="&#x113;" horiz-adv-x="1040" d="M885 336q53 -76 53 -143q0 -69 -57 -119.5t-145 -74.5t-191 -24q-196 0 -309 87.5t-113 242.5v414q0 155 109.5 242.5t304.5 87.5q190 0 289.5 -83.5t99.5 -226.5q0 -135 -100.5 -219t-313.5 -84q-61 0 -126 12.5t-99 36.5v-149q0 -109 65 -163t205 -54q141 0 234.5 57 t93.5 160zM287 688v-72q1 -2 34.5 -10.5t86 -17t92.5 -8.5q141 0 201.5 40t60.5 119q0 176 -225 176q-132 0 -191 -57.5t-59 -169.5zM322 1366h473l2.5 -15t1.5 -33t-5.5 -42.5t-23.5 -33.5t-47 -15h-473l-2.5 15t-1 33t6 42.5t23 33.5t46.5 15z" />
<glyph unicode="&#x116;" horiz-adv-x="1159" d="M842 711h-506v-570h731q0 -7 -1 -18t-6.5 -34.5t-15 -41.5t-30.5 -32.5t-49 -14.5h-629q-7 0 -18.5 0.5t-41 6t-52.5 15t-41.5 30.5t-18.5 50v1332h903q0 -6 -0.5 -15.5t-6 -34t-15 -43t-30.5 -34t-50 -15.5h-629v-440h473q62 0 106 8t57 16l13 7q0 -28 -5 -53.5 t-19 -54.5t-44.5 -46.5t-74.5 -17.5zM553 1647v135h129q13 0 24 -11.5t11 -25.5v-135h-127q-15 0 -26 11t-11 26z" />
<glyph unicode="&#x117;" horiz-adv-x="1040" d="M885 336q53 -76 53 -143q0 -69 -57 -119.5t-145 -74.5t-191 -24q-196 0 -309 87.5t-113 242.5v414q0 155 109.5 242.5t304.5 87.5q190 0 289.5 -83.5t99.5 -226.5q0 -135 -100.5 -219t-313.5 -84q-61 0 -126 12.5t-99 36.5v-149q0 -109 65 -163t205 -54q141 0 234.5 57 t93.5 160zM287 688v-72q1 -2 34.5 -10.5t86 -17t92.5 -8.5q141 0 201.5 40t60.5 119q0 176 -225 176q-132 0 -191 -57.5t-59 -169.5zM438 1270v135h129q13 0 24 -11.5t11 -25.5v-135h-127q-15 0 -26 11t-11 26z" />
<glyph unicode="&#x118;" horiz-adv-x="1159" d="M829 0h-493q-7 0 -18.5 0.5t-41 6t-52.5 15t-41.5 30.5t-18.5 50v1332h903q0 -6 -0.5 -15.5t-6 -34t-15 -43t-30.5 -34t-50 -15.5h-629v-440h473q62 0 106 8t57 16l13 7q0 -28 -5 -53.5t-19 -54.5t-44.5 -46.5t-74.5 -17.5h-506v-570h731q-8 -42 -36.5 -83.5t-62.5 -76 t-66.5 -70.5t-54.5 -81t-22 -94q0 -41 31.5 -69.5t93.5 -28.5q58 0 107 22q0 -62 -54 -102.5t-126 -40.5q-95 0 -152 54.5t-57 156.5q0 65 40 136t121 136z" />
<glyph unicode="&#x119;" horiz-adv-x="1040" d="M885 340q53 -76 53 -143q0 -79 -72 -134q-39 -29 -74.5 -61.5t-73 -76.5t-60.5 -93.5t-23 -95.5q0 -41 31.5 -69.5t93.5 -28.5q56 0 106 22q0 -62 -54 -102.5t-126 -40.5q-95 0 -152 54.5t-57 156.5q0 60 35 127t106 129q-50 -4 -73 -4q-196 0 -309 87.5t-113 241.5v410 q0 157 104 243.5t297 86.5q192 0 297 -84t105 -226q0 -135 -100.5 -219t-313.5 -84q-41 0 -96 9.5t-91.5 19t-37.5 12.5v-137q0 -111 59.5 -164t198.5 -53q149 0 244.5 57t95.5 160zM287 688v-78q1 -2 35 -9t86 -14t92 -7q141 0 201.5 40t60.5 119q0 176 -238 176 q-135 0 -186 -56t-51 -171z" />
<glyph unicode="&#x11a;" horiz-adv-x="1159" d="M842 711h-506v-570h731q0 -7 -1 -18t-6.5 -34.5t-15 -41.5t-30.5 -32.5t-49 -14.5h-629q-7 0 -18.5 0.5t-41 6t-52.5 15t-41.5 30.5t-18.5 50v1332h903q0 -6 -0.5 -15.5t-6 -34t-15 -43t-30.5 -34t-50 -15.5h-629v-440h473q62 0 106 8t57 16l13 7q0 -28 -5 -53.5 t-19 -54.5t-44.5 -46.5t-74.5 -17.5zM571 1749l66 -63l65 63q90 90 90 141q0 24 -12 48q29 -10 54.5 -25t46.5 -40t26.5 -54t-15 -67.5t-69.5 -78.5l-164 -133h-45l-164 133q-49 40 -69.5 78.5t-15 67.5t26.5 54t46.5 40t54.5 25q-12 -24 -12 -48q0 -51 90 -141z" />
<glyph unicode="&#x11b;" horiz-adv-x="1040" d="M885 336q53 -76 53 -143q0 -69 -57 -119.5t-145 -74.5t-191 -24q-196 0 -309 87.5t-113 242.5v414q0 155 109.5 242.5t304.5 87.5q190 0 289.5 -83.5t99.5 -226.5q0 -135 -100.5 -219t-313.5 -84q-61 0 -126 12.5t-99 36.5v-149q0 -109 65 -163t205 -54q141 0 234.5 57 t93.5 160zM287 688v-72q1 -2 34.5 -10.5t86 -17t92.5 -8.5q141 0 201.5 40t60.5 119q0 176 -225 176q-132 0 -191 -57.5t-59 -169.5zM457 1372l65 -63l66 63q90 90 90 141q0 24 -12 48q29 -10 54.5 -25t46.5 -40t26.5 -54t-15 -67.5t-69.5 -78.5l-164 -133h-45l-164 133 q-49 40 -69.5 78.5t-15 67.5t26.5 54t46.5 40t54.5 25q-12 -24 -12 -48q0 -51 90 -141z" />
<glyph unicode="&#x11c;" d="M709 -25q-118 0 -216.5 25.5t-178.5 79.5t-125.5 148t-45.5 221v536q0 102 30 183t82 135t125 89t154.5 50.5t174.5 15.5q68 0 131.5 -5.5t128 -18.5t116 -33t91 -52t58.5 -72.5t12.5 -97t-42.5 -122.5q0 59 -44.5 108t-116.5 79t-158.5 46.5t-175.5 16.5 q-90 0 -159.5 -18t-123.5 -57.5t-82.5 -109t-28.5 -166.5v-477q0 -97 28.5 -166.5t82.5 -109.5t123.5 -58t159.5 -18q76 0 130.5 7t107 27.5t84.5 56.5t51.5 96.5t19.5 144.5v127h-287q-37 0 -63.5 17.5t-37.5 43t-16.5 51t-5.5 42.5v18q54 -31 158 -31h424v-299 q0 -100 -30 -178.5t-81.5 -129t-125 -84t-154 -47.5t-174.5 -14zM719 1821l-65 -59q-90 -83 -90 -142q0 -23 12 -47q-28 10 -54.5 26t-47 41.5t-25.5 54.5t17 66.5t73 75.5l180 134l181 -134q51 -38 73 -75.5t17 -66.5t-25.5 -54.5t-47 -41.5t-54.5 -26q12 24 12 47 q0 59 -90 142z" />
<glyph unicode="&#x11d;" horiz-adv-x="1017" d="M82 223q0 55 24.5 100.5t71.5 98.5q-65 80 -65 207v116q0 64 20 116t54.5 86.5t81.5 58t98.5 33.5t109.5 10q59 0 154.5 -19.5t140.5 -19.5q78 0 143 32v-413q0 -157 -104 -243.5t-297 -86.5q-80 0 -146 15.5t-92 30.5l-26 15q-17 -76 -17 -108q0 -79 54 -102t192 -23h68 q50 0 84.5 -1.5t81 -7t78 -16.5t65.5 -31t54 -48.5t33 -71t13 -96.5q0 -162 -110.5 -256.5t-331.5 -94.5q-118 0 -210.5 23.5t-149 72.5t-56.5 117q0 69 56 148q0 -108 94 -167.5t266 -59.5q153 0 216 56t63 152q0 38 -13 65t-33 42.5t-54.5 23.5t-68 10.5t-83.5 2.5h-101 q-52 0 -89 2.5t-82 9.5t-75.5 23t-57.5 41t-40.5 64.5t-13.5 92.5zM276 659q0 -115 51.5 -171t186.5 -56t186.5 56t51.5 171v209q-11 6 -31 14t-84 22t-131 14q-132 0 -181 -46.5t-49 -156.5v-56zM524 1411l-65 -59q-90 -83 -90 -142q0 -23 12 -47q-28 10 -54.5 26t-47 41.5 t-25.5 54.5t17 66.5t73 75.5l180 134l181 -134q51 -38 73 -75.5t17 -66.5t-25.5 -54.5t-47 -41.5t-54.5 -26q12 24 12 47q0 59 -90 142z" />
<glyph unicode="&#x11e;" d="M709 -25q-118 0 -216.5 25.5t-178.5 79.5t-125.5 148t-45.5 221v536q0 102 30 183t82 135t125 89t154.5 50.5t174.5 15.5q68 0 131.5 -5.5t128 -18.5t116 -33t91 -52t58.5 -72.5t12.5 -97t-42.5 -122.5q0 59 -44.5 108t-116.5 79t-158.5 46.5t-175.5 16.5 q-90 0 -159.5 -18t-123.5 -57.5t-82.5 -109t-28.5 -166.5v-477q0 -97 28.5 -166.5t82.5 -109.5t123.5 -58t159.5 -18q76 0 130.5 7t107 27.5t84.5 56.5t51.5 96.5t19.5 144.5v127h-287q-37 0 -63.5 17.5t-37.5 43t-16.5 51t-5.5 42.5v18q54 -31 158 -31h424v-299 q0 -100 -30 -178.5t-81.5 -129t-125 -84t-154 -47.5t-174.5 -14zM709 1698q81 0 130.5 52.5t49.5 123.5q0 36 -16 76q55 0 87.5 -44.5t32.5 -109.5q0 -88 -76 -158.5t-206 -70.5q-135 0 -212 70.5t-77 158.5q0 66 32.5 110t88.5 44q-16 -40 -16 -76q0 -71 49.5 -123.5 t132.5 -52.5z" />
<glyph unicode="&#x11f;" horiz-adv-x="1017" d="M82 223q0 55 24.5 100.5t71.5 98.5q-65 80 -65 207v116q0 64 20 116t54.5 86.5t81.5 58t98.5 33.5t109.5 10q59 0 154.5 -19.5t140.5 -19.5q78 0 143 32v-413q0 -157 -104 -243.5t-297 -86.5q-80 0 -146 15.5t-92 30.5l-26 15q-17 -76 -17 -108q0 -79 54 -102t192 -23h68 q50 0 84.5 -1.5t81 -7t78 -16.5t65.5 -31t54 -48.5t33 -71t13 -96.5q0 -162 -110.5 -256.5t-331.5 -94.5q-118 0 -210.5 23.5t-149 72.5t-56.5 117q0 69 56 148q0 -108 94 -167.5t266 -59.5q153 0 216 56t63 152q0 38 -13 65t-33 42.5t-54.5 23.5t-68 10.5t-83.5 2.5h-101 q-52 0 -89 2.5t-82 9.5t-75.5 23t-57.5 41t-40.5 64.5t-13.5 92.5zM276 659q0 -115 51.5 -171t186.5 -56t186.5 56t51.5 171v209q-11 6 -31 14t-84 22t-131 14q-132 0 -181 -46.5t-49 -156.5v-56zM510 1288q81 0 130.5 52.5t49.5 123.5q0 36 -16 76q55 0 88 -44.5t33 -109.5 q0 -88 -76 -158.5t-207 -70.5q-135 0 -212 70.5t-77 158.5q0 66 32.5 110t88.5 44q-16 -40 -16 -76q0 -71 49.5 -123.5t132.5 -52.5z" />
<glyph unicode="&#x122;" d="M709 -25q-118 0 -216.5 25.5t-178.5 79.5t-125.5 148t-45.5 221v536q0 102 30 183t82 135t125 89t154.5 50.5t174.5 15.5q68 0 131.5 -5.5t128 -18.5t116 -33t91 -52t58.5 -72.5t12.5 -97t-42.5 -122.5q0 59 -44.5 108t-116.5 79t-158.5 46.5t-175.5 16.5 q-90 0 -159.5 -18t-123.5 -57.5t-82.5 -109t-28.5 -166.5v-477q0 -97 28.5 -166.5t82.5 -109.5t123.5 -58t159.5 -18q76 0 130.5 7t107 27.5t84.5 56.5t51.5 96.5t19.5 144.5v127h-287q-37 0 -63.5 17.5t-37.5 43t-16.5 51t-5.5 42.5v18q54 -31 158 -31h424v-299 q0 -100 -30 -178.5t-81.5 -129t-125 -84t-154 -47.5t-174.5 -14zM637 -74h47h100q14 0 25.5 -12t11.5 -27v-88q0 -254 -135 -254q-50 0 -92 27q38 7 56.5 46t16.5 82t-5 81z" />
<glyph unicode="&#x123;" horiz-adv-x="1017" d="M82 223q0 55 24.5 100.5t71.5 98.5q-65 80 -65 207v116q0 64 20 116t54.5 86.5t81.5 58t98.5 33.5t109.5 10q59 0 154.5 -19.5t140.5 -19.5q78 0 143 32v-413q0 -157 -104 -243.5t-297 -86.5q-80 0 -146 15.5t-92 30.5l-26 15q-17 -76 -17 -108q0 -79 54 -102t192 -23h68 q50 0 84.5 -1.5t81 -7t78 -16.5t65.5 -31t54 -48.5t33 -71t13 -96.5q0 -162 -110.5 -256.5t-331.5 -94.5q-118 0 -210.5 23.5t-149 72.5t-56.5 117q0 69 56 148q0 -108 94 -167.5t266 -59.5q153 0 216 56t63 152q0 38 -13 65t-33 42.5t-54.5 23.5t-68 10.5t-83.5 2.5h-101 q-52 0 -89 2.5t-82 9.5t-75.5 23t-57.5 41t-40.5 64.5t-13.5 92.5zM276 659q0 -115 51.5 -171t186.5 -56t186.5 56t51.5 171v209q-11 6 -31 14t-84 22t-131 14q-132 0 -181 -46.5t-49 -156.5v-56zM614 1184h-47h-100q-14 0 -25.5 12t-11.5 27v88q0 254 135 254q50 0 92 -27 q-29 -6 -46.5 -29t-22 -57t-3.5 -63t5 -60z" />
<glyph unicode="&#x124;" horiz-adv-x="1443" d="M1108 82v588h-772v-690q-7 0 -18.5 0.5t-41 6t-52.5 15t-41.5 30.5t-18.5 50v1372q7 0 18.5 -0.5t41 -6t52.5 -15t41.5 -30.5t18.5 -50v-539h772v641q7 0 18.5 -0.5t41 -6t52.5 -15t41.5 -30.5t18.5 -50v-1372q-7 0 -18.5 0.5t-41 6t-52.5 15t-41.5 30.5t-18.5 50z M723 1821l-65 -59q-90 -83 -90 -142q0 -23 12 -47q-28 10 -54.5 26t-47 41.5t-25.5 54.5t17 66.5t73 75.5l180 134l181 -134q51 -38 73 -75.5t17 -66.5t-25.5 -54.5t-47 -41.5t-54.5 -26q12 24 12 47q0 59 -90 142z" />
<glyph unicode="&#x125;" horiz-adv-x="1107" d="M307 715v-729q-7 0 -18 0.5t-39 6t-50 15t-39.5 30.5t-17.5 50v1442q10 0 17 -0.5t30 -3t40 -10.5t36.5 -20.5t30 -35.5t10.5 -53v-285q0 -62 -5 -108.5t-10 -61.5l-5 -16q3 5 9 12.5t32 27t58.5 34.5t91.5 27t128 12q151 0 255 -88.5t104 -235.5v-739q-7 0 -18 1 t-39 6.5t-50 15t-39.5 30.5t-17.5 49v606q0 111 -60.5 166t-160.5 55q-106 0 -189.5 -57t-83.5 -143zM555 1821l-66 -60q-90 -83 -90 -141q0 -21 13 -47q-28 10 -54.5 26t-47 41.5t-25.5 54.5t17 66.5t73 75.5l180 133l180 -133q51 -38 73 -75.5t17 -66.5t-25.5 -54.5 t-47 -41.5t-54.5 -26q13 26 13 47q0 58 -90 141z" />
<glyph unicode="&#x12a;" horiz-adv-x="499" d="M164 82v1372q7 0 18.5 -0.5t41 -6t52.5 -15t41.5 -30.5t18.5 -50v-1372q-7 0 -18.5 0.5t-41 6t-52.5 15t-41.5 30.5t-18.5 50zM49 1743h473l2.5 -15t1.5 -33t-5.5 -42.5t-23.5 -33.5t-47 -15h-473l-2.5 15t-1 33t6 42.5t23 33.5t46.5 15z" />
<glyph unicode="&#x12b;" horiz-adv-x="450" d="M143 82v942q9 0 21.5 -1t40 -6.5t48.5 -15t37.5 -30.5t16.5 -49v-942q-7 0 -18 0.5t-39 6t-50 15t-39.5 30.5t-17.5 50zM25 1366h473l2.5 -15t1.5 -33t-5.5 -42.5t-23.5 -33.5t-47 -15h-473l-2.5 15t-1 33t6 42.5t23 33.5t46.5 15z" />
<glyph unicode="&#x12e;" horiz-adv-x="499" d="M336 86v-106q-137 -133 -137 -244q0 -41 31.5 -69.5t93.5 -28.5q56 0 106 22q0 -62 -54 -102.5t-126 -40.5q-95 0 -152 54.5t-57 156.5q0 67 42.5 139.5t127.5 138.5q-47 26 -47 76v1372q7 0 18.5 -0.5t41 -6t52.5 -15t41.5 -30.5t18.5 -50v-1266z" />
<glyph unicode="&#x12f;" horiz-adv-x="450" d="M307 74v-94q-119 -141 -119 -244q0 -41 31.5 -69.5t93.5 -28.5q57 0 107 22q0 -62 -54 -102.5t-126 -40.5q-95 0 -152 54.5t-57 156.5q0 138 172 272q-60 25 -60 82v942q7 0 18 -0.5t39 -5.5t50 -14.5t39.5 -31t17.5 -50.5v-848zM143 1239v135h129q13 0 24 -11.5 t11 -25.5v-135h-127q-15 0 -26 11t-11 26z" />
<glyph unicode="&#x130;" horiz-adv-x="499" d="M164 82v1372q7 0 18.5 -0.5t41 -6t52.5 -15t41.5 -30.5t18.5 -50v-1372q-7 0 -18.5 0.5t-41 6t-52.5 15t-41.5 30.5t-18.5 50zM166 1647v135h129q13 0 24 -11.5t11 -25.5v-135h-127q-15 0 -26 11t-11 26z" />
<glyph unicode="&#x131;" horiz-adv-x="450" d="M143 82v942q9 0 21.5 -1t40 -6.5t48.5 -15t37.5 -30.5t16.5 -49v-942q-7 0 -18 0.5t-39 6t-50 15t-39.5 30.5t-17.5 50z" />
<glyph unicode="&#x134;" horiz-adv-x="499" d="M336 1348v-1446q0 -130 -54.5 -220t-146.5 -90q-68 0 -129 56q42 0 74.5 31.5t49.5 82t25.5 103.5t8.5 106v1483q7 0 18.5 -0.5t41 -6t52.5 -15t41.5 -31.5t18.5 -53zM250 1821l-65 -59q-90 -83 -90 -142q0 -23 12 -47q-28 10 -54.5 26t-47 41.5t-25.5 54.5t17 66.5 t73 75.5l180 134l181 -134q51 -38 73 -75.5t17 -66.5t-25.5 -54.5t-47 -41.5t-54.5 -26q12 24 12 47q0 59 -90 142z" />
<glyph unicode="&#x135;" horiz-adv-x="450" d="M305 922v-1121q0 -119 -54 -204.5t-136 -85.5q-62 0 -121 51q52 0 87 52.5t47.5 118t12.5 134.5v1157q7 0 18 -0.5t39 -6t50 -15t39.5 -30.5t17.5 -50zM225 1411l-65 -59q-90 -83 -90 -142q0 -23 12 -47q-28 10 -54.5 26t-47 41.5t-25.5 54.5t17 66.5t73 75.5l180 134 l181 -134q51 -38 73 -75.5t17 -66.5t-25.5 -54.5t-47 -41.5t-54.5 -26q12 24 12 47q0 59 -90 142z" />
<glyph unicode="&#x136;" horiz-adv-x="1222" d="M336 721v-741q-7 0 -18.5 0.5t-41 6t-52.5 15t-41.5 30.5t-18.5 50v1372q7 0 18.5 -0.5t41 -6t52.5 -15t41.5 -30.5t18.5 -50v-516q84 7 154 32.5t125 64.5t109.5 103.5t99 133.5t100.5 171q63 117 190 117q16 0 31 -1.5t22 -2.5l7 -2q-26 -39 -74 -129.5t-93 -166.5 t-105.5 -158.5t-138.5 -140.5t-165 -79q93 -13 179 -80.5t154 -167.5t121 -196t104.5 -199.5t78.5 -144.5q-24 -6 -59 -6q-57 0 -115.5 25.5t-93.5 90.5q-16 29 -45 86q-41 78 -62 117t-61 105t-69 100t-75 79.5t-90 68.5t-103.5 42t-125.5 23zM547 -74h47h100 q14 0 25.5 -12t11.5 -27v-88q0 -254 -135 -254q-50 0 -92 27q29 6 46.5 29t22 57t3.5 63t-5 60z" />
<glyph unicode="&#x137;" horiz-adv-x="989" d="M518 594q84 -19 151.5 -63t108.5 -96.5t75.5 -117.5t53.5 -120.5t41.5 -112t40.5 -84.5q-59 -14 -86 -14q-47 0 -79.5 27t-52 71.5t-38.5 98t-49 109t-73 103t-121 81.5t-183 42v-532q-7 0 -18 0.5t-39 6t-50 15t-39.5 30.5t-17.5 50v1446q7 0 18 -0.5t39 -6t50 -15 t39.5 -30.5t17.5 -50v-781q69 0 121 17t96.5 58t79.5 92.5t80 135.5q44 84 170 84q30 0 61 -8q-18 -26 -53 -88.5t-67 -112.5t-74.5 -104.5t-94.5 -89t-108 -41.5zM436 -74h47h101q14 0 25.5 -12t11.5 -27v-88q0 -254 -136 -254q-50 0 -92 27q38 7 56.5 46t16.5 82t-5 81z " />
<glyph unicode="&#x139;" horiz-adv-x="1032" d="M918 0h-582q-7 0 -18.5 0.5t-41 6t-52.5 15t-41.5 30.5t-18.5 50v1352q7 0 18.5 -0.5t41 -6t52.5 -15t41.5 -30.5t18.5 -50v-1211h508q62 0 106 7.5t57 15.5l13 8q0 -37 -7 -72.5t-31.5 -67.5t-63.5 -32zM164 1639l117 112q90 90 90 142q0 23 -12 47q29 -10 56.5 -25.5 t50.5 -41t30.5 -55t-11 -68.5t-67.5 -79l-164 -133l-49 13q-99 33 -41 88z" />
<glyph unicode="&#x13a;" horiz-adv-x="450" d="M133 276v1258q9 0 21.5 -1t40 -6.5t48.5 -15t37.5 -30.5t16.5 -49v-1090q0 -69 12.5 -134.5t47.5 -118t87 -52.5q-59 -51 -120 -51q-93 0 -142 82.5t-49 207.5zM127 1694l117 112q90 90 90 142q0 23 -12 47q29 -10 56.5 -25.5t50.5 -41t30.5 -55t-11 -68.5t-67.5 -79 l-164 -133l-49 13q-99 33 -41 88z" />
<glyph unicode="&#x13b;" horiz-adv-x="1032" d="M918 0h-582q-7 0 -18.5 0.5t-41 6t-52.5 15t-41.5 30.5t-18.5 50v1352q7 0 18.5 -0.5t41 -6t52.5 -15t41.5 -30.5t18.5 -50v-1211h508q62 0 106 7.5t57 15.5l13 8q0 -37 -7 -72.5t-31.5 -67.5t-63.5 -32zM500 -74h47h100q14 0 25.5 -12t11.5 -27v-88q0 -254 -135 -254 q-50 0 -92 27q29 6 46.5 29t22 57t3.5 63t-5 60z" />
<glyph unicode="&#x13c;" horiz-adv-x="450" d="M133 276v1258q9 0 21.5 -1t40 -6.5t48.5 -15t37.5 -30.5t16.5 -49v-1090q0 -69 12.5 -134.5t47.5 -118t87 -52.5q-59 -51 -120 -51q-93 0 -142 82.5t-49 207.5zM186 -74h47h101q14 0 25.5 -12t11.5 -27v-88q0 -254 -135 -254q-51 0 -93 27q38 7 56.5 46t16.5 82t-5 81z " />
<glyph unicode="&#x13d;" horiz-adv-x="1032" d="M918 0h-582q-7 0 -18.5 0.5t-41 6t-52.5 15t-41.5 30.5t-18.5 50v1352q7 0 18.5 -0.5t41 -6t52.5 -15t41.5 -30.5t18.5 -50v-1211h508q62 0 106 7.5t57 15.5l13 8q0 -37 -7 -72.5t-31.5 -67.5t-63.5 -32zM557 1434h47h101q14 0 25 -12t11 -27v-88q0 -254 -135 -254 q-52 0 -92 26q38 7 56.5 46t16.5 82t-5 81z" />
<glyph unicode="&#x13e;" horiz-adv-x="684" d="M133 276v1258q9 0 21.5 -1t40 -6.5t48.5 -15t37.5 -30.5t16.5 -49v-1090q0 -69 12.5 -134.5t47.5 -118t87 -52.5q-59 -51 -120 -51q-93 0 -142 82.5t-49 207.5zM455 1434h47h100q14 0 25.5 -12t11.5 -27v-88q0 -254 -135 -254q-52 0 -92 26q29 6 46.5 29t22 57t3.5 63 t-5 60z" />
<glyph unicode="&#x141;" horiz-adv-x="1032" d="M164 102v627l-113 -45q-2 3 -4.5 7.5t-9.5 18t-11.5 26.5t-6.5 30.5t0.5 31.5t13.5 27t30 21l101 41v567q7 0 18.5 -0.5t41 -6t52.5 -15t41.5 -30.5t18.5 -50v-396l108 45q2 -3 4.5 -7.5t9.5 -18t11.5 -26.5t7 -30.5t0 -31.5t-13.5 -27.5t-31 -21.5l-96 -39v-658h508 q62 0 106 7.5t57 15.5l13 8q0 -37 -7 -72.5t-31.5 -67.5t-63.5 -32h-582q-7 0 -18.5 0.5t-41 6t-52.5 15t-41.5 30.5t-18.5 50z" />
<glyph unicode="&#x142;" horiz-adv-x="450" d="M133 270v459l-113 -45q-3 5 -8 13.5t-14 32t-11 43.5t9 41.5t37 31.5l100 41v647q7 0 18 -0.5t39 -5.5t50 -14.5t39.5 -31t17.5 -50.5v-480l117 49q2 -3 4.5 -7.5t9.5 -18t11.5 -26.5t7 -30.5t-0.5 -31.5t-14 -27.5t-31 -21.5l-104 -43v-459q0 -69 12.5 -134.5t47.5 -118 t87 -52.5q-59 -51 -120 -51q-82 0 -136.5 85.5t-54.5 204.5z" />
<glyph unicode="&#x143;" horiz-adv-x="1445" d="M440 1331l596 -971l94 -155q-20 107 -20 168v1061q7 0 18.5 -0.5t41 -6.5t52.5 -15.5t41.5 -30.5t18.5 -50v-1351q-61 0 -112.5 13.5t-80.5 33t-49.5 39.5t-27.5 34l-8 13l-689 1112q21 -99 21 -185v-1060q-7 0 -18.5 0.5t-41 6t-52.5 15t-41.5 30.5t-18.5 50v1352 q45 0 69 -1t59.5 -6t58 -15.5t47 -30.5t42.5 -50zM641 1639l117 112q90 90 90 142q0 23 -12 47q29 -10 56.5 -25.5t50.5 -41t30.5 -55t-11 -68.5t-67.5 -79l-164 -133l-49 13q-99 33 -41 88z" />
<glyph unicode="&#x144;" horiz-adv-x="1107" d="M797 88v623q0 99 -58 149.5t-190 50.5q-67 0 -128.5 -10.5t-89.5 -21.5l-28 -11v-882q-7 0 -18 0.5t-39 6t-50 15t-39.5 30.5t-17.5 50v950q60 -32 133 -32q47 0 146 21.5t160 21.5q75 0 139 -14.5t121 -48t90 -96t33 -149.5v-755q-7 0 -18 1t-39 6.5t-50 15t-39.5 30.5 t-17.5 49zM463 1262l117 112q90 90 90 142q0 21 -13 47q29 -10 56.5 -25.5t51 -41t31 -55t-11 -68.5t-67.5 -79l-164 -133l-49 13q-99 33 -41 88z" />
<glyph unicode="&#x145;" horiz-adv-x="1445" d="M440 1331l596 -971l94 -155q-20 107 -20 168v1061q7 0 18.5 -0.5t41 -6.5t52.5 -15.5t41.5 -30.5t18.5 -50v-1351q-61 0 -112.5 13.5t-80.5 33t-49.5 39.5t-27.5 34l-8 13l-689 1112q21 -99 21 -185v-1060q-7 0 -18.5 0.5t-41 6t-52.5 15t-41.5 30.5t-18.5 50v1352 q45 0 69 -1t59.5 -6t58 -15.5t47 -30.5t42.5 -50zM649 -74h47h101q14 0 25.5 -12t11.5 -27v-88q0 -254 -136 -254q-50 0 -92 27q38 7 56.5 46t16.5 82t-5 81z" />
<glyph unicode="&#x146;" horiz-adv-x="1107" d="M801 88v623q0 99 -58 149.5t-190 50.5q-67 0 -128.5 -10.5t-89.5 -21.5l-28 -11v-882q-7 0 -18 0.5t-39 6t-50 15t-39.5 30.5t-17.5 50v950q60 -32 133 -32q47 0 146 21.5t160 21.5q75 0 139 -14.5t121 -48t90 -96t33 -149.5v-755q-7 0 -18 1t-39 6.5t-50 15t-39.5 30.5 t-17.5 49zM465 -74h47h100q14 0 25.5 -12t11.5 -27v-88q0 -254 -135 -254q-50 0 -92 27q29 6 46.5 29t22 57t3.5 63t-5 60z" />
<glyph unicode="&#x147;" horiz-adv-x="1445" d="M440 1331l596 -971l94 -155q-20 107 -20 168v1061q7 0 18.5 -0.5t41 -6.5t52.5 -15.5t41.5 -30.5t18.5 -50v-1351q-61 0 -112.5 13.5t-80.5 33t-49.5 39.5t-27.5 34l-8 13l-689 1112q21 -99 21 -185v-1060q-7 0 -18.5 0.5t-41 6t-52.5 15t-41.5 30.5t-18.5 50v1352 q45 0 69 -1t59.5 -6t58 -15.5t47 -30.5t42.5 -50zM659 1749l66 -63l65 63q90 90 90 141q0 24 -12 48q29 -10 54.5 -25t46.5 -40t26.5 -54t-15 -67.5t-69.5 -78.5l-164 -133h-45l-164 133q-49 40 -69.5 78.5t-15 67.5t26.5 54t46.5 40t54.5 25q-12 -24 -12 -48q0 -51 90 -141 z" />
<glyph unicode="&#x148;" horiz-adv-x="1107" d="M801 88v623q0 99 -58 149.5t-190 50.5q-67 0 -128.5 -10.5t-89.5 -21.5l-28 -11v-882q-7 0 -18 0.5t-39 6t-50 15t-39.5 30.5t-17.5 50v950q60 -32 133 -32q47 0 146 21.5t160 21.5q75 0 139 -14.5t121 -48t90 -96t33 -149.5v-755q-7 0 -18 1t-39 6.5t-50 15t-39.5 30.5 t-17.5 49zM481 1372l66 -63l65 63q90 90 90 141q0 24 -12 48q29 -10 54.5 -25t46.5 -40t26.5 -54t-15 -67.5t-69.5 -78.5l-164 -133h-45l-164 133q-49 40 -69.5 78.5t-15 67.5t26.5 54t46.5 40t54.5 25q-12 -24 -12 -48q0 -51 90 -141z" />
<glyph unicode="&#x14c;" d="M1274 1004v-574q0 -218 -141 -336.5t-424 -118.5q-284 0 -425 118t-141 337v574q0 219 141 336.5t425 117.5q283 0 424 -118t141 -336zM1102 457v520q0 68 -9 117.5t-34.5 93.5t-69 71t-114 42.5t-168.5 15.5q-120 0 -199 -22t-120.5 -69t-57 -105t-15.5 -144v-520 q0 -86 15.5 -144t57 -105t120.5 -69t199 -22q98 0 168.5 15.5t114 42.5t69 71t34.5 93.5t9 117.5zM510 1743h473l2.5 -15t1.5 -33t-5.5 -42.5t-23.5 -33.5t-47 -15h-473l-2.5 15t-1 33t6 42.5t23 33.5t46.5 15z" />
<glyph unicode="&#x14d;" horiz-adv-x="1130" d="M1008 719v-414q0 -159 -110.5 -244.5t-332.5 -85.5q-221 0 -331.5 85.5t-110.5 244.5v414q0 159 110.5 244.5t331.5 85.5q222 0 332.5 -85.5t110.5 -244.5zM844 336v352q0 57 -11.5 96t-41 70.5t-85.5 46t-141 14.5t-140.5 -14.5t-85 -46t-41 -70t-11.5 -96.5v-352 q0 -58 11.5 -96.5t41 -70t85 -46t140.5 -14.5t141 14.5t85.5 46t41 70.5t11.5 96zM362 1366h474l2.5 -15t1.5 -33t-5.5 -42.5t-23.5 -33.5t-47 -15h-473l-2.5 15t-1.5 33t5.5 42.5t23 33.5t46.5 15z" />
<glyph unicode="&#x150;" d="M1274 1004v-574q0 -218 -141 -336.5t-424 -118.5q-284 0 -425 118t-141 337v574q0 219 141 336.5t425 117.5q283 0 424 -118t141 -336zM1102 457v520q0 68 -9 117.5t-34.5 93.5t-69 71t-114 42.5t-168.5 15.5q-120 0 -199 -22t-120.5 -69t-57 -105t-15.5 -144v-520 q0 -86 15.5 -144t57 -105t120.5 -69t199 -22q98 0 168.5 15.5t114 42.5t69 71t34.5 93.5t9 117.5zM432 1680l72 71q86 86 86 139q0 22 -13 48q28 -10 54 -25t46.5 -40t25.5 -53.5t-15.5 -66.5t-69.5 -78l-114 -92q-6 1 -15.5 3t-31.5 10t-34.5 18t-12.5 27.5t22 38.5z M698 1618l137 131q90 90 90 141q0 24 -12 48q29 -10 54.5 -25t46.5 -40t26.5 -54t-15 -67.5t-69.5 -78.5l-184 -151q-3 0 -8.5 1t-19.5 5t-26 8.5t-23.5 12.5t-16 17.5t-0.5 23t20 28.5z" />
<glyph unicode="&#x151;" horiz-adv-x="1130" d="M1008 719v-414q0 -159 -110.5 -244.5t-332.5 -85.5q-221 0 -331.5 85.5t-110.5 244.5v414q0 159 110.5 244.5t331.5 85.5q222 0 332.5 -85.5t110.5 -244.5zM844 336v352q0 57 -11.5 96t-41 70.5t-85.5 46t-141 14.5t-140.5 -14.5t-85 -46t-41 -70t-11.5 -96.5v-352 q0 -58 11.5 -96.5t41 -70t85 -46t140.5 -14.5t141 14.5t85.5 46t41 70.5t11.5 96zM285 1303l71 71q86 86 86 139q0 24 -12 48q28 -10 54 -25t46.5 -40t25.5 -53.5t-15.5 -66.5t-69.5 -78l-115 -92q-6 1 -15.5 3t-31 10t-34 18t-12.5 27.5t22 38.5zM551 1241l137 131 q90 90 90 141q0 24 -12 48q29 -10 54.5 -25t46.5 -40t26.5 -54t-15 -67.5t-69.5 -78.5l-184 -151q-3 0 -8.5 1t-19.5 5t-26 8.5t-23.5 12.5t-16 17.5t-0.5 23t20 28.5z" />
<glyph unicode="&#x152;" horiz-adv-x="1667" d="M946 1296v-440h373q62 0 106 8t57 16l13 7q0 -28 -5 -53.5t-19 -54.5t-44.5 -46.5t-74.5 -17.5h-406v-578h629q0 -11 -2.5 -26t-10.5 -44t-31.5 -48t-57.5 -19h-764h-50q-263 10 -389.5 134.5t-126.5 361.5v442q0 247 139.5 371.5t426.5 124.5h866q0 -6 -0.5 -15t-6 -33 t-15 -42t-30.5 -33t-50 -15h-527zM707 137h67v1159h-67q-97 0 -166.5 -16.5t-113 -45.5t-68.5 -78.5t-34.5 -106.5t-9.5 -138v-389q0 -81 9.5 -138t34.5 -106.5t68.5 -78.5t113 -45.5t166.5 -16.5z" />
<glyph unicode="&#x153;" horiz-adv-x="1761" d="M1606 340q53 -76 53 -143q0 -69 -57 -119.5t-144.5 -74t-191.5 -23.5q-120 0 -211 33t-127 100q-37 -68 -133 -100.5t-230 -32.5q-222 0 -332 85.5t-110 243.5v410q0 159 110.5 244.5t331.5 85.5q132 0 227 -32.5t132 -98.5q34 66 119.5 98.5t201.5 32.5q192 0 297 -84 t105 -226q0 -135 -100.5 -219t-313.5 -84q-41 0 -96 9.5t-91.5 19t-37.5 12.5v-147q2 -106 62 -156.5t196 -50.5q149 0 244.5 57t95.5 160zM565 113q81 0 135 13t84.5 41t44 63.5t15.5 86.5v371q0 57 -11.5 96t-41 70.5t-85.5 46t-141 14.5t-140.5 -14.5t-85 -46t-41 -70 t-11.5 -96.5v-348q0 -58 11.5 -96.5t41 -70t85 -46t140.5 -14.5zM1008 688v-78q1 -2 35 -9t86 -14t92 -7q141 0 201.5 40t60.5 119q0 176 -238 176q-135 0 -186 -56t-51 -171z" />
<glyph unicode="&#x154;" horiz-adv-x="1163" d="M1069 1026q0 -169 -115 -263.5t-301 -94.5q67 -26 128.5 -78.5t105 -112.5t85.5 -133t70 -134.5t59 -124.5t52 -95q-24 -6 -59 -6q-136 0 -199 116q-18 34 -46 87t-44 83.5t-41 75.5t-43 71t-45 61t-51 56t-56.5 45t-66.5 38.5t-76 26.5t-90 18v-682q-7 0 -18.5 1 t-41 6.5t-52.5 15t-41.5 30.5t-18.5 49v1352h422q483 0 483 -347v-61zM586 1292h-250v-495h266q159 0 227 64t68 196q0 128 -74.5 181.5t-236.5 53.5zM506 1639l117 112q90 90 90 142q0 23 -12 47q29 -10 56.5 -25.5t50.5 -41t30.5 -55t-11 -68.5t-67.5 -79l-164 -133 l-49 13q-99 33 -41 88z" />
<glyph unicode="&#x155;" horiz-adv-x="778" d="M504 903q-48 0 -97.5 -8.5t-74.5 -17.5l-25 -9v-882q-7 0 -18 0.5t-39 6t-50 15t-39.5 30.5t-17.5 50v950q60 -32 125 -32q40 0 124.5 21.5t144.5 21.5q111 0 176 -42.5t65 -123.5q0 -69 -57 -146q0 81 -61 123.5t-156 42.5zM334 1262l117 112q90 90 90 142q0 21 -13 47 q29 -10 56.5 -25.5t51 -41t31 -55t-11 -68.5t-67.5 -79l-164 -133l-49 13q-99 33 -41 88z" />
<glyph unicode="&#x156;" horiz-adv-x="1163" d="M1069 1026q0 -169 -115 -263.5t-301 -94.5q67 -26 128.5 -78.5t105 -112.5t85.5 -133t70 -134.5t59 -124.5t52 -95q-24 -6 -59 -6q-136 0 -199 116q-18 34 -46 87t-44 83.5t-41 75.5t-43 71t-45 61t-51 56t-56.5 45t-66.5 38.5t-76 26.5t-90 18v-682q-7 0 -18.5 1 t-41 6.5t-52.5 15t-41.5 30.5t-18.5 49v1352h422q483 0 483 -347v-61zM586 1292h-250v-495h266q159 0 227 64t68 196q0 128 -74.5 181.5t-236.5 53.5zM510 -74h47h100q14 0 25.5 -12t11.5 -27v-88q0 -254 -135 -254q-50 0 -92 27q38 7 56.5 46t16.5 82t-5 81z" />
<glyph unicode="&#x157;" horiz-adv-x="778" d="M504 903q-48 0 -97.5 -8.5t-74.5 -17.5l-25 -9v-882q-7 0 -18 0.5t-39 6t-50 15t-39.5 30.5t-17.5 50v950q60 -32 125 -32q40 0 124.5 21.5t144.5 21.5q111 0 176 -42.5t65 -123.5q0 -69 -57 -146q0 81 -61 123.5t-156 42.5zM145 -74h48h100q14 0 25.5 -12t11.5 -27v-88 q0 -254 -135 -254q-51 0 -93 27q38 7 56.5 46t16.5 82t-5 81z" />
<glyph unicode="&#x158;" horiz-adv-x="1163" d="M1069 1026q0 -169 -115 -263.5t-301 -94.5q67 -26 128.5 -78.5t105 -112.5t85.5 -133t70 -134.5t59 -124.5t52 -95q-24 -6 -59 -6q-136 0 -199 116q-18 34 -46 87t-44 83.5t-41 75.5t-43 71t-45 61t-51 56t-56.5 45t-66.5 38.5t-76 26.5t-90 18v-682q-7 0 -18.5 1 t-41 6.5t-52.5 15t-41.5 30.5t-18.5 49v1352h422q483 0 483 -347v-61zM586 1292h-250v-495h266q159 0 227 64t68 196q0 128 -74.5 181.5t-236.5 53.5zM524 1749l66 -63l65 63q90 90 90 141q0 24 -12 48q29 -10 54.5 -25t46.5 -40t26.5 -54t-15 -67.5t-69.5 -78.5l-164 -133 h-45l-164 133q-49 40 -69.5 78.5t-15 67.5t26.5 54t46.5 40t54.5 25q-12 -24 -12 -48q0 -51 90 -141z" />
<glyph unicode="&#x159;" horiz-adv-x="778" d="M504 903q-48 0 -97.5 -8.5t-74.5 -17.5l-25 -9v-882q-7 0 -18 0.5t-39 6t-50 15t-39.5 30.5t-17.5 50v950q60 -32 125 -32q40 0 124.5 21.5t144.5 21.5q111 0 176 -42.5t65 -123.5q0 -69 -57 -146q0 81 -61 123.5t-156 42.5zM373 1372l65 -63l66 63q90 90 90 141 q0 24 -12 48q29 -10 54.5 -25t46.5 -40t26.5 -54t-15 -67.5t-69.5 -78.5l-164 -133h-45l-164 133q-49 40 -69.5 78.5t-15 67.5t26.5 54t46.5 40t54.5 25q-12 -24 -12 -48q0 -51 90 -141z" />
<glyph unicode="&#x15a;" horiz-adv-x="1294" d="M180 377q0 -52 18.5 -93t54 -67.5t78.5 -45t100 -27.5t110 -13t116 -4q170 0 262.5 73.5t92.5 198.5q0 49 -12.5 87t-50.5 66t-60 44.5t-91.5 33.5t-90.5 21t-108 19q-97 17 -147 27.5t-129 38.5t-118.5 64t-71 99.5t-31.5 147.5q0 411 545 411q496 0 496 -235 q0 -72 -47 -166q0 62 -25.5 108t-65.5 73t-101 43t-121 21t-136 5q-176 0 -270 -56.5t-94 -185.5q0 -62 31 -104t83.5 -64.5t121 -37t144 -26t150.5 -25.5t143.5 -42.5t121 -70.5t83.5 -114.5t31 -170.5q0 -106 -41 -189.5t-114 -136.5t-169.5 -81t-210.5 -28 q-102 0 -186.5 10t-165 34.5t-126.5 74t-46 119.5q0 74 47 164zM563 1639l117 112q90 90 90 142q0 23 -12 47q29 -10 56.5 -25.5t50.5 -41t30.5 -55t-11 -68.5t-67.5 -79l-164 -133l-49 13q-99 33 -41 88z" />
<glyph unicode="&#x15b;" horiz-adv-x="987" d="M82 729q0 155 103 237.5t298 82.5q169 0 274 -49t105 -148q0 -73 -59 -164q0 106 -81 161.5t-239 55.5q-138 0 -187.5 -40t-49.5 -136q0 -43 28.5 -69.5t74.5 -35.5t105.5 -17t121 -12.5t121 -23.5t105.5 -49t74.5 -90t28.5 -145q0 -144 -108 -228t-314 -84 q-112 0 -198.5 20.5t-141.5 67t-55 115.5q0 72 55 158q0 -106 89.5 -161.5t250.5 -55.5q147 0 202.5 46t55.5 132q0 59 -36.5 93.5t-94.5 46.5t-128 18t-140.5 17t-128.5 34.5t-94.5 79.5t-36.5 143zM395 1262l117 112q90 90 90 142q0 23 -12 47q29 -10 56.5 -25.5t50.5 -41 t30.5 -55t-11 -68.5t-67.5 -79l-164 -133l-49 13q-99 33 -41 88z" />
<glyph unicode="&#x15c;" horiz-adv-x="1294" d="M180 377q0 -52 18.5 -93t54 -67.5t78.5 -45t100 -27.5t110 -13t116 -4q170 0 262.5 73.5t92.5 198.5q0 49 -12.5 87t-50.5 66t-60 44.5t-91.5 33.5t-90.5 21t-108 19q-97 17 -147 27.5t-129 38.5t-118.5 64t-71 99.5t-31.5 147.5q0 411 545 411q496 0 496 -235 q0 -72 -47 -166q0 62 -25.5 108t-65.5 73t-101 43t-121 21t-136 5q-176 0 -270 -56.5t-94 -185.5q0 -62 31 -104t83.5 -64.5t121 -37t144 -26t150.5 -25.5t143.5 -42.5t121 -70.5t83.5 -114.5t31 -170.5q0 -106 -41 -189.5t-114 -136.5t-169.5 -81t-210.5 -28 q-102 0 -186.5 10t-165 34.5t-126.5 74t-46 119.5q0 74 47 164zM647 1788l-65 -59q-90 -83 -90 -142q0 -23 12 -47q-28 10 -54.5 26t-47 41.5t-25.5 54.5t17 66.5t73 75.5l180 134l181 -134q51 -38 73 -75.5t17 -66.5t-25.5 -54.5t-47 -41.5t-54.5 -26q12 24 12 47 q0 59 -90 142z" />
<glyph unicode="&#x15d;" horiz-adv-x="987" d="M82 729q0 155 103 237.5t298 82.5q169 0 274 -49t105 -148q0 -73 -59 -164q0 106 -81 161.5t-239 55.5q-138 0 -187.5 -40t-49.5 -136q0 -43 28.5 -69.5t74.5 -35.5t105.5 -17t121 -12.5t121 -23.5t105.5 -49t74.5 -90t28.5 -145q0 -144 -108 -228t-314 -84 q-112 0 -198.5 20.5t-141.5 67t-55 115.5q0 72 55 158q0 -106 89.5 -161.5t250.5 -55.5q147 0 202.5 46t55.5 132q0 59 -36.5 93.5t-94.5 46.5t-128 18t-140.5 17t-128.5 34.5t-94.5 79.5t-36.5 143zM479 1411l-65 -59q-90 -83 -90 -142q0 -23 12 -47q-28 10 -54.5 26 t-47 41.5t-25.5 54.5t17 66.5t73 75.5l180 134l180 -134q51 -38 73 -75.5t17.5 -66.5t-25 -54.5t-47 -41.5t-54.5 -26q12 24 12 47q0 59 -90 142z" />
<glyph unicode="&#x15e;" horiz-adv-x="1294" d="M526 -225q3 16 11 45l45 157q-91 3 -165.5 16t-141.5 38.5t-104.5 72t-37.5 109.5q0 74 47 164q0 -52 18.5 -93t54 -67.5t78.5 -45t100 -27.5t110 -13t116 -4q170 0 262.5 73.5t92.5 198.5q0 49 -12.5 87t-50.5 66t-60 44.5t-91.5 33.5t-90.5 21t-108 19 q-97 17 -147 27.5t-129 38.5t-118.5 64t-71 99.5t-31.5 147.5q0 411 545 411q496 0 496 -235q0 -72 -47 -166q0 62 -25.5 108t-65.5 73t-101 43t-121 21t-136 5q-176 0 -270 -56.5t-94 -185.5q0 -62 31 -104t83.5 -64.5t121 -37t144 -26t150.5 -25.5t143.5 -42.5t121 -70.5 t83.5 -114.5t31 -170.5q0 -135 -67 -233.5t-178.5 -147.5t-256.5 -54l-14 -79h4q92 0 153.5 -51t61.5 -142q0 -85 -62.5 -134.5t-152.5 -49.5q-65 0 -109.5 34.5t-44.5 86.5q52 -23 107 -23q53 0 89 22t36 70q0 46 -36.5 67t-88.5 21q-18 0 -45 -5.5t-44 -11.5z" />
<glyph unicode="&#x15f;" horiz-adv-x="987" d="M360 -225q3 16 11 45l45 157q-148 10 -238 59.5t-90 141.5q0 72 55 158q0 -106 89.5 -161.5t250.5 -55.5q147 0 202.5 46t55.5 132q0 59 -36.5 93.5t-94.5 46.5t-128 18t-140.5 17t-128.5 34.5t-94.5 79.5t-36.5 143q0 155 103 237.5t298 82.5q169 0 274 -49t105 -148 q0 -73 -59 -164q0 106 -81 161.5t-239 55.5q-138 0 -187.5 -40t-49.5 -136q0 -43 28.5 -69.5t74.5 -35.5t105.5 -17t121 -12.5t121 -23.5t105.5 -49t74.5 -90t28.5 -145q0 -137 -98 -220t-283 -90l-14 -81h4q92 0 153.5 -51t61.5 -142q0 -85 -62.5 -134.5t-152.5 -49.5 q-65 0 -109.5 34.5t-44.5 86.5q52 -23 107 -23q53 0 89 22t36 70q0 46 -36.5 67t-88.5 21q-18 0 -45 -5.5t-44 -11.5z" />
<glyph unicode="&#x160;" horiz-adv-x="1294" d="M180 377q0 -52 18.5 -93t54 -67.5t78.5 -45t100 -27.5t110 -13t116 -4q170 0 262.5 73.5t92.5 198.5q0 49 -12.5 87t-50.5 66t-60 44.5t-91.5 33.5t-90.5 21t-108 19q-97 17 -147 27.5t-129 38.5t-118.5 64t-71 99.5t-31.5 147.5q0 411 545 411q496 0 496 -235 q0 -72 -47 -166q0 62 -25.5 108t-65.5 73t-101 43t-121 21t-136 5q-176 0 -270 -56.5t-94 -185.5q0 -62 31 -104t83.5 -64.5t121 -37t144 -26t150.5 -25.5t143.5 -42.5t121 -70.5t83.5 -114.5t31 -170.5q0 -106 -41 -189.5t-114 -136.5t-169.5 -81t-210.5 -28 q-102 0 -186.5 10t-165 34.5t-126.5 74t-46 119.5q0 74 47 164zM581 1749l66 -63l65 63q90 90 90 141q0 24 -12 48q29 -10 54.5 -25t46.5 -40t26.5 -54t-15 -67.5t-69.5 -78.5l-164 -133h-45l-164 133q-49 40 -69.5 78.5t-15 67.5t26.5 54t46.5 40t54.5 25q-12 -24 -12 -48 q0 -51 90 -141z" />
<glyph unicode="&#x161;" horiz-adv-x="987" d="M82 729q0 155 103 237.5t298 82.5q169 0 274 -49t105 -148q0 -73 -59 -164q0 106 -81 161.5t-239 55.5q-138 0 -187.5 -40t-49.5 -136q0 -43 28.5 -69.5t74.5 -35.5t105.5 -17t121 -12.5t121 -23.5t105.5 -49t74.5 -90t28.5 -145q0 -144 -108 -228t-314 -84 q-112 0 -198.5 20.5t-141.5 67t-55 115.5q0 72 55 158q0 -106 89.5 -161.5t250.5 -55.5q147 0 202.5 46t55.5 132q0 59 -36.5 93.5t-94.5 46.5t-128 18t-140.5 17t-128.5 34.5t-94.5 79.5t-36.5 143zM414 1372l65 -63l66 63q90 90 90 141q0 24 -12 48q29 -10 54.5 -25 t46.5 -40t26.5 -54t-15 -67.5t-69.5 -78.5l-164 -133h-45l-164 133q-49 40 -69.5 78.5t-15 67.5t26.5 54t46.5 40t54.5 25q-12 -24 -12 -48q0 -51 90 -141z" />
<glyph unicode="&#x162;" horiz-adv-x="1120" d="M436 -225q2 16 10 45l56 198q-31 24 -31 64v1210h-324q-44 0 -74.5 17.5t-44.5 46.5t-19 54.5t-5 53.5q4 -3 14 -8t55 -13.5t107 -8.5h760q62 0 106 7.5t57 14.5l13 8q0 -28 -5 -53.5t-19 -54.5t-44.5 -46.5t-74.5 -17.5h-330v-1312q-20 0 -43 4l-14 -88h4 q92 0 153.5 -51t61.5 -142q0 -85 -62.5 -134.5t-152.5 -49.5q-65 0 -109.5 34.5t-44.5 86.5q52 -23 107 -23q53 0 89 22t36 70q0 46 -36.5 67t-88.5 21q-18 0 -45 -5.5t-44 -11.5z" />
<glyph unicode="&#x163;" horiz-adv-x="849" d="M360 -225q3 16 11 45l45 164q-127 20 -200 104.5t-73 216.5v963q7 0 18 -1t39 -7t50 -16t39.5 -31t17.5 -50v-170h428q0 -6 -1 -15.5t-6.5 -33.5t-15 -43t-30.5 -34t-49 -15h-326v-490q0 -118 48.5 -180.5t164.5 -62.5q111 0 186.5 58.5t75.5 158.5q56 -82 56 -152 q0 -64 -46.5 -111.5t-116 -71t-151.5 -26.5l-14 -79h4q92 0 153.5 -51t61.5 -142q0 -85 -62.5 -134.5t-152.5 -49.5q-65 0 -109.5 34.5t-44.5 86.5q52 -23 107 -23q53 0 89 22t36 70q0 46 -36.5 67t-88.5 21q-18 0 -45 -5.5t-44 -11.5z" />
<glyph unicode="&#x164;" horiz-adv-x="1120" d="M973 1292h-330v-1312q-7 0 -18.5 0.5t-41 6t-52.5 15t-41.5 30.5t-18.5 50v1210h-324q-44 0 -74.5 17.5t-44.5 46.5t-19 54.5t-5 53.5q4 -3 14 -8t55 -13.5t107 -8.5h760q62 0 106 7.5t57 14.5l13 8q0 -28 -5 -53.5t-19 -54.5t-44.5 -46.5t-74.5 -17.5zM489 1749l66 -63 l65 63q90 90 90 141q0 24 -12 48q29 -10 54.5 -25t46.5 -40t26.5 -54t-15 -67.5t-69.5 -78.5l-164 -133h-45l-164 133q-49 40 -69.5 78.5t-15 67.5t26.5 54t46.5 40t54.5 25q-12 -24 -12 -48q0 -51 90 -141z" />
<glyph unicode="&#x165;" horiz-adv-x="978" d="M143 305v963q7 0 18 -1t39 -7t50 -16t39.5 -31t17.5 -50v-170h428q0 -6 -1 -15.5t-6.5 -33.5t-15 -43t-30.5 -34t-49 -15h-326v-490q0 -118 48.5 -180.5t164.5 -62.5q111 0 186.5 58.5t75.5 158.5q56 -82 56 -152q0 -98 -99.5 -153.5t-234.5 -55.5q-166 0 -263.5 88 t-97.5 242zM764 1434h47h100q14 0 25.5 -12t11.5 -27v-88q0 -254 -135 -254q-52 0 -92 26q29 6 46.5 29t22 57t3.5 63t-5 60z" />
<glyph unicode="&#x16a;" d="M1274 1352v-944q0 -105 -45.5 -189t-124.5 -136.5t-179.5 -80t-215.5 -27.5t-216 27.5t-179.5 80t-124.5 136.5t-46 189v1046q7 0 18.5 -0.5t41 -6t52.5 -15t41.5 -30.5t18.5 -50v-914q0 -150 107.5 -230.5t286.5 -80.5q178 0 285.5 80.5t107.5 230.5v1016q7 0 18.5 -0.5 t41 -6t52.5 -15t41.5 -30.5t18.5 -50zM510 1743h473l2.5 -15t1.5 -33t-5.5 -42.5t-23.5 -33.5t-47 -15h-473l-2.5 15t-1 33t6 42.5t23 33.5t46.5 15z" />
<glyph unicode="&#x16b;" horiz-adv-x="1107" d="M307 936v-623q0 -99 58 -149.5t190 -50.5q67 0 128.5 10.5t89.5 21.5l28 11v882q7 0 18 -0.5t39 -6t50 -15t39.5 -30.5t17.5 -50v-950q-60 32 -134 32q-47 0 -145.5 -21.5t-159.5 -21.5q-75 0 -139 14.5t-121 48t-90 96t-33 149.5v755q7 0 18 -1t39 -6.5t50 -15 t39.5 -30.5t17.5 -49zM346 1366h473q1 -6 3 -15t2 -33t-5.5 -42.5t-23.5 -33.5t-47 -15h-474l-2.5 15t-1 33t6 42.5t23 33.5t46.5 15z" />
<glyph unicode="&#x16c;" d="M1274 1352v-944q0 -105 -45.5 -189t-124.5 -136.5t-179.5 -80t-215.5 -27.5t-216 27.5t-179.5 80t-124.5 136.5t-46 189v1046q7 0 18.5 -0.5t41 -6t52.5 -15t41.5 -30.5t18.5 -50v-914q0 -150 107.5 -230.5t286.5 -80.5q178 0 285.5 80.5t107.5 230.5v1016q7 0 18.5 -0.5 t41 -6t52.5 -15t41.5 -30.5t18.5 -50zM711 1665q81 0 130.5 52.5t49.5 123.5q0 36 -16 76q55 0 87.5 -44.5t32.5 -109.5q0 -88 -76 -158.5t-206 -70.5q-135 0 -212 70.5t-77 158.5q0 66 32.5 110t88.5 44q-16 -40 -16 -76q0 -71 49.5 -123.5t132.5 -52.5z" />
<glyph unicode="&#x16d;" horiz-adv-x="1107" d="M307 936v-623q0 -99 58 -149.5t190 -50.5q67 0 128.5 10.5t89.5 21.5l28 11v882q7 0 18 -0.5t39 -6t50 -15t39.5 -30.5t17.5 -50v-950q-60 32 -134 32q-47 0 -145.5 -21.5t-159.5 -21.5q-75 0 -139 14.5t-121 48t-90 96t-33 149.5v755q7 0 18 -1t39 -6.5t50 -15 t39.5 -30.5t17.5 -49zM547 1288q81 0 130.5 52.5t49.5 123.5q0 36 -16 76q55 0 87.5 -44.5t32.5 -109.5q0 -88 -76 -158.5t-206 -70.5q-135 0 -212 70.5t-77 158.5q0 66 32.5 110t88.5 44q-16 -40 -16 -76q0 -71 49.5 -123.5t132.5 -52.5z" />
<glyph unicode="&#x16e;" d="M1274 1352v-944q0 -105 -45.5 -189t-124.5 -136.5t-179.5 -80t-215.5 -27.5t-216 27.5t-179.5 80t-124.5 136.5t-46 189v1046q7 0 18.5 -0.5t41 -6t52.5 -15t41.5 -30.5t18.5 -50v-914q0 -150 107.5 -230.5t286.5 -80.5q178 0 285.5 80.5t107.5 230.5v1016q7 0 18.5 -0.5 t41 -6t52.5 -15t41.5 -30.5t18.5 -50zM880 1778v-139q0 -53 -46 -82t-124 -29t-124 29t-46 82v139q0 52 46.5 82t123.5 30t123.5 -30t46.5 -82zM800 1673v72q0 38 -18.5 56t-71.5 18q-55 0 -72.5 -18t-17.5 -56v-72q0 -39 17 -56t73 -17q54 0 72 17.5t18 55.5z" />
<glyph unicode="&#x16f;" horiz-adv-x="1107" d="M307 936v-623q0 -99 58 -149.5t190 -50.5q67 0 128.5 10.5t89.5 21.5l28 11v882q7 0 18 -0.5t39 -6t50 -15t39.5 -30.5t17.5 -50v-950q-60 32 -134 32q-47 0 -145.5 -21.5t-159.5 -21.5q-75 0 -139 14.5t-121 48t-90 96t-33 149.5v755q7 0 18 -1t39 -6.5t50 -15 t39.5 -30.5t17.5 -49zM717 1401v-139q0 -53 -46 -82t-124 -29t-124 29t-46 82v139q0 52 46.5 82t123.5 30t123.5 -30t46.5 -82zM637 1296v72q0 38 -18.5 56t-71.5 18q-55 0 -72.5 -18t-17.5 -56v-72q0 -39 17 -56t73 -17q54 0 72 17.5t18 55.5z" />
<glyph unicode="&#x170;" d="M1274 1352v-944q0 -105 -45.5 -189t-124.5 -136.5t-179.5 -80t-215.5 -27.5t-216 27.5t-179.5 80t-124.5 136.5t-46 189v1046q7 0 18.5 -0.5t41 -6t52.5 -15t41.5 -30.5t18.5 -50v-914q0 -150 107.5 -230.5t286.5 -80.5q178 0 285.5 80.5t107.5 230.5v1016q7 0 18.5 -0.5 t41 -6t52.5 -15t41.5 -30.5t18.5 -50zM432 1680l72 71q86 86 86 139q0 22 -13 48q28 -10 54 -25t46.5 -40t25.5 -53.5t-15.5 -66.5t-69.5 -78l-114 -92q-6 1 -15.5 3t-31.5 10t-34.5 18t-12.5 27.5t22 38.5zM698 1618l137 131q90 90 90 141q0 24 -12 48q29 -10 54.5 -25 t46.5 -40t26.5 -54t-15 -67.5t-69.5 -78.5l-184 -151q-3 0 -8.5 1t-19.5 5t-26 8.5t-23.5 12.5t-16 17.5t-0.5 23t20 28.5z" />
<glyph unicode="&#x171;" horiz-adv-x="1107" d="M307 936v-623q0 -99 58 -149.5t190 -50.5q67 0 128.5 10.5t89.5 21.5l28 11v882q7 0 18 -0.5t39 -6t50 -15t39.5 -30.5t17.5 -50v-950q-60 32 -134 32q-47 0 -145.5 -21.5t-159.5 -21.5q-75 0 -139 14.5t-121 48t-90 96t-33 149.5v755q7 0 18 -1t39 -6.5t50 -15 t39.5 -30.5t17.5 -49zM268 1303l72 71q86 86 86 139q0 24 -12 48q28 -10 54 -25t46.5 -40t25.5 -53.5t-15.5 -66.5t-69.5 -78l-115 -92q-6 1 -15.5 3t-31.5 10t-34.5 18t-12.5 27.5t22 38.5zM535 1241l137 131q90 90 90 141q0 24 -12 48q29 -10 54.5 -25t46.5 -40t26.5 -54 t-15 -67.5t-69.5 -78.5l-185 -151q-3 0 -8.5 1t-19.5 5t-25.5 8.5t-23 12.5t-16.5 17.5t-0.5 23t20.5 28.5z" />
<glyph unicode="&#x172;" d="M1274 1352v-944q0 -206 -166 -322q-28 -20 -80 -47t-90 -49t-77 -54.5t-60 -79t-21 -106.5q0 -49 30 -80.5t97 -31.5q57 0 107 22q0 -62 -54 -102.5t-126 -40.5q-97 0 -156.5 57.5t-59.5 142.5q0 72 36.5 131.5t111.5 128.5q-9 0 -28.5 -1t-28.5 -1q-115 0 -216 27.5 t-179.5 80t-124.5 136.5t-46 189v1046q7 0 18.5 -0.5t41 -6t52.5 -15t41.5 -30.5t18.5 -50v-914q0 -150 107.5 -230.5t286.5 -80.5q178 0 285.5 80.5t107.5 230.5v1016q7 0 18.5 -0.5t41 -6t52.5 -15t41.5 -30.5t18.5 -50z" />
<glyph unicode="&#x173;" horiz-adv-x="1107" d="M307 942v-629q0 -107 56.5 -154.5t191.5 -47.5q67 0 128.5 9.5t89.5 19.5l28 10v894q7 0 18 -0.5t39 -5.5t50 -14.5t39.5 -31t17.5 -50.5v-879q-39 -29 -74.5 -61.5t-73.5 -76.5t-61 -93.5t-23 -95.5q0 -41 31.5 -69.5t93.5 -28.5q58 0 107 22q0 -62 -54.5 -102.5 t-126.5 -40.5q-95 0 -152 54.5t-57 156.5q0 65 40.5 136t123.5 136l19 14q-149 -34 -232 -34q-58 0 -111.5 10t-103.5 33t-87 57.5t-59 86.5t-22 116v761q7 0 18 -0.5t39 -5.5t50 -14.5t39.5 -31t17.5 -50.5z" />
<glyph unicode="&#x178;" horiz-adv-x="1146" d="M659 -20q-7 0 -18.5 0.5t-41 6t-52.5 15.5t-41.5 31.5t-18.5 50.5v532q-81 73 -160 196.5t-130 233.5t-106.5 228t-86.5 166q24 6 59 6q124 0 187 -117q32 -60 98.5 -201t117 -228t107.5 -144q56 57 107 145t116.5 226t100.5 202q63 117 186 117q16 0 31 -1.5t22 -2.5 l7 -2q-31 -48 -87 -166t-107.5 -228t-130.5 -233.5t-159 -196.5v-636zM328 1647v135h129q13 0 23.5 -11.5t10.5 -25.5v-135h-127q-15 0 -25.5 11t-10.5 26zM629 1647v135h129q13 0 23.5 -11.5t10.5 -25.5v-135h-127q-15 0 -25.5 11t-10.5 26z" />
<glyph unicode="&#x179;" horiz-adv-x="1153" d="M999 0h-933q-6 110 28.5 214.5t97 191.5t141 170.5t164 167.5t161 166t137 181.5t88.5 200.5h-774q0 6 0.5 15.5t6 34t15 43t30.5 34t50 15.5h856q-1 -96 -27.5 -191t-71 -176t-102.5 -159t-122.5 -148t-129.5 -136t-126 -129t-110 -121t-82 -118t-42 -115h672 q62 0 106 7.5t57 15.5l13 8q0 -26 -4.5 -53t-15 -55.5t-32 -46t-51.5 -17.5zM516 1639l117 112q90 90 90 142q0 23 -12 47q29 -10 56.5 -25.5t50.5 -41t30.5 -55t-11 -68.5t-67.5 -79l-164 -133l-49 13q-99 33 -41 88z" />
<glyph unicode="&#x17a;" horiz-adv-x="911" d="M655 883h-563q0 6 0.5 15.5t6.5 33.5t15.5 43t30.5 34t50 15h653q-7 -24 -16.5 -75t-16.5 -75q-27 -92 -93.5 -186t-142.5 -168.5t-149.5 -142t-125 -129t-58.5 -107.5h614q0 -6 -0.5 -15.5t-6 -33.5t-15 -43t-30.5 -34t-50 -15h-686q-4 18 -4 57q0 67 25.5 131t69 118 t96.5 107t112 107t112 107.5t100 120.5t72 135zM377 1262l117 112q90 90 90 142q0 21 -13 47q29 -10 56.5 -25.5t51 -41t31 -55t-11 -68.5t-67.5 -79l-164 -133l-49 13q-99 33 -41 88z" />
<glyph unicode="&#x17b;" horiz-adv-x="1153" d="M999 0h-933q-6 110 28.5 214.5t97 191.5t141 170.5t164 167.5t161 166t137 181.5t88.5 200.5h-774q0 6 0.5 15.5t6 34t15 43t30.5 34t50 15.5h856q-1 -96 -27.5 -191t-71 -176t-102.5 -159t-122.5 -148t-129.5 -136t-126 -129t-110 -121t-82 -118t-42 -115h672 q62 0 106 7.5t57 15.5l13 8q0 -26 -4.5 -53t-15 -55.5t-32 -46t-51.5 -17.5zM516 1647v135h129q13 0 24 -11.5t11 -25.5v-135h-127q-15 0 -26 11t-11 26z" />
<glyph unicode="&#x17c;" horiz-adv-x="911" d="M655 883h-563q0 6 0.5 15.5t6.5 33.5t15.5 43t30.5 34t50 15h653q-7 -24 -16.5 -75t-16.5 -75q-27 -92 -93.5 -186t-142.5 -168.5t-149.5 -142t-125 -129t-58.5 -107.5h614q0 -6 -0.5 -15.5t-6 -33.5t-15 -43t-30.5 -34t-50 -15h-686q-4 18 -4 57q0 67 25.5 131t69 118 t96.5 107t112 107t112 107.5t100 120.5t72 135zM377 1270v135h129q13 0 24 -11.5t11 -25.5v-135h-127q-15 0 -26 11t-11 26z" />
<glyph unicode="&#x17d;" horiz-adv-x="1153" d="M999 0h-933q-6 110 28.5 214.5t97 191.5t141 170.5t164 167.5t161 166t137 181.5t88.5 200.5h-774q0 6 0.5 15.5t6 34t15 43t30.5 34t50 15.5h856q-1 -96 -27.5 -191t-71 -176t-102.5 -159t-122.5 -148t-129.5 -136t-126 -129t-110 -121t-82 -118t-42 -115h672 q62 0 106 7.5t57 15.5l13 8q0 -26 -4.5 -53t-15 -55.5t-32 -46t-51.5 -17.5zM534 1749l66 -63l65 63q90 90 90 141q0 24 -12 48q29 -10 54.5 -25t46.5 -40t26.5 -54t-15 -67.5t-69.5 -78.5l-164 -133h-45l-164 133q-49 40 -69.5 78.5t-15 67.5t26.5 54t46.5 40t54.5 25 q-12 -24 -12 -48q0 -51 90 -141z" />
<glyph unicode="&#x17e;" horiz-adv-x="911" d="M655 883h-563q0 6 0.5 15.5t6.5 33.5t15.5 43t30.5 34t50 15h653q-7 -24 -16.5 -75t-16.5 -75q-27 -92 -93.5 -186t-142.5 -168.5t-149.5 -142t-125 -129t-58.5 -107.5h614q0 -6 -0.5 -15.5t-6 -33.5t-15 -43t-30.5 -34t-50 -15h-686q-4 18 -4 57q0 67 25.5 131t69 118 t96.5 107t112 107t112 107.5t100 120.5t72 135zM395 1372l66 -63l65 63q90 90 90 141q0 24 -12 48q29 -10 54.5 -25t46.5 -40t26.5 -54t-15 -67.5t-69.5 -78.5l-164 -133h-45l-164 133q-49 40 -69.5 78.5t-15 67.5t26.5 54t46.5 40t54.5 25q-12 -24 -12 -48q0 -51 90 -141z " />
<glyph unicode="&#x192;" horiz-adv-x="974" d="M209 -20l-29 -179q-19 -119 -87 -204.5t-148 -85.5q-62 0 -113 51q52 0 95 52.5t66 117.5t34 135l213 1339q16 101 84 176.5t169 114.5t222 39q161 0 248.5 -39.5t87.5 -114.5t-80 -161q0 4 1 12t1 12q0 79 -67.5 115.5t-213.5 36.5q-127 0 -201.5 -56.5t-91.5 -164.5 l-55 -345h387q-1 -6 -3.5 -15.5t-12 -33.5t-22 -43t-36 -34t-51.5 -15h-284z" />
<glyph unicode="&#x218;" horiz-adv-x="1294" d="M180 377q0 -52 18.5 -93t54 -67.5t78.5 -45t100 -27.5t110 -13t116 -4q170 0 262.5 73.5t92.5 198.5q0 49 -12.5 87t-50.5 66t-60 44.5t-91.5 33.5t-90.5 21t-108 19q-97 17 -147 27.5t-129 38.5t-118.5 64t-71 99.5t-31.5 147.5q0 411 545 411q496 0 496 -235 q0 -72 -47 -166q0 62 -25.5 108t-65.5 73t-101 43t-121 21t-136 5q-176 0 -270 -56.5t-94 -185.5q0 -62 31 -104t83.5 -64.5t121 -37t144 -26t150.5 -25.5t143.5 -42.5t121 -70.5t83.5 -114.5t31 -170.5q0 -106 -41 -189.5t-114 -136.5t-169.5 -81t-210.5 -28 q-102 0 -186.5 10t-165 34.5t-126.5 74t-46 119.5q0 74 47 164zM549 -74h47h100q14 0 25.5 -12t11.5 -27v-88q0 -254 -135 -254q-50 0 -92 27q29 6 46.5 29t22 57t3.5 63t-5 60z" />
<glyph unicode="&#x219;" horiz-adv-x="987" d="M82 729q0 155 103 237.5t298 82.5q169 0 274 -49t105 -148q0 -73 -59 -164q0 106 -81 161.5t-239 55.5q-138 0 -187.5 -40t-49.5 -136q0 -43 28.5 -69.5t74.5 -35.5t105.5 -17t121 -12.5t121 -23.5t105.5 -49t74.5 -90t28.5 -145q0 -144 -108 -228t-314 -84 q-112 0 -198.5 20.5t-141.5 67t-55 115.5q0 72 55 158q0 -106 89.5 -161.5t250.5 -55.5q147 0 202.5 46t55.5 132q0 59 -36.5 93.5t-94.5 46.5t-128 18t-140.5 17t-128.5 34.5t-94.5 79.5t-36.5 143zM412 -74h47h100q14 0 25.5 -12t11.5 -27v-88q0 -254 -135 -254 q-50 0 -92 27q29 6 46.5 29t22 57t3.5 63t-5 60z" />
<glyph unicode="&#x21a;" horiz-adv-x="1120" d="M973 1292h-330v-1312q-7 0 -18.5 0.5t-41 6t-52.5 15t-41.5 30.5t-18.5 50v1210h-324q-44 0 -74.5 17.5t-44.5 46.5t-19 54.5t-5 53.5q4 -3 14 -8t55 -13.5t107 -8.5h760q62 0 106 7.5t57 14.5l13 8q0 -28 -5 -53.5t-19 -54.5t-44.5 -46.5t-74.5 -17.5zM467 -74h47h100 q14 0 25.5 -12t11.5 -27v-88q0 -254 -135 -254q-50 0 -92 27q38 7 56.5 46t16.5 82t-5 81z" />
<glyph unicode="&#x21b;" horiz-adv-x="849" d="M143 305v963q7 0 18 -1t39 -7t50 -16t39.5 -31t17.5 -50v-170h428q0 -6 -1 -15.5t-6.5 -33.5t-15 -43t-30.5 -34t-49 -15h-326v-490q0 -118 48.5 -180.5t164.5 -62.5q111 0 186.5 58.5t75.5 158.5q56 -82 56 -152q0 -98 -99.5 -153.5t-234.5 -55.5q-166 0 -263.5 88 t-97.5 242zM354 -74h47h101q14 0 25.5 -12t11.5 -27v-88q0 -254 -136 -254q-50 0 -92 27q38 7 56.5 46t16.5 82t-5 81z" />
<glyph unicode="&#x2c6;" horiz-adv-x="1001" d="M526 1411l-65 -59q-90 -83 -90 -142q0 -23 12 -47q-28 10 -54.5 26t-47 41.5t-25.5 54.5t17 66.5t73 75.5l180 134l181 -134q51 -38 73 -75.5t17 -66.5t-25.5 -54.5t-47 -41.5t-54.5 -26q12 24 12 47q0 59 -90 142z" />
<glyph unicode="&#x2c7;" horiz-adv-x="1001" d="M522 1372l66 -63l65 63q90 90 90 141q0 24 -12 48q29 -10 54.5 -25t46.5 -40t26.5 -54t-15 -67.5t-69.5 -78.5l-164 -133h-45l-164 133q-49 40 -69.5 78.5t-15 67.5t26.5 54t46.5 40t54.5 25q-12 -24 -12 -48q0 -51 90 -141z" />
<glyph unicode="&#x2d8;" horiz-adv-x="1169" d="M588 1288q81 0 130.5 52.5t49.5 123.5q0 36 -16 76q55 0 87.5 -44.5t32.5 -109.5q0 -88 -76 -158.5t-206 -70.5q-135 0 -212 70.5t-77 158.5q0 66 32.5 110t88.5 44q-16 -40 -16 -76q0 -71 49.5 -123.5t132.5 -52.5z" />
<glyph unicode="&#x2d9;" horiz-adv-x="497" d="M160 1270v135h129q13 0 24 -11.5t11 -25.5v-135h-127q-15 0 -26 11t-11 26z" />
<glyph unicode="&#x2da;" horiz-adv-x="698" d="M520 1401v-139q0 -53 -46 -82t-124 -29t-124 29t-46 82v139q0 52 46.5 82t123.5 30t123.5 -30t46.5 -82zM440 1296v72q0 38 -18.5 56t-71.5 18q-55 0 -72.5 -18t-17.5 -56v-72q0 -39 17 -56t73 -17q54 0 72 17.5t18 55.5z" />
<glyph unicode="&#x2db;" horiz-adv-x="1224" d="M748 88l57 -22q-15 -19 -47.5 -55t-54.5 -63.5t-46.5 -63.5t-37.5 -73.5t-13 -74.5q0 -41 31.5 -69.5t93.5 -28.5q57 0 107 22q0 -62 -54.5 -102.5t-126.5 -40.5q-95 0 -151.5 54.5t-56.5 156.5q0 179 299 360z" />
<glyph unicode="&#x2dc;" horiz-adv-x="796" d="M125 1223q-8 44 -6 86.5t32.5 73t86.5 30.5q54 0 163.5 -47t171.5 -47q36 0 58.5 11.5t42.5 41.5q8 -32 6 -65.5t-10.5 -62t-36.5 -46.5t-72 -18q-56 0 -165 47t-169 47q-39 0 -60.5 -11.5t-41.5 -39.5z" />
<glyph unicode="&#x2dd;" horiz-adv-x="958" d="M207 1303l72 71q86 86 86 139q0 22 -13 48q28 -10 54 -25t46.5 -40t25.5 -53.5t-15.5 -66.5t-69.5 -78l-114 -92q-6 1 -15.5 3t-31.5 10t-34.5 18t-12.5 27.5t22 38.5zM473 1241l137 131q90 90 90 141q0 24 -12 48q29 -10 54.5 -25t46.5 -40t26.5 -54t-15 -67.5 t-69.5 -78.5l-184 -151q-3 0 -8.5 1t-19.5 5t-26 8.5t-23.5 12.5t-16 17.5t-0.5 23t20 28.5z" />
<glyph unicode="&#x394;" horiz-adv-x="1705" />
<glyph unicode="&#x3a9;" horiz-adv-x="2279" d="M1073 653v160q0 128 36 231.5t111.5 168.5t180.5 65q37 0 69 -6.5t65 -22.5t53.5 -50t23.5 -83q-68 60 -146 60q-118 0 -185 -104t-67 -263v-160q0 -128 -35.5 -231.5t-111 -168.5t-180.5 -65q-37 0 -69 6.5t-65 22.5t-53.5 50t-23.5 83q67 -59 145 -59q118 0 185 103.5 t67 262.5zM567 1266q-43 -76 -43 -138q0 -46 25.5 -85t66.5 -69t90.5 -58.5t99.5 -60.5t91 -67.5t66.5 -87t25.5 -112.5q0 -101 -61.5 -161t-145.5 -60q-85 0 -145 57q2 -14 2 -43q-7 -83 -75.5 -141t-151.5 -58q-91 0 -163.5 42.5t-117 113.5t-67.5 157.5t-23 178.5 q0 87 21 172t63 161t100.5 134.5t139.5 92.5t174 34q5 0 14.5 -1t13.5 -1zM1712 203q43 76 43 137q0 40 -20 76t-52.5 62t-74.5 53.5t-85.5 51t-85.5 55t-74.5 64t-52.5 79t-20 100.5q0 101 61.5 161t145.5 60t145 -58q-2 14 -2 43q7 83 75.5 141t152.5 58q91 0 163.5 -42.5 t116.5 -113.5t67 -156.5t23 -178.5q0 -87 -20.5 -172t-63 -161t-100.5 -134.5t-139 -92.5t-174 -34q-5 0 -15 1t-14 1z" />
<glyph unicode="&#x3bc;" horiz-adv-x="1107" d="M307 936v-623q0 -99 58 -149.5t190 -50.5q67 0 128.5 10.5t89.5 21.5l28 11v882q7 0 18 -0.5t39 -6t50 -15t39.5 -30.5t17.5 -50v-950q-60 32 -134 32q-47 0 -145.5 -21.5t-159.5 -21.5q-152 0 -231 56q14 -82 14 -133v-404q-7 0 -18 0.5t-39 6.5t-50 15.5t-39.5 30.5 t-17.5 50v643q-2 12 -2 43v755q7 0 18 -1t39 -6.5t50 -15t39.5 -30.5t17.5 -49z" />
<glyph unicode="&#x3c0;" horiz-adv-x="2279" d="M1073 442v160q0 128 36 231.5t111.5 168.5t180.5 65q37 0 69 -6.5t65 -22.5t53.5 -50t23.5 -83q-68 60 -146 60q-118 0 -185 -104t-67 -263v-160q0 -128 -35.5 -231.5t-111 -168.5t-180.5 -65q-37 0 -69 6.5t-65 22.5t-53.5 50t-23.5 83q67 -59 145 -59q118 0 185 103.5 t67 262.5zM567 1055q-43 -76 -43 -137q0 -40 20 -76t52.5 -62t74.5 -53.5t85.5 -51t85.5 -55t74.5 -64t52.5 -79t20 -100.5q0 -101 -61.5 -161t-145.5 -60q-85 0 -145 57q2 -14 2 -43q-7 -83 -75.5 -141t-151.5 -58q-91 0 -163.5 42.5t-117 113.5t-67.5 157.5t-23 178.5 q0 87 21 172t63 161t100.5 134.5t139.5 92.5t174 34q5 0 14.5 -1t13.5 -1zM1712 -8q43 76 43 137q0 40 -20 76t-52.5 62t-74.5 53.5t-85.5 51t-85.5 55t-74.5 64t-52.5 79t-20 100.5q0 101 61.5 161t145.5 60q85 0 145 -57q-2 14 -2 43q7 83 75.5 140.5t152.5 57.5 q91 0 163.5 -42.5t116.5 -113.5t67 -156.5t23 -178.5q0 -87 -20.5 -172t-63 -161t-100.5 -134.5t-139 -92.5t-174 -34q-5 0 -15 1t-14 1z" />
<glyph unicode="&#x2000;" horiz-adv-x="997" />
<glyph unicode="&#x2001;" horiz-adv-x="1995" />
<glyph unicode="&#x2002;" horiz-adv-x="997" />
<glyph unicode="&#x2003;" horiz-adv-x="1995" />
<glyph unicode="&#x2004;" horiz-adv-x="665" />
<glyph unicode="&#x2005;" horiz-adv-x="498" />
<glyph unicode="&#x2006;" horiz-adv-x="332" />
<glyph unicode="&#x2007;" horiz-adv-x="332" />
<glyph unicode="&#x2008;" horiz-adv-x="249" />
<glyph unicode="&#x2009;" horiz-adv-x="399" />
<glyph unicode="&#x200a;" horiz-adv-x="110" />
<glyph unicode="&#x2010;" horiz-adv-x="1017" d="M221 598h647q1 -6 3 -16t2 -35t-5.5 -44.5t-23.5 -35.5t-47 -16h-647q-1 6 -2.5 16t-1.5 35t5.5 44.5t23 35.5t46.5 16z" />
<glyph unicode="&#x2011;" horiz-adv-x="1017" d="M221 598h647q1 -6 3 -16t2 -35t-5.5 -44.5t-23.5 -35.5t-47 -16h-647q-1 6 -2.5 16t-1.5 35t5.5 44.5t23 35.5t46.5 16z" />
<glyph unicode="&#x2012;" horiz-adv-x="1017" d="M221 598h647q1 -6 3 -16t2 -35t-5.5 -44.5t-23.5 -35.5t-47 -16h-647q-1 6 -2.5 16t-1.5 35t5.5 44.5t23 35.5t46.5 16z" />
<glyph unicode="&#x2013;" horiz-adv-x="1445" d="M139 598h1239q1 -6 3 -16t2 -35t-5.5 -44.5t-23.5 -35.5t-47 -16h-1239q-1 6 -2.5 16t-1.5 35t5.5 44.5t23 35.5t46.5 16z" />
<glyph unicode="&#x2014;" horiz-adv-x="1644" d="M139 598h1438q1 -6 2.5 -16t1.5 -35t-5.5 -44.5t-23.5 -35.5t-47 -16h-1437q-1 6 -2.5 16t-1.5 35t5.5 44.5t23 35.5t46.5 16z" />
<glyph unicode="&#x2018;" horiz-adv-x="471" d="M332 1012h-47h-101q-14 0 -25.5 12t-11.5 27v129q0 254 136 254q50 0 92 -27q-38 -7 -58 -46t-19.5 -82t3.5 -81z" />
<glyph unicode="&#x2019;" horiz-adv-x="471" d="M139 1434h47h101q14 0 25.5 -12t11.5 -27v-129q0 -254 -136 -254q-52 0 -92 26q38 7 58 46t19.5 82t-3.5 81z" />
<glyph unicode="&#x201a;" horiz-adv-x="471" d="M139 182h47h101q14 0 25.5 -12t11.5 -27v-129q0 -254 -136 -254q-50 0 -92 27q38 7 58 46t19.5 82t-3.5 81z" />
<glyph unicode="&#x201c;" horiz-adv-x="778" d="M332 1012h-148q-14 0 -25.5 12t-11.5 27v129q0 254 136 254q50 0 92 -27q-38 -7 -58 -46t-19.5 -82t3.5 -81zM639 1012h-147q-14 0 -25.5 12t-11.5 27v129q0 254 135 254q50 0 92 -27q-38 -7 -58 -46t-19.5 -82t3.5 -81z" />
<glyph unicode="&#x201d;" horiz-adv-x="778" d="M139 1434h47h101q14 0 25.5 -12t11.5 -27v-129q0 -254 -136 -254q-52 0 -92 26q38 7 58 46t19.5 82t-3.5 81zM446 1434h48h100q14 0 25.5 -12t11.5 -27v-129q0 -254 -135 -254q-53 0 -93 26q38 7 58 46t19.5 82t-3.5 81z" />
<glyph unicode="&#x201e;" horiz-adv-x="778" d="M139 182h47h101q14 0 25.5 -12t11.5 -27v-129q0 -254 -136 -254q-50 0 -92 27q38 7 58 46t19.5 82t-3.5 81zM446 182h48h100q14 0 25.5 -12t11.5 -27v-129q0 -254 -135 -254q-51 0 -93 27q38 7 58 46t19.5 82t-3.5 81z" />
<glyph unicode="&#x2020;" horiz-adv-x="772" d="M98 1024h207v512q7 0 18 -0.5t39 -6t50 -15t39.5 -30.5t17.5 -50v-410h276q1 -6 3 -16t2 -35t-5.5 -44.5t-23.5 -35.5t-47 -16h-205v-1373q-7 0 -18 0.5t-39 6.5t-50 15.5t-39.5 30.5t-17.5 50v1270h-278q-1 6 -2.5 16t-1.5 35t5.5 44.5t23 35.5t46.5 16z" />
<glyph unicode="&#x2021;" horiz-adv-x="772" d="M98 147h207v730h-278q-1 6 -2.5 16t-1.5 35t5.5 44.5t23 35.5t46.5 16h207v512q7 0 18 -0.5t39 -6t50 -15t39.5 -30.5t17.5 -50v-410h276q1 -6 3 -16t2 -35t-5.5 -44.5t-23.5 -35.5t-47 -16h-205v-730h276q1 -6 3 -16t2 -35t-5.5 -44.5t-23.5 -35.5t-47 -16h-205v-496 q-7 0 -18 0.5t-39 6.5t-50 15.5t-39.5 30.5t-17.5 50v393h-278q-1 6 -2.5 16t-1.5 35t5.5 44.5t23 35.5t46.5 16z" />
<glyph unicode="&#x2022;" horiz-adv-x="946" d="M823 614v-178q0 -126 -87.5 -194t-262.5 -68t-262.5 68t-87.5 194v178q0 125 87.5 192.5t262.5 67.5t262.5 -67.5t87.5 -192.5z" />
<glyph unicode="&#x2026;" horiz-adv-x="1413" d="M178 39v143h139q14 0 25.5 -12t11.5 -27v-143h-137q-15 0 -27 12t-12 27zM649 39v143h139q14 0 25.5 -12t11.5 -27v-143h-137q-15 0 -27 12t-12 27zM1120 39v143h140q14 0 25 -12t11 -27v-143h-137q-15 0 -27 12t-12 27z" />
<glyph unicode="&#x202f;" horiz-adv-x="399" />
<glyph unicode="&#x2030;" horiz-adv-x="2033" d="M1489 381v-207q0 -94 -81 -144t-220 -50t-220 50t-81 144v248q0 92 82 145.5t219 53.5q87 0 164 -25q-11 16 -11 55v199q0 92 82 145.5t219 53.5t219.5 -53.5t82.5 -145.5v-248q0 -93 -81.5 -143.5t-220.5 -50.5q-89 0 -163 24q10 -22 10 -51zM692 1255v-247 q0 -94 -81 -144.5t-220 -50.5t-220 50.5t-81 144.5v247q0 92 82 145.5t219 53.5t219 -53.5t82 -145.5zM274 322l969 970q4 -4 11 -12t22 -30.5t22.5 -43.5t4 -47.5t-24.5 -46.5l-969 -971q-4 4 -11 12t-22 30.5t-22.5 44t-4 48t24.5 46.5zM1354 229v142q0 66 -35.5 98.5 t-130.5 32.5q-99 0 -132.5 -32t-33.5 -99v-142q0 -69 33.5 -100t132.5 -31q96 0 131 31.5t35 99.5zM557 1063v141q0 66 -35.5 98.5t-130.5 32.5q-99 0 -132.5 -32t-33.5 -99v-141q0 -69 33.5 -100t132.5 -31q96 0 131 31.5t35 99.5zM1808 657v142q0 66 -35.5 98.5 t-130.5 32.5q-99 0 -132 -32t-33 -99v-142q0 -69 33 -100t132 -31q96 0 131 31.5t35 99.5z" />
<glyph unicode="&#x2039;" horiz-adv-x="851" d="M287 512l401 -401q-2 -3 -5.5 -8.5t-14.5 -19t-22.5 -23.5t-28 -18.5t-31.5 -8.5q-30 0 -54 24l-356 357q-53 53 -53 98t55 100l410 410q9 -5 22 -14.5t34.5 -37t21.5 -52.5t-25 -50z" />
<glyph unicode="&#x203a;" horiz-adv-x="851" d="M164 111l401 401l-354 356q-25 25 -25 50t19.5 51t38.5 39l20 14l410 -410q55 -55 55 -100t-53 -98l-357 -357q-24 -24 -53 -24q-24 0 -49.5 19.5t-38.5 39.5z" />
<glyph unicode="&#x2044;" horiz-adv-x="1142" d="M70 322l968 970q4 -4 11 -12t22 -30.5t22.5 -43.5t4 -47.5t-24.5 -46.5l-969 -971q-4 4 -11 12t-21.5 30.5t-22 44t-4 48t24.5 46.5z" />
<glyph unicode="&#x205f;" horiz-adv-x="498" />
<glyph unicode="&#x20ac;" horiz-adv-x="1253" d="M688 1307q-184 0 -278.5 -80t-94.5 -271v-47h660q0 -6 -1 -15t-9 -32.5t-21.5 -41.5t-43 -33t-69.5 -15h-516v-139h537q0 -6 -1 -15t-8.5 -32.5t-21 -41.5t-43 -33t-69.5 -15h-394v-17q0 -191 95 -271.5t278 -80.5q98 0 183 23.5t141.5 74.5t56.5 119q59 -89 46.5 -158 t-78 -116t-157.5 -71t-192 -24q-93 0 -172.5 15.5t-149 51t-118.5 89.5t-77 135t-28 183v536q0 102 28 183t77 135t118.5 89t149 50.5t172.5 15.5t177.5 -24t144 -70.5t68.5 -115.5t-50 -158q0 68 -52.5 119t-128.5 74.5t-159 23.5z" />
<glyph unicode="&#x2122;" horiz-adv-x="2111" d="M725 1147v180h-184v-676q-5 0 -14.5 0.5t-32.5 4.5t-41 11t-32.5 22t-14.5 36v602h-181v-180q-5 1 -13.5 2t-29.5 7t-37 14t-29.5 22.5t-13.5 32.5v209h744v-209q0 -28 -30 -47.5t-60 -25.5zM1823 725v436q0 49 6 84l-297 -469q-10 0 -26.5 2.5t-53 21t-57.5 50.5 l-246 383q6 -69 6 -72v-510q-5 0 -14.5 0.5t-32.5 4.5t-41 11t-32.5 22t-14.5 36v709h86q9 0 23 -2t47 -20t53 -50l260 -424l309 496h37q5 0 13.5 -0.5t29.5 -4.5t37 -11t29.5 -22t13.5 -36v-709q-5 0 -14.5 0.5t-32.5 4.5t-41 11t-32.5 22t-14.5 36z" />
<glyph unicode="&#x2202;" horiz-adv-x="1609" d="M997 1063h-872q-29 0 -50 13t-31 31.5t-16 37.5t-7 32l-1 13h1004q188 0 305 -89.5t117 -236.5q0 -72 -32.5 -124.5t-92.5 -59.5q29 63 29 123q0 118 -90 187.5t-263 72.5zM580 276q14 -2 38 -2q68 0 112 27t64.5 72.5t32.5 101.5t22.5 117t26.5 115t52 100.5t92 69.5 q43 16 82 16q75 0 131.5 -53t56.5 -140q0 -37 -12 -67q50 18 94 18q98 0 157.5 -73.5t59.5 -167.5q0 -95 -51 -176.5t-133 -134t-180.5 -82t-196.5 -29.5q-104 0 -195 30t-160.5 96.5t-92.5 161.5z" />
<glyph unicode="&#x220f;" horiz-adv-x="1609" d="M1030 276q-23 -95 -92.5 -161.5t-160.5 -96.5t-195 -30q-98 0 -197 29.5t-180.5 82t-133 134t-51.5 176.5q0 94 60 167.5t158 73.5q44 0 94 -18q-13 33 -13 67q0 87 57 140t132 53q39 0 82 -16q56 -23 92 -69.5t52 -100.5t26 -115t22 -117t32.5 -101.5t64.5 -72.5 t112 -27q25 0 39 2zM1485 1063h-873q-173 -3 -262.5 -72t-89.5 -188q0 -60 29 -123q-60 7 -92.5 59.5t-32.5 124.5q0 147 117 236.5t305 89.5h1003q0 -5 -1 -13.5t-6.5 -30.5t-15.5 -39t-31 -30.5t-50 -13.5z" />
<glyph unicode="&#x2211;" horiz-adv-x="1742" d="M809 14q41 72 41 127q0 43 -24 79.5t-62 64t-84 54.5t-92 56.5t-84 62.5t-62 80.5t-24 104.5q0 94 57 149.5t135 55.5q79 0 135 -53q-2 14 -2 41q7 77 70.5 130.5t140.5 53.5q68 0 125 -26t97 -70.5t68 -103.5t41 -124t13 -133q0 -101 -31 -198.5t-88 -176.5 t-146.5 -127.5t-196.5 -48.5q-4 0 -13.5 1t-13.5 1zM143 268v363q0 190 88 312t234 122q84 0 137.5 -32.5t63.5 -96.5q-57 29 -121 29q-123 0 -197 -91t-74 -270v-309q0 -83 25.5 -154t78 -129t143 -91.5t210.5 -33.5h264q119 0 211.5 33.5t148.5 91t84.5 129.5t28.5 154 v450q0 180 -72 270.5t-194 90.5q-53 0 -121 -21q10 58 63.5 87.5t137.5 29.5q146 0 231.5 -119.5t85.5 -310.5v-504q0 -220 -161.5 -359.5t-444.5 -139.5h-264q-141 0 -253.5 38t-184.5 105t-110 157.5t-38 198.5z" />
<glyph unicode="&#x2212;" horiz-adv-x="1017" d="M221 598h647q1 -6 3 -16t2 -35t-5.5 -44.5t-23.5 -35.5t-47 -16h-647q-1 6 -2.5 16t-1.5 35t5.5 44.5t23 35.5t46.5 16z" />
<glyph unicode="&#x221a;" horiz-adv-x="1136" d="M367 168l-58 22q-76 50 -76 127q0 60 52.5 122t148.5 141q-129 41 -209 41q-42 0 -68.5 -15t-56.5 -51q-8 31 -8 66q0 63 41 105t135 42q63 0 221 -68q-12 55 -25 95.5t-34 82t-53.5 68t-75.5 35.5q63 59 127 59q72 0 126 -88t71 -243q62 54 108.5 122.5t46.5 118.5 q0 43 -12 68l57 -25q78 -45 78 -125q0 -112 -201 -260q123 -45 207 -45q40 0 68.5 16.5t58.5 51.5q8 -50 8 -68q0 -60 -42 -102.5t-134 -42.5q-23 0 -54 8t-51 15.5t-60.5 25t-53.5 22.5q39 -256 187 -282q-64 -64 -127 -64q-74 0 -128 85.5t-71 240.5q-65 -49 -111.5 -117 t-46.5 -119q0 -22 15 -65z" />
<glyph unicode="&#x221e;" horiz-adv-x="1327" d="M598 1542l64 -61h4l63 61q90 90 90 141q0 24 -12 48q29 -10 54.5 -25t46.5 -40t26.5 -54t-15 -67.5t-69.5 -78.5l-84 -67q50 -49 96 -101.5t103.5 -133.5t99 -161.5t70 -181.5t28.5 -198v-643q-7 0 -18.5 0.5t-41 5.5t-52.5 14.5t-41.5 31t-18.5 50.5v502h-655v-604 q-7 0 -18.5 0.5t-41 5.5t-52.5 14.5t-41.5 31t-18.5 50.5v541q0 97 28.5 198.5t70 182t98.5 161.5t103 133.5t95 100.5l-82 67q-49 40 -69.5 78.5t-15 67.5t26.5 54t46.5 40t54.5 25q-12 -24 -12 -48q0 -51 90 -141zM664 1305q-12 -13 -31.5 -35.5t-72 -90.5t-94 -135 t-80 -157.5t-48.5 -167.5h649q-9 77 -46 166t-82.5 160.5t-90 132t-74.5 94.5z" />
<glyph unicode="&#x222b;" horiz-adv-x="1742" d="M934 14q-4 0 -13.5 -1t-13.5 -1q-107 0 -197 48.5t-146.5 127.5t-88 176.5t-31.5 198.5q0 68 13 133t41 124t68 103.5t97 70.5t125 26q77 0 140.5 -53.5t70.5 -130.5q0 -27 -2 -41q56 53 136 53q78 0 135 -55.5t57 -149.5q0 -57 -24 -104.5t-62 -80.5t-84 -62.5 t-92 -56.5t-84 -54.5t-62 -64t-24 -79.5q0 -55 41 -127zM1599 631v-363q0 -108 -38 -198.5t-110 -157.5t-184 -105t-253 -38h-264q-283 0 -445 139.5t-162 359.5v504q0 190 86 310t232 120q84 0 137.5 -29.5t63.5 -87.5q-68 21 -121 21q-122 0 -194.5 -91t-72.5 -270v-450 q0 -82 28.5 -154t84.5 -129.5t149 -91t212 -33.5h264q120 0 210.5 33.5t142.5 91.5t77.5 129t25.5 154v309q0 179 -73.5 270t-196.5 91q-64 0 -121 -29q10 64 63.5 96.5t137.5 32.5q146 0 233.5 -122t87.5 -312z" />
<glyph unicode="&#x2248;" horiz-adv-x="1300" d="M90 616q-8 46 -8 70q0 58 44.5 95.5t143.5 37.5q92 0 381.5 -53t388.5 -53q127 0 170 59q1 -9 5 -30.5t4 -34.5q0 -62 -43.5 -101t-145.5 -39q-93 0 -382 53.5t-386 53.5q-130 0 -172 -58zM90 291q-8 46 -8 69q0 58 44.5 96t143.5 38q92 0 381.5 -53.5t388.5 -53.5 q127 0 170 59q1 -9 5 -30.5t4 -34.5q0 -61 -43.5 -100t-145.5 -39q-93 0 -382 53t-386 53q-130 0 -172 -57z" />
<glyph unicode="&#x2260;" horiz-adv-x="1017" d="M221 762h307l70 262q2 -1 5.5 -2t14.5 -5t19.5 -9t20 -13.5t16.5 -18t9 -22t-3 -26.5l-45 -166h233q1 -6 3 -16t2 -35.5t-5.5 -45t-23.5 -35.5t-47 -16h-201l-45 -168h317q1 -6 3 -16t2 -35t-5.5 -44.5t-23.5 -35.5t-47 -16h-285l-78 -291q-2 1 -5.5 2t-14.5 5t-19.5 9 t-20 13.5t-16.5 18t-9 22t3 26.5l51 195h-253q-1 6 -2.5 16t-1.5 35t5.5 44.5t23 35.5t46.5 16h221l45 168h-337q-1 6 -2.5 16t-1.5 35.5t5.5 45t23 35.5t46.5 16z" />
<glyph unicode="&#x2264;" horiz-adv-x="817" d="M287 758l401 -402q-2 -3 -5.5 -8.5t-14.5 -18.5t-22.5 -23t-28 -18.5t-31.5 -8.5q-30 0 -54 24l-356 356q-53 53 -53 99q0 45 55 100l410 410q3 -2 8.5 -5.5t19 -15t23.5 -23t18.5 -28.5t8.5 -33q0 -24 -25 -49zM213 147h475q1 -6 2.5 -16t1.5 -35t-5.5 -44.5 t-23.5 -35.5t-47 -16h-475q-1 6 -2.5 16t-1 35t6 44.5t23 35.5t46.5 16z" />
<glyph unicode="&#x2265;" horiz-adv-x="815" d="M127 356l401 402l-354 356q-24 24 -24 49q0 16 8 32.5t19 29t22.5 22.5t19.5 15l8 6l410 -410q55 -55 55 -100q0 -46 -53 -99l-356 -356q-24 -24 -54 -24q-24 0 -49.5 19.5t-39.5 38.5zM201 147h475q1 -6 2.5 -16t1.5 -35t-5.5 -44.5t-23.5 -35.5t-47 -16h-475 q-1 6 -2.5 16t-1 35t6 44.5t23 35.5t46.5 16z" />
<glyph unicode="&#x25ca;" horiz-adv-x="1705" d="M387 1255l51 -47q40 4 66 4q147 0 424.5 -62t378.5 -118l51 27q92 47 92 96q0 22 -16 53q155 -75 155 -153q0 -54 -78 -99l-77 -47q26 -68 28 -102l51 -461q3 -27 3 -53q0 -145 -108 -224t-327 -79q-94 0 -198 14q-343 42 -518 171t-175 321q0 7 5 57l61 479q8 56 37 105 l-84 77q-99 89 -96 146q0 25 17.5 43t47 27.5t60.5 13.5t65 4q-24 -17 -24 -43q0 -50 108 -150zM676 295l422 -62q3 0 10 -1t10 -1q66 0 95.5 34t29.5 87q0 13 -4 41l-16 56q-24 -27 -47.5 -36.5t-65.5 -9.5l-451 72q-40 10 -65 28.5t-53 53.5l-17 -51q-4 -28 -4 -41 q0 -61 36.5 -107t119.5 -63zM1239 707l-10 149l-182 37q-48 0 -48 -35l2 -151l187 -35h10q18 0 29.5 7.5t11.5 20.5v7zM541 987l-11 -156q0 -18 16 -33.5t40 -21.5l198 -33l4 156q0 14 -15.5 30.5t-35.5 20.5z" />
<glyph unicode="&#xe000;" horiz-adv-x="1034" d="M0 1034h1034v-1034h-1034v1034z" />
<glyph unicode="&#xfb06;" horiz-adv-x="1837" d="M1130 305v676q0 124 -36.5 180t-120.5 56q-70 0 -119 -49t-49 -134q0 -38 12 -76q45 -45 45 -106q0 -73 -59 -164q0 106 -81 161.5t-239 55.5q-138 0 -187.5 -40t-49.5 -136q0 -43 28.5 -69.5t74.5 -35.5t105.5 -17t121 -12.5t121 -23.5t105.5 -49t74.5 -90t28.5 -145 q0 -144 -108 -228t-314 -84q-112 0 -198.5 20.5t-141.5 67t-55 115.5q0 72 55 158q0 -106 89.5 -161.5t250.5 -55.5q147 0 202.5 46t55.5 132q0 59 -36.5 93.5t-94.5 46.5t-128 18t-140.5 17t-128.5 34.5t-94.5 79.5t-36.5 143q0 155 103 237.5t298 82.5q126 0 224 -29 q-11 32 -11 72q0 108 87.5 179.5t211.5 71.5q134 0 216.5 -77t82.5 -234v-39h428q0 -6 -1 -15.5t-6.5 -33.5t-15 -43t-30.5 -34t-49 -15h-326v-490q0 -118 48.5 -180.5t164.5 -62.5q111 0 186.5 58.5t75.5 158.5q56 -82 56 -152q0 -98 -99.5 -153.5t-234.5 -55.5 q-166 0 -263.5 88t-97.5 242z" />
<glyph horiz-adv-x="573" />
<glyph horiz-adv-x="1001" d="M395 1229q12 36 26 77.5t19 57t10.5 35.5t7 32t1.5 29q0 55 -43 88q24 4 43 4q58 0 99.5 -26.5t41.5 -85.5q0 -42 -27 -107l-71 -168q-26 -8 -53 -8q-58 0 -58 45q0 17 4 27z" />
<glyph horiz-adv-x="1869" d="M885 336q59 -89 53 -156.5t-64 -113t-143.5 -68.5t-185.5 -23q-196 0 -309 87.5t-113 242.5v414q0 155 113 242.5t309 87.5q106 0 194 -31q-10 31 -10 74q0 108 87.5 179.5t211.5 71.5q134 0 216.5 -77t82.5 -234v-39h428q0 -6 -1 -15.5t-6.5 -33.5t-15 -43t-30.5 -34 t-49 -15h-326v-490q0 -118 48.5 -180.5t164.5 -62.5q111 0 186.5 58.5t75.5 158.5q56 -82 56 -152q0 -98 -99.5 -153.5t-234.5 -55.5q-166 0 -263.5 88t-97.5 242v676q0 124 -36.5 180t-120.5 56q-70 0 -119 -49t-49 -134q0 -38 8 -78q113 -104 -2 -268q0 102 -84.5 159.5 t-202.5 57.5q-140 0 -205 -54t-65 -163v-352q0 -109 65 -163t205 -54q141 0 234.5 57t93.5 160z" />
<glyph horiz-adv-x="2086" d="M2015 856v-516l-229 -135v-283l-494 -262l-245 131l-250 -131l-494 262v283l-231 135v516l231 133v281l494 264l250 -133l245 133l494 -264v-281zM1921 365v464l-209 121v254l-446 236l-219 -121l-226 121l-444 -236v-254l-211 -121v-464l211 -119v-256l444 -238l226 123 l219 -123l446 238v256zM1833 805v-416l-188 -110v-228l-400 -213l-198 109l-205 -109l-398 213v228l-186 110v416l186 110v228l398 213l205 -111l198 111l400 -213v-228zM754 1087v-892q0 -31 20 -54t48 -33.5t56 -16.5t48 -7h20v428h260q40 0 69.5 16t43 38.5t21.5 45 t9 38.5l1 16h-404v272h383q29 0 50 15.5t30.5 37t15.5 43.5t7 38v15h-678z" />
<glyph horiz-adv-x="512" d="M164 -74h47h100q14 0 25.5 -12t11.5 -27v-88q0 -254 -135 -254q-50 0 -92 27q29 6 46.5 29t22 57t3.5 63t-5 60z" />
<glyph horiz-adv-x="684" d="M143 88v1159q0 144 76 231t201 87q142 0 168 -99q-91 0 -147.5 -16.5t-85.5 -56t-38.5 -88t-9.5 -129.5v-183h387q0 -6 -1 -15.5t-6.5 -33.5t-15 -43t-30.5 -34t-49 -15h-285v-866q-7 0 -18 0.5t-39 6t-50 15t-39.5 30.5t-17.5 50z" />
<glyph horiz-adv-x="1368" d="M991 1176v-183h387q0 -6 -1 -15.5t-6.5 -33.5t-15 -43t-30.5 -34t-49 -15h-285v-866q-7 0 -18 0.5t-39 6t-50 15t-39.5 30.5t-17.5 50v764h-520v-866q-7 0 -18 0.5t-39 6t-50 15t-39.5 30.5t-17.5 50v1088q0 151 115 240t285 89q97 0 180 -24.5t133 -67.5q29 70 96 111 t152 41q142 0 168 -99q-91 0 -147.5 -16.5t-85.5 -56t-38.5 -88t-9.5 -129.5zM307 1145v-152h520v203q0 80 -81.5 123t-202.5 43q-114 0 -175 -55.5t-61 -161.5z" />
<glyph horiz-adv-x="684" d="M143 88v1180q0 99 60 176t147 115t180 38q133 0 223.5 -47.5t90.5 -138.5q0 -66 -56 -125q0 81 -75.5 124.5t-182.5 43.5q-89 0 -156 -58t-67 -159v-244h387q0 -6 -1 -15.5t-6.5 -33.5t-15 -43t-30.5 -34t-49 -15h-285v-866q-7 0 -18 0.5t-39 6t-50 15t-39.5 30.5 t-17.5 50z" />
<glyph horiz-adv-x="1368" d="M991 1237v-244h387q0 -6 -1 -15.5t-6.5 -33.5t-15 -43t-30.5 -34t-49 -15h-285v-866q-7 0 -18 0.5t-39 6t-50 15t-39.5 30.5t-17.5 50v764h-520v-866q-7 0 -18 0.5t-39 6t-50 15t-39.5 30.5t-17.5 50v1088q0 151 115 240t285 89q104 0 190 -25t129 -73q48 88 147.5 139 t204.5 51q133 0 223.5 -47.5t90.5 -138.5q0 -67 -55 -125q0 81 -76 124.5t-183 43.5q-89 0 -156 -58t-67 -159zM307 1145v-152h520v203q-1 54 -41.5 92.5t-102.5 56t-140 17.5q-114 0 -175 -55.5t-61 -161.5z" />
<glyph horiz-adv-x="1294" d="M1151 1087v-741q0 -181 -136 -276t-368 -95t-368 95t-136 276v741q0 181 136 276t368 95t368 -95t136 -276zM979 377v680q0 137 -79 198.5t-253 61.5t-253 -61.5t-79 -198.5v-680q0 -137 79 -198.5t253 -61.5t253 61.5t79 198.5z" />
<glyph horiz-adv-x="1294" d="M430 1434q88 0 179 5t137 10l47 5q-19 -102 -19 -192v-1110h350q1 -6 3 -16.5t2 -36.5t-5.5 -46t-23.5 -36.5t-47 -16.5h-811q-1 6 -2.5 16.5t-1.5 36.5t5.5 46t23 36.5t46.5 16.5h289v1136q-105 -6 -160 -6q-196 0 -196 -156q-58 79 -58 146q0 81 65 121.5t177 40.5z " />
<glyph horiz-adv-x="1294" d="M166 0v180q0 105 44 186.5t114 134t155 95.5t169.5 82t154.5 82.5t114 108t44 147.5v35q0 113 -80 184.5t-232 71.5q-113 0 -202 -23t-150 -81t-61 -146q-50 80 -50 148t39.5 114t107.5 78t148.5 46.5t167.5 14.5q213 0 348.5 -101.5t135.5 -269.5v-81q0 -88 -27 -159 t-73 -119t-106 -87.5t-126 -69t-131.5 -58t-125.5 -60t-106 -69t-73 -92t-27 -122.5v-18h668q44 0 80 5t50 10l15 5q0 -7 -0.5 -18.5t-7.5 -41t-18.5 -52.5t-37 -41.5t-59.5 -18.5h-862z" />
<glyph horiz-adv-x="1294" d="M1151 414v-62q0 -170 -139 -273.5t-365 -103.5q-93 0 -177.5 14.5t-154.5 47t-110.5 78t-41 113.5t49.5 149q0 -88 62 -146t156 -81t216 -23q165 0 248.5 71t83.5 185q0 250 -244 279q-39 6 -55 19q-38 33 -33 126h17q161 3 227.5 61.5t66.5 188.5q0 112 -79.5 181 t-231.5 69q-83 0 -154.5 -13.5t-131 -42t-94 -78.5t-34.5 -116q-50 80 -50 148t40 114t107.5 78t148.5 46.5t168 14.5q213 0 348 -101.5t135 -269.5v-51q0 -111 -49.5 -191t-152.5 -108q111 -31 167 -120t56 -203z" />
<glyph horiz-adv-x="1294" d="M199 418h-72q6 103 74 242.5t159 265t193 246.5t170 191.5t96 94.5q7 0 19 -1t42.5 -7t53.5 -15.5t42 -30.5t19 -48v-801h158q0 -11 -2.5 -26t-10.5 -44t-31.5 -48t-57.5 -19h-56v-438q-13 0 -32.5 2.5t-55.5 10.5t-60 31.5t-24 57.5v336h-624zM836 1270q-18 -39 -43 -64 q-133 -133 -274 -320.5t-191 -330.5h495v569q0 30 3.5 66.5t6.5 57.5z" />
<glyph horiz-adv-x="1294" d="M399 922h219q239 0 373.5 -93.5t134.5 -287.5v-189q0 -182 -136 -279.5t-367 -97.5q-53 0 -106 5t-111.5 17.5t-107 31.5t-87.5 51t-57.5 72.5t-11 98.5t45.5 126q0 -67 35 -116.5t96.5 -78t137.5 -42t166 -13.5q168 0 249.5 58.5t81.5 193.5v135q0 266 -331 266h-261 l-133 -2q11 44 11 142v352q0 7 0.5 17.5t6 38.5t15 49.5t30.5 39t50 17.5h563q44 0 80.5 5t50.5 10l15 5q0 -7 -0.5 -18.5t-7.5 -41t-18.5 -52.5t-37 -41.5t-59.5 -18.5h-516v-246q0 -33 -3 -61.5t-7 -40.5z" />
<glyph horiz-adv-x="1294" d="M1151 512v-166q0 -181 -136 -276t-368 -95t-368 95t-136 276v741q0 181 136 276t368 95q95 0 178 -12.5t154 -43t111 -75t40.5 -114.5t-49.5 -156q0 88 -62 146t-156 81t-216 23q-176 0 -254 -57t-78 -193v-176q0 -27 -2 -62t-4 -57l-2 -21q4 6 12.5 15.5t40 34t69 43 t102 34t137.5 15.5q219 0 351 -95.5t132 -275.5zM647 117q174 0 253 61.5t79 198.5v104q0 137 -75.5 198.5t-235.5 61.5q-345 0 -353 -245v-119q0 -137 79 -198.5t253 -61.5z" />
<glyph horiz-adv-x="1294" d="M1008 1282h-723q-44 0 -80.5 -5t-50.5 -10l-15 -5q0 7 0.5 18.5t7.5 41t18.5 52.5t37 41.5t59.5 18.5h934q0 -138 -39 -264.5t-101.5 -224.5t-137.5 -190t-150.5 -179t-138 -174t-101.5 -191.5t-39 -214.5q-30 -16 -63 -16q-104 0 -104 75q0 97 32.5 191t86 175 t119 161.5t136 162t132 162.5t110.5 179t70 196z" />
<glyph horiz-adv-x="1294" d="M143 346v72q0 214 203 309q-182 86 -182 299v61q0 180 132 275.5t351 95.5t351 -95.5t132 -275.5v-61q0 -213 -182 -299q203 -95 203 -309v-66q0 -182 -136.5 -279.5t-367.5 -97.5q-232 0 -368 95t-136 276zM979 383q0 139 -80 205.5t-252 66.5t-252 -67.5t-80 -210.5 q0 -137 79 -198.5t253 -61.5q173 0 252.5 64t79.5 202zM336 1057q0 -137 66.5 -197t228.5 -63h33q162 3 228 63t66 197t-75.5 198.5t-235.5 61.5t-235.5 -61.5t-75.5 -198.5z" />
<glyph horiz-adv-x="1294" d="M143 926v161q0 181 136 276t368 95t368 -95t136 -276v-741q0 -181 -136 -276t-368 -95q-95 0 -178 12.5t-154 43t-111 75.5t-40.5 115t49.5 156q0 -88 62 -146t156 -81t216 -23q176 0 254 57t78 193v180q0 27 2 62t4 56l2 21q-4 -6 -12.5 -15.5t-39.5 -33.5t-68.5 -43 t-102 -34t-137.5 -15q-219 0 -351.5 95.5t-132.5 275.5zM647 1317q-174 0 -253 -61.5t-79 -198.5v-101q0 -136 76 -198t236 -62q352 0 352 246v115q0 137 -79 198.5t-253 61.5z" />
</font>
</defs>
</svg>
